<svg width="26" height="25" viewBox="0 0 26 25" fill="none" xmlns="http://www.w3.org/2000/svg">
<g clip-path="url(#clip0_291_1175)">
<path d="M23.541 0.0507812H22.7598V2.83398C22.7598 3.23848 22.4318 3.56641 22.0273 3.56641C21.6229 3.56641 21.2949 3.23848 21.2949 2.83398V0.0507812H16.9004V2.83398C16.9004 3.23848 16.5725 3.56641 16.168 3.56641C15.7635 3.56641 15.4355 3.23848 15.4355 2.83398V0.0507812H11.041V2.83398C11.041 3.23848 10.7131 3.56641 10.3086 3.56641C9.9041 3.56641 9.57617 3.23848 9.57617 2.83398V0.0507812H5.18164V2.83398C5.18164 3.23848 4.85371 3.56641 4.44922 3.56641C4.04473 3.56641 3.7168 3.23848 3.7168 2.83398V0.0507812H2.93555C1.72397 0.0507812 0.738281 1.03647 0.738281 2.24805V5.91016H25.7383V2.24805C25.7383 1.03647 24.7526 0.0507812 23.541 0.0507812Z" fill="#094876"/>
<path d="M11.041 -1.26758C11.041 -1.67207 10.7131 -2 10.3086 -2C9.9041 -2 9.57617 -1.67207 9.57617 -1.26758V0.0507812H11.041V-1.26758Z" fill="#094876"/>
<path d="M22.7598 -1.26758C22.7598 -1.67207 22.4318 -2 22.0273 -2C21.6229 -2 21.2949 -1.67207 21.2949 -1.26758V0.0507812H22.7598V-1.26758Z" fill="#094876"/>
<path d="M16.9004 -1.26758C16.9004 -1.67207 16.5725 -2 16.168 -2C15.7635 -2 15.4355 -1.67207 15.4355 -1.26758V0.0507812H16.9004V-1.26758Z" fill="#094876"/>
<path d="M5.18164 -1.26758C5.18164 -1.67207 4.85371 -2 4.44922 -2C4.04473 -2 3.7168 -1.67207 3.7168 -1.26758V0.0507812H5.18164V-1.26758Z" fill="#094876"/>
<path d="M5.96533 15.8217H7.08398L6.52725 14.3464L5.96533 15.8217Z" fill="#094876"/>
<path d="M0.738281 7.375V20.8027C0.738281 22.0143 1.72397 23 2.93555 23H23.541C24.7526 23 25.7383 22.0143 25.7383 20.8027V7.375H0.738281ZM8.89956 18.5582C8.52109 18.701 8.09854 18.51 7.95571 18.1315L7.63682 17.2865H5.40747L5.08481 18.1336C4.94087 18.5116 4.51768 18.7013 4.1397 18.5574C3.76167 18.4134 3.57197 17.9902 3.71592 17.6123L5.73276 12.3167C5.73486 12.3112 5.73701 12.3058 5.73926 12.3003C5.87095 11.9782 6.18086 11.7698 6.52891 11.7694H6.52993C6.87378 11.7694 7.1855 11.9749 7.31733 12.2925C7.32095 12.3011 7.32441 12.3098 7.32773 12.3186L9.32627 17.6143C9.46904 17.9928 9.27803 18.4154 8.89956 18.5582ZM15.325 16.1938C15.325 16.8405 15.0794 17.735 13.9097 18.324C13.5391 18.5107 13.1308 18.6053 12.6961 18.6053C12.6947 18.6053 12.6934 18.6053 12.692 18.6053C12.1869 18.6046 11.7215 18.4706 11.3088 18.2071C10.5252 17.7063 10.128 17.0304 10.128 16.1978V12.5019C10.128 12.0974 10.4559 11.7694 10.8604 11.7694C11.2649 11.7694 11.5928 12.0974 11.5928 12.5019V16.1978C11.5928 16.4771 11.6772 16.7042 12.0974 16.9727C12.2737 17.0853 12.4689 17.1402 12.6941 17.1405H12.6962C12.9027 17.1405 13.0842 17.0997 13.2509 17.0158C13.7877 16.7454 13.8602 16.4486 13.8602 16.1938V12.5019C13.8602 12.0974 14.1881 11.7694 14.5926 11.7694C14.9971 11.7694 15.325 12.0974 15.325 12.5019V16.1938H15.325ZM19.7579 18.6054C17.8732 18.6054 16.3399 17.0721 16.3399 15.1874C16.3399 13.3027 17.8732 11.7695 19.7579 11.7695C20.4428 11.7695 21.1038 11.9715 21.6694 12.3537C22.0045 12.5801 22.0927 13.0354 21.8663 13.3706C21.6397 13.7058 21.1845 13.7939 20.8493 13.5675C20.5268 13.3496 20.1494 13.2344 19.7578 13.2344C18.6809 13.2344 17.8047 14.1105 17.8047 15.1875C17.8047 16.2644 18.6809 17.1406 19.7578 17.1406C20.6153 17.1406 21.0675 16.576 21.248 15.9199H20.4694C20.0649 15.9199 19.737 15.5919 19.737 15.1875C19.737 14.783 20.0649 14.455 20.4694 14.455H22.0762C22.4807 14.455 22.8086 14.783 22.8086 15.1875C22.8086 17.1999 21.5541 18.6054 19.7579 18.6054Z" fill="#094876"/>
</g>
<defs>
<clipPath id="clip0_291_1175">
<rect width="25" height="25" fill="white" transform="translate(0.738281)"/>
</clipPath>
</defs>
</svg>
