<svg width="25" height="25" viewBox="0 0 25 25" fill="none" xmlns="http://www.w3.org/2000/svg">
<g clip-path="url(#clip0_293_3535)">
<path d="M16.156 20.4426H8.84399C9.05151 21.4489 9.30361 22.3863 9.59751 23.2338C10.419 25.6027 11.5041 27 12.5 27C13.4959 27 14.581 25.6027 15.4025 23.2338C15.6964 22.3863 15.9485 21.4489 16.156 20.4426Z" fill="#094876"/>
<path d="M7.34844 20.4426H1.65918C3.33403 23.4826 6.17554 25.8029 9.60498 26.6489C8.45376 24.9614 7.74727 22.494 7.34844 20.4426Z" fill="#094876"/>
<path d="M15.3953 26.6489C18.8125 25.8059 21.6611 23.492 23.3411 20.4426H17.6518C17.253 22.4938 16.5465 24.9614 15.3953 26.6489Z" fill="#094876"/>
<path d="M6.68945 13.1425H0.732422C0.32793 13.1425 0 13.4865 0 13.9109C0 15.6535 0.322266 17.3432 0.936768 18.9058H7.08833C6.82671 17.1008 6.68945 15.1504 6.68945 13.1425Z" fill="#094876"/>
<path d="M24.2675 13.1425H18.3105C18.3105 15.1504 18.1732 17.1008 17.9116 18.9058H24.0632C24.6777 17.3432 25 15.6535 25 13.9109C25 13.4865 24.672 13.1425 24.2675 13.1425Z" fill="#094876"/>
<path d="M16.4302 18.9058C16.7025 17.1166 16.8457 15.1631 16.8457 13.1425H8.1543C8.1543 15.1631 8.29756 17.1166 8.56982 18.9058H16.4302Z" fill="#094876"/>
<path d="M8.05664 4.8802L6.89629 4.32369C6.70288 4.23097 6.48066 4.23097 6.28726 4.32369L4.57827 5.14337C4.31763 5.26842 4.15039 5.54152 4.15039 5.84224V11.6056H8.05664V4.8802Z" fill="#094876"/>
<path d="M20.8496 5.84224C20.8496 5.54152 20.6824 5.26842 20.4217 5.14337L18.7127 4.32369C18.5193 4.23097 18.2971 4.23097 18.1037 4.32369L16.9434 4.8802V11.6056H20.8496V5.84224Z" fill="#094876"/>
<path d="M12.5 10.8115C12.8804 10.8115 13.2324 11.1211 13.2324 11.6055H15.4785V3.99795C15.4785 3.57357 15.1506 3.22951 14.7461 3.22951H13.2324V2.76844C13.2324 2.34406 12.9045 2 12.5 2C12.0955 2 11.7676 2.34406 11.7676 2.76844V3.22951H10.2539C9.84941 3.22951 9.52148 3.57357 9.52148 3.99795V11.6055H11.7676C11.7676 11.1224 12.1187 10.8115 12.5 10.8115ZM12.5 5.07403C12.9045 5.07403 13.2324 5.41808 13.2324 5.84247C13.2324 6.26685 12.9045 6.61091 12.5 6.61091C12.0955 6.61091 11.7676 6.26685 11.7676 5.84247C11.7676 5.41808 12.0955 5.07403 12.5 5.07403ZM12.5 7.94288C12.9045 7.94288 13.2324 8.28694 13.2324 8.71132C13.2324 9.13571 12.9045 9.47976 12.5 9.47976C12.0955 9.47976 11.7676 9.13571 11.7676 8.71132C11.7676 8.28694 12.0955 7.94288 12.5 7.94288Z" fill="#094876"/>
</g>
<defs>
<clipPath id="clip0_293_3535">
<rect width="25" height="25" fill="white"/>
</clipPath>
</defs>
</svg>
