<svg width="25" height="25" viewBox="0 0 25 25" fill="none" xmlns="http://www.w3.org/2000/svg">
<g clip-path="url(#clip0_323_543)">
<path d="M2.2958 0C1.20288 0 0.313721 0.88916 0.313721 1.98208V3.18003H4.27793V1.98208C4.27793 0.88916 3.38877 0 2.2958 0Z" fill="#3D2E97"/>
<path d="M11.1718 21.8199V23.0179C11.1718 23.7551 10.9392 24.4389 10.5435 25H22.7042C23.7971 25 24.6863 24.1108 24.6863 23.0179V21.8199H11.1718Z" fill="#3D2E97"/>
<path d="M19.2434 0H5.11328C5.50923 0.561133 5.74277 1.24463 5.74277 1.98208V23.0179C5.74277 24.1108 6.63193 25 7.72485 25C8.81777 25 9.70693 24.1108 9.70693 23.0179V20.3551H21.2254V1.98208C21.2254 0.88916 20.3363 0 19.2434 0ZM19.4871 16.6486H7.4811V15.1838H19.4871V16.6486ZM19.4871 12.9088H7.4811V11.4439H19.4871V12.9088ZM19.4871 9.1689H7.4811V7.70405H19.4871V9.1689ZM19.4871 5.42905H7.4811V3.96421H19.4871V5.42905Z" fill="#3D2E97"/>
</g>
<defs>
<clipPath id="clip0_323_543">
<rect width="25" height="25" fill="white"/>
</clipPath>
</defs>
</svg>
