<svg width="25" height="25" viewBox="0 0 25 25" fill="none" xmlns="http://www.w3.org/2000/svg">
<path d="M0.131015 24.6853C0.267636 24.8819 0.492196 25 0.732528 25H24.2675C24.5078 25 24.7324 24.8819 24.869 24.6853C25.0063 24.4878 25.0378 24.2361 24.9534 24.0108C24.668 23.2476 24.1345 22.5781 23.9177 22.3264C23.779 22.164 23.5758 22.0703 23.362 22.0703H1.63805C1.42418 22.0703 1.22105 22.164 1.08228 22.3264C0.865585 22.5781 0.331991 23.2476 0.0465909 24.0108C-0.0377841 24.2361 -0.00633875 24.4878 0.131015 24.6853Z" fill="#3D2E97"/>
<path d="M2.92969 11.7676H7.37305V20.6055H2.92969V11.7676Z" fill="#3D2E97"/>
<path d="M10.3027 11.7676H14.6973V20.6055H10.3027V11.7676Z" fill="#3D2E97"/>
<path d="M17.627 11.7676H22.0703V20.6055H17.627V11.7676Z" fill="#3D2E97"/>
<path d="M1.58549 10.0871C1.72299 10.2251 1.91434 10.3027 2.1036 10.3027C2.1037 10.3027 2.10384 10.3026 2.10394 10.3026C2.10404 10.3026 2.10419 10.3027 2.10428 10.3022H22.8961C22.8962 10.3027 22.8963 10.3026 22.8964 10.3026C22.8965 10.3026 22.8967 10.3027 22.8968 10.3027C23.086 10.3027 23.2774 10.2251 23.4149 10.0871C23.5639 9.93804 24.6777 8.77813 25.0001 7.37305H0.000183105C0.322693 8.77813 1.43641 9.93804 1.58549 10.0871Z" fill="#3D2E97"/>
<path d="M24.5339 5.90821L12.8276 0.0772341C12.6216 -0.0257447 12.3785 -0.0257447 12.1725 0.0772341L0.466187 5.90821H24.5339Z" fill="#3D2E97"/>
</svg>
