<svg width="26" height="25" viewBox="0 0 26 25" fill="none" xmlns="http://www.w3.org/2000/svg">
<g clip-path="url(#clip0_297_3840)">
<path d="M25.4283 4.98148C25.4283 2.23471 23.1939 0 20.4474 0C19.1012 0 17.8783 0.536913 16.981 1.40757C15.7428 0.992088 14.4492 0.781249 13.128 0.781249C6.3797 0.781249 1.01917 6.25585 1.01917 12.891C1.01917 19.5763 6.4442 25 13.1244 25C19.7784 24.9999 25.2377 19.6177 25.2377 12.891C25.2377 11.3845 24.9647 9.91912 24.4269 8.52943C25.0911 7.3097 25.4283 6.11766 25.4283 4.98148ZM10.4124 14.1072L9.52222 17.9651C9.41895 18.4128 9.05763 18.7106 8.61876 18.7535C8.16788 18.7979 7.76852 18.5689 7.58336 18.1564C7.3715 17.6863 5.7963 14.1913 5.58444 13.7213L6.91847 9.80496C7.03722 9.45633 6.87863 9.07376 6.54806 8.91141L3.88693 7.60443C4.92121 5.79481 6.45065 4.33988 8.30025 3.40043V5.12016C8.30025 5.46615 8.54239 5.76498 8.88087 5.83666C9.40684 5.94808 11.9807 6.49335 12.5064 6.60472C12.9929 6.7077 13.3699 7.07215 13.494 7.54691C13.6104 7.99115 13.5295 7.6826 13.8367 8.8553C13.94 9.25003 13.8487 9.67703 13.5964 9.99393C13.2393 10.4424 10.9112 13.3657 10.553 13.8156C10.485 13.901 10.4369 14.0007 10.4124 14.1072ZM12.3805 23.5094L12.772 22.6835C12.8547 22.5093 12.9483 22.4366 13.1335 22.3327C13.2395 22.2741 13.8788 21.9557 13.9431 21.9319C14.2332 21.8251 14.5646 21.9175 14.7558 22.1687L15.5803 23.2509C14.5362 23.4966 13.4546 23.5841 12.3805 23.5094ZM20.0026 21.0174L19.099 20.4314L18.6842 16.5861C18.6437 16.2127 18.7406 15.8373 18.9566 15.5294L19.5625 14.6671L20.9887 12.6375C21.7576 12.0012 22.686 11.0435 23.4035 10.0993C23.649 11.0033 23.7729 11.9377 23.7729 12.891C23.7729 16.1407 22.319 19.0535 20.0026 21.0174ZM20.4467 11.1638C18.7652 9.62537 16.9316 7.25799 16.9307 4.9828C16.9307 4.98236 16.9307 4.98192 16.9307 4.98148C16.9307 3.05522 18.4959 1.46484 20.4474 1.46484C22.3862 1.46484 23.9635 3.04243 23.9635 4.98148C23.9635 7.26727 22.1339 9.60794 20.4467 11.1638Z" fill="#094876"/>
<path d="M20.4473 6.50927C21.2911 6.50927 21.9751 5.82524 21.9751 4.98144C21.9751 4.13765 21.2911 3.45361 20.4473 3.45361C19.6035 3.45361 18.9194 4.13765 18.9194 4.98144C18.9194 5.82524 19.6035 6.50927 20.4473 6.50927Z" fill="#094876"/>
</g>
<defs>
<clipPath id="clip0_297_3840">
<rect width="25" height="25" fill="white" transform="translate(0.723755)"/>
</clipPath>
</defs>
</svg>
