<svg width="25" height="25" viewBox="0 0 25 25" fill="none" xmlns="http://www.w3.org/2000/svg">
<path d="M8.78387 12.3397C9.21907 12.9081 9.08897 12.4345 9.08897 23.7653C9.08897 24.7793 10.3706 25.3596 11.2739 24.7531C15.1338 22.1263 15.9049 21.8988 15.9049 20.6702C15.9049 12.4131 15.7983 12.8775 16.21 12.3397L22.478 4.63861H2.51593L8.78387 12.3397Z" fill="#094876"/>
<path d="M24.8457 0.62793C24.6218 0.240723 24.1825 0 23.699 0H1.29499C0.250679 0 -0.363792 1.06333 0.235261 1.83594C0.240184 1.84336 0.167263 1.75327 1.32366 3.17383H23.6702C24.6557 1.96323 25.3144 1.44019 24.8457 0.62793Z" fill="#094876"/>
</svg>
