<svg width="25" height="25" viewBox="0 0 25 25" fill="none" xmlns="http://www.w3.org/2000/svg">
<g clip-path="url(#clip0_293_3549)">
<path d="M14.7459 0.781372H11.7674V2.97859C11.7674 3.38342 11.4398 3.71101 11.035 3.71101C10.6302 3.71101 10.3026 3.38342 10.3026 2.97859V0.781372H7.32413C6.91929 0.781372 6.59171 1.10896 6.59171 1.51379V8.10549H15.4783V1.51375C15.4783 1.10896 15.1507 0.781372 14.7459 0.781372Z" fill="#094876"/>
<path d="M24.9225 5.58068C24.7415 5.21877 24.3009 5.07428 23.9397 5.25309L21.8197 6.3131C21.0709 6.68791 20.6052 7.44103 20.6052 8.27863V18.3593H1.46484C0.655811 18.3593 0 19.0152 0 19.8242C0 20.6331 0.655811 21.289 1.46484 21.289H1.59976C1.51768 21.5193 1.46484 21.7634 1.46484 22.0215C1.46484 23.2331 2.45049 24.2187 3.66211 24.2187C4.87373 24.2187 5.85933 23.233 5.85933 22.0215C5.85933 21.7634 5.80649 21.5193 5.72441 21.289H16.3457C16.2636 21.5193 16.2107 21.7634 16.2107 22.0215C16.2107 23.2331 17.1964 24.2187 18.408 24.2187C19.6196 24.2187 20.6052 23.233 20.6052 22.0215C20.6052 21.7634 20.5524 21.5193 20.4703 21.289H20.6052C21.4143 21.289 22.0701 20.6331 22.0701 19.8242C22.0701 19.3875 22.0701 19.2191 22.0701 19.161C22.0701 19.1397 22.0701 19.1333 22.0701 19.1339C22.0701 18.9354 22.0701 17.4386 22.0701 8.27868C22.0701 7.99899 22.2253 7.74797 22.4749 7.6235L24.5949 6.56349C24.9568 6.38244 25.1034 5.94255 24.9225 5.58068ZM3.66206 22.7537C3.25796 22.7537 2.92964 22.4254 2.92964 22.0213C2.92964 21.6172 3.25796 21.2889 3.66206 21.2889C4.06616 21.2889 4.39448 21.6172 4.39448 22.0213C4.39448 22.4254 4.06616 22.7537 3.66206 22.7537ZM18.408 22.7537C18.0039 22.7537 17.6756 22.4254 17.6756 22.0213C17.6756 21.6172 18.0039 21.2889 18.408 21.2889C18.8121 21.2889 19.1404 21.6172 19.1404 22.0213C19.1404 22.4254 18.8121 22.7537 18.408 22.7537Z" fill="#094876"/>
<path d="M7.32412 9.57031V11.7676C7.32412 12.1724 6.99654 12.5 6.5917 12.5C6.18687 12.5 5.85928 12.1724 5.85928 11.7676V9.57031H3.66206C3.25723 9.57031 2.92964 9.8979 2.92964 10.3027V16.8944H10.3026V9.57031H7.32412Z" fill="#094876"/>
<path d="M18.408 9.57036H16.2107V11.7676C16.2107 12.1724 15.8831 12.5 15.4783 12.5C15.0735 12.5 14.7459 12.1724 14.7459 11.7676V9.57031H11.7674V16.8944H19.1404V10.3027C19.1404 9.89795 18.8128 9.57036 18.408 9.57036Z" fill="#094876"/>
</g>
<defs>
<clipPath id="clip0_293_3549">
<rect width="25" height="25" fill="white"/>
</clipPath>
</defs>
</svg>
