<svg width="25" height="20" viewBox="0 0 25 20" fill="none" xmlns="http://www.w3.org/2000/svg">
<path d="M9.28208 4.39533C9.28208 1.97177 7.2001 0 4.64106 0C2.08203 0 0 1.97177 0 4.39533C0 6.8189 2.08198 8.79067 4.64102 8.79067C7.20005 8.79067 9.28208 6.8189 9.28208 4.39533ZM3.81553 6.83818L1.57642 4.7176L2.61221 3.73664L3.81553 4.87626L6.51372 2.32086L7.54951 3.30182L3.81553 6.83818Z" fill="#094876"/>
<path d="M10.7469 4.39533C10.7469 6.15267 9.9146 7.72925 8.604 8.79067H24.9999V0H8.604C9.9146 1.06142 10.7469 2.63795 10.7469 4.39533ZM17.956 2.0508H22.7526V3.4381H17.956V2.0508ZM13.6692 2.0508H16.3126V3.4381H13.6692V2.0508ZM13.6692 5.16357H22.7526V6.55087H13.6692V5.16357Z" fill="#094876"/>
<path d="M10.7469 15.6138C10.7469 17.3661 9.91956 18.9386 8.61545 20H25V11.2092H8.59265C9.90979 12.2708 10.7469 13.8513 10.7469 15.6138ZM17.956 13.26H22.7527V14.6473H17.956V13.26ZM13.6693 13.26H16.3127V14.6473H13.6693V13.26ZM13.6693 16.3728H22.7527V17.7601H13.6693V16.3728Z" fill="#094876"/>
<path d="M4.64102 19.9999C7.20418 19.9999 9.28203 18.032 9.28203 15.6046C9.28203 13.1771 7.20418 11.2092 4.64102 11.2092C2.07785 11.2092 0 13.1771 0 15.6046C0 18.032 2.07785 19.9999 4.64102 19.9999Z" fill="#094876"/>
</svg>
