<svg width="25" height="25" viewBox="0 0 25 25" fill="none" xmlns="http://www.w3.org/2000/svg">
<path fill-rule="evenodd" clip-rule="evenodd" d="M5.88235 17.1875C6.28844 17.1875 6.61765 16.8377 6.61765 16.4062V12.5C6.61765 12.0685 6.28844 11.7187 5.88235 11.7187H2.20588C1.7998 11.7187 1.47059 12.0685 1.47059 12.5V16.4062C1.47059 16.8377 1.7998 17.1875 2.20588 17.1875H5.88235ZM2.94118 15.625V13.2812H5.14706V15.625H2.94118ZM5.88235 25C6.28844 25 6.61765 24.6502 6.61765 24.2187V20.3125C6.61765 19.881 6.28844 19.5312 5.88235 19.5312H2.20588C1.7998 19.5312 1.47059 19.881 1.47059 20.3125V24.2187C1.47059 24.6502 1.7998 25 2.20588 25H5.88235ZM2.94118 23.4375V21.0937H5.14706V23.4375H2.94118ZM0 2.34345V7.03155C0 8.32543 0.988562 9.375 2.20715 9.375H22.7928C24.0109 9.375 25 8.32569 25 7.03155V2.34345C25 1.04957 24.0114 0 22.7929 0H2.20715C0.989134 0 0 1.04931 0 2.34345ZM17.6471 1.5625H22.7929C23.1995 1.5625 23.5294 1.91276 23.5294 2.34345V7.03155C23.5294 7.4622 23.1992 7.8125 22.7929 7.8125H17.6471V1.5625ZM1.47059 2.34345C1.47059 1.9128 1.80082 1.5625 2.20715 1.5625H16.1765V7.8125H2.20715C1.80049 7.8125 1.47059 7.46224 1.47059 7.03155V2.34345ZM21.1712 5.63056C21.4584 5.93563 21.924 5.93563 22.2111 5.63056C22.4982 5.32548 22.4982 4.83082 22.2111 4.52569L21.1082 3.35382C20.821 3.04874 20.3554 3.04874 20.0683 3.35382L18.9654 4.52569C18.6782 4.83077 18.6782 5.32543 18.9654 5.63056C19.2525 5.93563 19.7181 5.93563 20.0052 5.63056L20.5882 5.01111L21.1712 5.63056ZM3.67647 5.46875H10.3025C10.7085 5.46875 11.0377 5.11897 11.0377 4.6875C11.0377 4.25603 10.7085 3.90625 10.3025 3.90625H3.67647C3.27038 3.90625 2.94118 4.25603 2.94118 4.6875C2.94118 5.11897 3.27038 5.46875 3.67647 5.46875ZM8.82353 15.2344H18.0147C18.4208 15.2344 18.75 14.8846 18.75 14.4531C18.75 14.0217 18.4208 13.6719 18.0147 13.6719H8.82353C8.41744 13.6719 8.08824 14.0217 8.08824 14.4531C8.08824 14.8846 8.41744 15.2344 8.82353 15.2344ZM8.82353 23.0469H14.3382C14.7443 23.0469 15.0735 22.6971 15.0735 22.2656C15.0735 21.8342 14.7443 21.4844 14.3382 21.4844H8.82353C8.41744 21.4844 8.08824 21.8342 8.08824 22.2656C8.08824 22.6971 8.41744 23.0469 8.82353 23.0469Z" fill="#094876"/>
</svg>
