<svg width="25" height="25" viewBox="0 0 25 25" fill="none" xmlns="http://www.w3.org/2000/svg">
<g clip-path="url(#clip0_293_3523)">
<path d="M22.8027 2.05078H22.0215V4.83398C22.0215 5.23848 21.6936 5.56641 21.2891 5.56641C20.8846 5.56641 20.5566 5.23848 20.5566 4.83398V2.05078H16.1621V4.83398C16.1621 5.23848 15.8342 5.56641 15.4297 5.56641C15.0252 5.56641 14.6973 5.23848 14.6973 4.83398V2.05078H10.3027V4.83398C10.3027 5.23848 9.9748 5.56641 9.57031 5.56641C9.16582 5.56641 8.83789 5.23848 8.83789 4.83398V2.05078H4.44336V4.83398C4.44336 5.23848 4.11543 5.56641 3.71094 5.56641C3.30645 5.56641 2.97852 5.23848 2.97852 4.83398V2.05078H2.19727C0.985693 2.05078 0 3.03647 0 4.24805V7.91016H25V4.24805C25 3.03647 24.0143 2.05078 22.8027 2.05078Z" fill="#094876"/>
<path d="M10.3027 0.732422C10.3027 0.32793 9.9748 0 9.57031 0C9.16582 0 8.83789 0.32793 8.83789 0.732422V2.05078H10.3027V0.732422Z" fill="#094876"/>
<path d="M22.0215 0.732422C22.0215 0.32793 21.6936 0 21.2891 0C20.8846 0 20.5566 0.32793 20.5566 0.732422V2.05078H22.0215V0.732422Z" fill="#094876"/>
<path d="M16.1621 0.732422C16.1621 0.32793 15.8342 0 15.4297 0C15.0252 0 14.6973 0.32793 14.6973 0.732422V2.05078H16.1621V0.732422Z" fill="#094876"/>
<path d="M4.44336 0.732422C4.44336 0.32793 4.11543 0 3.71094 0C3.30645 0 2.97852 0.32793 2.97852 0.732422V2.05078H4.44336V0.732422Z" fill="#094876"/>
<path d="M5.2271 17.8217H6.34575L5.78901 16.3464L5.2271 17.8217Z" fill="#094876"/>
<path d="M0 9.375V22.8027C0 24.0143 0.985693 25 2.19727 25H22.8027C24.0143 25 25 24.0143 25 22.8027V9.375H0ZM8.16128 20.5582C7.78281 20.701 7.36025 20.51 7.21743 20.1315L6.89854 19.2865H4.66919L4.34653 20.1336C4.20259 20.5116 3.77939 20.7013 3.40142 20.5574C3.02339 20.4134 2.83369 19.9902 2.97764 19.6123L4.99448 14.3167C4.99658 14.3112 4.99873 14.3058 5.00098 14.3003C5.13267 13.9782 5.44258 13.7698 5.79063 13.7694H5.79165C6.1355 13.7694 6.44722 13.9749 6.57905 14.2925C6.58267 14.3011 6.58613 14.3098 6.58945 14.3186L8.58799 19.6143C8.73076 19.9928 8.53975 20.4154 8.16128 20.5582ZM14.5867 18.1938C14.5867 18.8405 14.3412 19.735 13.1714 20.324C12.8008 20.5107 12.3925 20.6053 11.9578 20.6053C11.9564 20.6053 11.9551 20.6053 11.9538 20.6053C11.4486 20.6046 10.9832 20.4706 10.5705 20.2071C9.78691 19.7063 9.3897 19.0304 9.3897 18.1978V14.5019C9.3897 14.0974 9.71763 13.7694 10.1221 13.7694C10.5266 13.7694 10.8545 14.0974 10.8545 14.5019V18.1978C10.8545 18.4771 10.939 18.7042 11.3591 18.9727C11.5354 19.0853 11.7307 19.1402 11.9558 19.1405H11.9579C12.1645 19.1405 12.3459 19.0997 12.5126 19.0158C13.0495 18.7454 13.1219 18.4486 13.1219 18.1938V14.5019C13.1219 14.0974 13.4498 13.7694 13.8543 13.7694C14.2588 13.7694 14.5867 14.0974 14.5867 14.5019V18.1938H14.5867ZM19.0196 20.6054C17.1349 20.6054 15.6016 19.0721 15.6016 17.1874C15.6016 15.3027 17.1349 13.7695 19.0196 13.7695C19.7045 13.7695 20.3655 13.9715 20.9311 14.3537C21.2663 14.5801 21.3544 15.0354 21.128 15.3706C20.9015 15.7058 20.4462 15.7939 20.111 15.5675C19.7885 15.3496 19.4111 15.2344 19.0195 15.2344C17.9426 15.2344 17.0664 16.1105 17.0664 17.1875C17.0664 18.2644 17.9426 19.1406 19.0195 19.1406C19.877 19.1406 20.3292 18.576 20.5098 17.9199H19.7311C19.3266 17.9199 18.9987 17.5919 18.9987 17.1875C18.9987 16.783 19.3266 16.455 19.7311 16.455H21.3379C21.7424 16.455 22.0703 16.783 22.0703 17.1875C22.0703 19.1999 20.8158 20.6054 19.0196 20.6054Z" fill="#094876"/>
</g>
<defs>
<clipPath id="clip0_293_3523">
<rect width="25" height="25" fill="white"/>
</clipPath>
</defs>
</svg>
