<svg width="25" height="25" viewBox="0 0 25 25" fill="none" xmlns="http://www.w3.org/2000/svg">
<g clip-path="url(#clip0_293_3562)">
<path d="M24.068 2.45567L22.2907 2.70963L22.5446 0.93233C22.655 0.15982 21.7141 -0.312348 21.1614 0.240875L17.9008 3.50152C17.7761 3.62623 17.6952 3.78809 17.6702 3.9627L17.3011 6.54669L13.2753 10.5724C12.9565 10.4199 12.604 10.3274 12.2276 10.3274C10.8791 10.3274 9.78214 11.4244 9.78214 12.7729C9.78214 14.1213 10.8791 15.2183 12.2276 15.2183C13.5761 15.2183 14.6731 14.1213 14.6731 12.7729C14.6731 12.3965 14.5806 12.0439 14.428 11.7251L18.4538 7.69937L21.0378 7.33023C21.2124 7.30528 21.3742 7.22437 21.4989 7.09966L24.7596 3.83902C25.3106 3.2879 24.844 2.34693 24.068 2.45567Z" fill="#094876"/>
<path d="M18.8408 9.61772L16.2583 12.2C16.2849 12.3876 16.3034 12.5778 16.3034 12.7727C16.3034 15.0202 14.4751 16.8484 12.2276 16.8484C9.98007 16.8484 8.1518 15.0202 8.1518 12.7727C8.1518 10.5251 9.98003 8.69687 12.2276 8.69687C12.4224 8.69687 12.6125 8.71533 12.8 8.74189L15.3825 6.15942C14.4252 5.70083 13.358 5.43628 12.2276 5.43628C8.18232 5.43628 4.89116 8.72744 4.89116 12.7727C4.89116 16.818 8.18232 20.1091 12.2276 20.1091C16.2728 20.1091 19.564 16.818 19.564 12.7727C19.564 11.6422 19.2995 10.575 18.8408 9.61772Z" fill="#094876"/>
<path d="M23.3029 7.60073L22.6516 8.25205C22.2801 8.62383 21.7886 8.86953 21.2683 8.9438L20.3845 9.07012C20.8997 10.2004 21.1943 11.4515 21.1943 12.7726C21.1943 17.7168 17.1718 21.7393 12.2275 21.7393C7.28326 21.7393 3.2608 17.7168 3.2608 12.7726C3.2608 7.82827 7.28331 3.80581 12.2275 3.80581C13.5486 3.80581 14.7997 4.10039 15.93 4.61558L16.0563 3.73179C16.1305 3.21143 16.3763 2.72002 16.748 2.34824L17.3992 1.69717C15.7929 0.944873 14.0417 0.545166 12.2275 0.545166C5.48521 0.545166 0.000152588 6.03027 0.000152588 12.7726C0.000152588 19.5148 5.48526 25 12.2275 25C18.9698 25 24.4549 19.5148 24.4549 12.7726C24.4549 10.9583 24.0552 9.20703 23.3029 7.60073Z" fill="#094876"/>
</g>
<defs>
<clipPath id="clip0_293_3562">
<rect width="25" height="25" fill="white"/>
</clipPath>
</defs>
</svg>
