<svg width="25" height="25" viewBox="0 0 25 25" fill="none" xmlns="http://www.w3.org/2000/svg">
<path d="M17.627 17.5659H25V20.5395H17.627V17.5659Z" fill="#094876"/>
<path d="M17.627 22.0264H25V25H17.627V22.0264Z" fill="#094876"/>
<path d="M17.627 13.1055H25V16.0791H17.627V13.1055Z" fill="#094876"/>
<path d="M4.10072 14.6693L3.08436 14.6584L3.02069 13.1752C8.45804 12.6372 13.3426 9.57137 16.2386 4.92002L14.4777 4.08587L21.0974 0L22.2689 7.77455L20.2305 6.80971C18.8393 8.92738 16.5948 11.5221 13.3647 12.9254C10.0467 14.3665 6.4954 14.6693 4.10072 14.6693Z" fill="#094876"/>
<path d="M7.37305 25H0V22.0264H7.37305V25Z" fill="#094876"/>
<path d="M8.83789 17.5659H16.1621V20.5395H8.83789V17.5659Z" fill="#094876"/>
<path d="M8.83789 22.0264H16.1621V25H8.83789V22.0264Z" fill="#094876"/>
</svg>
