<svg width="25" height="25" viewBox="0 0 25 25" fill="none" xmlns="http://www.w3.org/2000/svg">
<g clip-path="url(#clip0_297_3919)">
<g clip-path="url(#clip1_297_3919)">
<path d="M24.4944 14.5044H15.83C15.4514 14.5044 15.1427 14.8131 15.1427 15.1916C15.1427 15.3845 15.2247 15.5582 15.3524 15.6835L21.4535 21.7845C21.5788 21.9196 21.7598 22.0041 21.9576 22.0041C22.1963 22.0041 22.406 21.8835 22.529 21.7002C24.029 19.9591 24.9936 17.7477 25.1673 15.3146C25.177 15.2736 25.1817 15.2326 25.1817 15.1916C25.1818 14.8131 24.8755 14.5044 24.4944 14.5044Z" fill="#094876"/>
<path d="M13.2135 2.04907C12.8348 2.05139 12.5286 2.35774 12.5286 2.73633V12.3654C12.5286 12.7464 12.8348 13.0551 13.2135 13.0551H22.845C23.2237 13.0551 23.5323 12.7464 23.5323 12.3654C23.1922 6.8239 18.7574 2.38915 13.2135 2.04907Z" fill="#094876"/>
<path d="M18.5067 21.2228L11.4025 14.1186C11.282 13.9956 11.2097 13.8243 11.2097 13.6387L11.2071 3.60442C11.2071 3.22583 10.9009 2.91956 10.5223 2.91956C4.75161 3.27167 0.181824 8.06563 0.181824 13.9233C0.181824 20.0123 5.11824 24.951 11.2071 24.951C13.9852 24.951 16.5221 23.9237 18.4609 22.2284C18.6105 22.1029 18.7045 21.9149 18.7045 21.7051C18.7045 21.5193 18.6297 21.3481 18.5067 21.2228Z" fill="#094876"/>
</g>
</g>
<defs>
<clipPath id="clip0_297_3919">
<rect width="25" height="25" fill="white"/>
</clipPath>
<clipPath id="clip1_297_3919">
<rect width="25" height="25" fill="white" transform="translate(0.181824 1)"/>
</clipPath>
</defs>
</svg>
