<svg width="25" height="25" viewBox="0 0 25 25" fill="none" xmlns="http://www.w3.org/2000/svg">
<path d="M19.1176 12.207L13.2353 14.1602L19.1176 16.1133L25 14.1602L19.1176 12.207Z" fill="#094876"/>
<path d="M0 14.1602L5.88235 16.1133L11.7647 14.1602L5.88235 12.207L0 14.1602Z" fill="#094876"/>
<path d="M12.7325 0.0375733C12.5816 -0.0125244 12.4184 -0.0125244 12.2674 0.0375733L6.61765 1.9135L12.5 3.86663L18.3824 1.9135L12.7325 0.0375733Z" fill="#094876"/>
<path d="M6.61765 25L11.7647 23.291V15.7042L6.61765 17.4132V25Z" fill="#094876"/>
<path d="M0 22.7631C0 23.0784 0.2025 23.3583 0.502794 23.4579L5.14706 25V17.4132L0 15.7042V22.7631Z" fill="#094876"/>
<path d="M13.2353 23.291L18.3823 25V17.4132L13.2353 15.7042V23.291Z" fill="#094876"/>
<path d="M19.8529 25L24.4972 23.4579C24.7974 23.3582 25 23.0784 25 22.7631V15.7042L19.8529 17.4132V25Z" fill="#094876"/>
<path d="M6.61765 11.1816L11.7647 12.8906V5.16655L6.61765 3.45752V11.1816Z" fill="#094876"/>
<path d="M18.3823 11.1816V3.45752L13.2353 5.16655V12.8906L18.3823 11.1816Z" fill="#094876"/>
</svg>
