<svg width="25" height="25" viewBox="0 0 25 25" fill="none" xmlns="http://www.w3.org/2000/svg">
<g clip-path="url(#clip0_293_3451)">
<path d="M8.57754 11.0872H16.4225C16.827 11.0872 17.1549 10.7594 17.1549 10.3548C17.1549 7.78392 15.0709 5.69995 12.5 5.69995C9.92928 5.69995 7.84512 7.78392 7.84512 10.3548C7.84512 10.7594 8.173 11.0872 8.57754 11.0872Z" fill="#094876"/>
<path d="M12.5 5.69991C14.0715 5.69991 15.3499 4.42142 15.3499 2.84996C15.3499 1.27849 14.0715 0 12.5 0C10.9285 0 9.65004 1.27849 9.65004 2.84996C9.65004 4.42142 10.9285 5.69991 12.5 5.69991Z" fill="#094876"/>
<path d="M24.9573 11.4677C24.9182 11.3571 24.8491 11.2594 24.7652 11.1772C23.7211 10.1532 22.0852 10.2266 21.0974 11.2144L15.3713 16.9405C15.234 17.0778 15.0478 17.155 14.8535 17.155H10.9516C10.5574 17.155 10.2179 16.852 10.1994 16.4579C10.1795 16.0373 10.5146 15.6902 10.931 15.6902H14.2467C14.4409 15.6902 14.6273 15.6129 14.7648 15.4756L16.7713 13.4691C17.1097 13.1305 16.8699 12.552 16.3916 12.552H9.41811C8.17472 12.552 7.0057 13.0363 6.12661 13.9156L4.90648 15.1355L10.0638 20.293H16.4225C16.6168 20.293 16.803 20.2157 16.9403 20.0784L24.7854 12.2333C24.9809 12.038 25.0545 11.7426 24.9573 11.4677Z" fill="#094876"/>
<path d="M3.60404 15.9046C3.31793 15.6187 2.85407 15.6187 2.56816 15.9046L0.214683 18.2581C-0.0714186 18.5442 -0.0714186 19.0079 0.214683 19.294L5.70612 24.7854C5.99222 25.0715 6.4559 25.0717 6.742 24.7854L9.09547 22.4319C9.38158 22.146 9.38158 21.6822 9.09547 21.3962L3.60404 15.9046Z" fill="#094876"/>
</g>
<defs>
<clipPath id="clip0_293_3451">
<rect width="25" height="25" fill="white"/>
</clipPath>
</defs>
</svg>
