<svg width="25" height="25" viewBox="0 0 25 25" fill="none" xmlns="http://www.w3.org/2000/svg">
<g clip-path="url(#clip0_293_3497)">
<path d="M9.26863 19.5791C9.00731 19.5791 8.75101 19.5311 8.50693 19.4363L2.58215 17.1365V20.9978C2.58215 21.3066 2.77585 21.5822 3.06638 21.6869L11.8371 24.8458V17.2441L11.0895 18.5311C10.714 19.1776 10.0162 19.5791 9.26863 19.5791Z" fill="#094876"/>
<path d="M15.7318 19.5793C14.9841 19.5793 14.2864 19.1777 13.9109 18.5313L13.3019 17.4828V24.8535L22.0935 21.687C22.384 21.5824 22.5777 21.3067 22.5777 20.9979V17.0747L16.4934 19.4365C16.2494 19.5313 15.9931 19.5793 15.7318 19.5793Z" fill="#094876"/>
<path d="M7.5193 9.25571C7.08287 8.72417 6.72999 8.12178 6.48019 7.46875L4.52814 8.17178L7.5193 9.25571Z" fill="#094876"/>
<path d="M20.485 8.16733L18.5275 7.44995C18.2773 8.11025 17.9218 8.71919 17.4811 9.25586L20.485 8.16733Z" fill="#094876"/>
<path d="M24.9085 13.8007L22.478 9.55849C22.3114 9.26777 21.9598 9.13881 21.6448 9.25302L12.5 12.5661L3.35517 9.25302C3.04014 9.13881 2.68858 9.26777 2.52198 9.55849L0.0993095 13.7868C0.0323182 13.9038 -0.00566952 14.0367 0.000385086 14.1714C0.0130802 14.4529 0.190031 14.6892 0.440125 14.7862L9.01906 18.1164C9.1007 18.1481 9.18507 18.1633 9.26837 18.1633C9.50802 18.1633 9.73829 18.0378 9.8648 17.8199L12.4999 13.1053L15.135 17.8199C15.2616 18.0378 15.4918 18.1633 15.7315 18.1633C15.8148 18.1633 15.8991 18.1481 15.9808 18.1164L24.5597 14.7862C24.747 14.7135 24.8932 14.5628 24.9602 14.3735C25.0273 14.1842 25.0084 13.975 24.9085 13.8007Z" fill="#094876"/>
<path d="M12.5002 10.2004C15.2721 10.2004 17.5272 7.9453 17.5272 5.17342C17.5272 2.40153 15.2721 0.146484 12.5002 0.146484C9.72831 0.146484 7.47327 2.40158 7.47327 5.17347C7.47327 7.94535 9.72831 10.2004 12.5002 10.2004ZM10.4199 5.94309C10.1338 5.65705 10.1338 5.19334 10.4199 4.90731C10.7059 4.62128 11.1697 4.62128 11.4556 4.90731L11.8688 5.32044L13.5695 3.61968C13.8555 3.33365 14.3193 3.33365 14.6053 3.61968C14.8913 3.90571 14.8913 4.36943 14.6053 4.65546L12.3867 6.87408C12.2437 7.01709 12.0562 7.08863 11.8688 7.08863C11.6814 7.08863 11.4939 7.01714 11.3509 6.87413L10.4199 5.94309Z" fill="#094876"/>
</g>
<defs>
<clipPath id="clip0_293_3497">
<rect width="25" height="25" fill="white"/>
</clipPath>
</defs>
</svg>
