<svg width="24" height="25" viewBox="0 0 24 25" fill="none" xmlns="http://www.w3.org/2000/svg">
<path d="M9.52801 7.63572L11.3967 11.3002L14.1665 2.76871L5.634 0.00109863L7.48766 3.63766C3.12488 5.19523 0 9.35207 0 14.2491C0 19.291 3.30938 23.5572 7.87491 24.999C5.12446 23.2633 3.29223 20.206 3.29223 16.7175C3.29113 12.5713 5.88608 9.06135 9.52801 7.63572Z" fill="#094876"/>
<path d="M14.2641 17.3664L12.3943 13.7009L9.62775 22.2313L18.157 25L16.3023 21.3623C20.6661 19.8069 23.7899 15.649 23.7899 10.7498C23.7899 5.70909 20.4816 1.44284 15.9161 0C18.6655 1.7357 20.4999 4.79191 20.4999 8.28146C20.5009 12.4298 17.906 15.9376 14.2641 17.3664Z" fill="#094876"/>
</svg>
