<svg width="25" height="25" viewBox="0 0 25 25" fill="none" xmlns="http://www.w3.org/2000/svg">
<g clip-path="url(#clip0_323_533)">
<path d="M12.5 25C9.53169 25 6.67925 23.8897 4.44336 21.9929V25H2.97852V18.3143L4.26025 19.7663C6.34595 22.1302 9.34932 23.4863 12.5 23.4863C18.5582 23.4863 23.5352 18.5582 23.5352 12.5V11.7676H25V12.5C25 19.3657 19.3657 25 12.5 25Z" fill="#3A6B8F"/>
<path d="M1.46484 13.2324H0V12.5C0 5.63428 5.63428 0 12.5 0C15.4683 0 18.3208 1.11025 20.5566 3.00713V0H22.0215V6.68569L20.7397 5.23374C18.6541 2.86978 15.6507 1.51367 12.5 1.51367C6.4418 1.51367 1.46484 6.4418 1.46484 12.5V13.2324Z" fill="#3A6B8F"/>
<path d="M13.2324 9.85V6.64062H11.7676V9.85L12.5 9.48379L13.2324 9.85Z" fill="#3A6B8F"/>
<path d="M14.6973 6.64062V12.2203L12.5 11.1217L10.3027 12.2203V6.64062H5.9082V18.3594H19.0918V6.64062H14.6973ZM16.1621 15.2831H13.2324V13.8182H16.1621V15.2831Z" fill="#3A6B8F"/>
</g>
<defs>
<clipPath id="clip0_323_533">
<rect width="25" height="25" fill="white"/>
</clipPath>
</defs>
</svg>
