<svg width="25" height="25" viewBox="0 0 25 25" fill="none" xmlns="http://www.w3.org/2000/svg">
<path fill-rule="evenodd" clip-rule="evenodd" d="M11.0685 0.140503L14.3307 2.09201L3.75455 8.41904V13.1074C3.75455 13.2947 3.84417 13.4556 4.00077 13.5493L6.45229 15.0159C6.53057 15.0627 6.62019 15.0627 6.69851 15.0159C6.77679 14.969 6.8216 14.8886 6.8216 14.795V10.2539L17.3978 3.92685L20.6599 5.87836C20.973 6.0657 21.1523 6.38742 21.1523 6.76209V12.6267C20.2667 12.3171 19.3296 12.1501 18.3936 12.091V11.6978C18.3936 11.2694 18.1576 10.8853 17.783 10.7041C17.4085 10.5229 16.9727 10.5819 16.6558 10.8567L12.9008 14.1132C12.5893 14.3834 12.4191 14.7773 12.4321 15.1979C12.4451 15.6203 12.6379 15.9994 12.9667 16.2494L16.709 19.0943C17.0322 19.34 17.456 19.3761 17.8135 19.1884C18.1714 19.0005 18.3936 18.6258 18.3936 18.2101V17.776C19.1725 17.8722 19.9435 18.1203 20.5766 18.5953C20.6995 18.6874 20.8159 18.7878 20.9243 18.8956C20.8518 18.9836 20.7631 19.0599 20.66 19.1216L11.0685 24.8595C10.7554 25.0468 10.3969 25.0468 10.0837 24.8595L0.492441 19.1216C0.179235 18.9343 0 18.6126 0 18.2379V6.76214C0 6.38742 0.179235 6.0657 0.492441 5.87841L10.0838 0.140503C10.3969 -0.0468345 10.7554 -0.0468345 11.0685 0.140503ZM17.5871 16.8919C22.8538 16.8919 24.3463 22.1042 20.0203 24.4469C19.9966 24.4596 19.9865 24.4891 19.9974 24.5143C20.0075 24.5379 20.0316 24.5504 20.0558 24.5441C27.2431 22.7123 26.7406 12.9015 17.5871 12.9015V11.6978C17.5871 11.594 17.5325 11.5051 17.4418 11.4612C17.351 11.4173 17.2502 11.4309 17.1734 11.4976L13.4184 14.7541C13.2956 14.8606 13.233 15.0055 13.2381 15.1713C13.2432 15.3371 13.3146 15.4776 13.4437 15.5757L17.1861 18.4207C17.2646 18.4803 17.3622 18.4887 17.449 18.4431C17.5359 18.3975 17.5871 18.311 17.5871 18.2101V16.8919Z" fill="#3A6B8F"/>
</svg>
