<svg width="25" height="25" viewBox="0 0 25 25" fill="none" xmlns="http://www.w3.org/2000/svg">
<path d="M24.2676 23.5352H23.4375V7.42188H24.1699C24.4359 7.42188 24.6812 7.27737 24.8108 7.04422C24.9394 6.81183 24.9323 6.52725 24.7906 6.30112L21.1285 0.320892C20.8611 -0.106964 20.1546 -0.106964 19.8869 0.320892L16.2248 6.30112C16.0832 6.52725 16.076 6.81183 16.2048 7.04422C16.3342 7.27737 16.5796 7.42188 16.8457 7.42188H17.5781V23.5352H16.1133V11.084C16.1133 10.6793 15.7855 10.3516 15.3809 10.3516H10.9863C10.5815 10.3516 10.2539 10.6793 10.2539 11.084V23.5352H8.78906V15.4785C8.78906 15.0739 8.4613 14.7461 8.05664 14.7461H3.66211C3.25729 14.7461 2.92969 15.0739 2.92969 15.4785V23.5352H0.732422C0.327606 23.5352 0 23.8629 0 24.2676C0 24.6724 0.327606 25 0.732422 25H24.2676C24.6722 25 25 24.6724 25 24.2676C25 23.8629 24.6722 23.5352 24.2676 23.5352Z" fill="#EE5F23" fill-opacity="0.81"/>
</svg>
