<svg width="25" height="25" viewBox="0 0 25 25" fill="none" xmlns="http://www.w3.org/2000/svg">
<path d="M12.4998 11.6675C14.6451 11.6675 16.3841 9.9284 16.3841 7.78314C16.3841 5.63788 14.6451 3.8988 12.4998 3.8988C10.3546 3.8988 8.61548 5.63788 8.61548 7.78314C8.61548 9.9284 10.3546 11.6675 12.4998 11.6675Z" fill="#094876"/>
<path d="M12.5001 11.6677C8.387 11.6677 5.05261 15.0021 5.05261 19.1152C5.05261 20.212 5.94177 21.1011 7.0386 21.1011H17.9615C19.0584 21.1011 19.9475 20.212 19.9475 19.1152C19.9475 15.0021 16.6131 11.6677 12.5001 11.6677Z" fill="#094876"/>
<path d="M7.58919 5.20198C7.09329 4.73831 6.42757 4.45398 5.69505 4.45398C4.16272 4.45398 2.92053 5.69617 2.92053 7.2285C2.92053 8.76082 4.16272 10.003 5.69505 10.003C6.26512 10.003 6.79481 9.83089 7.23558 9.53607C7.05145 8.98485 6.95091 8.39574 6.95091 7.78338C6.95096 6.85193 7.18202 5.97356 7.58919 5.20198Z" fill="#094876"/>
<path d="M19.305 4.45398C18.5725 4.45398 17.9068 4.73831 17.4109 5.20198C17.8181 5.97351 18.0491 6.85193 18.0491 7.78343C18.0491 8.39578 17.9486 8.98485 17.7645 9.53612C18.2052 9.83094 18.7349 10.0031 19.305 10.0031C20.8373 10.0031 22.0795 8.76082 22.0795 7.22854C22.0795 5.69627 20.8373 4.45398 19.305 4.45398Z" fill="#094876"/>
<path d="M7.99909 11.0228C7.305 11.4451 6.51261 11.6678 5.69513 11.6678C4.65733 11.6678 3.70235 11.3088 2.94561 10.71C1.18955 11.6799 0 13.55 0 15.6981C0 16.5369 0.679982 17.2169 1.5187 17.2169H3.58712C4.14268 14.6061 5.81959 12.4055 8.088 11.1448C8.05749 11.1048 8.02858 11.0636 7.99909 11.0228Z" fill="#094876"/>
<path d="M22.0544 10.7098C21.2976 11.3088 20.3427 11.6677 19.3049 11.6677C18.4874 11.6677 17.695 11.445 17.0009 11.0227C16.9714 11.0635 16.9424 11.1048 16.9119 11.1448C19.1803 12.4054 20.8572 14.606 21.4128 17.2168H23.4812C24.32 17.2168 24.9999 16.5369 24.9999 15.6981C25 13.5499 23.8105 11.6799 22.0544 10.7098Z" fill="#094876"/>
</svg>
