<svg width="25" height="25" viewBox="0 0 25 25" fill="none" xmlns="http://www.w3.org/2000/svg">
<path d="M24.9999 12.5085C24.9911 12.9523 24.8461 13.3828 24.5844 13.7415C23.5754 15.1695 21.9348 17.4407 20.7986 19.0127C20.4051 19.5546 19.8888 19.9957 19.2919 20.2999C18.6951 20.604 18.0346 20.7626 17.3647 20.7627H9.77611L9.53023 21.0127L4.44292 15.928L5.63844 14.7288C5.87481 14.492 6.15567 14.3042 6.46487 14.1763C6.77407 14.0483 7.10552 13.9826 7.44019 13.9831H16.5592C16.7262 13.9847 16.8913 14.0193 17.0449 14.0847C17.1986 14.1501 17.3379 14.2451 17.4548 14.3644C17.5717 14.4836 17.664 14.6247 17.7264 14.7795C17.7887 14.9344 17.82 15.1 17.8183 15.2669C17.8166 15.4339 17.7821 15.5989 17.7166 15.7524C17.6512 15.906 17.5561 16.0452 17.4368 16.1621C17.3175 16.279 17.1764 16.3712 17.0214 16.4335C16.8665 16.4959 16.7008 16.5271 16.5338 16.5254H11.4464C11.334 16.5254 11.2262 16.5701 11.1467 16.6495C11.0672 16.729 11.0225 16.8368 11.0225 16.9492C11.0225 17.0615 11.0672 17.1693 11.1467 17.2488C11.2262 17.3282 11.334 17.3729 11.4464 17.3729H16.5338C17.0959 17.3727 17.6349 17.1494 18.0324 16.7521C18.4299 16.3548 18.6533 15.8161 18.6535 15.2542C18.6526 15.0903 18.6341 14.9269 18.5984 14.7669C19.2004 14.2034 21.6423 11.8856 22.1001 11.4322C22.4093 11.1087 22.8324 10.9185 23.2797 10.9019C23.7269 10.8853 24.1631 11.0436 24.4954 11.3432C24.6567 11.4911 24.7851 11.6713 24.872 11.8721C24.9589 12.0729 25.0025 12.2897 24.9999 12.5085ZM0.449379 18.2203L7.23246 25L9.77611 22.4576L2.99303 15.678L0.449379 18.2203ZM12.3071 13.1356H15.6986V9.32203H12.3071V13.1356ZM17.3944 13.2797C17.7474 13.3987 18.0691 13.5956 18.3355 13.8559C18.8273 13.3898 20.4764 11.8263 20.7859 11.5297V5.9322H17.3944V13.2797ZM7.21974 13.1483C7.29292 13.1398 7.36652 13.1356 7.44019 13.1356H10.6113V11.8644H7.21974V13.1483ZM12.7293 6.77924C12.7849 6.77931 12.8401 6.76838 12.8915 6.74708C12.9429 6.72578 12.9897 6.69453 13.029 6.65513L15.4485 4.23729H18.2405C18.3432 4.23725 18.4424 4.20006 18.5198 4.13258L21.6321 1.41072V2.54237C21.6321 2.65475 21.6768 2.76253 21.7563 2.84199C21.8358 2.92146 21.9436 2.9661 22.056 2.9661C22.1685 2.9661 22.2763 2.92146 22.3558 2.84199C22.4353 2.76253 22.48 2.65475 22.48 2.54237V0.423729C22.48 0.311349 22.4353 0.203572 22.3558 0.124107C22.2763 0.0446427 22.1685 0 22.056 0H19.9363C19.8239 0 19.7161 0.0446427 19.6365 0.124107C19.557 0.203572 19.5124 0.311349 19.5124 0.423729C19.5124 0.536109 19.557 0.643886 19.6365 0.72335C19.7161 0.802815 19.8239 0.847458 19.9363 0.847458H20.988L18.0811 3.38983H15.273C15.2173 3.38984 15.1621 3.4008 15.1107 3.42211C15.0593 3.44341 15.0125 3.47463 14.9732 3.51398L12.4295 6.05593C12.3703 6.11519 12.3299 6.19069 12.3135 6.27288C12.2972 6.35507 12.3056 6.44025 12.3377 6.51767C12.3698 6.59509 12.4241 6.66126 12.4938 6.70781C12.5635 6.75437 12.6454 6.77923 12.7293 6.77924ZM4.66337 3.81356C4.74722 3.81356 4.82918 3.78871 4.8989 3.74215C4.96861 3.69559 5.02295 3.62941 5.05504 3.55198C5.08713 3.47456 5.09552 3.38936 5.07916 3.30717C5.06281 3.22497 5.02243 3.14947 4.96314 3.09021C4.90385 3.03095 4.82831 2.99059 4.74607 2.97424C4.66384 2.95789 4.5786 2.96629 4.50113 2.99836C4.42367 3.03043 4.35746 3.08474 4.31087 3.15442C4.26429 3.2241 4.23942 3.30602 4.23942 3.38983C4.23975 3.50211 4.28452 3.6097 4.36395 3.68909C4.44339 3.76849 4.55103 3.81324 4.66337 3.81356ZM0.36883 7.71186L0.73342 6.61017L0 5.50847L0.73342 4.40678L0.36883 3.30508L1.47108 2.93644V1.47034H2.93792L3.30675 0.368644L4.409 0.733051L5.51125 0L6.6135 0.733051L7.71575 0.368644L8.08458 1.47034H9.55142V2.93644L10.6537 3.30508L10.2891 4.77542L11.0225 5.50847L10.2891 6.61017L10.6537 7.71186L9.55142 8.08051V9.54661H8.44917L7.71575 10.6483L6.6135 10.2839L5.51125 11.0169L4.409 10.2839L3.30675 10.6483L2.93792 9.54661H1.47108V8.08051L0.36883 7.71186ZM7.63096 7.62712C7.63096 7.3757 7.55637 7.12993 7.41662 6.92089C7.27687 6.71184 7.07824 6.54891 6.84584 6.4527C6.61345 6.35648 6.35773 6.33131 6.11102 6.38036C5.86431 6.42941 5.63769 6.55048 5.45982 6.72825C5.28195 6.90603 5.16082 7.13254 5.11175 7.37912C5.06267 7.62571 5.08786 7.8813 5.18412 8.11358C5.28038 8.34586 5.4434 8.54439 5.65255 8.68407C5.8617 8.82375 6.10759 8.89831 6.35914 8.89831C6.69614 8.89732 7.01907 8.76308 7.25737 8.5249C7.49567 8.28672 7.62998 7.96396 7.63096 7.62712ZM3.56112 6.44068C3.47144 6.50831 3.41219 6.60866 3.3963 6.71981C3.38042 6.83096 3.40919 6.94388 3.47633 7.0339C3.51612 7.0862 3.56738 7.12869 3.62618 7.15807C3.68498 7.18746 3.74974 7.20296 3.81548 7.20339C3.90707 7.20254 3.99607 7.17289 4.06985 7.11864L7.46139 4.57627C7.50593 4.54288 7.54345 4.50106 7.57181 4.45318C7.60018 4.40529 7.61883 4.3523 7.6267 4.29721C7.63458 4.24213 7.63152 4.18603 7.6177 4.13213C7.60388 4.07822 7.57958 4.02757 7.54618 3.98305C7.51277 3.93853 7.47092 3.90103 7.42302 3.87268C7.37511 3.84433 7.32209 3.82569 7.26698 3.81782C7.21186 3.80995 7.15574 3.81301 7.10181 3.82682C7.04788 3.84063 6.99719 3.86492 6.95266 3.89831L3.56112 6.44068ZM3.39154 3.38983C3.39154 3.64125 3.46613 3.88702 3.60588 4.09606C3.74563 4.30511 3.94426 4.46804 4.17666 4.56425C4.40906 4.66047 4.66478 4.68564 4.91149 4.63659C5.1582 4.58754 5.38482 4.46647 5.56269 4.2887C5.74055 4.11092 5.86168 3.88441 5.91076 3.63783C5.95983 3.39124 5.93464 3.13565 5.83838 2.90337C5.74212 2.67109 5.57911 2.47256 5.36996 2.33288C5.16081 2.1932 4.91491 2.11864 4.66337 2.11864C4.32636 2.11963 4.00344 2.25387 3.76514 2.49205C3.52684 2.73023 3.39252 3.05299 3.39154 3.38983ZM6.35914 7.20339C6.27529 7.20339 6.19332 7.22824 6.12361 7.2748C6.05389 7.32136 5.99955 7.38754 5.96747 7.46497C5.93538 7.54239 5.92698 7.62759 5.94334 7.70978C5.9597 7.79198 6.00007 7.86748 6.05936 7.92674C6.11865 7.986 6.19419 8.02636 6.27643 8.04271C6.35867 8.05906 6.44391 8.05066 6.52137 8.01859C6.59884 7.98652 6.66505 7.93221 6.71163 7.86253C6.75822 7.79285 6.78308 7.71092 6.78308 7.62712C6.78276 7.51484 6.73799 7.40725 6.65855 7.32786C6.57912 7.24846 6.47147 7.20371 6.35914 7.20339Z" fill="#ED7746"/>
</svg>
