<svg width="25" height="25" viewBox="0 0 25 25" fill="none" xmlns="http://www.w3.org/2000/svg">
<path d="M6.99829 19.2553H2.94554V10.193C2.94554 9.96748 3.12836 9.78467 3.35389 9.78467H6.58994C6.81548 9.78467 6.99829 9.96748 6.99829 10.193V19.2553Z" fill="#094876"/>
<path d="M14.5264 19.2553H10.4736V8.40664C10.4736 8.18111 10.6564 7.99829 10.882 7.99829H14.118C14.3436 7.99829 14.5264 8.18111 14.5264 8.40664V19.2553Z" fill="#094876"/>
<path d="M22.0545 19.2553H18.0017V10.844C18.0017 10.6185 18.1845 10.4357 18.4101 10.4357H21.6461C21.8716 10.4357 22.0545 10.6185 22.0545 10.844V19.2553Z" fill="#094876"/>
<path d="M24.266 22.1629H0.733999C0.328636 22.1629 0 21.8343 0 21.4289C0 21.0236 0.328636 20.6949 0.733999 20.6949H24.266C24.6714 20.6949 25 21.0236 25 21.4289C25 21.8343 24.6714 22.1629 24.266 22.1629Z" fill="#094876"/>
<path d="M24.6927 5.63007C24.7171 5.3233 24.5383 4.94662 24.1289 4.85134L21.7573 4.27491C21.3633 4.17885 20.9665 4.42083 20.8708 4.81474C20.775 5.20865 21.0167 5.6056 21.4106 5.70131L22.0814 5.86436L20.1799 7.03773L12.9703 2.93321C12.763 2.81513 12.5111 2.8052 12.2953 2.90664L5.12883 6.27041L1.70302 4.13232C1.35916 3.91755 0.906384 4.02246 0.691713 4.36637C0.477092 4.71022 0.581907 5.163 0.92581 5.37767L4.69054 7.7272C4.90178 7.85907 5.16553 7.87483 5.39102 7.76899L12.5747 4.39714L19.832 8.52882C20.0208 8.62786 20.284 8.6792 20.5806 8.51556L22.8856 7.09312L22.7321 7.81205C22.5632 8.76835 23.9169 9.03993 24.1677 8.11867L24.6765 5.73591C24.6822 5.70249 24.6844 5.70719 24.6927 5.63007Z" fill="#094876"/>
</svg>
