<svg width="21" height="25" viewBox="0 0 21 25" fill="none" xmlns="http://www.w3.org/2000/svg">
<path d="M10.5 0C4.77495 0 0 3.96019 0 9.01657C0 10.9402 0.673145 12.6555 1.96503 14.2629L9.69646 24.6227C10.0715 25.1263 10.9292 25.1253 11.3035 24.6227L19.0685 14.2276C20.3326 12.6931 21 10.8913 21 9.01657C21 4.04483 16.2897 0 10.5 0ZM10.5 13.115C7.86845 13.115 5.72727 11.2763 5.72727 9.01657C5.72727 6.7568 7.86845 4.91813 10.5 4.91813C13.1316 4.91813 15.2727 6.7568 15.2727 9.01657C15.2727 11.2763 13.1316 13.115 10.5 13.115Z" fill="#094876"/>
</svg>
