<svg width="25" height="25" viewBox="0 0 25 25" fill="none" xmlns="http://www.w3.org/2000/svg">
<path d="M6.38829 4.19596L7.37197 0.000624945H3.54711L0 4.19596H6.38829ZM14.7856 4.19596L13.8019 0H7.83677L6.85309 4.19534H14.7856V4.19596ZM14.2651 0L15.2504 4.19534H21.7565L18.064 0H14.2651ZM14.2904 9.03635C14.5907 9.01885 14.9068 9.00072 15.2341 8.98697C16.122 8.94822 17.1012 8.92321 18.0527 8.90571L21.7565 4.696H15.2532L14.2904 9.03635ZM8.39565 11.6778L11.8628 9.41888C12.109 9.25762 12.8402 9.14761 13.8205 9.0701L14.7901 4.69538H6.84802L8.39565 11.6778ZM6.78773 12.7254L7.9917 11.9422L6.38491 4.69538H0.000563296L6.78773 12.7254ZM15.9209 16.7045L13.2284 11.6922C13.0177 11.3009 12.5563 11.1696 12.203 11.3997L4.84572 16.1944L4.82826 16.2069C4.4767 16.4388 4.36515 16.9514 4.57417 17.3283H4.57248L7.26661 22.3405C7.47563 22.7318 7.93874 22.8631 8.29199 22.6331L15.6493 17.8383L15.6668 17.8277C16.0183 17.5939 16.1299 17.0839 15.9209 16.7045ZM13.6149 11.4372L16.309 16.4513C16.6443 17.082 16.451 17.8971 15.8955 18.2571L15.878 18.2696L8.51847 23.0637C7.95339 23.4325 7.21535 23.2212 6.88013 22.5974L4.18599 17.5833C3.85078 16.9526 4.04233 16.1375 4.59952 15.7763L4.61699 15.7656L11.976 10.9709C12.5416 10.6027 13.278 10.8115 13.6149 11.4372ZM19.9519 10.9621C19.8128 11.0646 19.6708 11.1696 19.5254 11.274C19.2781 11.4528 19.0319 11.0365 19.2809 10.8559C19.4246 10.7534 19.5666 10.6484 19.704 10.5458C19.3367 10.2833 18.8466 10.5758 18.8466 11.0653C18.8466 11.6147 19.4471 11.891 19.797 11.5028C19.9215 11.3647 19.9823 11.164 19.9519 10.9621ZM21.215 9.98392L20.3446 10.6677C20.5953 11.394 20.1114 12.1829 19.4026 12.1829C18.5085 12.1829 18.0578 10.9778 18.6905 10.2746C19.077 9.84766 19.6984 9.83704 20.0962 10.2533L20.9232 9.60327C20.7429 9.45076 20.5209 9.37263 20.2809 9.3745C19.233 9.38513 12.7495 9.41888 12.0898 9.84766L8.37368 12.2697C8.36748 12.2747 8.35903 12.2785 8.35283 12.2841L6.86942 13.2498C6.86323 13.2554 6.85647 13.2586 6.84858 13.2642L2.83386 15.8794L2.8147 15.8938V15.8919C2.57357 16.0532 2.40568 16.2888 2.33075 16.542C2.25751 16.7832 2.26821 17.0489 2.38483 17.2595L6.32012 24.5838C6.5759 25.057 7.18436 25.112 7.62662 24.8232L16.8955 18.7834C17.5485 18.3583 20.6342 12.2472 21.2077 11.1203C21.3925 10.7565 21.3953 10.349 21.215 9.98392ZM21.512 2.60271C21.2229 2.53333 21.3204 2.04641 21.6094 2.11704C23.0213 2.4627 24.7413 3.12525 24.9746 4.57599C25.2315 6.18487 23.4911 8.00814 22.1013 9.23574C22.0038 9.32075 21.8618 9.30325 21.7852 9.19511C21.7086 9.08698 21.7244 8.92947 21.8218 8.84446C23.0596 7.75125 24.7475 6.01486 24.5306 4.661C24.3402 3.47965 22.7131 2.89898 21.512 2.60271Z" fill="#0B7609"/>
</svg>
