<svg width="25" height="25" viewBox="0 0 25 25" fill="none" xmlns="http://www.w3.org/2000/svg">
<g clip-path="url(#clip0_293_3587)">
<path d="M2.92969 0H0V25H25V22.0703H2.92969V0Z" fill="#094876"/>
<path d="M21.1423 0L22.0354 0.893066L17.4716 5.45679L13.1757 1.16089L4.39453 9.94204V14.0853L13.1757 5.3041L17.4716 9.6L24.1069 2.96465L25 3.85771V0H21.1423Z" fill="#094876"/>
<path d="M9.06587 15.263C9.06587 15.2622 9.06612 15.2614 9.06612 15.2606C9.06612 15.2598 9.06587 15.2589 9.06587 15.2581V15.263Z" fill="#094876"/>
<path d="M12.2399 15.2581C12.2399 15.2589 12.2397 15.2597 12.2397 15.2605C12.2397 15.2613 12.2399 15.2621 12.2399 15.2629V15.2581Z" fill="#094876"/>
<path d="M17.9788 15.2581C17.9788 15.2589 17.9785 15.2597 17.9785 15.2605C17.9785 15.2613 17.9788 15.2621 17.9788 15.2629V15.2581Z" fill="#094876"/>
<path d="M14.8047 15.263C14.8047 15.2622 14.805 15.2614 14.805 15.2606C14.805 15.2598 14.8047 15.2589 14.8047 15.2581V15.263Z" fill="#094876"/>
<path d="M22.5742 16.784C23.2338 16.5919 23.7163 15.9829 23.7174 15.2605C23.7161 14.3838 23.0062 13.6736 22.1305 13.6736C21.2549 13.6736 20.545 14.3839 20.5437 15.2605C20.5448 15.983 21.0272 16.5919 21.6869 16.784C20.3128 16.9973 19.261 18.1853 19.261 19.6192C19.261 18.1854 18.2093 16.9973 16.8352 16.784C17.4949 16.5919 17.9773 15.9829 17.9784 15.2605C17.9771 14.3838 17.2672 13.6736 16.3916 13.6736C15.5159 13.6736 14.806 14.3839 14.8047 15.2605C14.8058 15.983 15.2883 16.5919 15.948 16.784C14.5739 16.9973 13.5221 18.1853 13.5221 19.6192C13.5221 18.1854 12.4704 16.9973 11.0963 16.784C11.756 16.5919 12.2384 15.9829 12.2395 15.2605C12.2382 14.3838 11.5283 13.6736 10.6526 13.6736C9.777 13.6736 9.06709 14.3839 9.06577 15.2605C9.0669 15.983 9.54937 16.5919 10.209 16.784C8.83496 16.9973 7.7832 18.1853 7.7832 19.6192V20.6054H25V19.6192C25 18.1853 23.9482 16.9973 22.5742 16.784Z" fill="#094876"/>
<path d="M20.5437 15.263C20.5437 15.2622 20.5439 15.2614 20.5439 15.2606C20.5439 15.2598 20.5437 15.2589 20.5437 15.2581V15.263Z" fill="#094876"/>
<path d="M23.7177 15.2581C23.7177 15.2589 23.7174 15.2597 23.7174 15.2605C23.7174 15.2613 23.7177 15.2621 23.7177 15.2629V15.2581Z" fill="#094876"/>
</g>
<defs>
<clipPath id="clip0_293_3587">
<rect width="25" height="25" fill="white"/>
</clipPath>
</defs>
</svg>
