<svg width="30" height="25" viewBox="0 0 30 25" fill="none" xmlns="http://www.w3.org/2000/svg">
<path fill-rule="evenodd" clip-rule="evenodd" d="M26.0185 21.6389C26.6239 21.5004 27.1968 21.0628 27.1968 20.4306C27.1968 20.1218 27.132 19.8159 26.8825 19.5985C26.5693 19.3284 25.9999 19.2432 25.5949 19.174C25.4335 19.1451 25.2751 19.1207 25.1185 19.0775C24.7783 18.9856 24.4483 18.8074 24.4483 18.4305C24.4483 18.2262 24.5761 18.0508 24.7423 17.9299C24.8359 17.8607 24.9415 17.8079 25.0537 17.7693C25.1203 17.7466 25.1899 17.729 25.2595 17.7159C25.5331 17.6677 25.8343 17.6949 26.0911 17.7948C26.3359 17.8879 26.5705 18.0633 26.6287 18.3193C26.6371 18.3562 26.6407 18.393 26.6407 18.4305C26.6407 18.5752 26.7649 18.6927 26.9179 18.6927C27.0726 18.6927 27.1968 18.5752 27.1968 18.4305C27.1968 17.7982 26.6239 17.3607 26.0185 17.2205L25.8229 17.1756V16.7653C25.8229 16.6206 25.6987 16.5031 25.5457 16.5031C25.3909 16.5031 25.2667 16.6206 25.2667 16.7653V17.1756L25.0711 17.2205C24.4657 17.3607 23.8927 17.7982 23.8927 18.4305C23.8927 18.7376 23.9575 19.0452 24.2071 19.2608C24.5203 19.5327 25.0897 19.6161 25.4947 19.6871C25.6561 19.7143 25.8145 19.7404 25.9711 19.7819C26.3131 19.8749 26.6413 20.052 26.6413 20.43C26.6413 20.6343 26.5135 20.808 26.3473 20.9289C26.2537 20.9981 26.1481 21.0509 26.0359 21.0895C25.9693 21.1139 25.8997 21.1315 25.8301 21.1429C25.5565 21.1928 25.2553 21.1639 24.9985 21.0657C24.7537 20.9709 24.5191 20.7972 24.4609 20.5413C24.4525 20.5044 24.4489 20.4675 24.4489 20.43C24.4489 20.2836 24.3247 20.1661 24.1717 20.1661C24.0169 20.1661 23.8927 20.2836 23.8927 20.43C23.8927 21.0606 24.4657 21.4999 25.0711 21.6383L25.2667 21.6832V22.0935C25.2667 22.24 25.3909 22.3574 25.5457 22.3574C25.6987 22.3574 25.8229 22.24 25.8229 22.0935V21.6832L26.0185 21.6389ZM18.5468 14.8225V25H15.9074V14.8225H18.5468ZM8.76394 6.50778L11.6193 3.15975C11.8845 2.8493 12.3759 2.81524 12.6873 3.07746L22.0519 10.752C21.9907 10.3819 22.2511 10.0295 22.6423 9.95911C23.0419 9.88646 23.4295 10.1362 23.5063 10.5142L23.9023 12.4672C24.0007 12.9206 23.6197 13.3474 23.1283 13.3134L20.9479 13.1607C20.5448 13.1318 20.2352 12.7969 20.264 12.4144C20.291 12.0381 20.6395 11.7469 21.0379 11.7674L12.2895 4.59681L9.44433 7.93179C9.17913 8.257 8.68894 8.31319 8.36074 8.03792L0.244673 1.21813C-0.0565225 0.963865 -0.0835221 0.518331 0.185274 0.231713C0.454069 -0.0532017 0.925062 -0.0787419 1.22626 0.173822L8.76394 6.50778ZM4.49201 7.39772V25H1.85205V7.39772H4.49201ZM9.17733 12.7742V24.9994H6.53797V12.7742H9.17733ZM13.8615 10.2145V24.9994H11.2221V10.2145H13.8615ZM22.3939 22.4097C20.654 20.7654 20.654 18.0962 22.3939 16.4503C24.1339 14.8044 26.9557 14.8044 28.695 16.4503C30.435 18.0962 30.435 20.7649 28.695 22.4097C26.9557 24.0556 24.1339 24.0556 22.3939 22.4097Z" fill="#0B7609"/>
</svg>
