<svg width="31" height="31" viewBox="0 0 31 31" fill="none" xmlns="http://www.w3.org/2000/svg">
<path d="M20.4083 4.90833L22.2167 6.84583L19.375 9.6875C18.8583 10.2042 18.8583 10.9792 19.375 11.4958C19.8917 12.0125 20.6667 12.0125 21.1833 11.4958L24.025 8.65417L25.9625 10.4625C26.4792 10.9792 27.125 10.5917 27.125 10.075V4.52083C27.125 4.13333 26.8667 3.875 26.4792 3.875H20.925C20.4083 3.875 20.0208 4.52083 20.4083 4.90833ZM4.90833 10.4625L6.71667 8.65417L9.55833 11.4958C10.075 12.0125 10.85 12.0125 11.3667 11.4958C11.8833 10.9792 11.8833 10.2042 11.3667 9.6875L8.65417 6.84583L10.4625 4.90833C10.9792 4.52083 10.5917 3.875 10.075 3.875H4.52083C4.13333 3.875 3.875 4.13333 3.875 4.52083V10.075C3.875 10.5917 4.52083 10.9792 4.90833 10.4625ZM10.4625 25.9625L8.525 24.1542L11.3667 21.3125C11.8833 20.7958 11.8833 20.0208 11.3667 19.5042C10.85 18.9875 10.075 18.9875 9.55833 19.5042L6.71667 22.3458L4.77917 20.5375C4.52083 20.0208 3.875 20.4083 3.875 20.925V26.4792C3.875 26.8667 4.13333 27.125 4.52083 27.125H10.075C10.5917 27.125 10.9792 26.4792 10.4625 25.9625ZM26.0917 20.4083L24.1542 22.2167L21.3125 19.375C20.7958 18.8583 20.0208 18.8583 19.5042 19.375C18.9875 19.8917 18.9875 20.6667 19.5042 21.1833L22.3458 24.025L20.5375 25.9625C20.15 26.35 20.4083 27.125 21.0542 27.125H26.6083C26.9958 27.125 27.2542 26.8667 27.2542 26.4792V20.925C27.125 20.4083 26.4792 20.0208 26.0917 20.4083Z" fill="#094876"/>
</svg>
