<svg width="22" height="22" viewBox="0 0 22 22" fill="none" xmlns="http://www.w3.org/2000/svg">
<path d="M14.4375 12.3594H19.4219C20.5673 12.3594 21.5 13.2921 21.5 14.4375V19.4219C21.5 20.5673 20.5673 21.5 19.4219 21.5H14.4375C13.2921 21.5 12.3594 20.5673 12.3594 19.4219V14.4375C12.3594 13.2921 13.2921 12.3594 14.4375 12.3594ZM19.4219 20.7812C20.1719 20.7812 20.7812 20.1719 20.7812 19.4219V14.4375C20.7812 13.6875 20.1719 13.0781 19.4219 13.0781H14.4375C13.6875 13.0781 13.0781 13.6875 13.0781 14.4375V19.4219C13.0781 20.1719 13.6875 20.7812 14.4375 20.7812H19.4219ZM2.57812 12.3594H7.5625C8.70794 12.3594 9.64062 13.2921 9.64062 14.4375V19.4219C9.64062 20.5673 8.70794 21.5 7.5625 21.5H2.57812C1.43269 21.5 0.5 20.5673 0.5 19.4219V14.4375C0.5 13.2921 1.43269 12.3594 2.57812 12.3594ZM7.5625 20.7812C8.3125 20.7812 8.92188 20.1719 8.92188 19.4219V14.4375C8.92188 13.6875 8.3125 13.0781 7.5625 13.0781H2.57812C1.82812 13.0781 1.21875 13.6875 1.21875 14.4375V19.4219C1.21875 20.1719 1.82812 20.7812 2.57812 20.7812H7.5625ZM2.57812 0.5H7.5625C8.70794 0.5 9.64062 1.43269 9.64062 2.57812V7.5625C9.64062 8.70794 8.70794 9.64062 7.5625 9.64062H2.57812C1.43269 9.64062 0.5 8.70794 0.5 7.5625V2.57812C0.5 1.43269 1.43269 0.5 2.57812 0.5ZM7.5625 8.92188C8.3125 8.92188 8.92188 8.3125 8.92188 7.5625V2.57812C8.92188 1.82812 8.3125 1.21875 7.5625 1.21875H2.57812C1.82812 1.21875 1.21875 1.82812 1.21875 2.57812V7.5625C1.21875 8.3125 1.82812 8.92188 2.57812 8.92188H7.5625ZM14.4375 0.5H19.4219C20.5673 0.5 21.5 1.43269 21.5 2.57812V7.5625C21.5 8.70794 20.5673 9.64062 19.4219 9.64062H14.4375C13.2921 9.64062 12.3594 8.70794 12.3594 7.5625V2.57812C12.3594 1.43269 13.2921 0.5 14.4375 0.5ZM19.4219 8.92188C20.1719 8.92188 20.7812 8.3125 20.7812 7.5625V2.57812C20.7812 1.82812 20.1719 1.21875 19.4219 1.21875H14.4375C13.6875 1.21875 13.0781 1.82812 13.0781 2.57812V7.5625C13.0781 8.3125 13.6875 8.92188 14.4375 8.92188H19.4219Z" fill="#167FCB" stroke="#167FCB"/>
</svg>
