<svg width="26" height="28" viewBox="0 0 26 28" fill="none" xmlns="http://www.w3.org/2000/svg">
<path d="M24.7812 25.2607H24.375V21.0366C24.375 20.9245 24.3322 20.8171 24.256 20.7379C24.1798 20.6586 24.0765 20.6141 23.9688 20.6141H21.5312C21.4235 20.6141 21.3202 20.6586 21.244 20.7379C21.1678 20.8171 21.125 20.9245 21.125 21.0366V25.2607H19.5V16.8124C19.5 16.7003 19.4572 16.5929 19.381 16.5137C19.3048 16.4345 19.2015 16.39 19.0938 16.39H16.6562C16.5485 16.39 16.4452 16.4345 16.369 16.5137C16.2928 16.5929 16.25 16.7003 16.25 16.8124V25.2607H14.625V14.2779C14.625 14.1658 14.5822 14.0584 14.506 13.9792C14.4298 13.9 14.3265 13.8555 14.2188 13.8555H11.7812C11.6735 13.8555 11.5702 13.9 11.494 13.9792C11.4178 14.0584 11.375 14.1658 11.375 14.2779V25.2607H9.75V11.7434C9.75 11.6313 9.7072 11.5239 9.63101 11.4447C9.55483 11.3654 9.45149 11.3209 9.34375 11.3209H6.90625C6.79851 11.3209 6.69517 11.3654 6.61899 11.4447C6.5428 11.5239 6.5 11.6313 6.5 11.7434V25.2607H4.875V9.20886C4.875 9.09682 4.8322 8.98938 4.75601 8.91016C4.67983 8.83094 4.57649 8.78644 4.46875 8.78644H2.03125C1.92351 8.78644 1.82017 8.83094 1.74399 8.91016C1.6678 8.98938 1.625 9.09682 1.625 9.20886V25.2607H1.21875C0.895517 25.2607 0.585524 25.3942 0.356964 25.6319C0.128404 25.8696 0 26.1919 0 26.528C0 26.8641 0.128404 27.1864 0.356964 27.4241C0.585524 27.6617 0.895517 27.7952 1.21875 27.7952H24.7812C25.1045 27.7952 25.4145 27.6617 25.643 27.4241C25.8716 27.1864 26 26.8641 26 26.528C26 26.1919 25.8716 25.8696 25.643 25.6319C25.4145 25.3942 25.1045 25.2607 24.7812 25.2607ZM21.9375 21.459H23.5625V25.2607H21.9375V21.459ZM17.0625 17.2348H18.6875V25.2607H17.0625V17.2348ZM12.1875 14.7003H13.8125V25.2607H12.1875V14.7003ZM7.3125 12.1658H8.9375V25.2607H7.3125V12.1658ZM2.4375 9.63127H4.0625V25.2607H2.4375V9.63127ZM24.7812 26.9504H1.21875C1.11101 26.9504 1.00767 26.9059 0.931488 26.8267C0.855301 26.7475 0.8125 26.64 0.8125 26.528C0.8125 26.4159 0.855301 26.3085 0.931488 26.2293C1.00767 26.1501 1.11101 26.1056 1.21875 26.1056H24.7812C24.889 26.1056 24.9923 26.1501 25.0685 26.2293C25.1447 26.3085 25.1875 26.4159 25.1875 26.528C25.1875 26.64 25.1447 26.7475 25.0685 26.8267C24.9923 26.9059 24.889 26.9504 24.7812 26.9504Z" fill="#0B7609"/>
<path d="M2.03125 6.67433H4.30056L6.61903 9.08507C6.6952 9.1643 6.79851 9.20882 6.90625 9.20884H9.17556L11.494 11.6196C11.5702 11.6988 11.6735 11.7433 11.7812 11.7433H14.0506L16.369 14.1541C16.4452 14.2333 16.5485 14.2778 16.6562 14.2779H18.9256L22.9881 18.502H21.5312C21.4235 18.502 21.3202 18.5465 21.244 18.6258C21.1678 18.705 21.125 18.8124 21.125 18.9244C21.125 19.0365 21.1678 19.1439 21.244 19.2231C21.3202 19.3024 21.4235 19.3469 21.5312 19.3469H23.9688C24.0765 19.3469 24.1798 19.3024 24.256 19.2231C24.3322 19.1439 24.375 19.0365 24.375 18.9244V16.3899C24.375 16.2779 24.3322 16.1705 24.256 16.0912C24.1798 16.012 24.0765 15.9675 23.9688 15.9675C23.861 15.9675 23.7577 16.012 23.6815 16.0912C23.6053 16.1705 23.5625 16.2779 23.5625 16.3899V17.9047L19.381 13.5568C19.3048 13.4776 19.2015 13.433 19.0938 13.433H16.8244L14.506 11.0223C14.4298 10.9431 14.3265 10.8985 14.2188 10.8985H11.9494L9.63097 8.48777C9.5548 8.40855 9.45149 8.36403 9.34375 8.364H7.07444L4.75597 5.95327C4.6798 5.87404 4.57649 5.82952 4.46875 5.8295H2.03125C1.92351 5.8295 1.82017 5.874 1.74399 5.95322C1.6678 6.03244 1.625 6.13988 1.625 6.25192C1.625 6.36395 1.6678 6.47139 1.74399 6.55061C1.82017 6.62983 1.92351 6.67433 2.03125 6.67433Z" fill="#0B7609"/>
<path d="M14.0749 5.38006C14.145 5.39901 14.2106 5.43275 14.2677 5.47919C14.3247 5.52562 14.3719 5.58376 14.4064 5.64999C14.4093 5.66139 14.4174 5.69518 14.3568 5.76995C14.2565 5.89668 13.9348 5.66139 13.9295 5.65717C13.8442 5.5886 13.7362 5.55807 13.6293 5.57229C13.5224 5.58651 13.4252 5.64432 13.3593 5.73299C13.2934 5.82166 13.264 5.93394 13.2777 6.04513C13.2914 6.15631 13.3469 6.25729 13.4322 6.32585C13.5485 6.419 13.6764 6.49518 13.8125 6.55227V6.67435C13.8125 6.78638 13.8553 6.89382 13.9315 6.97304C14.0076 7.05226 14.111 7.09677 14.2187 7.09677C14.3265 7.09677 14.4298 7.05226 14.506 6.97304C14.5822 6.89382 14.625 6.78638 14.625 6.67435V6.58311C14.7622 6.52519 14.8834 6.4329 14.978 6.31445C15.0803 6.19776 15.1533 6.05666 15.1907 5.90363C15.228 5.7506 15.2285 5.59036 15.1921 5.43709C15.1291 5.23709 15.0209 5.05573 14.8765 4.90821C14.7322 4.7607 14.5559 4.65133 14.3625 4.58929C14.2924 4.57035 14.2268 4.5366 14.1698 4.49017C14.1128 4.44373 14.0655 4.38559 14.031 4.31937C14.0282 4.30796 14.0201 4.27417 14.0806 4.1994C14.1818 4.07268 14.5051 4.30965 14.5059 4.3105C14.591 4.37934 14.6989 4.41023 14.8059 4.39637C14.9128 4.3825 15.0101 4.32503 15.0763 4.23658C15.1425 4.14813 15.1722 4.03595 15.1589 3.92473C15.1456 3.81351 15.0903 3.71235 15.0052 3.6435C14.8891 3.54994 14.7612 3.47346 14.625 3.41624V3.29501C14.625 3.18297 14.5822 3.07553 14.506 2.99631C14.4298 2.91709 14.3265 2.87259 14.2187 2.87259C14.111 2.87259 14.0076 2.91709 13.9315 2.99631C13.8553 3.07553 13.8125 3.18297 13.8125 3.29501V3.38414C13.6752 3.44287 13.5539 3.53586 13.4594 3.65491C13.357 3.77151 13.2837 3.91254 13.2461 4.06555C13.2085 4.21856 13.2077 4.37885 13.2437 4.53227C13.307 4.73238 13.4155 4.9138 13.5601 5.06131C13.7047 5.20883 13.8813 5.31813 14.0749 5.38006Z" fill="#0B7609"/>
<path d="M22.0232 14.1148C22.0612 14.1655 22.1098 14.2066 22.1654 14.2348C22.2209 14.263 22.2819 14.2777 22.3437 14.2777C22.4056 14.2777 22.4666 14.263 22.5221 14.2348C22.5777 14.2066 22.6263 14.1655 22.6643 14.1148L25.508 10.3131C25.5547 10.2506 25.5836 10.1759 25.5915 10.0972C25.5993 10.0186 25.5857 9.93921 25.5523 9.86817C25.519 9.79713 25.4671 9.73727 25.4026 9.69539C25.3381 9.65351 25.2635 9.63129 25.1875 9.63127H23.5625V1.18292C23.5625 1.07088 23.5197 0.96344 23.4435 0.884221C23.3673 0.805003 23.264 0.760498 23.1562 0.760498C23.0485 0.760498 22.9452 0.805003 22.869 0.884221C22.7928 0.96344 22.75 1.07088 22.75 1.18292V10.0537C22.75 10.1657 22.7928 10.2732 22.869 10.3524C22.9452 10.4316 23.0485 10.4761 23.1562 10.4761H24.3567L22.3437 13.1673L20.3308 10.4761H21.5312C21.639 10.4761 21.7423 10.4316 21.8185 10.3524C21.8947 10.2732 21.9375 10.1657 21.9375 10.0537V1.18292C21.9375 1.07088 21.8947 0.96344 21.8185 0.884221C21.7423 0.805003 21.639 0.760498 21.5312 0.760498C21.4235 0.760498 21.3202 0.805003 21.244 0.884221C21.1678 0.96344 21.125 1.07088 21.125 1.18292V9.63127H19.5C19.424 9.63129 19.3494 9.65351 19.2849 9.69539C19.2204 9.73727 19.1685 9.79713 19.1351 9.86817C19.1018 9.93921 19.0882 10.0186 19.096 10.0972C19.1039 10.1759 19.1328 10.2506 19.1795 10.3131L22.0232 14.1148Z" fill="#0B7609"/>
<path d="M14.2188 8.78644C14.9419 8.78644 15.6488 8.56347 16.2501 8.14573C16.8513 7.72799 17.32 7.13423 17.5967 6.43955C17.8734 5.74487 17.9458 4.98047 17.8047 4.243C17.6637 3.50553 17.3154 2.82812 16.8041 2.29643C16.2928 1.76475 15.6413 1.40267 14.932 1.25597C14.2228 1.10928 13.4877 1.18457 12.8196 1.47232C12.1515 1.76006 11.5804 2.24734 11.1787 2.87254C10.7769 3.49773 10.5625 4.23277 10.5625 4.98468C10.5636 5.99263 10.9491 6.95897 11.6346 7.6717C12.32 8.38442 13.2494 8.78532 14.2188 8.78644ZM14.2188 2.02776C14.7812 2.02776 15.331 2.20118 15.7987 2.52609C16.2663 2.851 16.6308 3.31281 16.846 3.85312C17.0613 4.39342 17.1176 4.98796 17.0079 5.56155C16.8981 6.13514 16.6273 6.66201 16.2296 7.07554C15.8319 7.48908 15.3252 7.7707 14.7735 7.88479C14.2219 7.99888 13.6501 7.94033 13.1305 7.71652C12.6109 7.49272 12.1667 7.11373 11.8543 6.62746C11.5418 6.1412 11.375 5.56951 11.375 4.98468C11.3759 4.20073 11.6757 3.44915 12.2089 2.89481C12.742 2.34047 13.4648 2.02865 14.2188 2.02776Z" fill="#0B7609"/>
</svg>
