<svg width="26" height="26" viewBox="0 0 26 26" fill="none" xmlns="http://www.w3.org/2000/svg">
<g clip-path="url(#clip0_122_70)">
<path fill-rule="evenodd" clip-rule="evenodd" d="M18.6334 16.4667C19.112 16.4667 19.5 16.8547 19.5 17.3333C19.5 17.5727 19.694 17.7667 19.9334 17.7667C20.1727 17.7667 20.3667 17.5727 20.3667 17.3333C20.3637 16.5454 19.8297 15.8585 19.0667 15.6615V15.1667C19.0667 14.9273 18.8727 14.7333 18.6334 14.7333C18.394 14.7333 18.2 14.9273 18.2 15.1667V15.6615C17.3558 15.8788 16.8051 16.6904 16.9152 17.5552C17.0252 18.42 17.7616 19.0678 18.6334 19.0667C19.112 19.0667 19.5 19.4547 19.5 19.9333C19.5 20.412 19.112 20.8 18.6334 20.8C18.1547 20.8 17.7667 20.412 17.7667 19.9333C17.7667 19.694 17.5727 19.5 17.3334 19.5C17.094 19.5 16.9 19.694 16.9 19.9333C16.903 20.7213 17.4371 21.4081 18.2 21.6051V22.1C18.2 22.3393 18.394 22.5333 18.6334 22.5333C18.8727 22.5333 19.0667 22.3393 19.0667 22.1V21.6051C19.9109 21.3878 20.4616 20.5763 20.3515 19.7115C20.2415 18.8467 19.5051 18.1989 18.6334 18.2C18.1547 18.2 17.7667 17.812 17.7667 17.3333C17.7667 16.8547 18.1547 16.4667 18.6334 16.4667Z" fill="#0B7609"/>
<path d="M18.6333 13C15.5221 13 13 15.5221 13 18.6333C13 21.7445 15.5221 24.2667 18.6333 24.2667C21.7445 24.2667 24.2667 21.7445 24.2667 18.6333C24.2631 15.5236 21.7431 13.0036 18.6333 13ZM18.6333 23.4C16.0008 23.4 13.8667 21.2659 13.8667 18.6333C13.8667 16.0008 16.0008 13.8667 18.6333 13.8667C21.2659 13.8667 23.4 16.0008 23.4 18.6333C23.3969 21.2646 21.2646 23.3969 18.6333 23.4Z" fill="#0B7609"/>
<path d="M19.139 11.2922L22.36 6.98533C22.5956 6.67106 22.5886 6.23717 22.3431 5.9306L17.8676 0.328467C17.7004 0.120883 17.4482 0.000127934 17.1817 5.41508e-10H5.35166C5.0855 -9.32479e-06 4.83364 0.120426 4.66656 0.3276L0.190225 5.93017C-0.0550162 6.23685 -0.061965 6.67052 0.173325 6.9849L10.5699 20.8867C10.8359 21.2395 11.3249 21.3357 11.7048 21.1098C12.9401 24.574 16.5424 26.595 20.1427 25.8438C23.7429 25.0926 26.2365 21.7997 25.9834 18.1306C25.7304 14.4615 22.8083 11.542 19.139 11.2922ZM11.2667 1.30693L13.9867 6.06667H8.54662L11.2667 1.30693ZM7.85546 5.52933L5.85866 0.866667H10.5196L7.85546 5.52933ZM12.0137 0.866667H16.6738L14.6779 5.52933L12.0137 0.866667ZM15.0904 6.93333H21.3165L18.0544 11.2961C16.5476 11.4118 15.1134 11.9905 13.9481 12.9528L15.0904 6.93333ZM21.3451 6.06667H15.3903L17.4677 1.21593L21.3451 6.06667ZM5.06999 1.22157L7.14306 6.06667H1.19122L5.06999 1.22157ZM7.44119 6.93333L9.56712 18.1008L1.21332 6.93333H7.44119ZM11.2628 20.3667L10.7501 19.682L8.32346 6.93333H14.2099L12.8509 14.0833C11.4956 15.7932 10.9732 18.0183 11.4261 20.1526L11.2628 20.3667ZM18.6333 25.1333C15.0435 25.1333 12.1333 22.2232 12.1333 18.6333C12.1333 15.0435 15.0435 12.1333 18.6333 12.1333C22.2232 12.1333 25.1333 15.0435 25.1333 18.6333C25.1293 22.2215 22.2215 25.1293 18.6333 25.1333Z" fill="#0B7609"/>
</g>
<defs>
<clipPath id="clip0_122_70">
<rect width="26" height="26" fill="white"/>
</clipPath>
</defs>
</svg>
