<svg width="26" height="27" viewBox="0 0 26 27" fill="none" xmlns="http://www.w3.org/2000/svg">
<path d="M0.40625 22.4514H25.5938V23.2639H0.40625V22.4514Z" fill="black"/>
<path d="M1.625 13.5139C1.51726 13.5139 1.41392 13.5567 1.33774 13.6329C1.26155 13.7091 1.21875 13.8124 1.21875 13.9202V21.2327C1.21875 21.3404 1.26155 21.4437 1.33774 21.5199C1.41392 21.5961 1.51726 21.6389 1.625 21.6389H4.875C4.98274 21.6389 5.08608 21.5961 5.16226 21.5199C5.23845 21.4437 5.28125 21.3404 5.28125 21.2327V13.9202C5.28125 13.8124 5.23845 13.7091 5.16226 13.6329C5.08608 13.5567 4.98274 13.5139 4.875 13.5139H1.625ZM4.46875 20.8264H2.03125V14.3264H4.46875V20.8264Z" fill="black"/>
<path d="M8.125 21.6389H11.375C11.4827 21.6389 11.5861 21.5961 11.6623 21.5199C11.7384 21.4437 11.7812 21.3404 11.7812 21.2327V13.9202C11.7812 13.8124 11.7384 13.7091 11.6623 13.6329C11.5861 13.5567 11.4827 13.5139 11.375 13.5139H8.125C8.01726 13.5139 7.91392 13.5567 7.83774 13.6329C7.76155 13.7091 7.71875 13.8124 7.71875 13.9202V21.2327C7.71875 21.3404 7.76155 21.4437 7.83774 21.5199C7.91392 21.5961 8.01726 21.6389 8.125 21.6389ZM8.53125 14.3264H10.9688V20.8264H8.53125V14.3264Z" fill="black"/>
<path d="M21.125 13.9202C21.0173 13.9202 20.9139 13.963 20.8377 14.0392C20.7616 14.1153 20.7188 14.2187 20.7188 14.3264V21.2327C20.7188 21.3404 20.7616 21.4437 20.8377 21.5199C20.9139 21.5961 21.0173 21.6389 21.125 21.6389H24.375C24.4827 21.6389 24.5861 21.5961 24.6623 21.5199C24.7384 21.4437 24.7812 21.3404 24.7812 21.2327V14.3264C24.7812 14.2187 24.7384 14.1153 24.6623 14.0392C24.5861 13.963 24.4827 13.9202 24.375 13.9202H21.125ZM23.9688 20.8264H21.5312V14.7327H23.9688V20.8264Z" fill="black"/>
<path d="M18.2812 7.82639H19.5C19.5766 7.82617 19.6515 7.80432 19.7162 7.76335C19.7809 7.72238 19.8327 7.66396 19.8656 7.59483C19.8981 7.52627 19.9108 7.44997 19.9022 7.37458C19.8936 7.29919 19.864 7.22772 19.8169 7.16826L16.5669 3.10576C16.5288 3.05831 16.4806 3.02002 16.4257 2.99371C16.3709 2.9674 16.3108 2.95374 16.25 2.95374C16.1892 2.95374 16.1291 2.9674 16.0743 2.99371C16.0194 3.02002 15.9712 3.05831 15.9331 3.10576L12.6831 7.16826C12.636 7.22772 12.6064 7.29919 12.5978 7.37458C12.5892 7.44997 12.6018 7.52627 12.6344 7.59483C12.6673 7.66396 12.7191 7.72238 12.7838 7.76335C12.8485 7.80432 12.9234 7.82617 13 7.82639H14.2187V20.0139H15.0312V7.42014C15.0312 7.31239 14.9884 7.20906 14.9122 7.13288C14.8361 7.05669 14.7327 7.01389 14.625 7.01389H13.845L16.25 4.00764L18.655 7.01389H17.875C17.7672 7.01389 17.6639 7.05669 17.5877 7.13288C17.5115 7.20906 17.4687 7.31239 17.4687 7.42014V20.0139H18.2812V7.82639Z" fill="black"/>
<path d="M14.2188 20.8264H15.0312V21.6389H14.2188V20.8264Z" fill="black"/>
<path d="M15.8438 20.8264H16.6562V21.6389H15.8438V20.8264Z" fill="black"/>
<path d="M17.4688 20.8264H18.2812V21.6389H17.4688V20.8264Z" fill="black"/>
</svg>
