<svg width="16" height="16" viewBox="0 0 16 16" fill="none" xmlns="http://www.w3.org/2000/svg">
<path d="M14.5 7.5C14.3674 7.5 14.2402 7.55268 14.1464 7.64645C14.0527 7.74021 14 7.86739 14 8V12.5C14 12.8978 13.842 13.2794 13.5607 13.5607C13.2794 13.842 12.8978 14 12.5 14H3.5C3.10217 14 2.72064 13.842 2.43934 13.5607C2.15804 13.2794 2 12.8978 2 12.5V3.5C2 3.10218 2.15804 2.72064 2.43934 2.43934C2.72064 2.15804 3.10217 2 3.5 2H8C8.13261 2 8.25978 1.94732 8.35355 1.85355C8.44732 1.75979 8.5 1.63261 8.5 1.5C8.5 1.36739 8.44732 1.24021 8.35355 1.14645C8.25978 1.05268 8.13261 1 8 1H3.5C2.83696 1 2.20107 1.26339 1.73223 1.73223C1.26339 2.20107 1 2.83696 1 3.5V12.5C1 13.163 1.26339 13.7989 1.73223 14.2678C2.20107 14.7366 2.83696 15 3.5 15H12.5C13.163 15 13.7989 14.7366 14.2678 14.2678C14.7366 13.7989 15 13.163 15 12.5V8C15 7.86739 14.9473 7.74021 14.8536 7.64645C14.7598 7.55268 14.6326 7.5 14.5 7.5Z" fill="#094876"/>
<path d="M11 2.00001H13.295L7.645 7.64501C7.59814 7.69149 7.56094 7.74679 7.53555 7.80772C7.51017 7.86865 7.4971 7.934 7.4971 8.00001C7.4971 8.06601 7.51017 8.13137 7.53555 8.1923C7.56094 8.25323 7.59814 8.30853 7.645 8.35501C7.69148 8.40187 7.74678 8.43907 7.80771 8.46445C7.86864 8.48984 7.93399 8.50291 8 8.50291C8.06601 8.50291 8.13136 8.48984 8.19229 8.46445C8.25322 8.43907 8.30852 8.40187 8.355 8.35501L14 2.71001V5.00001C14 5.13262 14.0527 5.25979 14.1464 5.35356C14.2402 5.44733 14.3674 5.50001 14.5 5.50001C14.6326 5.50001 14.7598 5.44733 14.8536 5.35356C14.9473 5.25979 15 5.13262 15 5.00001V1.50001C15.0004 1.4342 14.9878 1.36897 14.9629 1.30806C14.938 1.24714 14.9013 1.19173 14.855 1.14501C14.8083 1.09867 14.7529 1.06201 14.692 1.03712C14.631 1.01224 14.5658 0.999628 14.5 1.00001H11C10.8674 1.00001 10.7402 1.05269 10.6464 1.14645C10.5527 1.24022 10.5 1.3674 10.5 1.50001C10.5 1.63262 10.5527 1.75979 10.6464 1.85356C10.7402 1.94733 10.8674 2.00001 11 2.00001Z" fill="#094876"/>
</svg>
