<svg width="16" height="16" viewBox="0 0 16 16" fill="none" xmlns="http://www.w3.org/2000/svg">
<path d="M14.5 7.50003C14.3674 7.50003 14.2402 7.55271 14.1464 7.64648C14.0527 7.74025 14 7.86742 14 8.00003V12.5C14 12.8979 13.842 13.2794 13.5607 13.5607C13.2794 13.842 12.8978 14 12.5 14H3.5C3.10218 14 2.72064 13.842 2.43934 13.5607C2.15804 13.2794 2 12.8979 2 12.5V3.50003C2 3.10221 2.15804 2.72067 2.43934 2.43937C2.72064 2.15807 3.10218 2.00003 3.5 2.00003H8C8.13261 2.00003 8.25978 1.94735 8.35355 1.85358C8.44732 1.75982 8.5 1.63264 8.5 1.50003C8.5 1.36742 8.44732 1.24025 8.35355 1.14648C8.25978 1.05271 8.13261 1.00003 8 1.00003H3.5C2.83696 1.00003 2.20107 1.26342 1.73223 1.73226C1.26339 2.2011 1 2.83699 1 3.50003V12.5C1 13.1631 1.26339 13.799 1.73223 14.2678C2.20107 14.7366 2.83696 15 3.5 15H12.5C13.163 15 13.7989 14.7366 14.2678 14.2678C14.7366 13.799 15 13.1631 15 12.5V8.00003C15 7.86742 14.9473 7.74025 14.8536 7.64648C14.7598 7.55271 14.6326 7.50003 14.5 7.50003Z" fill="#3D2E97"/>
<path d="M11 2.00001H13.295L7.645 7.64501C7.59814 7.69149 7.56094 7.74679 7.53555 7.80772C7.51017 7.86865 7.4971 7.934 7.4971 8.00001C7.4971 8.06601 7.51017 8.13137 7.53555 8.1923C7.56094 8.25323 7.59814 8.30853 7.645 8.35501C7.69148 8.40187 7.74678 8.43907 7.80771 8.46445C7.86864 8.48984 7.93399 8.50291 8 8.50291C8.06601 8.50291 8.13136 8.48984 8.19229 8.46445C8.25322 8.43907 8.30852 8.40187 8.355 8.35501L14 2.71001V5.00001C14 5.13262 14.0527 5.25979 14.1464 5.35356C14.2402 5.44733 14.3674 5.50001 14.5 5.50001C14.6326 5.50001 14.7598 5.44733 14.8536 5.35356C14.9473 5.25979 15 5.13262 15 5.00001V1.50001C15.0004 1.4342 14.9878 1.36897 14.9629 1.30806C14.938 1.24714 14.9013 1.19173 14.855 1.14501C14.8083 1.09867 14.7529 1.06201 14.692 1.03712C14.631 1.01224 14.5658 0.999628 14.5 1.00001H11C10.8674 1.00001 10.7402 1.05269 10.6464 1.14645C10.5527 1.24022 10.5 1.3674 10.5 1.50001C10.5 1.63262 10.5527 1.75979 10.6464 1.85356C10.7402 1.94733 10.8674 2.00001 11 2.00001Z" fill="#3D2E97"/>
</svg>
