<svg width="26" height="26" viewBox="0 0 26 26" fill="none" xmlns="http://www.w3.org/2000/svg">
<g clip-path="url(#clip0_122_109)">
<path d="M13.4062 3.25H21.5312V4.0625H13.4062V3.25Z" fill="#3D2E97"/>
<path d="M13.4062 5.28125H21.5312V6.09375H13.4062V5.28125Z" fill="#3D2E97"/>
<path d="M13.4062 7.3125H21.5312V8.125H13.4062V7.3125Z" fill="#3D2E97"/>
<path d="M9.75 9.34375H21.5312V10.1562H9.75V9.34375Z" fill="#3D2E97"/>
<path d="M9.75 11.375H21.5312V12.1875H9.75V11.375Z" fill="#3D2E97"/>
<path d="M9.75 13.4062H12.5938V14.2188H9.75V13.4062Z" fill="#3D2E97"/>
<path d="M24.3709 19.8413C24.3555 19.7458 24.3065 19.659 24.2328 19.5965C24.159 19.5339 24.0654 19.4997 23.9688 19.5V2.84375C23.9688 2.30503 23.7547 1.78837 23.3738 1.40744C22.9929 1.02651 22.4762 0.8125 21.9375 0.8125H6.09375C5.55503 0.8125 5.03837 1.02651 4.65744 1.40744C4.27651 1.78837 4.0625 2.30503 4.0625 2.84375V10.1562H1.21875C1.11101 10.1562 1.00767 10.1991 0.931488 10.2752C0.855301 10.3514 0.8125 10.4548 0.8125 10.5625V13.8125C0.8125 14.3512 1.02651 14.8679 1.40744 15.2488C1.78837 15.6297 2.30503 15.8438 2.84375 15.8438H7.3125V21.5312C7.3125 21.639 7.3553 21.7423 7.43149 21.8185C7.50767 21.8947 7.61101 21.9375 7.71875 21.9375H8.59219L8.12906 24.7163C8.11963 24.7744 8.12297 24.834 8.13886 24.8907C8.15475 24.9475 8.1828 25.0001 8.22107 25.045C8.25933 25.0898 8.3069 25.1258 8.36046 25.1504C8.41403 25.175 8.4723 25.1877 8.53125 25.1875H24.7812C24.8402 25.1877 24.8985 25.175 24.952 25.1504C25.0056 25.1258 25.0532 25.0898 25.0914 25.045C25.1297 25.0001 25.1578 24.9475 25.1736 24.8907C25.1895 24.834 25.1929 24.7744 25.1834 24.7163L24.3709 19.8413ZM4.0625 13.8125C4.0625 14.1357 3.9341 14.4457 3.70554 14.6743C3.47698 14.9028 3.16698 15.0312 2.84375 15.0312C2.52052 15.0312 2.21052 14.9028 1.98196 14.6743C1.7534 14.4457 1.625 14.1357 1.625 13.8125V10.9688H4.0625V13.8125ZM7.3125 15.0312H4.45656C4.72665 14.6823 4.87377 14.2538 4.875 13.8125V2.84375C4.875 2.52052 5.0034 2.21052 5.23196 1.98196C5.46052 1.7534 5.77052 1.625 6.09375 1.625C6.41698 1.625 6.72698 1.7534 6.95554 1.98196C7.1841 2.21052 7.3125 2.52052 7.3125 2.84375V15.0312ZM8.73031 21.125H8.125V2.84375C8.12377 2.40247 7.97665 1.97398 7.70656 1.625H21.9375C22.2604 1.62596 22.5699 1.75468 22.7982 1.98303C23.0266 2.21138 23.1553 2.52081 23.1562 2.84375V19.5H21.0641L20.3084 14.9663C20.293 14.8708 20.244 14.784 20.1703 14.7215C20.0965 14.6589 20.0029 14.6247 19.9062 14.625H13.4062C13.3096 14.6247 13.216 14.6589 13.1422 14.7215C13.0685 14.784 13.0195 14.8708 13.0041 14.9663L12.2484 19.5H9.34375C9.24707 19.4997 9.15346 19.5339 9.07974 19.5965C9.00603 19.659 8.95703 19.7458 8.94156 19.8413L8.73031 21.125ZM20.2394 19.5H13.0731L13.7516 15.4375H19.5609L20.2394 19.5ZM9.01063 24.375L9.68906 20.3125H15.4984L16.1769 24.375H9.01063ZM16.6562 22.3112L16.3231 20.3125H16.9894L16.6562 22.3112ZM17.1356 24.375L17.8141 20.3125H23.6234L24.3019 24.375H17.1356Z" fill="#3D2E97"/>
<path d="M10.1562 7.71875H10.5625V8.125H11.375V7.71875H11.7812C11.889 7.71875 11.9923 7.67595 12.0685 7.59976C12.1447 7.52358 12.1875 7.42024 12.1875 7.3125V5.6875C12.1875 5.57976 12.1447 5.47642 12.0685 5.40024C11.9923 5.32405 11.889 5.28125 11.7812 5.28125H10.5625V4.46875H11.375V4.875H12.1875V4.0625C12.1875 3.95476 12.1447 3.85142 12.0685 3.77524C11.9923 3.69905 11.889 3.65625 11.7812 3.65625H11.375V3.25H10.5625V3.65625H10.1562C10.0485 3.65625 9.94517 3.69905 9.86899 3.77524C9.7928 3.85142 9.75 3.95476 9.75 4.0625V5.6875C9.75 5.79524 9.7928 5.89858 9.86899 5.97476C9.94517 6.05095 10.0485 6.09375 10.1562 6.09375H11.375V6.90625H10.5625V6.5H9.75V7.3125C9.75 7.42024 9.7928 7.52358 9.86899 7.59976C9.94517 7.67595 10.0485 7.71875 10.1562 7.71875Z" fill="#3D2E97"/>
</g>
<defs>
<clipPath id="clip0_122_109">
<rect width="26" height="26" fill="white"/>
</clipPath>
</defs>
</svg>
