<svg width="22" height="22" viewBox="0 0 22 22" fill="none" xmlns="http://www.w3.org/2000/svg">
<path d="M14.4375 12.2094H19.4219C20.6502 12.2094 21.65 13.2092 21.65 14.4375V19.4219C21.65 20.6502 20.6502 21.65 19.4219 21.65H14.4375C13.2092 21.65 12.2094 20.6502 12.2094 19.4219V14.4375C12.2094 13.2092 13.2092 12.2094 14.4375 12.2094ZM19.4219 20.6313C20.089 20.6313 20.6313 20.089 20.6313 19.4219V14.4375C20.6313 13.7703 20.089 13.2281 19.4219 13.2281H14.4375C13.7703 13.2281 13.2281 13.7703 13.2281 14.4375V19.4219C13.2281 20.089 13.7703 20.6313 14.4375 20.6313H19.4219ZM2.57812 12.2094H7.5625C8.79078 12.2094 9.79063 13.2092 9.79063 14.4375V19.4219C9.79063 20.6502 8.79078 21.65 7.5625 21.65H2.57812C1.34985 21.65 0.35 20.6502 0.35 19.4219V14.4375C0.35 13.2092 1.34985 12.2094 2.57812 12.2094ZM7.5625 20.6313C8.22966 20.6313 8.77188 20.089 8.77188 19.4219V14.4375C8.77188 13.7703 8.22966 13.2281 7.5625 13.2281H2.57812C1.91097 13.2281 1.36875 13.7703 1.36875 14.4375V19.4219C1.36875 20.089 1.91097 20.6313 2.57812 20.6313H7.5625ZM2.57812 0.35H7.5625C8.79078 0.35 9.79063 1.34985 9.79063 2.57812V7.5625C9.79063 8.79078 8.79078 9.79063 7.5625 9.79063H2.57812C1.34985 9.79063 0.35 8.79078 0.35 7.5625V2.57812C0.35 1.34985 1.34985 0.35 2.57812 0.35ZM7.5625 8.77188C8.22966 8.77188 8.77188 8.22966 8.77188 7.5625V2.57812C8.77188 1.91097 8.22966 1.36875 7.5625 1.36875H2.57812C1.91097 1.36875 1.36875 1.91097 1.36875 2.57812V7.5625C1.36875 8.22966 1.91097 8.77188 2.57812 8.77188H7.5625ZM14.4375 0.35H19.4219C20.6502 0.35 21.65 1.34985 21.65 2.57812V7.5625C21.65 8.79078 20.6502 9.79063 19.4219 9.79063H14.4375C13.2092 9.79063 12.2094 8.79078 12.2094 7.5625V2.57812C12.2094 1.34985 13.2092 0.35 14.4375 0.35ZM19.4219 8.77188C20.089 8.77188 20.6313 8.22966 20.6313 7.5625V2.57812C20.6313 1.91097 20.089 1.36875 19.4219 1.36875H14.4375C13.7703 1.36875 13.2281 1.91097 13.2281 2.57812V7.5625C13.2281 8.22966 13.7703 8.77188 14.4375 8.77188H19.4219Z" fill="#167FCB" stroke="#167FCB" stroke-width="0.7"/>
</svg>
