<svg width="25" height="25" viewBox="0 0 25 25" fill="none" xmlns="http://www.w3.org/2000/svg">
<path d="M22.0392 18.1187C22.4462 17.6629 22.6703 17.079 22.6703 16.4746C22.6703 15.0892 21.5099 13.962 20.0834 13.962C19.3324 13.962 18.6195 14.2785 18.1276 14.8303C17.7207 15.2864 17.4966 15.8704 17.4966 16.4746C17.4966 17.8599 18.657 18.9869 20.0834 18.9869C20.8346 18.9869 21.5475 18.6704 22.0392 18.1187ZM18.2513 16.4746C18.2513 16.0467 18.41 15.6331 18.6981 15.3102C18.6981 15.3102 18.6982 15.3101 18.6982 15.3101C19.0466 14.9192 19.5516 14.695 20.0834 14.695C21.0937 14.695 21.9156 15.4934 21.9156 16.4747C21.9156 16.9026 21.757 17.3161 21.4687 17.6389C21.1203 18.0298 20.6154 18.254 20.0834 18.254C19.0732 18.2539 18.2513 17.4557 18.2513 16.4746Z" fill="#094876"/>
<path d="M23.5693 13.1157C22.667 12.2324 21.4711 11.7299 20.2019 11.7009C18.8649 11.6703 17.6033 12.1524 16.6482 13.0583C15.6929 13.9645 15.1667 15.1778 15.1667 16.4745C15.1667 17.0949 15.2885 17.6999 15.5285 18.2726C15.6071 18.4601 15.8273 18.5502 16.0203 18.4739C16.2133 18.3976 16.3061 18.1838 16.2275 17.9963C16.0244 17.5118 15.9215 16.9997 15.9215 16.4745C15.9215 15.3768 16.3669 14.3498 17.1756 13.5827C17.984 12.8159 19.0529 12.4073 20.1841 12.4337C21.2574 12.4582 22.2694 12.8838 23.0335 13.6319C23.7977 14.38 24.2278 15.3663 24.2449 16.409C24.2595 17.3084 23.9763 18.1639 23.4231 18.8867L21.3711 21.6347C21.0013 22.1299 20.7464 22.6841 20.6134 23.2819L20.4598 23.9722C20.4217 24.1431 20.2635 24.267 20.0835 24.267C19.9035 24.267 19.7453 24.143 19.7073 23.9721L19.5536 23.2819C19.4206 22.6841 19.1656 22.1298 18.7959 21.6346L17.0229 19.2603C16.9006 19.0965 16.6646 19.06 16.4958 19.1788C16.3271 19.2977 16.2895 19.5268 16.4119 19.6907L18.1849 22.0649C18.4928 22.4773 18.7052 22.9389 18.8159 23.4368L18.9695 24.127C19.082 24.6329 19.5505 25 20.0834 25C20.6163 25 21.0848 24.6328 21.1973 24.127L21.3509 23.4367C21.4617 22.9389 21.674 22.4774 21.9819 22.0649L24.0313 19.3204C24.682 18.4704 25.0167 17.4596 24.9994 16.3973C24.9794 15.1643 24.4715 13.9989 23.5693 13.1157Z" fill="#094876"/>
<path d="M4.01191 6.00271C4.63515 6.00271 5.22671 5.74007 5.63461 5.28245C5.97232 4.90413 6.15834 4.41966 6.15834 3.91814C6.15834 3.61384 6.09183 3.31985 5.9606 3.04426C5.87312 2.86052 5.64883 2.78045 5.45974 2.86541C5.27055 2.95032 5.18815 3.16814 5.27558 3.35183C5.3605 3.5303 5.40363 3.72088 5.40363 3.91814C5.40363 4.24324 5.28312 4.55725 5.06416 4.80247C4.7995 5.09939 4.41599 5.26975 4.01191 5.26975C3.24453 5.26975 2.62024 4.66345 2.62024 3.91819C2.62024 3.59314 2.74075 3.27898 2.95971 3.03362C3.22437 2.7367 3.60788 2.56633 4.01196 2.56633C4.08325 2.56633 4.1548 2.57161 4.22468 2.58196C4.43072 2.61272 4.62323 2.47522 4.65475 2.27512C4.68628 2.07507 4.54485 1.88801 4.33881 1.85745C4.23127 1.84148 4.12131 1.83337 4.01191 1.83337C3.38868 1.83337 2.79711 2.09602 2.38912 2.55378C2.05145 2.9323 1.86548 3.41687 1.86548 3.91819C1.86553 5.06756 2.82839 6.00271 4.01191 6.00271Z" fill="#094876"/>
<path d="M2.4309 8.43699C2.67133 8.75892 2.83704 9.11917 2.92352 9.50784L3.04649 10.0606C3.14403 10.499 3.55002 10.8172 4.01192 10.8172C4.47381 10.8172 4.8798 10.499 4.97734 10.0606L5.10032 9.50789C5.18679 9.11917 5.35256 8.75892 5.59293 8.43704L7.23332 6.24026C7.76425 5.54671 8.03741 4.7219 8.02328 3.85511C8.00689 2.84895 7.5925 1.89793 6.8564 1.17732C6.12014 0.456616 5.14431 0.0466546 4.1085 0.0229241C3.01769 -0.00222241 1.98821 0.391382 1.20886 1.13059C0.429367 1.87 0 2.85994 0 3.91804C0 4.7617 0.273357 5.56473 0.787893 6.2368L2.4309 8.43699ZM1.73622 1.65491C2.35 1.07268 3.15514 0.754761 4.01136 0.754761C4.03766 0.754761 4.06425 0.755054 4.09065 0.755688C4.93048 0.774878 5.7224 1.10793 6.32049 1.69348C6.91859 2.27903 7.2553 3.05076 7.26857 3.86668C7.28003 4.57058 7.05836 5.24012 6.62497 5.80643L4.98196 8.00662C4.6798 8.41131 4.4714 8.86429 4.36265 9.35296L4.23967 9.90565C4.21664 10.0091 4.12087 10.0842 4.01197 10.0842C3.90307 10.0842 3.80724 10.0091 3.78426 9.9057L3.66128 9.35301C3.55253 8.86439 3.34419 8.41141 3.04192 8.00667L1.3963 5.80296C0.976684 5.25477 0.754861 4.60296 0.754861 3.91804C0.75471 3.05901 1.10333 2.25525 1.73622 1.65491Z" fill="#094876"/>
<path d="M21.317 4.19742C21.1764 4.34683 21.1872 4.57867 21.3411 4.71519C21.4135 4.77945 21.5046 4.81109 21.5955 4.81109C21.6978 4.81109 21.7998 4.77091 21.8742 4.69181L21.8807 4.68497C21.8898 4.67545 21.8989 4.66588 21.9072 4.6565C22.1932 4.33614 22.3507 3.92584 22.3507 3.50118C22.3507 2.52774 21.5353 1.73575 20.5331 1.73575C20.0096 1.73575 19.5113 1.95528 19.166 2.33809C19.0287 2.49034 19.0444 2.72188 19.2012 2.85523C19.358 2.98863 19.5964 2.97335 19.7337 2.82105C19.9358 2.59713 20.2271 2.46866 20.5332 2.46866C21.1192 2.46866 21.5961 2.93184 21.5961 3.50113C21.5961 3.74942 21.5041 3.98917 21.3366 4.17682L21.317 4.19742Z" fill="#094876"/>
<path d="M17.6903 1.97254C17.8596 2.09065 18.0954 2.05306 18.217 1.8887C18.7678 1.14392 19.6596 0.711306 20.602 0.733718C21.3369 0.750515 22.0299 1.04202 22.5534 1.55442C23.0768 2.06687 23.3715 2.74227 23.3831 3.45618C23.3931 4.07215 23.1991 4.65814 22.8195 5.15418L22.4294 5.67659C22.3071 5.84041 22.3447 6.06956 22.5134 6.18841C22.5803 6.23558 22.6578 6.25824 22.7345 6.25824C22.8513 6.25824 22.9665 6.2057 23.0403 6.10687L23.4278 5.58792C23.9049 4.96463 24.1504 4.22347 24.1377 3.44456C24.123 2.54036 23.7505 1.68572 23.0891 1.03821C22.4276 0.390652 21.5507 0.0222432 20.6198 0.000954088C19.4276 -0.0259991 18.3004 0.519509 17.604 1.46111C17.5707 1.50618 17.4717 1.73577 17.6303 1.92029C17.648 1.93933 17.6679 1.95696 17.6903 1.97254Z" fill="#094876"/>
<path d="M17.0732 21.9465C17.0738 21.8449 17.0315 21.7437 16.9474 21.6708C16.7918 21.5361 16.5532 21.5494 16.4146 21.7005C16.1749 21.9615 15.9251 22.2008 15.6712 22.413C15.1387 22.5919 14.594 22.7281 14.0394 22.8223C14.4603 21.9428 14.8213 20.7336 15.097 19.2694C15.1346 19.0703 14.9987 18.8794 14.7938 18.843C14.589 18.8066 14.3922 18.9384 14.3547 19.1375C14.0439 20.7877 13.6117 22.1259 13.1297 22.9378C12.8147 22.9644 12.4971 22.9785 12.1768 22.9785C11.8554 22.9785 11.5375 22.9639 11.2233 22.9368C10.6674 22.0027 10.2082 20.4403 9.8957 18.529C10.6426 18.588 11.4055 18.6184 12.1768 18.6184C12.8912 18.6184 13.6124 18.5921 14.3204 18.5403C14.5282 18.5251 14.684 18.3492 14.6684 18.1473C14.6527 17.9455 14.4711 17.7946 14.2637 17.8094C13.5746 17.8598 12.8725 17.8854 12.1768 17.8854C11.3655 17.8854 10.5648 17.8508 9.78383 17.7846C9.58016 16.3041 9.46065 14.6512 9.44567 12.9397H15.5652C15.7736 12.9397 15.9426 12.7757 15.9426 12.5732C15.9426 12.4037 15.8239 12.2615 15.6629 12.2196C15.6493 10.5273 15.5378 8.90476 15.3444 7.43879C16.6039 7.5822 17.8011 7.80998 18.8949 8.11257C19.1271 8.92532 19.2967 9.7783 19.3958 10.648C19.4172 10.8355 19.5806 10.9741 19.7704 10.9741C19.7843 10.9741 19.7983 10.9734 19.8124 10.9719C20.0196 10.9496 20.1689 10.7685 20.146 10.5673C20.0607 9.81897 19.9251 9.08181 19.7442 8.36941C20.7696 8.70769 21.6822 9.11672 22.4423 9.58728C22.6319 10.2029 22.7635 10.8381 22.8327 11.4858C22.8528 11.6743 23.0167 11.8145 23.2076 11.8145C23.2206 11.8145 23.2338 11.8138 23.2471 11.8125C23.4543 11.7916 23.6049 11.6115 23.5835 11.4101C23.2923 8.68621 21.9767 6.16843 19.8791 4.32072C17.7666 2.45988 15.0312 1.43503 12.1769 1.43503C11.0124 1.43503 9.86332 1.60407 8.7616 1.93742C8.5626 1.99763 8.45154 2.2031 8.51353 2.39636C8.57552 2.58957 8.78694 2.69729 8.98608 2.63728C9.42159 2.50549 9.86518 2.40153 10.3144 2.32507C9.81405 3.37214 9.40132 4.88015 9.11691 6.68918C8.68709 6.73494 8.26164 6.78928 7.84303 6.85442C7.63725 6.88645 7.49718 7.07444 7.53016 7.27429C7.56314 7.47419 7.75671 7.60999 7.96249 7.57815C8.30704 7.52449 8.65602 7.47776 9.00861 7.43767C8.94828 7.89509 8.89574 8.36882 8.85174 8.85676C8.83354 9.05837 8.98709 9.23621 9.19468 9.25383C9.2059 9.25481 9.21701 9.25525 9.22807 9.25525C9.42159 9.25525 9.58634 9.1115 9.60354 8.92073C9.65201 8.38381 9.71169 7.86316 9.78097 7.36218C10.5665 7.29573 11.3671 7.26101 12.1769 7.26101C12.9882 7.26101 13.7889 7.29568 14.5699 7.36184C14.7735 8.84236 14.893 10.4953 14.908 12.2067H9.44622C9.4512 11.623 9.46739 11.0398 9.49589 10.4682C9.50595 10.266 9.34542 10.0942 9.13727 10.0844C8.92822 10.0752 8.75214 10.2306 8.74209 10.4327C8.71303 11.016 8.69654 11.6111 8.69156 12.2067H4.85345C4.85592 12.1003 4.85929 11.9912 4.86386 11.8773C4.87201 11.6751 4.70981 11.5047 4.50156 11.4968C4.29427 11.4881 4.11785 11.6463 4.1097 11.8486C4.10473 11.9724 4.101 12.0911 4.09844 12.2066H1.4698C1.50454 11.2368 1.67664 10.2817 1.98358 9.36218C2.04784 9.16965 1.93919 8.96296 1.74094 8.90056C1.54265 8.83816 1.32988 8.94368 1.26562 9.13621C0.895786 10.2445 0.708252 11.4008 0.708252 12.5731C0.708252 15.5482 1.90118 18.3452 4.06732 20.449C6.23351 22.5527 9.11349 23.7113 12.1769 23.7113C13.9074 23.7113 15.5709 23.3459 17.1212 22.6255C17.3092 22.5381 17.3887 22.3193 17.2987 22.1368C17.252 22.0422 17.1687 21.9762 17.0732 21.9465ZM15.2363 6.69016C14.9547 4.89758 14.5451 3.38322 14.04 2.32653C14.5968 2.4216 15.1431 2.55915 15.6746 2.73723C16.6158 3.52492 17.4486 4.63762 18.0851 5.96125C18.2879 6.38279 18.4706 6.82649 18.6325 7.28694C17.5711 7.01951 16.4285 6.81794 15.2363 6.69016ZM22.0482 8.52297C21.2939 8.1406 20.4381 7.80623 19.5047 7.52639C19.2981 6.8696 19.0522 6.24011 18.769 5.6511C18.39 4.86306 17.9433 4.14372 17.446 3.51272C18.132 3.88947 18.7785 4.34104 19.372 4.86384C20.5394 5.89211 21.4473 7.14236 22.0482 8.52297ZM12.1768 6.5282C11.4065 6.5282 10.6437 6.55837 9.89369 6.61702C10.2108 4.69206 10.6779 3.12819 11.2241 2.20915C11.54 2.18215 11.8577 2.16813 12.1768 2.16813C12.4965 2.16813 12.8145 2.18225 13.1302 2.20949C13.6862 3.14362 14.1454 4.70622 14.458 6.61785C13.711 6.55896 12.9483 6.5282 12.1768 6.5282ZM10.3139 22.8207C9.75231 22.7247 9.20585 22.5858 8.67783 22.4082C7.39878 21.338 6.38314 19.7458 5.72013 17.8601C6.78173 18.1275 7.92498 18.3287 9.11731 18.4565C9.39896 20.2494 9.80877 21.764 10.3139 22.8207ZM9.00926 17.7078C7.74902 17.5643 6.55116 17.3364 5.45688 17.0335C5.09328 15.7578 4.88367 14.3725 4.85305 12.9398H8.69086C8.70504 14.6275 8.8164 16.2455 9.00926 17.7078ZM1.47025 12.9398H4.09834C4.12584 14.2707 4.30257 15.5651 4.61056 16.7775C3.58566 16.4395 2.67354 16.0308 1.91355 15.5607C1.65557 14.7259 1.50278 13.8475 1.47025 12.9398ZM2.30883 16.6256C3.06258 17.0073 3.91815 17.3408 4.85049 17.6202C5.33124 19.147 6.02758 20.5157 6.89938 21.6258C4.85828 20.4991 3.23312 18.7406 2.30883 16.6256Z" fill="#094876"/>
</svg>
