<svg width="26" height="27" viewBox="0 0 26 27" fill="none" xmlns="http://www.w3.org/2000/svg">
<path d="M8.80208 26.1076H0.40625C0.18112 26.1076 0 25.9054 0 25.6541V17.4693C0 17.218 0.18112 17.0157 0.40625 17.0157H8.80208C9.02721 17.0157 9.20833 17.218 9.20833 17.4693V25.6541C9.20833 25.9035 9.02721 26.1076 8.80208 26.1076ZM0.8125 25.2005H8.39583V17.9229H0.8125V25.2005Z" fill="black"/>
<path d="M5.6976 20.3645H3.51062C3.28549 20.3645 3.10437 20.1623 3.10437 19.9109V17.4693C3.10437 17.218 3.28549 17.0157 3.51062 17.0157H5.6976C5.92273 17.0157 6.10385 17.218 6.10385 17.4693V19.9109C6.10385 20.1604 5.92273 20.3645 5.6976 20.3645ZM3.91687 19.4574H5.29135V17.9229H3.91687V19.4574Z" fill="black"/>
<path d="M17.198 26.1076H8.80212C8.57699 26.1076 8.39587 25.9054 8.39587 25.6541V17.4693C8.39587 17.218 8.57699 17.0157 8.80212 17.0157H17.198C17.4231 17.0157 17.6042 17.218 17.6042 17.4693V25.6541C17.6042 25.9035 17.4231 26.1076 17.198 26.1076ZM9.20837 25.2005H16.7917V17.9229H9.20837V25.2005Z" fill="black"/>
<path d="M14.0935 20.3645H11.9065C11.6814 20.3645 11.5002 20.1623 11.5002 19.9109V17.4693C11.5002 17.218 11.6814 17.0157 11.9065 17.0157H14.0935C14.3186 17.0157 14.4997 17.218 14.4997 17.4693V19.9109C14.4997 20.1604 14.3186 20.3645 14.0935 20.3645ZM12.3127 19.4574H13.6872V17.9229H12.3127V19.4574Z" fill="black"/>
<path d="M25.5937 26.1076H17.1979C16.9727 26.1076 16.7916 25.9054 16.7916 25.6541V17.4693C16.7916 17.218 16.9727 17.0157 17.1979 17.0157H25.5937C25.8188 17.0157 26 17.218 26 17.4693V25.6541C26 25.9035 25.8188 26.1076 25.5937 26.1076ZM17.6041 25.2005H25.1875V17.9229H17.6041V25.2005Z" fill="black"/>
<path d="M22.4893 20.3645H20.3024C20.0772 20.3645 19.8961 20.1623 19.8961 19.9109V17.4693C19.8961 17.218 20.0772 17.0157 20.3024 17.0157H22.4893C22.7145 17.0157 22.8956 17.218 22.8956 17.4693V19.9109C22.8956 20.1604 22.7145 20.3645 22.4893 20.3645ZM20.7086 19.4574H22.0831V17.9229H20.7086V19.4574Z" fill="black"/>
<path d="M13 17.921H4.60419C4.37906 17.921 4.19794 17.7188 4.19794 17.4674V14.988C4.19794 14.7366 4.37906 14.5344 4.60419 14.5344C4.82932 14.5344 5.01044 14.7366 5.01044 14.988V17.0139H12.5938V9.73621H11.094C10.8689 9.73621 10.6878 9.534 10.6878 9.28266C10.6878 9.03131 10.8689 8.8291 11.094 8.8291H13C13.2252 8.8291 13.4063 9.03131 13.4063 9.28266V17.4674C13.4063 17.7188 13.2252 17.921 13 17.921Z" fill="black"/>
<path d="M21.3958 17.921H13C12.7749 17.921 12.5938 17.7188 12.5938 17.4674V9.28266C12.5938 9.03131 12.7749 8.8291 13 8.8291H21.3958C21.621 8.8291 21.8021 9.03131 21.8021 9.28266V17.4674C21.8021 17.7188 21.621 17.921 21.3958 17.921ZM13.4063 17.0139H20.9896V9.73621H13.4063V17.0139Z" fill="black"/>
<path d="M18.2914 12.1778H16.1044C15.8793 12.1778 15.6982 11.9756 15.6982 11.7243V9.28266C15.6982 9.03131 15.8793 8.8291 16.1044 8.8291H18.2914C18.5165 8.8291 18.6977 9.03131 18.6977 9.28266V11.7243C18.6977 11.9756 18.5165 12.1778 18.2914 12.1778ZM16.5107 11.2707H17.8852V9.73621H16.5107V11.2707Z" fill="black"/>
<path d="M8.81054 4.05925H4.32825C4.10312 4.05925 3.922 3.85704 3.922 3.6057V1.95778C3.922 1.46454 4.28254 1.06201 4.72434 1.06201H5.37603C5.60116 1.06201 5.78228 1.26422 5.78228 1.51557C5.78228 1.76691 5.60116 1.96912 5.37603 1.96912H4.7345V3.15025H8.40429V1.96912H7.76275C7.53762 1.96912 7.3565 1.76691 7.3565 1.51557C7.3565 1.26422 7.53762 1.06201 7.76275 1.06201H8.41444C8.85624 1.06201 9.21679 1.46454 9.21679 1.95778V3.60381C9.21679 3.85515 9.03567 4.05925 8.81054 4.05925Z" fill="black"/>
<path d="M11.094 15.4416H2.0448C1.81967 15.4416 1.63855 15.2394 1.63855 14.988V2.32251C1.63855 2.07117 1.81967 1.86896 2.0448 1.86896H4.32826C4.55339 1.86896 4.73451 2.07117 4.73451 2.32251C4.73451 2.57386 4.55339 2.77607 4.32826 2.77607H2.45105V14.5345H10.6878V2.77607H8.81056C8.58543 2.77607 8.40431 2.57386 8.40431 2.32251C8.40431 2.07117 8.58543 1.86896 8.81056 1.86896H11.094C11.3191 1.86896 11.5003 2.07117 11.5003 2.32251V14.988C11.5003 15.2394 11.3191 15.4416 11.094 15.4416Z" fill="black"/>
<path d="M7.76276 2.60977H5.37604C5.15091 2.60977 4.96979 2.40756 4.96979 2.15622V0.56122C4.96979 0.309876 5.15091 0.107666 5.37604 0.107666H7.76276C7.98789 0.107666 8.16901 0.309876 8.16901 0.56122V2.15622C8.16901 2.40756 7.98789 2.60977 7.76276 2.60977ZM5.78229 1.70267H7.35651V1.01477H5.78229V1.70267Z" fill="black"/>
<path d="M9.35732 6.27033H5.97021C5.74508 6.27033 5.56396 6.06812 5.56396 5.81677C5.56396 5.56543 5.74508 5.36322 5.97021 5.36322H9.35732C9.58245 5.36322 9.76357 5.56543 9.76357 5.81677C9.76357 6.06812 9.58076 6.27033 9.35732 6.27033Z" fill="black"/>
<path d="M4.06588 6.45362C3.96262 6.45362 3.85767 6.41016 3.77812 6.32133L3.49543 6.00574C3.33632 5.82809 3.33632 5.54084 3.49543 5.36509C3.65286 5.18934 3.90676 5.18745 4.06418 5.35942L4.4315 4.94933C4.59062 4.77169 4.84791 4.77169 5.00533 4.94933C5.16445 5.12697 5.16445 5.41423 5.00533 5.58998L4.35195 6.31944C4.27408 6.40827 4.16913 6.45362 4.06588 6.45362Z" fill="black"/>
<path d="M9.35732 8.71198H5.97021C5.74508 8.71198 5.56396 8.50977 5.56396 8.25842C5.56396 8.00708 5.74508 7.80487 5.97021 7.80487H9.35732C9.58245 7.80487 9.76357 8.00708 9.76357 8.25842C9.76357 8.50977 9.58076 8.71198 9.35732 8.71198Z" fill="black"/>
<path d="M4.06588 8.89527C3.95754 8.89527 3.85429 8.84803 3.77812 8.76298L3.49543 8.44739C3.33632 8.26974 3.33632 7.98249 3.49543 7.80674C3.65286 7.63099 3.90676 7.6291 4.06418 7.80107L4.4315 7.39098C4.59062 7.21334 4.84791 7.21334 5.00533 7.39098C5.16445 7.56863 5.16445 7.85588 5.00533 8.03163L4.35195 8.7611C4.27577 8.84614 4.17252 8.89527 4.06588 8.89527Z" fill="black"/>
<path d="M9.35732 11.1536H5.97021C5.74508 11.1536 5.56396 10.9514 5.56396 10.7C5.56396 10.4487 5.74508 10.2465 5.97021 10.2465H9.35732C9.58245 10.2465 9.76357 10.4487 9.76357 10.7C9.76357 10.9514 9.58076 11.1536 9.35732 11.1536Z" fill="black"/>
<path d="M4.06588 11.3369C3.95754 11.3369 3.85429 11.2897 3.77812 11.2046L3.49543 10.889C3.33632 10.7114 3.33632 10.4241 3.49543 10.2484C3.65286 10.0726 3.90676 10.0707 4.06418 10.2427L4.4315 9.83263C4.59062 9.65499 4.84791 9.65499 5.00533 9.83263C5.16445 10.0103 5.16445 10.2975 5.00533 10.4733L4.35195 11.2027C4.27577 11.2878 4.17252 11.3369 4.06588 11.3369Z" fill="black"/>
<path d="M9.35732 13.5952H5.97021C5.74508 13.5952 5.56396 13.393 5.56396 13.1417C5.56396 12.8903 5.74508 12.6881 5.97021 12.6881H9.35732C9.58245 12.6881 9.76357 12.8903 9.76357 13.1417C9.76357 13.393 9.58076 13.5952 9.35732 13.5952Z" fill="black"/>
<path d="M4.06588 13.7766C3.96262 13.7766 3.85767 13.7332 3.77812 13.6443L3.49543 13.3287C3.33632 13.1511 3.33632 12.8638 3.49543 12.6881C3.65286 12.5123 3.90676 12.5104 4.06418 12.6824L4.4315 12.2723C4.59062 12.0947 4.84791 12.0947 5.00533 12.2723C5.16275 12.45 5.16445 12.7372 5.00533 12.913L4.35195 13.6424C4.27408 13.7332 4.16913 13.7766 4.06588 13.7766Z" fill="black"/>
</svg>
