<svg width="23" height="23" viewBox="0 0 23 23" fill="none" xmlns="http://www.w3.org/2000/svg">
<path d="M2.08957 6.52707C3.24157 6.52707 4.17896 5.06297 4.17896 3.2634C4.17896 1.46383 3.24157 0 2.08957 0C0.937393 0 0 1.46383 0 3.2634C0 5.06297 0.937393 6.52707 2.08957 6.52707ZM2.08957 1.05244C2.87009 1.05244 3.50513 2.04432 3.50513 3.26367C3.50513 4.48275 2.87009 5.47462 2.08957 5.47462C1.30888 5.47462 0.673828 4.48275 0.673828 3.2634C0.673828 2.04432 1.30888 1.05244 2.08957 1.05244Z" fill="#094876"/>
<path d="M22.2581 9.60519H6.56174C6.1527 9.60519 5.81982 10.1251 5.81982 10.764V12.236C5.81982 12.8752 6.1527 13.3951 6.56174 13.3951H22.2581C22.6671 13.3951 23 12.8752 23 12.236V10.764C23 10.1251 22.6671 9.60519 22.2581 9.60519ZM22.3262 12.236C22.3262 12.2947 22.2956 12.3424 22.2581 12.3424H6.56174C6.52419 12.3424 6.49365 12.2947 6.49365 12.236V10.764C6.49365 10.7053 6.52419 10.6574 6.56174 10.6574H22.2581C22.2956 10.6574 22.3262 10.7053 22.3262 10.764V12.236Z" fill="#094876"/>
<path d="M22.2581 17.8416H6.56174C6.1527 17.8416 5.81982 18.3616 5.81982 19.0007V20.4725C5.81982 21.1116 6.1527 21.6315 6.56174 21.6315H22.2581C22.6671 21.6315 23 21.1116 23 20.4725V19.0007C23 18.3616 22.6671 17.8416 22.2581 17.8416ZM22.3262 20.4725C22.3262 20.5311 22.2956 20.5788 22.2581 20.5788H6.56174C6.52419 20.5788 6.49365 20.5311 6.49365 20.4725V19.0004C6.49365 18.9418 6.52419 18.8941 6.56174 18.8941H22.2581C22.2956 18.8941 22.3262 18.9418 22.3262 19.0004V20.4725Z" fill="#094876"/>
<path d="M2.08957 23C3.24157 23 4.17896 21.5359 4.17896 19.7363C4.17896 17.937 3.24157 16.4729 2.08957 16.4729C0.937393 16.4729 0 17.937 0 19.7366C0 21.5362 0.937393 23 2.08957 23ZM2.08957 17.5254C2.87009 17.5254 3.50513 18.5172 3.50513 19.7363C3.50513 20.9557 2.87009 21.9476 2.08957 21.9476C1.30888 21.9476 0.673828 20.9557 0.673828 19.7366C0.673828 18.5172 1.30888 17.5254 2.08957 17.5254Z" fill="#094876"/>
<path d="M22.2581 1.36873H15.0351C14.8491 1.36873 14.6982 1.60416 14.6982 1.89495C14.6982 2.18547 14.8491 2.42117 15.0351 2.42117H22.2581C22.2956 2.42117 22.3262 2.46886 22.3262 2.52751V3.99956C22.3262 4.05821 22.2956 4.1059 22.2581 4.1059H6.56174C6.52419 4.1059 6.49365 4.05821 6.49365 3.99956V2.52751C6.49365 2.46886 6.52419 2.42117 6.56174 2.42117H13.4629C13.649 2.42117 13.7998 2.18547 13.7998 1.89495C13.7998 1.60416 13.649 1.36873 13.4629 1.36873H6.56174C6.1527 1.36873 5.81982 1.88837 5.81982 2.52751V3.99956C5.81982 4.63843 6.1527 5.15835 6.56174 5.15835H22.2581C22.6671 5.15835 23 4.63843 23 3.99956V2.52751C23 1.88837 22.6671 1.36873 22.2581 1.36873Z" fill="#094876"/>
<path d="M2.08957 14.7635C2.83043 14.7635 3.52251 14.1411 3.89592 13.1394C3.98962 12.8883 3.93505 12.5663 3.77431 12.4199C3.6134 12.2738 3.40722 12.3588 3.31369 12.6099C3.06048 13.289 2.59143 13.7111 2.08957 13.7111C1.30888 13.7111 0.673828 12.7192 0.673828 11.4999C0.673828 10.2808 1.30888 9.28891 2.08957 9.28891C2.65583 9.28891 3.16647 9.81403 3.39037 10.6269C3.4639 10.8939 3.66201 11.0172 3.83292 10.9024C4.00384 10.7875 4.0828 10.4778 4.00928 10.2109C3.67886 9.01155 2.92519 8.23647 2.08957 8.23647C0.937393 8.23647 0 9.70057 0 11.4999C0 13.2994 0.937393 14.7635 2.08957 14.7635Z" fill="#094876"/>
</svg>
