<svg width="14" height="14" viewBox="0 0 14 14" fill="none" xmlns="http://www.w3.org/2000/svg">
<path d="M13.5 6.5C13.3674 6.5 13.2402 6.55268 13.1464 6.64645C13.0527 6.74021 13 6.86739 13 7V11.5C13 11.8978 12.842 12.2794 12.5607 12.5607C12.2794 12.842 11.8978 13 11.5 13H2.5C2.10217 13 1.72064 12.842 1.43934 12.5607C1.15804 12.2794 1 11.8978 1 11.5V2.5C1 2.10218 1.15804 1.72064 1.43934 1.43934C1.72064 1.15804 2.10217 1 2.5 1H7C7.13261 1 7.25978 0.947322 7.35355 0.853553C7.44732 0.759785 7.5 0.632608 7.5 0.5C7.5 0.367392 7.44732 0.240215 7.35355 0.146447C7.25978 0.0526784 7.13261 0 7 0H2.5C1.83696 0 1.20107 0.263392 0.732233 0.732233C0.263392 1.20107 0 1.83696 0 2.5V11.5C0 12.163 0.263392 12.7989 0.732233 13.2678C1.20107 13.7366 1.83696 14 2.5 14H11.5C12.163 14 12.7989 13.7366 13.2678 13.2678C13.7366 12.7989 14 12.163 14 11.5V7C14 6.86739 13.9473 6.74021 13.8536 6.64645C13.7598 6.55268 13.6326 6.5 13.5 6.5Z" fill="#3D2E97"/>
<path d="M10 1.00001H12.295L6.645 6.64501C6.59814 6.69149 6.56094 6.74679 6.53555 6.80772C6.51017 6.86865 6.4971 6.934 6.4971 7.00001C6.4971 7.06601 6.51017 7.13137 6.53555 7.1923C6.56094 7.25323 6.59814 7.30853 6.645 7.35501C6.69148 7.40187 6.74678 7.43907 6.80771 7.46445C6.86864 7.48984 6.93399 7.50291 7 7.50291C7.06601 7.50291 7.13136 7.48984 7.19229 7.46445C7.25322 7.43907 7.30852 7.40187 7.355 7.35501L13 1.71001V4.00001C13 4.13262 13.0527 4.25979 13.1464 4.35356C13.2402 4.44733 13.3674 4.50001 13.5 4.50001C13.6326 4.50001 13.7598 4.44733 13.8536 4.35356C13.9473 4.25979 14 4.13262 14 4.00001V0.500008C14.0004 0.434205 13.9878 0.368974 13.9629 0.308055C13.938 0.247136 13.9013 0.191728 13.855 0.145008C13.8083 0.0986676 13.7529 0.062005 13.692 0.0371227C13.631 0.0122404 13.5658 -0.000372089 13.5 8.35714e-06H10C9.86739 8.35714e-06 9.74021 0.0526868 9.64645 0.146455C9.55268 0.240223 9.5 0.3674 9.5 0.500008C9.5 0.632617 9.55268 0.759794 9.64645 0.853562C9.74021 0.94733 9.86739 1.00001 10 1.00001Z" fill="#3D2E97"/>
</svg>
