<svg width="26" height="26" viewBox="0 0 26 26" fill="none" xmlns="http://www.w3.org/2000/svg">
<path d="M24.2333 13.5831C23.0385 12.3937 21.6573 13.5069 21.6573 13.5069V7.24553C21.6573 7.03526 21.4869 6.86466 21.2766 6.86466C21.0661 6.86466 20.8958 7.03526 20.8958 7.24553V14.0427C20.8958 14.0427 19.0797 15.4743 18.2992 15.8242V4.55033C18.2992 4.02625 18.7254 3.59996 19.2495 3.59996H19.9454C20.4695 3.59996 20.8958 4.02625 20.8958 4.55033V5.68637C20.8958 5.89684 21.0661 6.06723 21.2766 6.06723C21.4869 6.06723 21.6573 5.89684 21.6573 5.68637V4.55033C21.6573 3.60631 20.8894 2.83844 19.9454 2.83844H19.2495C18.3055 2.83844 17.5374 3.60631 17.5374 4.55033V16.1261C17.3103 16.1898 17.0772 16.2331 16.8404 16.2559V8.22664C16.8404 7.27786 16.0685 6.50602 15.1199 6.50602H14.4409C13.4924 6.50602 12.7205 7.27786 12.7205 8.22664V12.1071L12.0233 12.4772V11.1859C12.0233 10.3317 11.3284 9.63682 10.4744 9.63682H9.45245C8.59829 9.63682 7.90361 10.3317 7.90361 11.1859V14.664L6.66006 15.324L3.16803 16.3219C2.56044 16.4955 2.05302 16.8934 1.7396 17.4421C1.42599 17.991 1.34089 18.6301 1.49998 19.2417L1.89056 20.7445C1.94332 20.948 2.15121 21.07 2.35493 21.0172C2.55846 20.9643 2.68065 20.7564 2.62768 20.5527L2.2371 19.0501C2.01057 18.1784 2.51144 17.3017 3.37751 17.0543L6.5702 16.1418L8.96982 22.5462C9.1305 22.9751 9.10511 24.1986 7.83577 24.6495L5.42305 25.1976C4.58218 25.3884 3.75361 24.8844 3.5366 24.0497L3.04683 22.165C2.99387 21.9615 2.78598 21.8393 2.58246 21.892C2.37874 21.945 2.25674 22.1529 2.30951 22.3566L2.79947 24.2415C3.0748 25.3004 4.01545 26 5.06262 26C5.83208 26 8.00458 25.3922 8.00458 25.3922C8.66573 25.2422 9.22948 24.8138 9.55103 24.2171C9.81645 23.7247 9.8952 23.1582 9.78134 22.6185L18.1286 20.5749C18.8189 20.4057 19.4743 20.0778 20.0233 19.6265L24.0855 16.2888C25.3239 15.1905 24.5975 13.9455 24.2333 13.5831ZM14.4409 7.26774H15.1199C15.6486 7.26774 16.0786 7.698 16.0786 8.22664V16.2749L13.6754 16.2739C13.4547 16.2719 13.6074 16.1261 13.6195 16.1162L14.3116 15.5556C14.9573 15.0326 15.379 14.3054 15.5649 13.3939C15.6829 12.8156 15.4623 12.2368 14.9896 11.8833C14.5481 11.5532 13.9801 11.4898 13.4822 11.708V8.22664C13.4822 7.698 13.9123 7.26774 14.4409 7.26774ZM8.66533 11.1859C8.66533 10.7518 9.01842 10.3985 9.45245 10.3985H10.4744C10.9085 10.3985 11.2617 10.7518 11.2617 11.1859V12.8815L8.66514 14.2597L8.66533 11.1859ZM23.6021 15.7005L19.5397 19.0382C19.0783 19.4174 18.5277 19.693 17.9474 19.835L9.53874 21.8938L7.27737 15.8589L13.7342 12.4316C13.9966 12.2921 14.2955 12.3153 14.5334 12.4933C14.7712 12.6712 14.8779 12.9509 14.8186 13.2417C14.6689 13.9755 14.337 14.5549 13.8322 14.9637L13.1401 15.5245C12.8564 15.7542 12.7519 16.125 12.8737 16.4691C12.9955 16.8131 13.3101 17.0357 13.6751 17.0357L16.45 17.0368H16.452C17.4398 17.0368 18.3892 16.7365 19.1973 16.1682L22.2986 13.9874C22.7328 13.6819 23.3174 13.7358 23.6883 14.1155C23.902 14.3337 24.3201 14.9822 23.6021 15.7005Z" fill="#EE5F23"/>
<path d="M7.51122 22.7902C7.51122 21.9628 6.83816 21.2896 6.01078 21.2896C5.1834 21.2896 4.51035 21.9628 4.51035 22.7902C4.51035 23.6174 5.1834 24.2906 6.01078 24.2906C6.83816 24.2906 7.51122 23.6174 7.51122 22.7902ZM5.27207 22.7902C5.27207 22.3827 5.60334 22.0513 6.01078 22.0513C6.41803 22.0513 6.74949 22.3827 6.74949 22.7902C6.74949 23.1974 6.41822 23.5289 6.01078 23.5289C5.60334 23.5289 5.27207 23.1974 5.27207 22.7902Z" fill="#EE5F23"/>
</svg>
