<svg width="26" height="26" viewBox="0 0 26 26" fill="none" xmlns="http://www.w3.org/2000/svg">
<path d="M24.2332 13.5831C23.0385 12.3937 21.6573 13.5069 21.6573 13.5069V7.24553C21.6573 7.03526 21.4869 6.86466 21.2766 6.86466C21.0661 6.86466 20.8957 7.03526 20.8957 7.24553V14.0427C20.8957 14.0427 19.0797 15.4743 18.2991 15.8242V4.55033C18.2991 4.02625 18.7254 3.59996 19.2495 3.59996H19.9454C20.4695 3.59996 20.8957 4.02625 20.8957 4.55033V5.68637C20.8957 5.89684 21.0661 6.06723 21.2766 6.06723C21.4869 6.06723 21.6573 5.89684 21.6573 5.68637V4.55033C21.6573 3.60631 20.8894 2.83844 19.9454 2.83844H19.2495C18.3055 2.83844 17.5374 3.60631 17.5374 4.55033V16.1261C17.3103 16.1898 17.0772 16.2331 16.8404 16.2559V8.22664C16.8404 7.27786 16.0685 6.50602 15.1199 6.50602H14.4409C13.4923 6.50602 12.7205 7.27786 12.7205 8.22664V12.1071L12.0232 12.4772V11.1859C12.0232 10.3317 11.3284 9.63682 10.4744 9.63682H9.45243C8.59827 9.63682 7.9036 10.3317 7.9036 11.1859V14.664L6.66004 15.324L3.16802 16.3219C2.56042 16.4955 2.05301 16.8934 1.73959 17.4421C1.42597 17.991 1.34087 18.6301 1.49996 19.2417L1.89054 20.7445C1.94331 20.948 2.1512 21.07 2.35492 21.0172C2.55844 20.9643 2.68063 20.7564 2.62767 20.5527L2.23709 19.0501C2.01055 18.1784 2.51143 17.3017 3.37749 17.0543L6.57018 16.1418L8.96981 22.5462C9.13049 22.9751 9.10509 24.1986 7.83575 24.6495L5.42304 25.1976C4.58216 25.3884 3.75359 24.8844 3.53658 24.0497L3.04682 22.165C2.99385 21.9615 2.78597 21.8393 2.58244 21.892C2.37872 21.945 2.25673 22.1529 2.30949 22.3566L2.79945 24.2415C3.07479 25.3004 4.01543 26 5.06261 26C5.83207 26 8.00456 25.3922 8.00456 25.3922C8.66571 25.2422 9.22947 24.8138 9.55102 24.2171C9.81643 23.7247 9.89518 23.1582 9.78132 22.6185L18.1285 20.5749C18.8189 20.4057 19.4743 20.0778 20.0233 19.6265L24.0855 16.2888C25.3239 15.1905 24.5974 13.9455 24.2332 13.5831ZM14.4409 7.26774H15.1199C15.6486 7.26774 16.0786 7.698 16.0786 8.22664V16.2749L13.6754 16.2739C13.4547 16.2719 13.6074 16.1261 13.6195 16.1162L14.3116 15.5556C14.9573 15.0326 15.379 14.3054 15.5649 13.3939C15.6829 12.8156 15.4623 12.2368 14.9896 11.8833C14.548 11.5532 13.9801 11.4898 13.4822 11.708V8.22664C13.4822 7.698 13.9123 7.26774 14.4409 7.26774ZM8.66532 11.1859C8.66532 10.7518 9.01841 10.3985 9.45243 10.3985H10.4744C10.9084 10.3985 11.2617 10.7518 11.2617 11.1859V12.8815L8.66512 14.2597L8.66532 11.1859ZM23.602 15.7005L19.5397 19.0382C19.0783 19.4174 18.5277 19.693 17.9474 19.835L9.53872 21.8938L7.27736 15.8589L13.7341 12.4316C13.9966 12.2921 14.2955 12.3153 14.5334 12.4933C14.7712 12.6712 14.8779 12.9509 14.8186 13.2417C14.6688 13.9755 14.337 14.5549 13.8321 14.9637L13.14 15.5245C12.8564 15.7542 12.7518 16.125 12.8736 16.4691C12.9954 16.8131 13.31 17.0357 13.675 17.0357L16.45 17.0368H16.452C17.4398 17.0368 18.3892 16.7365 19.1973 16.1682L22.2986 13.9874C22.7328 13.6819 23.3174 13.7358 23.6883 14.1155C23.902 14.3337 24.3201 14.9822 23.602 15.7005Z" fill="#094876"/>
<path d="M7.51123 22.7902C7.51123 21.9628 6.83818 21.2896 6.0108 21.2896C5.18341 21.2896 4.51036 21.9628 4.51036 22.7902C4.51036 23.6174 5.18341 24.2906 6.0108 24.2906C6.83818 24.2906 7.51123 23.6174 7.51123 22.7902ZM5.27208 22.7902C5.27208 22.3827 5.60335 22.0513 6.0108 22.0513C6.41804 22.0513 6.74951 22.3827 6.74951 22.7902C6.74951 23.1974 6.41824 23.5289 6.0108 23.5289C5.60335 23.5289 5.27208 23.1974 5.27208 22.7902Z" fill="#094876"/>
</svg>
