<svg width="21" height="20" viewBox="0 0 21 20" fill="none" xmlns="http://www.w3.org/2000/svg">
<path d="M17.9032 19.8914H13.6532C13.0698 19.8907 12.5104 19.6587 12.0978 19.2461C11.6852 18.8335 11.4532 18.2741 11.4525 17.6907V15.3171C11.4524 15.3141 11.4512 15.3113 11.449 15.3093C11.4469 15.3072 11.4441 15.306 11.4411 15.306H8.66287C8.6599 15.306 8.65704 15.3072 8.65491 15.3093C8.65278 15.3113 8.65153 15.3141 8.65144 15.3171V17.6907C8.65078 18.2741 8.41871 18.8335 8.00613 19.2461C7.59356 19.6587 7.03419 19.8907 6.45073 19.8914H2.20073C1.61726 19.8907 1.05789 19.6587 0.645317 19.2461C0.232746 18.8335 0.000673142 18.2741 1.14582e-05 17.6907V9.98568C-0.00104904 9.61473 0.0715151 9.24726 0.213499 8.90457C0.355483 8.56187 0.564063 8.25075 0.827154 7.98925L7.95787 0.866035C8.51419 0.31143 9.26769 0 10.0532 0C10.8388 0 11.5923 0.31143 12.1486 0.866035L19.2768 7.98925C19.5399 8.25075 19.7485 8.56187 19.8905 8.90457C20.0324 9.24726 20.105 9.61473 20.1039 9.98568V17.6907C20.1033 18.2741 19.8712 18.8335 19.4586 19.2461C19.0461 19.6587 18.4867 19.8907 17.9032 19.8914ZM8.66287 14.2346H11.4414C11.7285 14.235 12.0036 14.3491 12.2066 14.5521C12.4096 14.755 12.5238 15.0301 12.5243 15.3171V17.6907C12.5246 17.9901 12.6437 18.2772 12.8554 18.4889C13.0671 18.7006 13.3542 18.8197 13.6536 18.82H17.9036C18.203 18.8197 18.4901 18.7006 18.7018 18.4889C18.9135 18.2772 19.0326 17.9901 19.0329 17.6907V9.98568C19.0336 9.75557 18.9886 9.5276 18.9006 9.315C18.8125 9.10239 18.6832 8.90936 18.52 8.74711L11.3914 1.62354C11.0361 1.26949 10.5549 1.0707 10.0532 1.0707C9.55159 1.0707 9.07039 1.26949 8.71501 1.62354L1.58715 8.74711C1.42392 8.90934 1.29451 9.10235 1.20641 9.31495C1.11831 9.52756 1.07329 9.75554 1.07394 9.98568V17.6907C1.07422 17.9901 1.19329 18.2772 1.40501 18.4889C1.61673 18.7006 1.90381 18.8197 2.20323 18.82H6.45323C6.75264 18.8197 7.03972 18.7006 7.25144 18.4889C7.46316 18.2772 7.58223 17.9901 7.58251 17.6907V15.3171C7.58289 15.0305 7.69676 14.7557 7.89923 14.5528C8.10169 14.35 8.37626 14.2355 8.66287 14.2346Z" fill="#167FCB"/>
</svg>
