<svg width="30" height="27" viewBox="0 0 30 27" fill="none" xmlns="http://www.w3.org/2000/svg">
<g clip-path="url(#clip0_122_205)">
<path d="M13.8182 13.4161V1.63227C13.8182 1.33193 13.5534 1.08817 13.2272 1.08817C6.38451 1.08817 0.818146 6.70205 0.818146 13.6021C0.818146 20.5021 6.91516 26.1161 14.409 26.1161C17.7619 26.1161 19.5759 25.5568 21.8758 23.8157C22.1228 23.6285 22.1629 23.2944 21.9668 23.0616L13.8182 13.4161ZM14.409 25.0279C7.56631 25.0279 1.99995 19.9027 1.99995 13.6021C1.99995 7.50405 6.71894 2.50608 12.6363 2.19162V13.6021C12.6363 13.7229 12.68 13.8405 12.7616 13.9362L20.675 23.3043C18.8089 24.6166 17.2525 25.0279 14.409 25.0279Z" fill="#094876"/>
<path d="M15.5909 13.058H28.5909C28.9171 13.058 29.1818 12.8143 29.1818 12.5139C29.1818 5.61388 23.0848 0 15.5909 0C15.2647 0 15 0.243767 15 0.544102V12.514C15 12.8143 15.2647 13.058 15.5909 13.058ZM16.1818 1.10121C22.5553 1.37762 27.6856 6.10137 27.9858 11.9698H16.1818V1.10121Z" fill="#094876"/>
<path d="M28.5909 14.1462H16.7727C16.5458 14.1462 16.3366 14.267 16.2385 14.4563C16.1404 14.6456 16.17 14.8698 16.3129 15.0319L23.9948 23.7884C24.0976 23.907 24.2489 23.9788 24.4132 23.9897C24.4273 23.9908 24.4403 23.9908 24.4545 23.9908C24.6034 23.9908 24.7476 23.9386 24.8575 23.845C27.6052 21.4848 29.1818 18.1485 29.1818 14.6903C29.1818 14.3899 28.917 14.1462 28.5909 14.1462ZM24.5053 22.6383L18.0101 15.2344H27.9858C27.8404 18.0005 26.5972 20.6458 24.5053 22.6383Z" fill="#094876"/>
</g>
<defs>
<clipPath id="clip0_122_205">
<rect width="28.3636" height="26.1161" fill="white" transform="translate(0.818146)"/>
</clipPath>
</defs>
</svg>
