<svg width="26" height="26" viewBox="0 0 26 26" fill="none" xmlns="http://www.w3.org/2000/svg">
<g filter="url(#filter0_d_139_202)">
<path d="M17.2436 2.10936V0.380897C17.2436 0.17049 17.0731 0 16.8627 0H14.2171C14.0068 0 13.8362 0.17049 13.8362 0.380897V1.18159C13.5586 1.15813 13.2787 1.14538 13 1.14538C7.45898 1.14538 2.95099 5.77948 2.95099 11.4755C2.95099 13.0214 3.27521 14.5084 3.91471 15.8954C5.48015 19.2903 12.4482 25.6353 12.7441 25.9038C12.9492 26.0899 13.1727 25.9752 13.3526 25.8193C13.5687 25.632 17.1993 22.1342 18.0825 21.2231C18.2701 21.0295 18.5419 20.7822 18.328 20.5034C18.1887 20.3218 17.9121 20.2882 17.7506 20.4597C15.9132 22.4112 13.7359 24.4317 13.0011 25.1052C11.7135 23.9131 5.94428 18.4776 4.60657 15.5764C4.01354 14.2902 3.71283 12.9104 3.71283 11.4755C3.71283 6.19949 7.87909 1.90718 13.0001 1.90718C13.2788 1.90718 13.559 1.92013 13.8363 1.94557V2.8066H12.971C12.7606 2.8066 12.5901 2.97709 12.5901 3.1875V4.1208C11.606 4.17682 10.6613 4.43182 9.78002 4.88046C9.34234 5.10321 9.68581 5.78319 10.1257 5.55932C10.8992 5.16548 11.7275 4.93846 12.5901 4.88346V10.3582H11.5598V7.09368C11.5598 6.60242 10.798 6.60242 10.798 7.09368V10.3582H9.99855V8.72113C9.99855 8.22987 9.23676 8.22987 9.23676 8.72113V10.3582H7.89118C7.68082 10.3582 7.51028 10.5287 7.51028 10.7391V15.1156C6.87586 14.0836 6.50801 12.8615 6.50801 11.5526C6.50801 9.62162 7.31953 7.78549 8.73458 6.51512C9.10009 6.18689 8.59121 5.62011 8.22566 5.94825C6.64996 7.36295 5.74627 9.40568 5.74627 11.5526C5.74627 15.6367 8.9679 18.9627 12.9401 18.996C12.9453 18.9962 12.9504 18.9968 12.9556 18.9968C12.9582 18.9968 12.9607 18.9964 12.9633 18.9964C12.9659 18.9964 12.9684 18.9968 12.971 18.9968C12.9731 18.9968 12.975 18.9965 12.977 18.9965C12.9847 18.9965 12.9924 18.9968 13.0001 18.9968C16.9999 18.9968 20.254 15.6573 20.254 11.5526C20.254 9.78083 19.6373 8.06451 18.5176 6.71984C18.5088 6.70928 18.4995 6.69943 18.4899 6.69008V3.75529C20.8451 5.53373 22.2874 8.38441 22.2874 11.4755C22.2874 12.9105 21.9867 14.2903 21.3936 15.5764C20.9204 16.6028 19.9961 17.9425 18.8578 19.2521C18.5367 19.6213 19.1093 20.1239 19.4327 19.7518C20.6337 18.3701 21.5758 17.0005 22.0854 15.8954C22.7249 14.5084 23.0491 13.0214 23.0491 11.4755C23.0491 7.45132 20.7786 3.80329 17.2436 2.10936ZM14.598 0.761795H16.4818V2.30331C16.4779 2.33409 16.4782 2.36481 16.4818 2.39508V2.80665H14.598V0.761795ZM8.25841 16.1118C8.26705 16.08 8.27202 16.0467 8.27202 16.0122V11.1201H12.5746V18.2202C10.8758 18.1065 9.35336 17.3175 8.25841 16.1118ZM13.3518 18.2251V3.5684H14.2171H16.8627H17.728V16.0771C17.728 16.0929 17.7292 16.1082 17.7311 16.1235C16.621 17.34 15.0747 18.1299 13.3518 18.2251ZM19.4921 11.5526C19.4921 12.8616 19.1242 14.0837 18.4898 15.1156V7.98579C19.1406 9.04697 19.4921 10.2836 19.4921 11.5526Z" fill="#094876"/>
<path d="M16.2881 5.61191H14.792C14.3008 5.61191 14.3008 6.3737 14.792 6.3737H16.2881C16.7793 6.3737 16.7793 5.61191 16.2881 5.61191Z" fill="#094876"/>
<path d="M16.2881 8.5744H14.792C14.3008 8.5744 14.3008 9.3362 14.792 9.3362H16.2881C16.7793 9.3362 16.7793 8.5744 16.2881 8.5744Z" fill="#094876"/>
<path d="M16.2881 11.537H14.792C14.3008 11.537 14.3008 12.2988 14.792 12.2988H16.2881C16.7793 12.2988 16.7793 11.537 16.2881 11.537Z" fill="#094876"/>
<path d="M16.2881 14.4995H14.792C14.3008 14.4995 14.3008 15.2613 14.792 15.2613H16.2881C16.7793 15.2613 16.7793 14.4995 16.2881 14.4995Z" fill="#094876"/>
<path d="M9.56028 12.2964C9.34992 12.2964 9.17938 12.4669 9.17938 12.6773V13.4584C9.17938 13.6688 9.34992 13.8393 9.56028 13.8393C9.77064 13.8393 9.94118 13.6688 9.94118 13.4584V12.6773C9.94118 12.467 9.77064 12.2964 9.56028 12.2964Z" fill="#094876"/>
<path d="M9.56028 15.0456C9.34992 15.0456 9.17938 15.2161 9.17938 15.4265V16.2076C9.17938 16.418 9.34992 16.5884 9.56028 16.5884C9.77064 16.5884 9.94118 16.418 9.94118 16.2076V15.4265C9.94118 15.2161 9.77064 15.0456 9.56028 15.0456Z" fill="#094876"/>
<path d="M11.2362 12.2964C11.0259 12.2964 10.8553 12.4669 10.8553 12.6773V13.4584C10.8553 13.6688 11.0259 13.8393 11.2362 13.8393C11.4466 13.8393 11.6171 13.6688 11.6171 13.4584V12.6773C11.6171 12.467 11.4466 12.2964 11.2362 12.2964Z" fill="#094876"/>
<path d="M11.2362 15.0456C11.0259 15.0456 10.8553 15.2161 10.8553 15.4265V16.2076C10.8553 16.418 11.0259 16.5884 11.2362 16.5884C11.4466 16.5884 11.6171 16.418 11.6171 16.2076V15.4265C11.6171 15.2161 11.4466 15.0456 11.2362 15.0456Z" fill="#094876"/>
</g>
<defs>
<filter id="filter0_d_139_202" x="-1.04901" y="0" width="28.0981" height="34" filterUnits="userSpaceOnUse" color-interpolation-filters="sRGB">
<feFlood flood-opacity="0" result="BackgroundImageFix"/>
<feColorMatrix in="SourceAlpha" type="matrix" values="0 0 0 0 0 0 0 0 0 0 0 0 0 0 0 0 0 0 127 0" result="hardAlpha"/>
<feOffset dy="4"/>
<feGaussianBlur stdDeviation="2"/>
<feComposite in2="hardAlpha" operator="out"/>
<feColorMatrix type="matrix" values="0 0 0 0 0 0 0 0 0 0 0 0 0 0 0 0 0 0 0.25 0"/>
<feBlend mode="normal" in2="BackgroundImageFix" result="effect1_dropShadow_139_202"/>
<feBlend mode="normal" in="SourceGraphic" in2="effect1_dropShadow_139_202" result="shape"/>
</filter>
</defs>
</svg>
