<svg width="26" height="26" viewBox="0 0 26 26" fill="none" xmlns="http://www.w3.org/2000/svg">
<g clip-path="url(#clip0_122_193)">
<path d="M23.3898 9.27773V7.61719H25.8832V5.25586L13 0.101562L0.116791 5.25586V7.61719H2.61015V9.27773H3.44296V20.084H2.61015V21.7445H1.36601V23.4051H0.116791V25.8984H25.8832V23.4051H24.634V21.7445H23.3848V20.084H22.5519V9.27773H23.3898ZM22.557 8.44492H18.4031V7.61211H22.557V8.44492ZM17.5703 21.7445H15.9098V20.084H15.0769V9.27773H15.9098V7.61719H17.5703V9.27773H18.4031V20.084H17.5703V21.7445ZM8.42968 7.61211H10.0902V9.27266H10.923V20.0789H10.0902V21.7395H8.42968V20.0789H7.59687V9.27773H8.42968V7.61211ZM14.2492 20.0789H11.7559V9.27773H14.2492V20.0789ZM10.923 8.44492V7.61211H15.0769V8.44492H10.923ZM10.923 20.9117H15.0769V21.7445H10.923V20.9117ZM0.949603 6.78438V5.81953L13 0.995313L25.0504 5.81445V6.7793H23.3898H17.5703H15.9098H10.0902H8.42968H2.61015H0.949603V6.78438ZM3.44296 7.61211H7.59687V8.44492H3.44296V7.61211ZM4.2707 9.27773H6.76406V20.084H4.2707V9.27773ZM3.44296 20.9117H7.59687V21.7445H3.44296V20.9117ZM25.0504 24.2379V25.0707H0.949603V24.2379H1.36601H24.6391H25.0504ZM23.8062 22.5723V23.4051H2.19374V22.5723H2.61015H8.42968H10.0902H15.9098H17.5703H23.3898H23.8062ZM22.557 21.7445H18.4031V20.9117H22.557V21.7445ZM21.7293 20.0789H19.2359V9.27773H21.7293V20.0789Z" fill="#094876"/>
<path d="M13 5.53516C13.9191 5.53516 14.6605 4.78867 14.6605 3.87461C14.6605 2.96055 13.9191 2.20898 13 2.20898C12.0809 2.20898 11.3394 2.95547 11.3394 3.86953C11.3394 4.78359 12.0809 5.53516 13 5.53516ZM13 3.0418C13.457 3.0418 13.8328 3.4125 13.8328 3.87461C13.8328 4.33672 13.457 4.70234 13 4.70234C12.543 4.70234 12.1672 4.33164 12.1672 3.86953C12.1672 3.40742 12.543 3.0418 13 3.0418Z" fill="#094876"/>
</g>
<defs>
<clipPath id="clip0_122_193">
<rect width="26" height="26" fill="white"/>
</clipPath>
</defs>
</svg>
