<svg width="26" height="26" viewBox="0 0 26 26" fill="none" xmlns="http://www.w3.org/2000/svg">
<g clip-path="url(#clip0_133_801)">
<path d="M25.816 10.5385C25.7982 10.4226 25.7508 10.1148 24.6881 8.51094C24.571 8.33412 24.3615 8.25073 24.1554 8.29908C23.9487 8.34717 23.7978 8.51419 23.7708 8.72462C23.6204 9.89412 23.5646 10.619 23.6046 10.8793C23.7733 11.9742 23.9541 14.0731 23.2693 15.8261C23.2659 15.8349 23.2626 15.8435 23.2591 15.8533L23.0434 16.4487L22.8273 15.8524C22.824 15.8436 22.8208 15.8349 22.8178 15.8274C22.1326 14.073 22.3133 11.9742 22.482 10.8792C22.5222 10.6186 22.4663 9.90767 22.3158 8.76611C22.2883 8.55765 22.1384 8.3914 21.9339 8.34275C21.7293 8.294 21.5208 8.37484 21.4024 8.54851C20.3365 10.1115 20.2886 10.4217 20.2707 10.5385C20.2492 10.6778 20.2288 10.8232 20.2097 10.9733C18.9289 9.10132 16.9773 7.76394 14.7622 7.26197L15.7833 5.43578C15.8861 5.25195 15.8204 5.01957 15.6365 4.91679C15.4528 4.81406 15.2203 4.87967 15.1175 5.06355L13.6118 7.75653C13.5569 7.85479 13.4873 7.94015 13.4069 8.01105L15.0424 3.51178H15.9852L15.9216 3.62542C15.8189 3.80925 15.8845 4.04163 16.0684 4.14441C16.2522 4.24729 16.4846 4.18153 16.5874 3.99765L16.9899 3.27788C17.0967 3.08679 17.1132 2.85985 17.0352 2.6553C16.9572 2.45075 16.7938 2.29247 16.5868 2.22102L16.5689 2.21482L14.4998 1.50084L13.0932 1.01542C13.0931 1.01542 13.093 1.01537 13.093 1.01537L13.0784 1.01029C12.884 0.94326 12.6699 0.94326 12.4756 1.01029L12.4609 1.01537C12.4609 1.01537 12.4608 1.01542 12.4607 1.01542L8.98498 2.21482L8.967 2.22102C8.76007 2.29247 8.59666 2.45075 8.51861 2.6553C8.44061 2.85985 8.45711 3.08679 8.564 3.27793L8.57325 3.29443C8.57335 3.29464 8.57345 3.29489 8.57355 3.29509L8.58589 3.31703L10.7917 7.26202C6.70658 8.18264 3.77747 11.8191 3.77747 16.0405C3.77747 21.0028 7.81458 25.04 12.777 25.04C13.8607 25.04 14.9211 24.8484 15.9287 24.4706C16.1259 24.3966 16.2258 24.1768 16.1519 23.9795C16.078 23.7823 15.8582 23.6824 15.6608 23.7563C14.7392 24.1019 13.769 24.2772 12.777 24.2772C8.23525 24.2772 4.54025 20.5823 4.54025 16.0405C4.54025 12.1009 7.32753 8.71787 11.1816 7.95935L11.2763 8.12871C11.4916 8.51388 11.8307 8.79008 12.2307 8.92181C10.4216 9.06191 8.7162 9.89305 7.48607 11.2506C7.34465 11.4067 7.35653 11.6479 7.51258 11.7894C7.66863 11.9307 7.90979 11.919 8.05132 11.7629C9.26037 10.4286 10.9828 9.66331 12.7769 9.66331C16.2933 9.66331 19.1541 12.5241 19.1541 16.0406C19.1541 19.557 16.2933 22.4178 12.7769 22.4178C9.26047 22.4178 6.39966 19.557 6.39966 16.0406C6.39966 14.9914 6.66108 13.9507 7.15559 13.0309C7.25537 12.8454 7.18585 12.6141 7.0003 12.5144C6.81479 12.4147 6.58349 12.4841 6.48375 12.6697C5.92968 13.7001 5.63682 14.8657 5.63682 16.0405C5.63682 19.9775 8.83985 23.1805 12.7769 23.1805C16.7139 23.1805 19.9169 19.9775 19.9169 16.0405C19.9169 12.2878 17.0068 9.20197 13.3247 8.9213C13.7241 8.78937 14.0625 8.51337 14.2776 8.12871L14.3724 7.95915C16.8214 8.44264 18.9446 10.0378 20.0994 12.2726C20.0427 13.6245 20.1658 15.18 20.7285 16.628L20.9384 17.2075C20.9308 17.2295 20.9247 17.2525 20.9211 17.2764C20.56 19.6666 19.1658 21.7716 17.096 23.0515C16.9168 23.1623 16.8614 23.3974 16.9722 23.5765C17.0443 23.6932 17.1691 23.7574 17.2969 23.7574C17.3654 23.7574 17.4347 23.739 17.4971 23.7003C19.4185 22.5121 20.8066 20.6722 21.4223 18.543L21.9182 19.9117V22.6556C21.9182 23.2658 22.3861 23.7658 22.9833 23.7939C23.0016 23.7948 23.0198 23.7951 23.038 23.7951C23.3269 23.7951 23.599 23.6865 23.8091 23.4859C24.0294 23.2758 24.1557 22.9807 24.1557 22.6764V19.9464L25.3582 16.628C26.1844 14.5018 26.0633 12.1431 25.816 10.5385ZM12.7806 7.5012L11.3304 3.51178H14.2307L12.7806 7.5012ZM12.8443 1.73641L13.1373 1.83752L13.9347 2.74899H11.6264L12.4269 1.83396L12.7096 1.73641C12.7531 1.72143 12.8008 1.72153 12.8443 1.73641ZM10.9751 2.33497L10.6129 2.74899H9.77539L10.9751 2.33497ZM14.9482 2.74899L14.5892 2.33858L15.7784 2.74899H14.9482ZM11.942 7.75648L9.56871 3.51178H10.5188L12.1575 8.01983C12.0726 7.94716 11.9993 7.8589 11.942 7.75648ZM24.6457 16.3555C24.6446 16.3584 24.6436 16.3612 24.6425 16.364L23.4157 19.7495C23.4007 19.7911 23.3929 19.8352 23.3929 19.8794V22.6764C23.3929 22.7746 23.3537 22.8661 23.2826 22.934C23.2116 23.0018 23.1186 23.0367 23.0192 23.0319C22.8327 23.0232 22.681 22.8544 22.681 22.6556V19.8448C22.681 19.8005 22.6733 19.7565 22.6582 19.7149L21.444 16.364C21.4429 16.3612 21.4419 16.3584 21.4408 16.3556C20.6742 14.3857 20.7912 12.1682 21.0237 10.6583C21.0428 10.5706 21.2 10.2471 21.6451 9.55982C21.7278 10.2862 21.7439 10.6603 21.728 10.763C21.5476 11.9337 21.357 14.1843 22.1076 16.1062L22.6846 17.6981C22.7393 17.8491 22.8826 17.9496 23.0432 17.9496C23.2038 17.9496 23.3471 17.8491 23.4018 17.6981L23.9758 16.1141L23.9793 16.1049C24.7294 14.1843 24.5388 11.9337 24.3584 10.7631C24.3426 10.6602 24.3587 10.2787 24.4415 9.53347C24.8851 10.2376 25.0427 10.5674 25.0624 10.6569C25.2955 12.1703 25.4121 14.3867 24.6457 16.3555Z" fill="#094876"/>
<path d="M6.41491 8.28572C6.4502 8.26257 6.48326 8.23606 6.51296 8.20691L8.25314 6.50259C8.47495 6.28535 8.51146 5.95192 8.34195 5.69177C8.17234 5.43166 7.85257 5.33051 7.56429 5.44573L5.30239 6.35014C5.26303 6.36589 5.2252 6.38554 5.19087 6.40798L2.09307 8.41786C2.05808 8.40805 2.02278 8.39896 1.98688 8.3914C1.55677 8.30065 1.11664 8.38307 0.748074 8.62316C0.379605 8.86336 0.126714 9.23264 0.036019 9.66306C-0.0547271 10.0935 0.02764 10.5334 0.267785 10.9019C0.50798 11.2703 0.877261 11.5232 1.30768 11.6139C1.42179 11.638 1.53655 11.6499 1.65061 11.6499C1.96637 11.6499 2.27573 11.5586 2.54649 11.3822C2.91496 11.142 3.16785 10.7727 3.25855 10.3423C3.25921 10.339 3.25966 10.3358 3.26032 10.3326L6.41491 8.28572ZM5.59667 7.05397L7.29215 6.37604L5.98778 7.6535L3.20259 9.4606C3.15907 9.33639 3.10036 9.21649 3.02668 9.1034C2.96721 9.0122 2.89983 8.92811 2.82559 8.85178L5.59667 7.05397ZM2.51211 10.185C2.46341 10.4159 2.32768 10.6142 2.12988 10.7431C1.93209 10.8721 1.69596 10.9162 1.4649 10.8676C1.23395 10.8189 1.0357 10.6832 0.906765 10.4854C0.777831 10.2876 0.733652 10.0515 0.7823 9.82043C0.830999 9.58943 0.966738 9.39118 1.16453 9.26225C1.30982 9.16749 1.47592 9.11854 1.64538 9.11854C1.70657 9.11854 1.76817 9.12488 1.82946 9.13778C2.06041 9.18648 2.25866 9.32222 2.3876 9.52001C2.51658 9.7178 2.56076 9.95399 2.51211 10.185Z" fill="#094876"/>
</g>
<defs>
<clipPath id="clip0_133_801">
<rect width="26" height="26" fill="white"/>
</clipPath>
</defs>
</svg>
