<svg width="26" height="26" viewBox="0 0 26 26" fill="none" xmlns="http://www.w3.org/2000/svg">
<path d="M0.40625 22.3438H25.5938V23.1562H0.40625V22.3438Z" fill="#747474"/>
<path d="M1.625 13.4062C1.51726 13.4062 1.41392 13.4491 1.33774 13.5252C1.26155 13.6014 1.21875 13.7048 1.21875 13.8125V21.125C1.21875 21.2327 1.26155 21.3361 1.33774 21.4123C1.41392 21.4884 1.51726 21.5312 1.625 21.5312H4.875C4.98274 21.5312 5.08608 21.4884 5.16226 21.4123C5.23845 21.3361 5.28125 21.2327 5.28125 21.125V13.8125C5.28125 13.7048 5.23845 13.6014 5.16226 13.5252C5.08608 13.4491 4.98274 13.4062 4.875 13.4062H1.625ZM4.46875 20.7188H2.03125V14.2188H4.46875V20.7188Z" fill="#747474"/>
<path d="M8.125 21.5312H11.375C11.4827 21.5312 11.5861 21.4884 11.6623 21.4123C11.7384 21.3361 11.7812 21.2327 11.7812 21.125V13.8125C11.7812 13.7048 11.7384 13.6014 11.6623 13.5252C11.5861 13.4491 11.4827 13.4062 11.375 13.4062H8.125C8.01726 13.4062 7.91392 13.4491 7.83774 13.5252C7.76155 13.6014 7.71875 13.7048 7.71875 13.8125V21.125C7.71875 21.2327 7.76155 21.3361 7.83774 21.4123C7.91392 21.4884 8.01726 21.5312 8.125 21.5312ZM8.53125 14.2188H10.9688V20.7188H8.53125V14.2188Z" fill="#747474"/>
<path d="M21.125 13.8125C21.0173 13.8125 20.9139 13.8553 20.8377 13.9315C20.7616 14.0077 20.7188 14.111 20.7188 14.2188V21.125C20.7188 21.2327 20.7616 21.3361 20.8377 21.4123C20.9139 21.4884 21.0173 21.5312 21.125 21.5312H24.375C24.4827 21.5312 24.5861 21.4884 24.6623 21.4123C24.7384 21.3361 24.7812 21.2327 24.7812 21.125V14.2188C24.7812 14.111 24.7384 14.0077 24.6623 13.9315C24.5861 13.8553 24.4827 13.8125 24.375 13.8125H21.125ZM23.9688 20.7188H21.5312V14.625H23.9688V20.7188Z" fill="#747474"/>
<path d="M18.2812 7.71872H19.5C19.5766 7.7185 19.6515 7.69665 19.7162 7.65568C19.7809 7.61471 19.8327 7.55629 19.8656 7.48716C19.8981 7.4186 19.9108 7.3423 19.9022 7.26691C19.8936 7.19152 19.864 7.12005 19.8169 7.0606L16.5669 2.9981C16.5288 2.95065 16.4806 2.91236 16.4257 2.88604C16.3709 2.85973 16.3108 2.84607 16.25 2.84607C16.1892 2.84607 16.1291 2.85973 16.0743 2.88604C16.0194 2.91236 15.9712 2.95065 15.9331 2.9981L12.6831 7.0606C12.636 7.12005 12.6064 7.19152 12.5978 7.26691C12.5892 7.3423 12.6018 7.4186 12.6344 7.48716C12.6673 7.55629 12.7191 7.61471 12.7838 7.65568C12.8485 7.69665 12.9234 7.7185 13 7.71872H14.2187V19.9062H15.0312V7.31247C15.0312 7.20473 14.9884 7.1014 14.9122 7.02521C14.8361 6.94902 14.7327 6.90622 14.625 6.90622H13.845L16.25 3.89997L18.655 6.90622H17.875C17.7672 6.90622 17.6639 6.94902 17.5877 7.02521C17.5115 7.1014 17.4687 7.20473 17.4687 7.31247V19.9062H18.2812V7.71872Z" fill="#747474"/>
<path d="M14.2188 20.7188H15.0312V21.5312H14.2188V20.7188Z" fill="#747474"/>
<path d="M15.8438 20.7188H16.6562V21.5312H15.8438V20.7188Z" fill="#747474"/>
<path d="M17.4688 20.7188H18.2812V21.5312H17.4688V20.7188Z" fill="#747474"/>
</svg>
