<?xml version="1.0" standalone="no"?>
<!DOCTYPE svg PUBLIC "-//W3C//DTD SVG 20010904//EN"
 "http://www.w3.org/TR/2001/REC-SVG-20010904/DTD/svg10.dtd">
<svg version="1.0" xmlns="http://www.w3.org/2000/svg"
 width="512.000000pt" height="512.000000pt" viewBox="0 0 512.000000 512.000000"
 preserveAspectRatio="xMidYMid meet">

<g transform="translate(0.000000,512.000000) scale(0.100000,-0.100000)"
fill="#000000" stroke="none">
<path d="M580 3185 c-176 -38 -351 -175 -429 -337 -94 -194 -94 -382 0 -576
101 -210 331 -352 569 -352 237 0 461 139 568 350 99 198 94 423 -15 610 -139
238 -421 363 -693 305z m255 -160 c238 -62 393 -291 358 -531 -30 -212 -196
-377 -409 -407 -329 -48 -612 266 -529 586 67 258 329 417 580 352z"/>
<path d="M2420 3185 c-176 -38 -351 -175 -429 -337 -94 -194 -94 -382 0 -576
101 -210 331 -352 569 -352 237 0 461 139 568 350 99 198 94 423 -15 610 -139
238 -421 363 -693 305z m255 -160 c238 -62 393 -291 358 -531 -30 -212 -196
-377 -409 -407 -329 -48 -612 266 -529 586 67 258 329 417 580 352z"/>
<path d="M4260 3185 c-176 -38 -351 -175 -429 -337 -94 -194 -94 -382 0 -576
101 -210 331 -352 569 -352 237 0 461 139 568 350 99 198 94 423 -15 610 -139
238 -421 363 -693 305z m255 -160 c238 -62 393 -291 358 -531 -30 -212 -196
-377 -409 -407 -329 -48 -612 266 -529 586 67 258 329 417 580 352z"/>
</g>
</svg>
