<svg width="23" height="23" viewBox="0 0 23 23" fill="none" xmlns="http://www.w3.org/2000/svg">
<mask id="path-1-inside-1_127_256" fill="white">
<path d="M20.5025 0H2.49752C1.91461 0 1.44037 0.47424 1.44037 1.0571V3.44798C1.44037 3.83781 1.57127 4.22266 1.80895 4.53163L8.64238 13.4151V20.0276C8.64238 20.451 8.89385 20.8325 9.28305 20.9992L13.888 22.9728C13.9305 22.991 13.9757 23 14.0206 23C14.0857 23 14.1502 22.9812 14.2061 22.9443C14.3006 22.882 14.3576 22.7763 14.3576 22.6631V13.4151L21.191 4.53163C21.4287 4.22266 21.5596 3.83781 21.5596 3.44798V1.0571C21.5596 0.47424 21.0854 0 20.5025 0ZM9.5485 20.3799C9.4074 20.3194 9.31621 20.1812 9.31621 20.0276V13.6374H10.0596C10.2456 13.6374 10.3965 13.4866 10.3965 13.3005C10.3965 13.1144 10.2456 12.9636 10.0596 12.9636H9.14519L2.46153 4.27481H16.1813C16.3673 4.27481 16.5182 4.12401 16.5182 3.9379C16.5182 3.75183 16.3673 3.60098 16.1813 3.60098H2.12583C2.11869 3.5504 2.11424 3.49932 2.11424 3.44798V1.0571C2.11424 0.845744 2.2862 0.673828 2.49752 0.673828H20.5025C20.7139 0.673828 20.8858 0.845744 20.8858 1.0571V3.44798C20.8858 3.49932 20.8813 3.55036 20.8742 3.60098H17.6217C17.4357 3.60098 17.2848 3.75183 17.2848 3.9379C17.2848 4.12401 17.4357 4.27481 17.6217 4.27481H20.5385L13.8548 12.9636H11.5C11.3139 12.9636 11.1631 13.1144 11.1631 13.3005C11.1631 13.4866 11.3139 13.6374 11.5 13.6374H13.6838V22.1521L9.5485 20.3799Z"/>
</mask>
<path d="M20.5025 0H2.49752C1.91461 0 1.44037 0.47424 1.44037 1.0571V3.44798C1.44037 3.83781 1.57127 4.22266 1.80895 4.53163L8.64238 13.4151V20.0276C8.64238 20.451 8.89385 20.8325 9.28305 20.9992L13.888 22.9728C13.9305 22.991 13.9757 23 14.0206 23C14.0857 23 14.1502 22.9812 14.2061 22.9443C14.3006 22.882 14.3576 22.7763 14.3576 22.6631V13.4151L21.191 4.53163C21.4287 4.22266 21.5596 3.83781 21.5596 3.44798V1.0571C21.5596 0.47424 21.0854 0 20.5025 0ZM9.5485 20.3799C9.4074 20.3194 9.31621 20.1812 9.31621 20.0276V13.6374H10.0596C10.2456 13.6374 10.3965 13.4866 10.3965 13.3005C10.3965 13.1144 10.2456 12.9636 10.0596 12.9636H9.14519L2.46153 4.27481H16.1813C16.3673 4.27481 16.5182 4.12401 16.5182 3.9379C16.5182 3.75183 16.3673 3.60098 16.1813 3.60098H2.12583C2.11869 3.5504 2.11424 3.49932 2.11424 3.44798V1.0571C2.11424 0.845744 2.2862 0.673828 2.49752 0.673828H20.5025C20.7139 0.673828 20.8858 0.845744 20.8858 1.0571V3.44798C20.8858 3.49932 20.8813 3.55036 20.8742 3.60098H17.6217C17.4357 3.60098 17.2848 3.75183 17.2848 3.9379C17.2848 4.12401 17.4357 4.27481 17.6217 4.27481H20.5385L13.8548 12.9636H11.5C11.3139 12.9636 11.1631 13.1144 11.1631 13.3005C11.1631 13.4866 11.3139 13.6374 11.5 13.6374H13.6838V22.1521L9.5485 20.3799Z" fill="#094876"/>
<path d="M1.80895 4.53163L363.246 -273.496L363.24 -273.504L1.80895 4.53163ZM8.64238 13.4151H464.642V-141.68L370.079 -264.612L8.64238 13.4151ZM9.28305 20.9992L188.912 -398.13L188.888 -398.14L188.864 -398.151L9.28305 20.9992ZM13.888 22.9728L-165.741 442.102L-165.687 442.125L-165.633 442.149L13.888 22.9728ZM14.2061 22.9443L-236.897 -357.691L-236.933 -357.667L-236.969 -357.643L14.2061 22.9443ZM14.3576 13.4151L-347.079 -264.612L-441.642 -141.68V13.4151H14.3576ZM21.191 4.53163L-340.24 -273.504L-340.246 -273.496L21.191 4.53163ZM21.5596 1.0571L-434.44 1.02196V1.03953V1.0571H21.5596ZM9.5485 20.3799L189.175 -398.75L189.167 -398.754L189.16 -398.757L9.5485 20.3799ZM9.31621 13.6374V-442.363H-446.684V13.6374H9.31621ZM9.14519 12.9636L-352.292 290.991L-215.39 468.964H9.14519V12.9636ZM2.46153 4.27481V-451.725H-923.61L-358.976 282.302L2.46153 4.27481ZM2.12583 3.60098L-449.395 67.3592L-394.007 459.601H2.12583V3.60098ZM20.8742 3.60098V459.601H417.056L472.403 67.3038L20.8742 3.60098ZM20.5385 4.27481L381.976 282.302L946.61 -451.725H20.5385V4.27481ZM13.8548 12.9636V468.964H238.39L375.292 290.991L13.8548 12.9636ZM13.6838 13.6374H469.684V-442.363H13.6838V13.6374ZM13.6838 22.1521L-165.943 441.283L469.684 713.693V22.1521H13.6838ZM20.5025 -456H2.49752V456H20.5025V-456ZM2.49752 -456C-249.915 -456 -454.56 -251.38 -454.56 1.0571H457.44C457.44 252.329 253.744 456 2.49752 456V-456ZM-454.56 1.0571V3.44798H457.44V1.0571H-454.56ZM-454.56 3.44798C-454.56 104.41 -421.18 202.545 -359.622 282.567L363.24 -273.504C424.323 -194.099 457.44 -96.7342 457.44 3.44798H-454.56ZM-359.628 282.559L-352.795 291.443L370.079 -264.612L363.246 -273.496L-359.628 282.559ZM-447.358 13.4151V20.0276H464.642V13.4151H-447.358ZM-447.358 20.0276C-447.358 202.825 -338.428 368.116 -170.297 440.149L188.864 -398.151C356.216 -326.451 464.642 -161.923 464.642 20.0276H-447.358ZM-170.346 440.128L-165.741 442.102L193.517 -396.156L188.912 -398.13L-170.346 440.128ZM-165.633 442.149C-108.015 466.825 -46.8157 479 14.0206 479V-433C74.767 -433 135.876 -420.843 193.408 -396.203L-165.633 442.149ZM14.0206 479C101.876 479 189.538 453.586 265.382 403.532L-236.969 -357.643C-161.238 -407.624 -73.7046 -433 14.0206 -433V479ZM265.31 403.579C393.239 319.185 470.358 176.125 470.358 22.6631H-441.642C-441.642 -130.572 -364.638 -273.421 -236.897 -357.691L265.31 403.579ZM470.358 22.6631V13.4151H-441.642V22.6631H470.358ZM375.794 291.443L382.628 282.559L-340.246 -273.496L-347.079 -264.612L375.794 291.443ZM382.622 282.567C444.181 202.544 477.56 104.409 477.56 3.44798H-434.44C-434.44 -96.7337 -401.323 -194.099 -340.24 -273.504L382.622 282.567ZM477.56 3.44798V1.0571H-434.44V3.44798H477.56ZM477.56 1.09225C477.579 -251.379 272.908 -456 20.5025 -456V456C-230.737 456 -434.46 252.327 -434.44 1.02196L477.56 1.09225ZM189.16 -398.757C356.687 -326.967 465.316 -162.242 465.316 20.0276H-446.684C-446.684 202.604 -337.872 367.606 -170.063 439.517L189.16 -398.757ZM465.316 20.0276V13.6374H-446.684V20.0276H465.316ZM9.31621 469.637H10.0596V-442.363H9.31621V469.637ZM10.0596 469.637C262.087 469.637 466.396 265.328 466.396 13.3005H-445.604C-445.604 -238.355 -241.596 -442.363 10.0596 -442.363V469.637ZM466.396 13.3005C466.396 -238.727 262.087 -443.036 10.0596 -443.036V468.964C-241.596 468.964 -445.604 264.956 -445.604 13.3005H466.396ZM10.0596 -443.036H9.14519V468.964H10.0596V-443.036ZM370.582 -265.064L363.899 -273.753L-358.976 282.302L-352.292 290.991L370.582 -265.064ZM2.46153 460.275H16.1813V-451.725H2.46153V460.275ZM16.1813 460.275C268.17 460.275 472.518 256.005 472.518 3.9379H-439.482C-439.482 -247.757 -235.435 -451.725 16.1813 -451.725V460.275ZM472.518 3.9379C472.518 -248.09 268.209 -452.399 16.1813 -452.399V459.601C-235.475 459.601 -439.482 255.594 -439.482 3.9379H472.518ZM16.1813 -452.399H2.12583V459.601H16.1813V-452.399ZM453.646 -60.1573C455.874 -44.3791 458.114 -22.5825 458.114 3.44798H-453.886C-453.886 29.5811 -451.637 51.4799 -449.395 67.3592L453.646 -60.1573ZM458.114 3.44798V1.0571H-453.886V3.44798H458.114ZM458.114 1.0571C458.114 252.723 254.093 456.674 2.49752 456.674V-455.326C-249.521 -455.326 -453.886 -251.031 -453.886 1.0571H458.114ZM2.49752 456.674H20.5025V-455.326H2.49752V456.674ZM20.5025 456.674C-231.127 456.674 -435.114 252.689 -435.114 1.0571H476.886C476.886 -250.997 272.555 -455.326 20.5025 -455.326V456.674ZM-435.114 1.0571V3.44798H476.886V1.0571H-435.114ZM-435.114 3.44798C-435.114 -22.604 -432.871 -44.3929 -430.654 -60.1018L472.403 67.3038C474.633 51.4937 476.886 29.6026 476.886 3.44798H-435.114ZM20.8742 -452.399H17.6217V459.601H20.8742V-452.399ZM17.6217 -452.399C-234.406 -452.399 -438.715 -248.09 -438.715 3.9379H473.285C473.285 255.594 269.277 459.601 17.6217 459.601V-452.399ZM-438.715 3.9379C-438.715 256.005 -234.367 460.275 17.6217 460.275V-451.725C269.238 -451.725 473.285 -247.757 473.285 3.9379H-438.715ZM17.6217 460.275H20.5385V-451.725H17.6217V460.275ZM-340.899 -273.753L-347.582 -265.064L375.292 290.991L381.976 282.302L-340.899 -273.753ZM13.8548 -443.036H11.5V468.964H13.8548V-443.036ZM11.5 -443.036C-240.528 -443.036 -444.837 -238.727 -444.837 13.3005H467.163C467.163 264.956 263.156 468.964 11.5 468.964V-443.036ZM-444.837 13.3005C-444.837 265.328 -240.528 469.637 11.5 469.637V-442.363C263.156 -442.363 467.163 -238.355 467.163 13.3005H-444.837ZM11.5 469.637H13.6838V-442.363H11.5V469.637ZM-442.316 13.6374V22.1521H469.684V13.6374H-442.316ZM193.31 -396.978L189.175 -398.75L-170.078 439.51L-165.943 441.283L193.31 -396.978Z" fill="#094876" mask="url(#path-1-inside-1_127_256)"/>
</svg>
