<svg width="25" height="23" viewBox="0 0 25 23" fill="none" xmlns="http://www.w3.org/2000/svg">
<path d="M8.45 22.3568H0.39C0.173875 22.3568 0 22.1829 0 21.9668V14.9289C0 14.7128 0.173875 14.5389 0.39 14.5389H8.45C8.66612 14.5389 8.84 14.7128 8.84 14.9289V21.9668C8.84 22.1813 8.66612 22.3568 8.45 22.3568ZM0.78 21.5768H8.06V15.3189H0.78V21.5768Z" fill="#747474"/>
<path d="M5.46972 17.4184H3.37022C3.1541 17.4184 2.98022 17.2445 2.98022 17.0284V14.9289C2.98022 14.7128 3.1541 14.5389 3.37022 14.5389H5.46972C5.68585 14.5389 5.85972 14.7128 5.85972 14.9289V17.0284C5.85972 17.2429 5.68585 17.4184 5.46972 17.4184ZM3.76022 16.6384H5.07972V15.3189H3.76022V16.6384Z" fill="#747474"/>
<path d="M16.51 22.3568H8.45C8.23387 22.3568 8.06 22.1829 8.06 21.9668V14.9289C8.06 14.7128 8.23387 14.5389 8.45 14.5389H16.51C16.7261 14.5389 16.9 14.7128 16.9 14.9289V21.9668C16.9 22.1813 16.7261 22.3568 16.51 22.3568ZM8.84 21.5768H16.12V15.3189H8.84V21.5768Z" fill="#747474"/>
<path d="M13.5297 17.4184H11.4302C11.2141 17.4184 11.0402 17.2445 11.0402 17.0284V14.9289C11.0402 14.7128 11.2141 14.5389 11.4302 14.5389H13.5297C13.7458 14.5389 13.9197 14.7128 13.9197 14.9289V17.0284C13.9197 17.2429 13.7458 17.4184 13.5297 17.4184ZM11.8202 16.6384H13.1397V15.3189H11.8202V16.6384Z" fill="#747474"/>
<path d="M24.57 22.3568H16.51C16.2939 22.3568 16.12 22.1829 16.12 21.9668V14.9289C16.12 14.7128 16.2939 14.5389 16.51 14.5389H24.57C24.7861 14.5389 24.96 14.7128 24.96 14.9289V21.9668C24.96 22.1813 24.7861 22.3568 24.57 22.3568ZM16.9 21.5768H24.18V15.3189H16.9V21.5768Z" fill="#747474"/>
<path d="M21.5897 17.4184H19.4902C19.2741 17.4184 19.1002 17.2445 19.1002 17.0284V14.9289C19.1002 14.7128 19.2741 14.5389 19.4902 14.5389H21.5897C21.8058 14.5389 21.9797 14.7128 21.9797 14.9289V17.0284C21.9797 17.2429 21.8058 17.4184 21.5897 17.4184ZM19.8802 16.6384H21.1997V15.3189H19.8802V16.6384Z" fill="#747474"/>
<path d="M12.48 15.3173H4.42003C4.2039 15.3173 4.03003 15.1434 4.03003 14.9273V12.7953C4.03003 12.5791 4.2039 12.4053 4.42003 12.4053C4.63615 12.4053 4.81003 12.5791 4.81003 12.7953V14.5373H12.09V8.27939H10.6503C10.4342 8.27939 10.2603 8.10551 10.2603 7.88939C10.2603 7.67326 10.4342 7.49939 10.6503 7.49939H12.48C12.6962 7.49939 12.87 7.67326 12.87 7.88939V14.9273C12.87 15.1434 12.6962 15.3173 12.48 15.3173Z" fill="#747474"/>
<path d="M20.54 15.3173H12.48C12.2639 15.3173 12.09 15.1434 12.09 14.9273V7.88939C12.09 7.67326 12.2639 7.49939 12.48 7.49939H20.54C20.7562 7.49939 20.93 7.67326 20.93 7.88939V14.9273C20.93 15.1434 20.7562 15.3173 20.54 15.3173ZM12.87 14.5373H20.15V8.27939H12.87V14.5373Z" fill="#747474"/>
<path d="M17.5598 10.3789H15.4603C15.2441 10.3789 15.0703 10.205 15.0703 9.98889V7.88939C15.0703 7.67326 15.2441 7.49939 15.4603 7.49939H17.5598C17.7759 7.49939 17.9498 7.67326 17.9498 7.88939V9.98889C17.9498 10.205 17.7759 10.3789 17.5598 10.3789ZM15.8503 9.59889H17.1698V8.27939H15.8503V9.59889Z" fill="#747474"/>
<path d="M8.45814 3.39787H4.15514C3.93901 3.39787 3.76514 3.22399 3.76514 3.00787V1.59087C3.76514 1.16674 4.11126 0.820618 4.53539 0.820618H5.16101C5.37714 0.820618 5.55101 0.994493 5.55101 1.21062C5.55101 1.42674 5.37714 1.60062 5.16101 1.60062H4.54514V2.61624H8.06814V1.60062H7.45226C7.23614 1.60062 7.06226 1.42674 7.06226 1.21062C7.06226 0.994493 7.23614 0.820618 7.45226 0.820618H8.07789C8.50201 0.820618 8.84814 1.16674 8.84814 1.59087V3.00624C8.84814 3.22237 8.67426 3.39787 8.45814 3.39787Z" fill="#747474"/>
<path d="M10.6502 13.1853H1.963C1.74687 13.1853 1.573 13.0114 1.573 12.7953V1.90453C1.573 1.6884 1.74687 1.51453 1.963 1.51453H4.15512C4.37125 1.51453 4.54512 1.6884 4.54512 1.90453C4.54512 2.12065 4.37125 2.29453 4.15512 2.29453H2.353V12.4053H10.2602V2.29453H8.45812C8.242 2.29453 8.06812 2.12065 8.06812 1.90453C8.06812 1.6884 8.242 1.51453 8.45812 1.51453H10.6502C10.8664 1.51453 11.0402 1.6884 11.0402 1.90453V12.7953C11.0402 13.0114 10.8664 13.1853 10.6502 13.1853Z" fill="#747474"/>
<path d="M7.45225 2.1515H5.161C4.94487 2.1515 4.771 1.97763 4.771 1.7615V0.39C4.771 0.173875 4.94487 0 5.161 0H7.45225C7.66837 0 7.84225 0.173875 7.84225 0.39V1.7615C7.84225 1.97763 7.66837 2.1515 7.45225 2.1515ZM5.551 1.3715H7.06225V0.78H5.551V1.3715Z" fill="#747474"/>
<path d="M8.98306 5.29916H5.73143C5.51531 5.29916 5.34143 5.12529 5.34143 4.90916C5.34143 4.69304 5.51531 4.51917 5.73143 4.51917H8.98306C9.19918 4.51917 9.37305 4.69304 9.37305 4.90916C9.37305 5.12529 9.19756 5.29916 8.98306 5.29916Z" fill="#747474"/>
<path d="M3.90328 5.45677C3.80415 5.45677 3.7034 5.41939 3.62703 5.34302L3.35565 5.07164C3.2029 4.91889 3.2029 4.67189 3.35565 4.52077C3.50678 4.36964 3.75053 4.36802 3.90165 4.51589L4.25428 4.16327C4.40703 4.01052 4.65403 4.01052 4.80515 4.16327C4.9579 4.31602 4.9579 4.56302 4.80515 4.71414L4.1779 5.34139C4.10315 5.41777 4.0024 5.45677 3.90328 5.45677Z" fill="#747474"/>
<path d="M8.98306 7.39865H5.73143C5.51531 7.39865 5.34143 7.22478 5.34143 7.00865C5.34143 6.79253 5.51531 6.61865 5.73143 6.61865H8.98306C9.19918 6.61865 9.37305 6.79253 9.37305 7.00865C9.37305 7.22478 9.19756 7.39865 8.98306 7.39865Z" fill="#747474"/>
<path d="M3.90328 7.55626C3.79928 7.55626 3.70015 7.51563 3.62703 7.44251L3.35565 7.17113C3.2029 7.01838 3.2029 6.77138 3.35565 6.62026C3.50678 6.46913 3.75053 6.46751 3.90165 6.61538L4.25428 6.26276C4.40703 6.11001 4.65403 6.11001 4.80515 6.26276C4.9579 6.41551 4.9579 6.66251 4.80515 6.81363L4.1779 7.44088C4.10478 7.51401 4.00565 7.55626 3.90328 7.55626Z" fill="#747474"/>
<path d="M8.98306 9.49814H5.73143C5.51531 9.49814 5.34143 9.32426 5.34143 9.10814C5.34143 8.89201 5.51531 8.71814 5.73143 8.71814H8.98306C9.19918 8.71814 9.37305 8.89201 9.37305 9.10814C9.37305 9.32426 9.19756 9.49814 8.98306 9.49814Z" fill="#747474"/>
<path d="M3.90328 9.65574C3.79928 9.65574 3.70015 9.61512 3.62703 9.54199L3.35565 9.27062C3.2029 9.11787 3.2029 8.87087 3.35565 8.71974C3.50678 8.56862 3.75053 8.56699 3.90165 8.71487L4.25428 8.36224C4.40703 8.20949 4.65403 8.20949 4.80515 8.36224C4.9579 8.51499 4.9579 8.76199 4.80515 8.91312L4.1779 9.54037C4.10478 9.61349 4.00565 9.65574 3.90328 9.65574Z" fill="#747474"/>
<path d="M8.98306 11.5976H5.73143C5.51531 11.5976 5.34143 11.4238 5.34143 11.2076C5.34143 10.9915 5.51531 10.8176 5.73143 10.8176H8.98306C9.19918 10.8176 9.37305 10.9915 9.37305 11.2076C9.37305 11.4238 9.19756 11.5976 8.98306 11.5976Z" fill="#747474"/>
<path d="M3.90328 11.7536C3.80415 11.7536 3.7034 11.7163 3.62703 11.6399L3.35565 11.3685C3.2029 11.2158 3.2029 10.9688 3.35565 10.8176C3.50678 10.6665 3.75053 10.6649 3.90165 10.8128L4.25428 10.4601C4.40703 10.3074 4.65403 10.3074 4.80515 10.4601C4.95628 10.6129 4.9579 10.8599 4.80515 11.011L4.1779 11.6383C4.10315 11.7163 4.0024 11.7536 3.90328 11.7536Z" fill="#747474"/>
</svg>
