<svg width="26" height="25" viewBox="0 0 26 25" fill="none" xmlns="http://www.w3.org/2000/svg">
<path fill-rule="evenodd" clip-rule="evenodd" d="M6.11765 16.8235C6.53998 16.8235 6.88235 16.4812 6.88235 16.0588V12.2353C6.88235 11.813 6.53998 11.4706 6.11765 11.4706H2.29412C1.87179 11.4706 1.52941 11.813 1.52941 12.2353V16.0588C1.52941 16.4812 1.87179 16.8235 2.29412 16.8235H6.11765ZM3.05882 15.2941V13H5.35294V15.2941H3.05882ZM6.11765 24.4706C6.53998 24.4706 6.88235 24.1282 6.88235 23.7059V19.8824C6.88235 19.46 6.53998 19.1176 6.11765 19.1176H2.29412C1.87179 19.1176 1.52941 19.46 1.52941 19.8824V23.7059C1.52941 24.1282 1.87179 24.4706 2.29412 24.4706H6.11765ZM3.05882 22.9412V20.6471H5.35294V22.9412H3.05882ZM0 2.29382V6.88265C0 8.14913 1.0281 9.17647 2.29543 9.17647H23.7045C24.9713 9.17647 26 8.14939 26 6.88265V2.29382C26 1.02734 24.9719 0 23.7046 0H2.29543C1.0287 0 0 1.02708 0 2.29382ZM18.3529 1.52941H23.7046C24.1275 1.52941 24.4706 1.87225 24.4706 2.29382V6.88265C24.4706 7.30417 24.1272 7.64706 23.7046 7.64706H18.3529V1.52941ZM1.52941 2.29382C1.52941 1.8723 1.87285 1.52941 2.29543 1.52941H16.8235V7.64706H2.29543C1.87251 7.64706 1.52941 7.30422 1.52941 6.88265V2.29382ZM22.0181 5.51132C22.3167 5.80994 22.8009 5.80994 23.0996 5.51132C23.3982 5.2127 23.3982 4.72852 23.0996 4.42986L21.9525 3.2828C21.6539 2.98418 21.1697 2.98418 20.871 3.2828L19.724 4.42986C19.4254 4.72847 19.4254 5.21266 19.724 5.51132C20.0226 5.80994 20.5068 5.80994 20.8054 5.51132L21.4118 4.90499L22.0181 5.51132ZM3.82353 5.35294H10.7145C11.1369 5.35294 11.4793 5.01057 11.4793 4.58824C11.4793 4.16591 11.1369 3.82353 10.7145 3.82353H3.82353C3.4012 3.82353 3.05882 4.16591 3.05882 4.58824C3.05882 5.01057 3.4012 5.35294 3.82353 5.35294ZM9.17647 14.9118H18.7353C19.1576 14.9118 19.5 14.5694 19.5 14.1471C19.5 13.7247 19.1576 13.3824 18.7353 13.3824H9.17647C8.75414 13.3824 8.41177 13.7247 8.41177 14.1471C8.41177 14.5694 8.75414 14.9118 9.17647 14.9118ZM9.17647 22.5588H14.9118C15.3341 22.5588 15.6765 22.2164 15.6765 21.7941C15.6765 21.3718 15.3341 21.0294 14.9118 21.0294H9.17647C8.75414 21.0294 8.41177 21.3718 8.41177 21.7941C8.41177 22.2164 8.75414 22.5588 9.17647 22.5588Z" fill="#094876"/>
</svg>
