<svg width="25" height="24" viewBox="0 0 25 24" fill="none" xmlns="http://www.w3.org/2000/svg">
<path d="M10.9043 0H1.32979C0.977228 0.000304153 0.639222 0.107544 0.389925 0.298193C0.140628 0.488843 0.000397718 0.747331 0 1.01695V10.7797C0.000397718 11.0493 0.140628 11.3078 0.389925 11.4984C0.639222 11.6891 0.977228 11.7963 1.32979 11.7966H10.9043C11.2568 11.7963 11.5948 11.6891 11.8441 11.4984C12.0934 11.3078 12.2336 11.0493 12.234 10.7797V1.01695C12.2336 0.747331 12.0934 0.488843 11.8441 0.298193C11.5948 0.107544 11.2568 0.000304153 10.9043 0ZM11.7021 10.7797C11.7019 10.9414 11.6178 11.0965 11.4682 11.2109C11.3186 11.3253 11.1158 11.3896 10.9043 11.3898H1.32979C1.11825 11.3896 0.915446 11.3253 0.765867 11.2109C0.616289 11.0965 0.532151 10.9414 0.531915 10.7797V1.01695C0.532151 0.855178 0.616289 0.700084 0.765867 0.585694C0.915446 0.471304 1.11825 0.40696 1.32979 0.40678H10.9043C11.1158 0.40696 11.3186 0.471304 11.4682 0.585694C11.6178 0.700084 11.7019 0.855178 11.7021 1.01695V10.7797Z" fill="#094876"/>
<path d="M23.6702 0H14.0957C13.7432 0.000304153 13.4052 0.107544 13.1559 0.298193C12.9066 0.488843 12.7664 0.747331 12.766 1.01695V10.7797C12.7664 11.0493 12.9066 11.3078 13.1559 11.4984C13.4052 11.6891 13.7432 11.7963 14.0957 11.7966H23.6702C24.0228 11.7963 24.3608 11.6891 24.6101 11.4984C24.8594 11.3078 24.9996 11.0493 25 10.7797V1.01695C24.9996 0.747331 24.8594 0.488843 24.6101 0.298193C24.3608 0.107544 24.0228 0.000304153 23.6702 0ZM24.4681 10.7797C24.4679 10.9414 24.3837 11.0965 24.2341 11.2109C24.0846 11.3253 23.8818 11.3896 23.6702 11.3898H14.0957C13.8842 11.3896 13.6814 11.3253 13.5318 11.2109C13.3822 11.0965 13.2981 10.9414 13.2979 10.7797V1.01695C13.2981 0.855178 13.3822 0.700084 13.5318 0.585694C13.6814 0.471304 13.8842 0.40696 14.0957 0.40678H23.6702C23.8818 0.40696 24.0846 0.471304 24.2341 0.585694C24.3837 0.700084 24.4679 0.855178 24.4681 1.01695V10.7797Z" fill="#094876"/>
<path d="M10.9043 12.2034H1.32979C0.977228 12.2037 0.639222 12.3109 0.389925 12.5016C0.140628 12.6922 0.000397718 12.9507 0 13.2203V22.983C0.000397718 23.2527 0.140628 23.5112 0.389925 23.7018C0.639222 23.8924 0.977228 23.9997 1.32979 24H10.9043C11.2568 23.9997 11.5948 23.8924 11.8441 23.7018C12.0934 23.5112 12.2336 23.2527 12.234 22.983V13.2203C12.2336 12.9507 12.0934 12.6922 11.8441 12.5016C11.5948 12.3109 11.2568 12.2037 10.9043 12.2034ZM11.7021 22.983C11.7019 23.1448 11.6178 23.2999 11.4682 23.4143C11.3186 23.5287 11.1158 23.593 10.9043 23.5932H1.32979C1.11825 23.593 0.915446 23.5287 0.765867 23.4143C0.616289 23.2999 0.532151 23.1448 0.531915 22.983V13.2203C0.532151 13.0586 0.616289 12.9035 0.765867 12.7891C0.915446 12.6747 1.11825 12.6103 1.32979 12.6102H10.9043C11.1158 12.6103 11.3186 12.6747 11.4682 12.7891C11.6178 12.9035 11.7019 13.0586 11.7021 13.2203V22.983Z" fill="#094876"/>
<path d="M23.6702 12.2034H14.0957C13.7432 12.2037 13.4052 12.3109 13.1559 12.5016C12.9066 12.6922 12.7664 12.9507 12.766 13.2203V22.983C12.7664 23.2527 12.9066 23.5112 13.1559 23.7018C13.4052 23.8924 13.7432 23.9997 14.0957 24H23.6702C24.0228 23.9997 24.3608 23.8924 24.6101 23.7018C24.8594 23.5112 24.9996 23.2527 25 22.983V13.2203C24.9996 12.9507 24.8594 12.6922 24.6101 12.5016C24.3608 12.3109 24.0228 12.2037 23.6702 12.2034ZM24.4681 22.983C24.4679 23.1448 24.3837 23.2999 24.2341 23.4143C24.0846 23.5287 23.8818 23.593 23.6702 23.5932H14.0957C13.8842 23.593 13.6814 23.5287 13.5318 23.4143C13.3822 23.2999 13.2981 23.1448 13.2979 22.983V13.2203C13.2981 13.0586 13.3822 12.9035 13.5318 12.7891C13.6814 12.6747 13.8842 12.6103 14.0957 12.6102H23.6702C23.8818 12.6103 24.0846 12.6747 24.2341 12.7891C24.3837 12.9035 24.4679 13.0586 24.4681 13.2203V22.983Z" fill="#094876"/>
<path d="M7.57693 3.0791C7.55901 3.05454 7.53578 3.03461 7.50908 3.02088C7.48237 3.00715 7.45293 3 7.42308 3H4.34615C4.3163 3 4.28685 3.00715 4.26015 3.02088C4.23345 3.03461 4.21022 3.05454 4.19229 3.0791L3.03845 4.66152C3.01314 4.69624 2.99963 4.73856 3.00001 4.78196C3.00038 4.82535 3.01461 4.86742 3.04051 4.90167L5.73283 8.46211C5.75081 8.48589 5.77383 8.50512 5.80013 8.51835C5.82644 8.53158 5.85533 8.53846 5.88462 8.53846C5.9139 8.53846 5.94279 8.53158 5.9691 8.51835C5.99541 8.50512 6.01843 8.48589 6.03641 8.46211L8.72872 4.90167C8.75462 4.86742 8.76885 4.82535 8.76922 4.78196C8.7696 4.73856 8.75609 4.69624 8.73078 4.66152L7.57693 3.0791ZM8.1923 4.58242H7.13464L6.26925 3.3956H7.32692L8.1923 4.58242ZM4.59216 4.97802L5.34714 7.30768L3.5855 4.97802H4.59216ZM6.77165 4.97802L5.88461 7.71514L4.99758 4.97802H6.77165ZM5.1154 4.58242L5.88461 3.5275L6.65383 4.58242H5.1154ZM7.17707 4.97802H8.18373L6.42209 7.30768L7.17707 4.97802ZM4.4423 3.3956H5.49997L4.63459 4.58242H3.57693L4.4423 3.3956Z" fill="#094876"/>
<path d="M20.5769 3.0791C20.559 3.05454 20.5358 3.03461 20.5091 3.02088C20.4824 3.00715 20.4529 3 20.4231 3H17.3462C17.3163 3 17.2869 3.00715 17.2602 3.02088C17.2334 3.03461 17.2102 3.05454 17.1923 3.0791L16.0384 4.66152C16.0131 4.69624 15.9996 4.73856 16 4.78196C16.0004 4.82535 16.0146 4.86742 16.0405 4.90167L18.7328 8.46211C18.7508 8.48589 18.7738 8.50512 18.8001 8.51835C18.8264 8.53158 18.8553 8.53846 18.8846 8.53846C18.9139 8.53846 18.9428 8.53158 18.9691 8.51835C18.9954 8.50512 19.0184 8.48589 19.0364 8.46211L21.7287 4.90167C21.7546 4.86742 21.7688 4.82535 21.7692 4.78196C21.7696 4.73856 21.7561 4.69624 21.7308 4.66152L20.5769 3.0791ZM21.1923 4.58242H20.1346L19.2693 3.3956H20.3269L21.1923 4.58242ZM17.5922 4.97802L18.3471 7.30768L16.5855 4.97802H17.5922ZM19.7717 4.97802L18.8846 7.71514L17.9976 4.97802H19.7717ZM18.1154 4.58242L18.8846 3.5275L19.6538 4.58242H18.1154ZM20.1771 4.97802H21.1837L19.4221 7.30768L20.1771 4.97802ZM17.4423 3.3956H18.5L17.6346 4.58242H16.5769L17.4423 3.3956Z" fill="#094876"/>
<path d="M20.5769 16.0791C20.559 16.0545 20.5358 16.0346 20.5091 16.0209C20.4824 16.0072 20.4529 16 20.4231 16H17.3462C17.3163 16 17.2869 16.0072 17.2602 16.0209C17.2334 16.0346 17.2102 16.0545 17.1923 16.0791L16.0384 17.6615C16.0131 17.6962 15.9996 17.7386 16 17.782C16.0004 17.8254 16.0146 17.8674 16.0405 17.9017L18.7328 21.4621C18.7508 21.4859 18.7738 21.5051 18.8001 21.5184C18.8264 21.5316 18.8553 21.5385 18.8846 21.5385C18.9139 21.5385 18.9428 21.5316 18.9691 21.5184C18.9954 21.5051 19.0184 21.4859 19.0364 21.4621L21.7287 17.9017C21.7546 17.8674 21.7688 17.8254 21.7692 17.782C21.7696 17.7386 21.7561 17.6962 21.7308 17.6615L20.5769 16.0791ZM21.1923 17.5824H20.1346L19.2693 16.3956H20.3269L21.1923 17.5824ZM17.5922 17.978L18.3471 20.3077L16.5855 17.978H17.5922ZM19.7717 17.978L18.8846 20.7151L17.9976 17.978H19.7717ZM18.1154 17.5824L18.8846 16.5275L19.6538 17.5824H18.1154ZM20.1771 17.978H21.1837L19.4221 20.3077L20.1771 17.978ZM17.4423 16.3956H18.5L17.6346 17.5824H16.5769L17.4423 16.3956Z" fill="#094876"/>
<path d="M7.57693 16.0791C7.55901 16.0545 7.53578 16.0346 7.50908 16.0209C7.48237 16.0072 7.45293 16 7.42308 16H4.34615C4.3163 16 4.28685 16.0072 4.26015 16.0209C4.23345 16.0346 4.21022 16.0545 4.19229 16.0791L3.03845 17.6615C3.01314 17.6962 2.99963 17.7386 3.00001 17.782C3.00038 17.8254 3.01461 17.8674 3.04051 17.9017L5.73283 21.4621C5.75081 21.4859 5.77383 21.5051 5.80013 21.5184C5.82644 21.5316 5.85533 21.5385 5.88462 21.5385C5.9139 21.5385 5.94279 21.5316 5.9691 21.5184C5.99541 21.5051 6.01843 21.4859 6.03641 21.4621L8.72872 17.9017C8.75462 17.8674 8.76885 17.8254 8.76922 17.782C8.7696 17.7386 8.75609 17.6962 8.73078 17.6615L7.57693 16.0791ZM8.1923 17.5824H7.13464L6.26925 16.3956H7.32692L8.1923 17.5824ZM4.59216 17.978L5.34714 20.3077L3.5855 17.978H4.59216ZM6.77165 17.978L5.88461 20.7151L4.99758 17.978H6.77165ZM5.1154 17.5824L5.88461 16.5275L6.65383 17.5824H5.1154ZM7.17707 17.978H8.18373L6.42209 20.3077L7.17707 17.978ZM4.4423 16.3956H5.49997L4.63459 17.5824H3.57693L4.4423 16.3956Z" fill="#094876"/>
<path d="M10.3723 1.62712H7.18085V2.0339H10.3723V1.62712Z" fill="#094876"/>
<path d="M23.1383 1.62712H19.9468V2.0339H23.1383V1.62712Z" fill="#094876"/>
<path d="M10.3723 13.8305H7.18085V14.2373H10.3723V13.8305Z" fill="#094876"/>
<path d="M23.1383 13.8305H19.9468V14.2373H23.1383V13.8305Z" fill="#094876"/>
</svg>
