<svg width="194" height="194" viewBox="0 0 194 194" fill="none" xmlns="http://www.w3.org/2000/svg">
<path d="M48.4983 32.8018H169.706C175.019 32.8018 179.326 37.1092 179.326 42.4226C179.326 47.7359 175.019 52.0433 169.706 52.0433H48.4983C43.185 52.0433 38.8776 47.7359 38.8776 42.4226C38.8776 37.1092 43.185 32.8018 48.4983 32.8018Z" stroke="#094876" stroke-width="5"/>
<path d="M21.8102 42.5715L21.8096 42.4332C21.7988 39.8859 20.7782 37.4466 18.9715 35.6505L21.8102 42.5715ZM21.8102 42.5715L21.8261 42.7089M21.8102 42.5715L21.8261 42.7089M21.8261 42.7089C21.8875 43.2416 21.8939 43.7791 21.8454 44.3128C21.6809 44.8691 21.4614 45.4078 21.1902 45.921L21.1548 45.9879L21.1236 46.0569C20.856 46.6471 20.5393 47.214 20.1768 47.7512L20.16 47.776L20.1439 47.8012C19.8071 48.3271 19.4141 48.8145 18.9717 49.255C17.168 51.0431 14.7305 52.0454 12.1909 52.0433L12.0505 52.0432L11.9108 52.0588C11.3504 52.1215 10.7846 52.1257 10.2234 52.0714C9.60109 51.93 8.99856 51.7093 8.43095 51.415L8.33251 51.3639L8.22992 51.3218C7.68462 51.0978 7.16775 50.8089 6.69109 50.4618L6.62688 50.4151L6.55983 50.3725C6.05639 50.0527 5.58893 49.6786 5.16546 49.2569L5.165 49.2564C4.72206 48.8155 4.32864 48.3277 3.99148 47.8012L3.97533 47.776L3.95858 47.7512C3.60408 47.2259 3.29334 46.6722 3.02959 46.096C2.81076 45.5588 2.64802 45.0002 2.54386 44.4291C2.4832 43.8573 2.48581 43.2803 2.55169 42.7089L2.56755 42.5714L2.56812 42.4329C2.57864 39.8858 3.59923 37.4467 5.40621 35.6505L5.40626 35.6505M21.8261 42.7089L5.40626 35.6505M5.40626 35.6505C9.1586 31.9204 15.219 31.9203 18.9714 35.6504L5.40626 35.6505Z" stroke="#094876" stroke-width="5"/>
<path d="M21.826 85.4448L21.7927 85.7348L21.8271 86.0246C21.8925 86.5757 21.8968 87.132 21.8399 87.6838C21.6954 88.3127 21.473 88.9212 21.1777 89.495L21.1278 89.5919L21.0866 89.6929C20.8646 90.2358 20.5772 90.75 20.2304 91.2248L20.1784 91.2959L20.1316 91.3705C19.8299 91.8513 19.4642 92.29 19.0445 92.6749L18.9647 92.7481L18.8915 92.8279C18.5066 93.2476 18.0679 93.6133 17.5871 93.915L17.5275 93.9525L17.47 93.9932C16.9736 94.3452 16.4374 94.6363 15.8729 94.8603L15.8374 94.8744L15.8025 94.8895C15.2879 95.112 14.7492 95.2749 14.1976 95.3748C13.6251 95.4357 13.0474 95.4331 12.4753 95.3672L12.3124 95.3484L12.1485 95.351C11.5515 95.3607 10.9551 95.2995 10.3724 95.1689L10.3048 95.1537L10.2364 95.1423C9.63762 95.0425 9.05202 94.873 8.49216 94.6374L8.48159 94.6329L8.47099 94.6286C7.92669 94.4054 7.41089 94.1171 6.93439 93.7698L6.8643 93.7187L6.79083 93.6726C6.31008 93.3709 5.87136 93.0052 5.48644 92.5855L5.42256 92.5158L5.35359 92.4511C4.90451 92.0302 4.49901 91.5646 4.14328 91.0618C3.81668 90.5506 3.53264 90.0138 3.29429 89.4566C2.83565 88.2617 2.58992 86.9962 2.56834 85.7169C2.58499 83.1782 3.60486 80.7486 5.4063 78.9579L5.40636 78.9579C9.15873 75.2277 15.2192 75.2277 18.9716 78.9579L19.0091 78.9952L19.0482 79.0309C19.4659 79.4123 19.8297 79.8489 20.1293 80.3282L20.1547 80.3688L20.1816 80.4084C20.5418 80.9383 20.8481 81.5023 21.0955 82.0917L21.1494 82.22L21.2171 82.3416C21.4812 82.8152 21.6917 83.3164 21.845 83.8361C21.8937 84.3714 21.8874 84.9106 21.826 85.4448Z" stroke="#094876" stroke-width="5"/>
<path d="M21.8258 128.755L21.7927 129.045L21.827 129.334C21.8924 129.885 21.8967 130.441 21.8398 130.993C21.695 131.622 21.4724 132.231 21.177 132.806L21.1272 132.902L21.086 133.003C20.8645 133.546 20.5774 134.06 20.2312 134.533L20.1788 134.605L20.1315 134.68C19.8298 135.161 19.4641 135.599 19.0443 135.984L18.9646 136.057L18.8914 136.137C18.5065 136.557 18.0678 136.923 17.587 137.224L17.5273 137.262L17.4699 137.303C16.9735 137.655 16.4373 137.946 15.8727 138.17L15.8373 138.184L15.8024 138.199C15.2878 138.421 14.7491 138.584 14.1975 138.684C13.625 138.745 13.0473 138.743 12.4752 138.677L12.3123 138.658L12.1484 138.66C11.5513 138.67 10.955 138.609 10.3723 138.478L10.3047 138.463L10.2363 138.452C9.6375 138.352 9.05191 138.182 8.49205 137.947L8.48148 137.942L8.47088 137.938C7.92658 137.715 7.41077 137.426 6.93428 137.079L6.86418 137.028L6.79072 136.982C6.30996 136.68 5.87125 136.315 5.48633 135.895L5.4473 135.852L5.40634 135.812C3.59963 134.015 2.57893 131.576 2.5681 129.029L2.56806 129.019L2.56795 129.01C2.56074 128.405 2.62243 127.802 2.7521 127.213L2.76711 127.145L2.77829 127.076C2.8729 126.493 3.03675 125.923 3.26625 125.378C3.53123 124.798 3.84391 124.24 4.20098 123.711L4.22418 123.676L4.24623 123.641C4.54791 123.16 4.91361 122.722 5.33338 122.337L5.37051 122.303L5.40625 122.267C9.15862 118.537 15.2191 118.537 18.9715 122.267L19.0072 122.303L19.0443 122.337C19.4641 122.722 19.8298 123.16 20.1315 123.641L20.1535 123.676L20.1767 123.711C20.5393 124.248 20.856 124.815 21.1236 125.405L21.16 125.485L21.202 125.563C21.4727 126.063 21.688 126.591 21.844 127.137C21.8933 127.675 21.8872 128.218 21.8258 128.755Z" stroke="#094876" stroke-width="5"/>
<path d="M48.5004 76.1092H181.829C187.142 76.1092 191.449 80.4166 191.449 85.73C191.449 91.0433 187.142 95.3507 181.829 95.3507H48.5004C43.187 95.3507 38.8796 91.0433 38.8796 85.73C38.8796 80.4166 43.187 76.1092 48.5004 76.1092Z" stroke="#094876" stroke-width="5"/>
<path d="M48.5003 119.419H127.285C132.598 119.419 136.906 123.726 136.906 129.039C136.906 134.353 132.598 138.66 127.285 138.66H48.5003C43.1869 138.66 38.8795 134.353 38.8795 129.039C38.8795 123.726 43.1869 119.419 48.5003 119.419Z" stroke="#094876" stroke-width="5"/>
</svg>
