<svg width="27" height="26" viewBox="0 0 27 26" fill="none" xmlns="http://www.w3.org/2000/svg">
<g clip-path="url(#clip0_127_677)">
<path d="M5.26849 9.75C3.42683 9.75 2.01849 11.1583 2.01849 13C2.01849 14.8417 3.42683 16.25 5.26849 16.25C7.11016 16.25 8.51849 14.8417 8.51849 13C8.51849 11.1583 7.11016 9.75 5.26849 9.75ZM5.26849 15.1667C4.07683 15.1667 3.10183 14.1917 3.10183 13C3.10183 11.8083 4.07683 10.8333 5.26849 10.8333C6.46016 10.8333 7.43516 11.8083 7.43516 13C7.43516 14.1917 6.46016 15.1667 5.26849 15.1667Z" fill="#094876" stroke="#094876" stroke-width="16"/>
<path d="M5.26849 0C3.42683 0 2.01849 1.40833 2.01849 3.25C2.01849 5.09167 3.42683 6.5 5.26849 6.5C7.11016 6.5 8.51849 5.09167 8.51849 3.25C8.51849 1.40833 7.11016 0 5.26849 0ZM5.26849 5.41667C4.07683 5.41667 3.10183 4.44167 3.10183 3.25C3.10183 2.05833 4.07683 1.08333 5.26849 1.08333C6.46016 1.08333 7.43516 2.05833 7.43516 3.25C7.43516 4.44167 6.46016 5.41667 5.26849 5.41667Z" fill="#094876" stroke="#094876" stroke-width="16"/>
<path d="M5.26849 19.5C3.42683 19.5 2.01849 20.9083 2.01849 22.75C2.01849 24.5917 3.42683 26 5.26849 26C7.11016 26 8.51849 24.5917 8.51849 22.75C8.51849 20.9083 7.11016 19.5 5.26849 19.5ZM5.26849 24.9167C4.07683 24.9167 3.10183 23.9417 3.10183 22.75C3.10183 21.5583 4.07683 20.5833 5.26849 20.5833C6.46016 20.5833 7.43516 21.5583 7.43516 22.75C7.43516 23.9417 6.46016 24.9167 5.26849 24.9167Z" fill="#094876" stroke="#094876" stroke-width="16"/>
<mask id="path-4-inside-1_127_677" fill="white">
<path d="M10.6852 1.08334H25.8518V2.16668H10.6852V1.08334Z"/>
</mask>
<path d="M10.6852 1.08334H25.8518V2.16668H10.6852V1.08334Z" fill="#094876"/>
<path d="M10.6852 1.08334V-14.9167H-5.31485V1.08334H10.6852ZM25.8518 1.08334H41.8518V-14.9167H25.8518V1.08334ZM25.8518 2.16668V18.1667H41.8518V2.16668H25.8518ZM10.6852 2.16668H-5.31485V18.1667H10.6852V2.16668ZM10.6852 17.0833H25.8518V-14.9167H10.6852V17.0833ZM9.85182 1.08334V2.16668H41.8518V1.08334H9.85182ZM25.8518 -13.8333H10.6852V18.1667H25.8518V-13.8333ZM26.6852 2.16668V1.08334H-5.31485V2.16668H26.6852Z" fill="#094876" mask="url(#path-4-inside-1_127_677)"/>
<mask id="path-6-inside-2_127_677" fill="white">
<path d="M10.6852 4.33334H18.2685V5.41668H10.6852V4.33334Z"/>
</mask>
<path d="M10.6852 4.33334H18.2685V5.41668H10.6852V4.33334Z" fill="#094876"/>
<path d="M10.6852 4.33334V-11.6667H-5.31485V4.33334H10.6852ZM18.2685 4.33334H34.2685V-11.6667H18.2685V4.33334ZM18.2685 5.41668V21.4167H34.2685V5.41668H18.2685ZM10.6852 5.41668H-5.31485V21.4167H10.6852V5.41668ZM10.6852 20.3333H18.2685V-11.6667H10.6852V20.3333ZM2.26848 4.33334V5.41668H34.2685V4.33334H2.26848ZM18.2685 -10.5833H10.6852V21.4167H18.2685V-10.5833ZM26.6852 5.41668V4.33334H-5.31485V5.41668H26.6852Z" fill="#094876" mask="url(#path-6-inside-2_127_677)"/>
<mask id="path-8-inside-3_127_677" fill="white">
<path d="M20.4352 4.33334H22.6018V5.41668H20.4352V4.33334Z"/>
</mask>
<path d="M20.4352 4.33334H22.6018V5.41668H20.4352V4.33334Z" fill="#094876"/>
<path d="M20.4352 4.33334V-11.6667H4.43515V4.33334H20.4352ZM22.6018 4.33334H38.6018V-11.6667H22.6018V4.33334ZM22.6018 5.41668V21.4167H38.6018V5.41668H22.6018ZM20.4352 5.41668H4.43515V21.4167H20.4352V5.41668ZM20.4352 20.3333H22.6018V-11.6667H20.4352V20.3333ZM6.60182 4.33334V5.41668H38.6018V4.33334H6.60182ZM22.6018 -10.5833H20.4352V21.4167H22.6018V-10.5833ZM36.4352 5.41668V4.33334H4.43515V5.41668H36.4352Z" fill="#094876" mask="url(#path-8-inside-3_127_677)"/>
<mask id="path-10-inside-4_127_677" fill="white">
<path d="M15.0185 23.8333H22.6018V24.9167H15.0185V23.8333Z"/>
</mask>
<path d="M15.0185 23.8333H22.6018V24.9167H15.0185V23.8333Z" fill="#094876"/>
<path d="M15.0185 23.8333V7.83334H-0.981506V23.8333H15.0185ZM22.6018 23.8333H38.6018V7.83334H22.6018V23.8333ZM22.6018 24.9167V40.9167H38.6018V24.9167H22.6018ZM15.0185 24.9167H-0.981506V40.9167H15.0185V24.9167ZM15.0185 39.8333H22.6018V7.83334H15.0185V39.8333ZM6.60183 23.8333V24.9167H38.6018V23.8333H6.60183ZM22.6018 8.91668H15.0185V40.9167H22.6018V8.91668ZM31.0185 24.9167V23.8333H-0.981506V24.9167H31.0185Z" fill="#094876" mask="url(#path-10-inside-4_127_677)"/>
<mask id="path-12-inside-5_127_677" fill="white">
<path d="M10.6852 23.8333H12.8518V24.9167H10.6852V23.8333Z"/>
</mask>
<path d="M10.6852 23.8333H12.8518V24.9167H10.6852V23.8333Z" fill="#094876"/>
<path d="M10.6852 23.8333V7.83334H-5.31485V23.8333H10.6852ZM12.8518 23.8333H28.8518V7.83334H12.8518V23.8333ZM12.8518 24.9167V40.9167H28.8518V24.9167H12.8518ZM10.6852 24.9167H-5.31485V40.9167H10.6852V24.9167ZM10.6852 39.8333H12.8518V7.83334H10.6852V39.8333ZM-3.14818 23.8333V24.9167H28.8518V23.8333H-3.14818ZM12.8518 8.91668H10.6852V40.9167H12.8518V8.91668ZM26.6852 24.9167V23.8333H-5.31485V24.9167H26.6852Z" fill="#094876" mask="url(#path-12-inside-5_127_677)"/>
<mask id="path-14-inside-6_127_677" fill="white">
<path d="M10.6852 14.0833H16.1018V15.1667H10.6852V14.0833Z"/>
</mask>
<path d="M10.6852 14.0833H16.1018V15.1667H10.6852V14.0833Z" fill="#094876"/>
<path d="M10.6852 14.0833V-1.91666H-5.31485V14.0833H10.6852ZM16.1018 14.0833H32.1018V-1.91666H16.1018V14.0833ZM16.1018 15.1667V31.1667H32.1018V15.1667H16.1018ZM10.6852 15.1667H-5.31485V31.1667H10.6852V15.1667ZM10.6852 30.0833H16.1018V-1.91666H10.6852V30.0833ZM0.101817 14.0833V15.1667H32.1018V14.0833H0.101817ZM16.1018 -0.833323H10.6852V31.1667H16.1018V-0.833323ZM26.6852 15.1667V14.0833H-5.31485V15.1667H26.6852Z" fill="#094876" mask="url(#path-14-inside-6_127_677)"/>
<mask id="path-16-inside-7_127_677" fill="white">
<path d="M18.2685 14.0833H22.6018V15.1667H18.2685V14.0833Z"/>
</mask>
<path d="M18.2685 14.0833H22.6018V15.1667H18.2685V14.0833Z" fill="#094876"/>
<path d="M18.2685 14.0833V-1.91666H2.26849V14.0833H18.2685ZM22.6018 14.0833H38.6018V-1.91666H22.6018V14.0833ZM22.6018 15.1667V31.1667H38.6018V15.1667H22.6018ZM18.2685 15.1667H2.26849V31.1667H18.2685V15.1667ZM18.2685 30.0833H22.6018V-1.91666H18.2685V30.0833ZM6.60183 14.0833V15.1667H38.6018V14.0833H6.60183ZM22.6018 -0.833323H18.2685V31.1667H22.6018V-0.833323ZM34.2685 15.1667V14.0833H2.26849V15.1667H34.2685Z" fill="#094876" mask="url(#path-16-inside-7_127_677)"/>
<mask id="path-18-inside-8_127_677" fill="white">
<path d="M10.6852 10.8333H25.8518V11.9167H10.6852V10.8333Z"/>
</mask>
<path d="M10.6852 10.8333H25.8518V11.9167H10.6852V10.8333Z" fill="#094876"/>
<path d="M10.6852 10.8333V-5.16666H-5.31485V10.8333H10.6852ZM25.8518 10.8333H41.8518V-5.16666H25.8518V10.8333ZM25.8518 11.9167V27.9167H41.8518V11.9167H25.8518ZM10.6852 11.9167H-5.31485V27.9167H10.6852V11.9167ZM10.6852 26.8333H25.8518V-5.16666H10.6852V26.8333ZM9.85182 10.8333V11.9167H41.8518V10.8333H9.85182ZM25.8518 -4.08332H10.6852V27.9167H25.8518V-4.08332ZM26.6852 11.9167V10.8333H-5.31485V11.9167H26.6852Z" fill="#094876" mask="url(#path-18-inside-8_127_677)"/>
<mask id="path-20-inside-9_127_677" fill="white">
<path d="M10.6852 20.5833H25.8518V21.6667H10.6852V20.5833Z"/>
</mask>
<path d="M10.6852 20.5833H25.8518V21.6667H10.6852V20.5833Z" fill="#094876"/>
<path d="M10.6852 20.5833V4.58334H-5.31485V20.5833H10.6852ZM25.8518 20.5833H41.8518V4.58334H25.8518V20.5833ZM25.8518 21.6667V37.6667H41.8518V21.6667H25.8518ZM10.6852 21.6667H-5.31485V37.6667H10.6852V21.6667ZM10.6852 36.5833H25.8518V4.58334H10.6852V36.5833ZM9.85182 20.5833V21.6667H41.8518V20.5833H9.85182ZM25.8518 5.66668H10.6852V37.6667H25.8518V5.66668ZM26.6852 21.6667V20.5833H-5.31485V21.6667H26.6852Z" fill="#094876" mask="url(#path-20-inside-9_127_677)"/>
</g>
<defs>
<clipPath id="clip0_127_677">
<rect width="26" height="26" fill="white" transform="translate(0.93515)"/>
</clipPath>
</defs>
</svg>
