<svg width="194" height="194" viewBox="0 0 194 194" fill="none" xmlns="http://www.w3.org/2000/svg">
<path d="M169.706 30.3018H48.4983C41.8042 30.3018 36.3776 35.7285 36.3776 42.4226C36.3776 49.1166 41.8042 54.5433 48.4983 54.5433H169.706C176.4 54.5433 181.826 49.1166 181.826 42.4226C181.826 35.7285 176.4 30.3018 169.706 30.3018Z" fill="#094876"/>
<path d="M24.3096 42.4226C24.296 39.2132 23.01 36.1402 20.734 33.8775C16.0065 29.178 8.37122 29.178 3.64376 33.8775C1.36733 36.1402 0.0813963 39.2132 0.0681392 42.4226C-0.0223875 43.2078 -0.0223875 44.0009 0.0681392 44.7861C0.205255 45.5759 0.428731 46.3482 0.73478 47.0891C1.06015 47.8068 1.44536 48.4962 1.88625 49.1496C2.32146 49.8291 2.8294 50.459 3.40134 51.0283C3.95284 51.5775 4.56228 52.0654 5.21945 52.4828C5.85769 52.9475 6.5497 53.3343 7.27998 53.6343C8.08336 54.0509 8.93976 54.357 9.82533 54.5433C10.6105 54.6312 11.4037 54.6312 12.1889 54.5433C15.3895 54.546 18.4614 53.2824 20.734 51.0283C21.3059 50.459 21.8139 49.8291 22.2491 49.1496C22.69 48.4962 23.0752 47.8068 23.4006 47.0891C23.7873 46.3573 24.0922 45.5849 24.3096 44.7861C24.4001 44.0009 24.4001 43.2078 24.3096 42.4226Z" fill="#094876"/>
<path d="M24.3097 85.73C24.3999 84.9448 24.3999 84.1516 24.3097 83.3664C24.1003 82.5843 23.795 81.8313 23.4007 81.1241C23.0886 80.3806 22.7026 79.67 22.2492 79.003C21.8291 78.331 21.3193 77.7193 20.7341 77.1849C16.0066 72.4854 8.37132 72.4854 3.64386 77.1849C1.36743 79.4476 0.0814944 82.5206 0.0682373 85.73C0.0917212 87.3273 0.399664 88.9071 0.977293 90.3965C1.28107 91.1135 1.64621 91.8028 2.06816 92.457C2.52913 93.1157 3.05714 93.7251 3.64386 94.2751C4.17944 94.8592 4.79078 95.369 5.46197 95.7902C6.1002 96.2553 6.79184 96.6421 7.52249 96.9417C8.26148 97.2526 9.03455 97.4765 9.82543 97.6083C10.6008 97.7822 11.3943 97.8636 12.189 97.8507C12.9742 97.9412 13.7673 97.9412 14.5525 97.8507C15.3237 97.7185 16.0767 97.4947 16.7949 97.1841C17.5452 96.8864 18.2573 96.4996 18.916 96.0326C19.5872 95.6114 20.1985 95.1016 20.7341 94.5175C21.3182 93.9819 21.828 93.3706 22.2492 92.6994C22.7151 92.0615 23.1018 91.3699 23.4007 90.6389C23.8147 89.8344 24.1203 88.9783 24.3097 88.0935C24.4029 87.3083 24.4029 86.5152 24.3097 85.73Z" fill="#094876"/>
<path d="M24.3096 129.039C24.3994 128.254 24.3994 127.461 24.3096 126.676C24.1001 125.874 23.7949 125.101 23.4005 124.373C23.0752 123.655 22.69 122.966 22.2491 122.312C21.8279 121.641 21.3181 121.03 20.734 120.494C16.0065 115.795 8.37121 115.795 3.64374 120.494C3.05968 121.03 2.54985 121.641 2.12865 122.312C1.68776 122.966 1.30255 123.655 0.977181 124.373C0.6628 125.111 0.438945 125.884 0.310541 126.676C0.139714 127.452 0.0586565 128.245 0.0681258 129.039C0.0817616 132.249 1.3677 135.322 3.64374 137.584C4.17933 138.169 4.79067 138.678 5.46185 139.1C6.10009 139.565 6.79173 139.951 7.52238 140.251C8.26137 140.562 9.03444 140.786 9.82532 140.918C10.6007 141.092 11.3942 141.173 12.1889 141.16C12.9741 141.251 13.7672 141.251 14.5524 141.16C15.3236 141.028 16.0766 140.804 16.7947 140.493C17.5451 140.196 18.2572 139.809 18.9159 139.342C19.5871 138.921 20.1984 138.411 20.734 137.827C21.3181 137.291 21.8279 136.68 22.2491 136.009C22.7153 135.371 23.1021 134.679 23.4005 133.948C23.8142 133.143 24.1198 132.288 24.3096 131.403C24.4028 130.618 24.4028 129.825 24.3096 129.039Z" fill="#094876"/>
<path d="M181.829 73.6092H48.5004C41.8063 73.6092 36.3796 79.0359 36.3796 85.73C36.3796 92.424 41.8063 97.8507 48.5004 97.8507H181.829C188.523 97.8507 193.949 92.424 193.949 85.73C193.949 79.0359 188.523 73.6092 181.829 73.6092Z" fill="#094876"/>
<path d="M127.285 116.919H48.5003C41.8062 116.919 36.3795 122.345 36.3795 129.039C36.3795 135.733 41.8062 141.16 48.5003 141.16H127.285C133.979 141.16 139.406 135.733 139.406 129.039C139.406 122.345 133.979 116.919 127.285 116.919Z" fill="#094876"/>
</svg>
