<svg width="25" height="26" viewBox="0 0 25 26" fill="none" xmlns="http://www.w3.org/2000/svg">
<path d="M8.91797 15.293V11.3125H9.89453V15.293C9.89453 15.6706 9.8138 15.9922 9.65234 16.2578C9.49089 16.5234 9.27083 16.7266 8.99219 16.8672C8.71354 17.0078 8.39714 17.0781 8.04297 17.0781C7.68099 17.0781 7.35938 17.0169 7.07812 16.8945C6.79948 16.7721 6.58073 16.5846 6.42188 16.332C6.26302 16.0794 6.18359 15.7591 6.18359 15.3711H7.16797C7.16797 15.5951 7.20312 15.776 7.27344 15.9141C7.34635 16.0495 7.44792 16.1484 7.57812 16.2109C7.71094 16.2708 7.86589 16.3008 8.04297 16.3008C8.21224 16.3008 8.36198 16.263 8.49219 16.1875C8.625 16.1094 8.72917 15.9961 8.80469 15.8477C8.88021 15.6966 8.91797 15.5117 8.91797 15.293ZM13.3125 16.1523V14.1367C13.3125 13.9857 13.2852 13.8555 13.2305 13.7461C13.1758 13.6367 13.0924 13.5521 12.9805 13.4922C12.8711 13.4323 12.7331 13.4023 12.5664 13.4023C12.4128 13.4023 12.2799 13.4284 12.168 13.4805C12.056 13.5326 11.9688 13.6029 11.9062 13.6914C11.8438 13.7799 11.8125 13.8802 11.8125 13.9922H10.875C10.875 13.8255 10.9154 13.6641 10.9961 13.5078C11.0768 13.3516 11.194 13.2122 11.3477 13.0898C11.5013 12.9674 11.6849 12.8711 11.8984 12.8008C12.112 12.7305 12.3516 12.6953 12.6172 12.6953C12.9349 12.6953 13.2161 12.7487 13.4609 12.8555C13.7083 12.9622 13.9023 13.1237 14.043 13.3398C14.1862 13.5534 14.2578 13.8216 14.2578 14.1445V16.0234C14.2578 16.2161 14.2708 16.3893 14.2969 16.543C14.3255 16.694 14.3659 16.8255 14.418 16.9375V17H13.4531C13.4089 16.8984 13.3737 16.7695 13.3477 16.6133C13.3242 16.4544 13.3125 16.3008 13.3125 16.1523ZM13.4492 14.4297L13.457 15.0117H12.7812C12.6068 15.0117 12.4531 15.0286 12.3203 15.0625C12.1875 15.0938 12.0768 15.1406 11.9883 15.2031C11.8997 15.2656 11.8333 15.3411 11.7891 15.4297C11.7448 15.5182 11.7227 15.6185 11.7227 15.7305C11.7227 15.8424 11.7487 15.9453 11.8008 16.0391C11.8529 16.1302 11.9284 16.2018 12.0273 16.2539C12.1289 16.306 12.2513 16.332 12.3945 16.332C12.5872 16.332 12.7552 16.293 12.8984 16.2148C13.0443 16.1341 13.1589 16.0365 13.2422 15.9219C13.3255 15.8047 13.3698 15.694 13.375 15.5898L13.6797 16.0078C13.6484 16.1146 13.5951 16.2292 13.5195 16.3516C13.444 16.474 13.3451 16.5911 13.2227 16.7031C13.1029 16.8125 12.9583 16.9023 12.7891 16.9727C12.6224 17.043 12.4297 17.0781 12.2109 17.0781C11.9349 17.0781 11.6888 17.0234 11.4727 16.9141C11.2565 16.8021 11.0872 16.6523 10.9648 16.4648C10.8424 16.2747 10.7812 16.0599 10.7812 15.8203C10.7812 15.5964 10.8229 15.3984 10.9062 15.2266C10.9922 15.0521 11.1172 14.9062 11.2812 14.7891C11.4479 14.6719 11.651 14.5833 11.8906 14.5234C12.1302 14.4609 12.4036 14.4297 12.7109 14.4297H13.4492ZM16.1758 13.6758V17H15.2344V12.7734H16.1211L16.1758 13.6758ZM16.0078 14.7305L15.7031 14.7266C15.7057 14.4271 15.7474 14.1523 15.8281 13.9023C15.9115 13.6523 16.026 13.4375 16.1719 13.2578C16.3203 13.0781 16.4974 12.9401 16.7031 12.8438C16.9089 12.7448 17.138 12.6953 17.3906 12.6953C17.5938 12.6953 17.7773 12.724 17.9414 12.7812C18.1081 12.8359 18.25 12.9258 18.3672 13.0508C18.487 13.1758 18.5781 13.3385 18.6406 13.5391C18.7031 13.737 18.7344 13.9805 18.7344 14.2695V17H17.7891V14.2656C17.7891 14.0625 17.7591 13.9023 17.6992 13.7852C17.6419 13.6654 17.5573 13.5807 17.4453 13.5312C17.3359 13.4792 17.1992 13.4531 17.0352 13.4531C16.8737 13.4531 16.7292 13.487 16.6016 13.5547C16.474 13.6224 16.3659 13.7148 16.2773 13.832C16.1914 13.9492 16.125 14.0846 16.0781 14.2383C16.0312 14.3919 16.0078 14.556 16.0078 14.7305Z" fill="#094876"/>
<path d="M23.4563 12.7747V21.8102C23.4563 22.6203 22.7888 23.2793 21.9684 23.2793H4.59753C3.77696 23.2793 3.10944 22.6203 3.10944 21.8102V12.7747H2.33081V21.8102C2.33081 23.0497 3.34771 24.0579 4.59753 24.0579H21.9684C23.2182 24.0579 24.2349 23.0497 24.2349 21.8102V12.7747H23.4563Z" fill="#094876"/>
<path d="M23.8456 7.52959H2.72015C2.50509 7.52959 2.33081 7.70382 2.33081 7.91893V19.0237H3.10944V8.30822H23.4563V17.4612L19.3216 21.3057H6.18643V22.0843H19.4747C19.573 22.0843 19.6678 22.047 19.7398 21.9802L24.1107 17.9159C24.19 17.8423 24.2349 17.7389 24.2349 17.6308V7.91893C24.2349 7.70387 24.0607 7.52959 23.8456 7.52959Z" fill="#094876"/>
<path d="M23.8456 8.30822H2.72015C2.50509 8.30822 2.33081 8.13399 2.33081 7.91888V4.38628C2.33081 3.14686 3.34771 2.1386 4.59753 2.1386H21.9684C23.2182 2.1386 24.2349 3.14686 24.2349 4.38628V7.91888C24.2349 8.13399 24.0607 8.30822 23.8456 8.30822ZM3.10944 7.52959H23.4563V4.38628C23.4563 3.57622 22.7888 2.91723 21.9683 2.91723H4.59753C3.77696 2.91723 3.10944 3.57622 3.10944 4.38628V7.52959Z" fill="#094876"/>
<path d="M9.22081 5.31131H8.97406C8.19807 5.31131 7.56671 4.68462 7.56671 3.91422V1.39709C7.56671 0.626691 8.19807 0 8.97406 0C9.75005 0 10.3814 0.626691 10.3814 1.39709V2.5283C10.3814 2.74336 10.2072 2.91764 9.99207 2.91764C9.77697 2.91764 9.60274 2.74341 9.60274 2.5283V1.39709C9.60274 1.05605 9.32075 0.778629 8.97401 0.778629C8.62728 0.778629 8.34529 1.05605 8.34529 1.39709V3.91422C8.34529 4.25527 8.62728 4.53268 8.97401 4.53268H9.22076C9.43582 4.53268 9.6101 4.70691 9.6101 4.92202C9.6101 5.13703 9.43587 5.31131 9.22081 5.31131Z" fill="#094876"/>
<path d="M17.8386 5.31131H17.5918C16.8159 5.31131 16.1845 4.68462 16.1845 3.91422V1.39709C16.1845 0.626691 16.8159 0 17.5918 0C18.3678 0 18.9992 0.626691 18.9992 1.39709V2.5283C18.9992 2.74336 18.825 2.91764 18.6099 2.91764C18.3948 2.91764 18.2205 2.74341 18.2205 2.5283V1.39709C18.2205 1.05605 17.9385 0.778629 17.5918 0.778629C17.2451 0.778629 16.9631 1.05605 16.9631 1.39709V3.91422C16.9631 4.25527 17.2451 4.53268 17.5918 4.53268H17.8385C18.0536 4.53268 18.2279 4.70691 18.2279 4.92202C18.2279 5.13703 18.0537 5.31131 17.8386 5.31131Z" fill="#094876"/>
<path d="M19.4574 21.8752C19.2424 21.8752 19.0681 21.701 19.0681 21.4859V17.8908C19.0681 17.3782 19.4848 16.9611 19.9969 16.9611H23.6915C23.9065 16.9611 24.0808 17.1353 24.0808 17.3504C24.0808 17.5655 23.9066 17.7398 23.6915 17.7398H19.9969C19.9141 17.7398 19.8467 17.8076 19.8467 17.8908V21.486C19.8468 21.701 19.6725 21.8752 19.4574 21.8752Z" fill="#094876"/>
<path d="M3.91005 17.4699C1.75028 17.4699 0 19.224 0 21.3871C0 23.5515 1.75033 25.3056 3.91005 25.3056C6.06861 25.3056 7.81889 23.5515 7.81889 21.3871C7.81894 19.224 6.06861 17.4699 3.91005 17.4699ZM5.4631 21.8752H3.88177C3.66671 21.8752 3.49243 21.701 3.49243 21.4859V19.2895C3.49243 19.0745 3.66666 18.9002 3.88177 18.9002C4.09688 18.9002 4.27111 19.0744 4.27111 19.2895V21.0966H5.46315C5.67821 21.0966 5.85249 21.2708 5.85249 21.4859C5.85244 21.701 5.67816 21.8752 5.4631 21.8752Z" fill="#094876"/>
</svg>
