<svg width="23" height="22" viewBox="0 0 23 22" fill="none" xmlns="http://www.w3.org/2000/svg">
<path d="M4.82257 4.11951C4.82257 3.75739 4.73554 3.40341 4.57249 3.10233C4.40944 2.80124 4.17769 2.56658 3.90655 2.428C3.63541 2.28943 3.33705 2.25317 3.04921 2.32382C2.76137 2.39446 2.49697 2.56883 2.28944 2.82489C2.08192 3.08094 1.9406 3.40717 1.88334 3.76232C1.82609 4.11747 1.85547 4.4856 1.96778 4.82015C2.08009 5.1547 2.27028 5.44064 2.5143 5.64182C2.75833 5.843 3.04522 5.95037 3.3387 5.95037C3.73225 5.95037 4.10968 5.75748 4.38796 5.41412C4.66623 5.07077 4.82257 4.60508 4.82257 4.11951ZM3.3387 5.03494C3.19196 5.03494 3.04851 4.98125 2.9265 4.88066C2.80449 4.78007 2.7094 4.6371 2.65324 4.46983C2.59709 4.30255 2.58239 4.11849 2.61102 3.94091C2.63965 3.76334 2.71031 3.60022 2.81407 3.4722C2.91783 3.34417 3.05003 3.25698 3.19396 3.22166C3.33788 3.18634 3.48706 3.20447 3.62263 3.27375C3.7582 3.34304 3.87407 3.46037 3.9556 3.61092C4.03712 3.76146 4.08064 3.93845 4.08064 4.11951C4.08064 4.36229 4.00247 4.59514 3.86333 4.76681C3.72419 4.93849 3.53547 5.03494 3.3387 5.03494Z" fill="#094876"/>
<path d="M8.53225 9.61206C11.7242 9.61848 14.7952 8.10516 17.1053 5.38733L20.4032 1.5242V2.7463C20.4032 2.8677 20.4423 2.98412 20.5119 3.06996C20.5814 3.1558 20.6758 3.20402 20.7742 3.20402C20.8726 3.20402 20.9669 3.1558 21.0365 3.06996C21.1061 2.98412 21.1452 2.8677 21.1452 2.7463V0.457717C21.1473 0.437967 21.1473 0.417964 21.1452 0.398214C21.1487 0.361729 21.1487 0.324847 21.1452 0.288362C21.1326 0.256656 21.1163 0.227364 21.0969 0.201395C21.0969 0.201395 21.0969 0.160201 21.071 0.141893C21.0468 0.113918 21.0193 0.090754 20.9894 0.0732347L20.9523 0.0411946C20.935 0.0386072 20.9176 0.0386072 20.9003 0.0411946C20.8606 0.0183769 20.8179 0.00442963 20.7742 0H18.9194C18.821 0 18.7266 0.0482237 18.657 0.134062C18.5875 0.219901 18.5484 0.336323 18.5484 0.457717C18.5484 0.579111 18.5875 0.695534 18.657 0.781372C18.7266 0.867211 18.821 0.915435 18.9194 0.915435H19.8468L16.5971 4.72364C14.4239 7.28026 11.5349 8.70346 8.53225 8.69663C8.43387 8.69663 8.33951 8.74485 8.26994 8.83069C8.20037 8.91653 8.16129 9.03295 8.16129 9.15435C8.16129 9.27574 8.20037 9.39216 8.26994 9.478C8.33951 9.56384 8.43387 9.61206 8.53225 9.61206Z" fill="#094876"/>
<path d="M22.629 20.1396H22.2581V5.95033C22.2581 5.82893 22.219 5.71251 22.1494 5.62667C22.0798 5.54083 21.9855 5.49261 21.8871 5.49261H18.9194C18.821 5.49261 18.7266 5.54083 18.657 5.62667C18.5875 5.71251 18.5484 5.82893 18.5484 5.95033V20.1396H17.8065V10.5275C17.8065 10.4061 17.7674 10.2897 17.6978 10.2038C17.6282 10.118 17.5339 10.0698 17.4355 10.0698H14.4677C14.3694 10.0698 14.275 10.118 14.2054 10.2038C14.1359 10.2897 14.0968 10.4061 14.0968 10.5275V20.1396H13.3548V15.1047C13.3548 14.9833 13.3158 14.8669 13.2462 14.781C13.1766 14.6952 13.0823 14.647 12.9839 14.647H10.0161C9.91774 14.647 9.82338 14.6952 9.75382 14.781C9.68425 14.8669 9.64516 14.9833 9.64516 15.1047V20.1396H8.90323V16.9355C8.90323 16.8141 8.86414 16.6977 8.79457 16.6119C8.725 16.526 8.63064 16.4778 8.53226 16.4778H7.41935V12.3584C7.41935 11.9942 7.3021 11.6449 7.09339 11.3874C6.88468 11.1299 6.60161 10.9852 6.30645 10.9852H5.19355V8.69663H6.30645C6.7 8.69663 7.07743 8.50373 7.35571 8.16038C7.63399 7.81703 7.79032 7.35134 7.79032 6.86576V3.20402C7.79032 2.83984 7.67307 2.49057 7.46436 2.23306C7.25565 1.97554 6.97258 1.83087 6.67742 1.83087C6.38226 1.83087 6.09919 1.97554 5.89048 2.23306C5.68177 2.49057 5.56452 2.83984 5.56452 3.20402V5.95033H2.59677C2.10484 5.95033 1.63305 6.19144 1.28521 6.62064C0.937355 7.04983 0.741935 7.63194 0.741935 8.23891V12.3584C0.742435 12.5777 0.785516 12.7937 0.867574 12.9883C0.949632 13.1829 1.06828 13.3504 1.21358 13.4768C1.35888 13.6032 1.5266 13.6848 1.70271 13.7148C1.87883 13.7448 2.05819 13.7222 2.22581 13.6491V20.1396H0.370968C0.272581 20.1396 0.178224 20.1878 0.108654 20.2736C0.039084 20.3595 0 20.4759 0 20.5973C0 20.7187 0.039084 20.8351 0.108654 20.9209C0.178224 21.0068 0.272581 21.055 0.370968 21.055H22.629C22.7274 21.055 22.8218 21.0068 22.8913 20.9209C22.9609 20.8351 23 20.7187 23 20.5973C23 20.4759 22.9609 20.3595 22.8913 20.2736C22.8218 20.1878 22.7274 20.1396 22.629 20.1396ZM19.2903 6.40804H21.5161V20.1396H19.2903V6.40804ZM14.8387 10.9852H17.0645V20.1396H14.8387V10.9852ZM10.3871 15.5624H12.6129V20.1396H10.3871V15.5624ZM8.16129 20.1396H5.93548V17.3933H8.16129V20.1396ZM5.19355 20.1396H4.45161V13.7315H5.19355V20.1396ZM2.96774 12.3584V9.61206H2.22581V12.3584C2.22581 12.4798 2.18672 12.5962 2.11715 12.682C2.04758 12.7679 1.95323 12.8161 1.85484 12.8161C1.75645 12.8161 1.66209 12.7679 1.59252 12.682C1.52296 12.5962 1.48387 12.4798 1.48387 12.3584V8.23891C1.48387 7.87473 1.60112 7.52546 1.80983 7.26795C2.01854 7.01043 2.30161 6.86576 2.59677 6.86576H5.93548C6.03387 6.86576 6.12823 6.81754 6.1978 6.7317C6.26737 6.64586 6.30645 6.52944 6.30645 6.40804V3.20402C6.30645 3.08263 6.34554 2.96621 6.41511 2.88037C6.48468 2.79453 6.57903 2.74631 6.67742 2.74631C6.77581 2.74631 6.87016 2.79453 6.93973 2.88037C7.0093 2.96621 7.04839 3.08263 7.04839 3.20402V6.86576C7.04839 7.10855 6.97022 7.34139 6.83108 7.51307C6.69194 7.68475 6.50323 7.7812 6.30645 7.7812H4.82258C4.72419 7.7812 4.62984 7.82942 4.56027 7.91526C4.4907 8.0011 4.45161 8.11752 4.45161 8.23891V11.4429C4.45161 11.5643 4.4907 11.6807 4.56027 11.7666C4.62984 11.8524 4.72419 11.9007 4.82258 11.9007H6.30645C6.40484 11.9007 6.4992 11.9489 6.56877 12.0347C6.63834 12.1206 6.67742 12.237 6.67742 12.3584V16.4778H5.93548V13.2738C5.93548 13.1524 5.8964 13.036 5.82683 12.9501C5.75726 12.8643 5.6629 12.8161 5.56452 12.8161H4.08065C3.98226 12.8161 3.8879 12.8643 3.81833 12.9501C3.74876 13.036 3.70968 13.1524 3.70968 13.2738V20.1396H2.96774V12.3584Z" fill="#094876"/>
</svg>
