<svg width="26" height="26" viewBox="0 0 26 26" fill="none" xmlns="http://www.w3.org/2000/svg">
<path d="M13.0042 6.91599C12.5362 6.91599 12.0788 6.77723 11.6897 6.51725C11.3006 6.25727 10.9973 5.88775 10.8183 5.45542C10.6392 5.02309 10.5923 4.54737 10.6836 4.08841C10.7749 3.62945 11.0002 3.20787 11.3311 2.87698C11.662 2.54609 12.0836 2.32075 12.5426 2.22945C13.0015 2.13816 13.4773 2.18502 13.9096 2.36409C14.3419 2.54317 14.7114 2.84643 14.9714 3.23551C15.2314 3.6246 15.3702 4.08204 15.3702 4.54999C15.3693 5.17724 15.1198 5.77856 14.6763 6.22209C14.2327 6.66563 13.6314 6.91517 13.0042 6.91599ZM13.0042 3.01599C12.7008 3.01599 12.4042 3.10596 12.1519 3.27452C11.8996 3.44308 11.703 3.68265 11.5869 3.96296C11.4708 4.24326 11.4404 4.55169 11.4996 4.84926C11.5588 5.14683 11.7049 5.42016 11.9195 5.63469C12.134 5.84923 12.4073 5.99533 12.7049 6.05452C13.0025 6.11371 13.3109 6.08333 13.5912 5.96722C13.8715 5.85112 14.1111 5.6545 14.2796 5.40224C14.4482 5.14997 14.5382 4.85339 14.5382 4.54999C14.5376 4.14332 14.3758 3.75346 14.0882 3.4659C13.8007 3.17834 13.4108 3.01654 13.0042 3.01599Z" fill="#094876"/>
<path d="M17.2991 13.8855H8.71001C8.59968 13.8855 8.49386 13.8417 8.41585 13.7637C8.33783 13.6857 8.29401 13.5799 8.29401 13.4695V11.0695C8.29401 9.20113 9.81423 7.68091 11.6826 7.68091H14.326C16.1944 7.68091 17.7146 9.20113 17.7146 11.0695V13.4695C17.7146 13.5798 17.6708 13.6855 17.5929 13.7635C17.515 13.8415 17.4093 13.8854 17.2991 13.8855ZM9.12601 13.0535H16.8831V11.0695C16.8823 10.3916 16.6127 9.74167 16.1333 9.26237C15.6539 8.78306 15.0039 8.51353 14.326 8.51291H11.6818C11.0041 8.51387 10.3545 8.78356 9.87537 9.26282C9.39625 9.74209 9.12676 10.3918 9.12601 11.0695V13.0535Z" fill="#094876"/>
<path d="M15.704 13.8856C15.5937 13.8856 15.4879 13.8417 15.4098 13.7637C15.3318 13.6857 15.288 13.5799 15.288 13.4696V11.6457C15.288 11.5353 15.3318 11.4295 15.4098 11.3515C15.4879 11.2735 15.5937 11.2297 15.704 11.2297C15.8143 11.2297 15.9201 11.2735 15.9982 11.3515C16.0762 11.4295 16.12 11.5353 16.12 11.6457V13.4696C16.12 13.5799 16.0762 13.6857 15.9982 13.7637C15.9201 13.8417 15.8143 13.8856 15.704 13.8856Z" fill="#094876"/>
<path d="M10.3051 13.8856C10.1948 13.8856 10.089 13.8417 10.0109 13.7637C9.93293 13.6857 9.8891 13.5799 9.8891 13.4696V11.6457C9.8891 11.5353 9.93293 11.4295 10.0109 11.3515C10.089 11.2735 10.1948 11.2297 10.3051 11.2297C10.4154 11.2297 10.5212 11.2735 10.5993 11.3515C10.6773 11.4295 10.7211 11.5353 10.7211 11.6457V13.4696C10.7211 13.5799 10.6773 13.6857 10.5993 13.7637C10.5212 13.8417 10.4154 13.8856 10.3051 13.8856Z" fill="#094876"/>
<path d="M15.828 20.32H11.161C11.0507 20.32 10.9449 20.2762 10.8669 20.1982C10.7889 20.1202 10.745 20.0144 10.745 19.904C10.745 19.7937 10.7889 19.6879 10.8669 19.6099C10.9449 19.5319 11.0507 19.488 11.161 19.488H15.828C16.065 19.484 16.291 19.387 16.4571 19.218C16.6233 19.049 16.7165 18.8214 16.7165 18.5844C16.7165 18.3474 16.6233 18.1198 16.4571 17.9508C16.291 17.7818 16.065 17.6848 15.828 17.6808H11.1496C11.1103 17.6808 10.1754 17.6483 9.00796 17.1426L8.93464 17.1106C7.84888 16.6343 7.0512 16.3912 6.56396 16.3881C5.77824 16.3831 5.10484 16.5441 4.56456 16.8644C4.5176 16.893 4.46543 16.9119 4.41108 16.9202C4.35674 16.9285 4.30128 16.926 4.24793 16.9127C4.19458 16.8994 4.14439 16.8757 4.10026 16.8429C4.05613 16.8101 4.01893 16.7689 3.99083 16.7217C3.96272 16.6744 3.94425 16.6221 3.9365 16.5676C3.92875 16.5132 3.93186 16.4578 3.94566 16.4046C3.95945 16.3514 3.98366 16.3014 4.01688 16.2576C4.05011 16.2138 4.09168 16.177 4.1392 16.1494C4.81156 15.7495 5.62848 15.549 6.56942 15.5561C7.3814 15.5615 8.49888 16.0111 9.26874 16.3485L9.33894 16.3792C10.3111 16.8004 11.1025 16.8457 11.1691 16.8488H15.828C16.2847 16.8544 16.7207 17.0397 17.0416 17.3646C17.3626 17.6895 17.5425 18.1277 17.5425 18.5844C17.5425 19.0411 17.3626 19.4794 17.0416 19.8042C16.7207 20.1291 16.2847 20.3144 15.828 20.32Z" fill="#094876"/>
<path d="M12.9651 23.816C12.7677 23.816 12.5693 23.8067 12.3697 23.7882C11.677 23.7213 10.9997 23.543 10.3638 23.2601L8.63693 22.4988C8.11118 22.2663 7.57202 22.0654 7.02233 21.8972C6.63077 21.7781 6.42433 21.7355 6.32033 21.7207C5.47715 21.6005 4.83079 21.6034 4.50033 21.729C4.43726 21.7529 4.36932 21.7612 4.30236 21.753C4.2354 21.7449 4.17143 21.7206 4.11595 21.6822C4.06048 21.6438 4.01517 21.5925 3.98394 21.5327C3.9527 21.4729 3.93647 21.4064 3.93665 21.339V16.4819C3.93665 16.3716 3.98048 16.2658 4.05849 16.1878C4.13651 16.1098 4.24232 16.0659 4.35265 16.0659C4.46298 16.0659 4.56879 16.1098 4.6468 16.1878C4.72482 16.2658 4.76865 16.3716 4.76865 16.4819V20.826C5.20649 20.7776 5.76471 20.8016 6.43785 20.8975C6.63467 20.9253 6.90585 20.9921 7.26491 21.1016C7.84652 21.2794 8.41694 21.492 8.97311 21.7381L10.7003 22.4991C11.2542 22.7461 11.8444 22.9018 12.448 22.9603C12.9 23.0036 13.3557 22.9894 13.8042 22.9182C14.3741 22.8262 15.2131 22.5428 15.5287 22.4362L15.5826 22.418C18.7369 21.3606 21.5938 18.518 22.6756 17.348C22.8037 17.2118 22.8962 17.046 22.9449 16.8654C22.9936 16.6849 22.9969 16.4951 22.9546 16.3129C22.8979 16.0766 22.7534 15.757 22.1569 15.7084C21.8864 15.6876 21.6174 15.7639 21.398 15.9234L17.3896 18.817C17.3454 18.8501 17.295 18.874 17.2414 18.8875C17.1878 18.9009 17.1321 18.9035 17.0775 18.8952C17.0229 18.8869 16.9705 18.8677 16.9234 18.839C16.8763 18.8102 16.8353 18.7723 16.803 18.7275C16.7707 18.6827 16.7476 18.6319 16.7351 18.5781C16.7226 18.5243 16.7209 18.4686 16.7302 18.4141C16.7394 18.3597 16.7595 18.3076 16.7891 18.261C16.8187 18.2144 16.8573 18.1741 16.9026 18.1425L20.9113 15.249C21.2907 14.973 21.7562 14.8414 22.224 14.8777C23.0401 14.9443 23.5867 15.3845 23.7627 16.1166C23.8371 16.4318 23.8326 16.7604 23.7494 17.0734C23.6663 17.3864 23.5071 17.674 23.2861 17.9106C22.1608 19.1303 19.1833 22.0875 15.8465 23.2063L15.7945 23.224C15.4606 23.3366 14.574 23.6361 13.936 23.738C13.615 23.7898 13.2903 23.8159 12.9651 23.816Z" fill="#094876"/>
<path d="M3.48113 23.0378C3.13726 23.0375 2.80756 22.9007 2.56439 22.6576C2.32121 22.4145 2.1844 22.0848 2.18399 21.7409V15.8808C2.18399 15.5368 2.32063 15.207 2.56384 14.9638C2.80705 14.7206 3.13692 14.5839 3.48087 14.5839C3.82482 14.5839 4.15469 14.7206 4.3979 14.9638C4.64112 15.207 4.77775 15.5368 4.77775 15.8808V21.7409C4.77741 22.0847 4.6407 22.4144 4.39762 22.6575C4.15453 22.9006 3.82493 23.0374 3.48113 23.0378ZM3.48113 15.4162C3.35788 15.4163 3.23969 15.4652 3.15249 15.5523C3.06529 15.6394 3.0162 15.7576 3.01599 15.8808V21.7409C3.01599 21.8642 3.06497 21.9825 3.15215 22.0697C3.23933 22.1568 3.35758 22.2058 3.48087 22.2058C3.60416 22.2058 3.72241 22.1568 3.80959 22.0697C3.89677 21.9825 3.94575 21.8642 3.94575 21.7409V15.8808C3.94561 15.7576 3.89662 15.6395 3.80951 15.5524C3.72241 15.4653 3.60431 15.4163 3.48113 15.4162Z" fill="#094876"/>
</svg>
