<svg width="26" height="27" viewBox="0 0 26 27" fill="none" xmlns="http://www.w3.org/2000/svg">
<g clip-path="url(#clip0_127_607)">
<path d="M24.9126 7.19883C24.8272 7.00641 24.6021 6.91991 24.4102 7.00539C24.2182 7.09103 24.1318 7.31645 24.2172 7.50887C24.5763 8.31766 24.7584 9.1804 24.7584 10.0732C24.7584 13.5526 21.9335 16.3852 18.4614 16.3875C18.4614 16.3875 15.5738 16.3894 15.5733 16.3894C15.3592 16.3894 15.158 16.3059 15.0066 16.1543C14.8551 16.0026 14.7716 15.8008 14.7716 15.5861C14.7716 15.1432 15.1312 14.7828 15.5732 14.7828H18.456C21.0468 14.7828 23.1545 12.6707 23.1545 10.0745C23.1545 7.47831 21.0468 5.3662 18.456 5.3662H18.3316C18.1777 5.3662 18.0389 5.45911 17.98 5.60165C17.9211 5.74418 17.9536 5.90818 18.0625 6.0173L18.6211 6.57702C18.9337 6.89032 18.9337 7.4002 18.6211 7.71355C18.3083 8.02695 17.7995 8.02684 17.488 7.71462L14.4472 4.64274C14.3965 4.59154 14.3966 4.50834 14.4476 4.45734L17.487 1.41161C17.6384 1.25982 17.8398 1.17622 18.054 1.17622C18.2683 1.17622 18.4696 1.25982 18.6211 1.41161C18.7726 1.56335 18.856 1.76517 18.856 1.97987C18.856 2.19451 18.7726 2.39629 18.6211 2.54808L18.0625 3.10785C17.9537 3.21698 17.9211 3.38097 17.98 3.52351C18.0389 3.66604 18.1777 3.75895 18.3317 3.75895H18.4574C20.3538 3.75895 22.1314 4.60308 23.3345 6.07492C23.4676 6.2378 23.7075 6.26175 23.8701 6.12826C24.0327 5.99483 24.0565 5.75451 23.9233 5.59158C22.7354 4.13815 21.0473 3.23096 19.2087 3.03585C19.4727 2.7466 19.6172 2.37437 19.6172 1.97987C19.6172 1.56141 19.4546 1.16808 19.1595 0.872227C18.5499 0.261504 17.5583 0.261504 16.9488 0.872227L13.9094 3.91796C13.5629 4.26522 13.5618 4.83135 13.9069 5.17994L16.9488 8.25293C17.5583 8.86365 18.5499 8.8637 19.1594 8.25288C19.71 7.70104 19.7631 6.83652 19.3188 6.22437C21.0762 6.61959 22.3934 8.19587 22.3934 10.0745C22.3934 12.2501 20.6271 14.0201 18.4561 14.0201H17.5887V11.9002C17.5887 11.8192 17.5595 11.7348 17.5111 11.6701C17.5099 11.6685 17.509 11.6667 17.5078 11.6651L14.9408 8.37904C14.7578 8.14482 14.4826 8.01042 14.1857 8.01042H3.88352C3.58661 8.01042 3.31142 8.14482 3.12843 8.37904L0.561341 11.6651C0.510139 11.7307 0.480453 11.8173 0.480453 11.9003V25.5077C0.480453 26.0375 0.910619 26.4686 1.43938 26.4686H3.81973C4.02992 26.4686 4.20032 26.2978 4.20032 26.0872C4.20032 25.8765 4.02992 25.7058 3.81973 25.7058H1.43938C1.33033 25.7058 1.24163 25.6169 1.24163 25.5077V12.2817H6.92964V16.7081C6.92964 17.151 7.28928 17.5114 7.73132 17.5114H10.3287C10.7707 17.5114 11.1303 17.151 11.1303 16.7081V12.2817H16.8275V14.0201H15.5733C14.7116 14.0201 14.0105 14.7226 14.0105 15.5861C14.0105 16.0046 14.1732 16.398 14.4686 16.6938C14.7637 16.9894 15.156 17.1522 15.5743 17.1522L16.8274 17.1514V25.5078C16.8274 25.617 16.7387 25.7059 16.6297 25.7059H5.54045C5.33026 25.7059 5.15986 25.8766 5.15986 26.0873C5.15986 26.2979 5.33026 26.4687 5.54045 26.4687H16.6297C17.1584 26.4687 17.5885 26.0376 17.5885 25.5078V17.1509L18.4618 17.1503C22.3534 17.1477 25.5195 13.973 25.5195 10.0732C25.5195 9.07295 25.3153 8.10587 24.9126 7.19883ZM8.24323 8.77324H9.81643L10.2964 11.5189H7.76328L8.24323 8.77324ZM6.99049 11.5189H1.64231L3.72783 8.84926C3.76559 8.80095 3.82232 8.77324 3.88352 8.77324H7.47049L6.99049 11.5189ZM10.369 16.7081C10.369 16.7304 10.3509 16.7486 10.3286 16.7486H7.73126C7.70894 16.7486 7.69077 16.7305 7.69077 16.7081V12.2817H10.369V16.7081ZM11.0691 11.5189L10.5892 8.77324H14.1855C14.2467 8.77324 14.3035 8.80095 14.3412 8.84926L16.4267 11.5189H11.0691Z" fill="#094876"/>
</g>
<defs>
<clipPath id="clip0_127_607">
<rect width="26" height="26.0544" fill="white" transform="translate(0 0.414246)"/>
</clipPath>
</defs>
</svg>
