<svg width="26" height="26" viewBox="0 0 26 26" fill="none" xmlns="http://www.w3.org/2000/svg">
<path d="M24.8108 16.967C24.6449 16.8494 24.4175 16.8725 24.2788 17.0212C22.6464 18.7703 20.5479 20.1526 18.21 21.0186C14.4215 22.422 10.0084 22.3001 6.59907 20.715L6.92839 19.659C6.96683 19.5356 6.94428 19.4014 6.86776 19.2973C6.79118 19.1933 6.66971 19.1318 6.54057 19.1318C6.54052 19.1318 6.54047 19.1318 6.54042 19.1318C4.47032 19.1319 2.67581 18.8078 1.61921 18.2406C1.49576 18.1743 1.34697 18.1764 1.22535 18.2459C1.10373 18.3155 1.02659 18.4428 1.02116 18.5827C0.924724 21.059 3.05043 23.9832 4.59062 25.2686C4.69488 25.3556 4.83569 25.3848 4.96574 25.3464C5.0959 25.3081 5.19837 25.2072 5.23879 25.0776L5.47391 24.3235C7.15396 25.0588 8.92998 25.479 10.7603 25.5735C11.0219 25.5871 11.283 25.5938 11.5437 25.5938C13.3311 25.5938 15.0928 25.2763 16.7912 24.6472C20.3044 23.3458 23.1968 20.8029 24.9356 17.4869C25.03 17.3069 24.9767 17.0847 24.8108 16.967ZM16.5089 23.8853C12.8603 25.2369 8.91404 25.063 5.39718 23.3958C5.34219 23.3697 5.28267 23.3567 5.22315 23.3567C5.16765 23.3567 5.1121 23.368 5.0601 23.3908C4.95234 23.4381 4.87038 23.5296 4.83529 23.642L4.65308 24.2264C3.47608 23.0638 2.08817 21.0467 1.86215 19.243C3.18835 19.7582 4.83239 19.9051 5.99061 19.9369L5.71903 20.8076C5.65977 20.9977 5.74701 21.2027 5.9251 21.2919C7.75201 22.2062 9.89086 22.729 12.1104 22.8039C14.2802 22.877 16.4871 22.5232 18.4923 21.7805C19.9415 21.2437 21.3037 20.5173 22.5302 19.6337C20.9413 21.539 18.8737 23.0094 16.5089 23.8853ZM4.73733 15.3861L12.7939 20.1272C12.8575 20.1647 12.9287 20.1833 12.9999 20.1833C13.0712 20.1833 13.1424 20.1647 13.206 20.1272L21.2626 15.3861C21.3866 15.3131 21.4628 15.1799 21.4628 15.036V5.55357C21.4628 5.40966 21.3866 5.27646 21.2626 5.20344L13.206 0.462244C13.0788 0.387341 12.921 0.387341 12.7939 0.462244L4.73733 5.20349C4.61332 5.27651 4.53715 5.40971 4.53715 5.55362V15.036C4.5371 15.1799 4.61327 15.3131 4.73733 15.3861ZM5.3496 6.264L12.5936 10.527V19.0667L5.3496 14.8037V6.264ZM15.8601 8.14027L8.60437 3.87043L10.1398 2.96683L17.3955 7.23667L15.8601 8.14027ZM17.7902 7.94715V10.7384L16.2663 11.6352L16.2662 8.84399L17.7902 7.94715ZM15.059 8.61162L12.9999 9.82341L5.74432 5.55357L7.8034 4.34183L15.059 8.61162ZM13.4062 19.0667V10.5271L15.4537 9.3221L15.4538 12.3456C15.4538 12.4914 15.5319 12.626 15.6584 12.6982C15.7209 12.734 15.7905 12.7519 15.8601 12.7519C15.9313 12.7519 16.0025 12.7331 16.0661 12.6958L18.4025 11.3208C18.5265 11.2478 18.6027 11.1146 18.6027 10.9707V7.46904L20.6503 6.26405V14.8037L13.4062 19.0667ZM12.9999 1.28373L20.2556 5.55357L18.1964 6.76536L10.9408 2.49547L12.9999 1.28373Z" fill="#094876"/>
</svg>
