<svg width="27" height="27" viewBox="0 0 27 27" fill="none" xmlns="http://www.w3.org/2000/svg">
<path d="M26.0979 15.1454C26.095 15.14 26.0924 15.1345 26.0892 15.1293C25.9655 14.9249 25.7913 14.7586 25.5867 14.6487L23.3302 13.4282C23.5387 12.9333 23.6541 12.3894 23.6541 11.8189C23.6541 11.4749 23.612 11.1328 23.5289 10.8021C23.4769 10.5953 23.2681 10.4699 23.0627 10.5223C22.8572 10.5746 22.7327 10.7847 22.7847 10.9915C22.8522 11.2603 22.8865 11.5387 22.8865 11.8188C22.8865 13.6736 21.3871 15.1825 19.5442 15.1825C17.7013 15.1825 16.202 13.6736 16.202 11.8188C16.202 9.96413 17.7013 8.45521 19.5442 8.45521C20.4803 8.45521 21.3797 8.85425 22.0117 9.55C22.1547 9.70744 22.3975 9.71841 22.5539 9.57446C22.7104 9.43057 22.7213 9.18619 22.5782 9.02874C21.8011 8.17329 20.6953 7.68267 19.5442 7.68267C17.2781 7.68267 15.4344 9.53815 15.4344 11.8188C15.4344 12.3893 15.5498 12.9333 15.7583 13.4281L13.5698 14.6119V7.72985L19.1601 4.86157V6.2267C19.1601 6.44002 19.3319 6.61297 19.5439 6.61297C19.7558 6.61297 19.9277 6.44002 19.9277 6.2267V4.81573C19.9277 4.56389 19.8595 4.31755 19.7304 4.1034C19.6074 3.8993 19.4334 3.73269 19.2276 3.6218L13.7929 0.683478C13.4162 0.479425 12.9657 0.47788 12.5873 0.679049C12.5869 0.679255 12.5865 0.679461 12.5862 0.679667C12.5838 0.680851 12.5814 0.682139 12.5791 0.683375L7.14458 3.62159C6.76072 3.82405 6.44937 4.28727 6.44405 4.81578L6.4442 11.588L0.78642 14.6481C0.401688 14.8499 0.0902889 15.3155 0.0852737 15.8426V22.4467C0.0852737 22.962 0.363051 23.4245 0.810063 23.6536L6.24565 26.4424C6.55372 26.6004 7.00124 26.6455 7.40962 26.4424L9.39939 25.4218C9.58823 25.3249 9.6633 25.0923 9.56704 24.9022C9.47073 24.7121 9.23958 24.6366 9.05079 24.7335L7.21183 25.6768V18.757L12.8022 15.8886V22.8093L10.6814 23.8971C10.4925 23.994 10.4175 24.2266 10.5137 24.4167C10.61 24.6067 10.8411 24.6822 11.03 24.5854L13.186 23.4795L18.9619 26.4421C19.1398 26.5338 19.339 26.5825 19.5384 26.5834C19.5403 26.5834 19.5422 26.5837 19.5442 26.5837C19.7452 26.5837 19.9465 26.5348 20.1262 26.4425L25.5619 23.6537C26.009 23.4244 26.2868 22.9619 26.2868 22.4466V15.8426C26.2868 15.5966 26.2212 15.356 26.0979 15.1454ZM7.21183 11.588L7.21167 4.86152L12.8022 7.72985V14.6119L7.21183 11.588ZM16.1232 14.1078C16.8605 15.2204 18.1185 15.955 19.5442 15.955C20.9698 15.955 22.2278 15.2204 22.9652 14.1078L25.075 15.249L19.544 18.0868L14.0134 15.249L16.1232 14.1078ZM12.9396 1.36542C12.9414 1.3645 12.9431 1.36352 12.9449 1.36259C13.0968 1.28137 13.2778 1.28183 13.4294 1.36388L18.7161 4.22222L13.186 7.05959L7.65567 4.22222L12.9396 1.36542ZM6.82801 12.2574L12.3586 15.249L6.82807 18.0868L1.29704 15.249L6.82801 12.2574ZM6.44405 25.677L1.15856 22.9653C0.972901 22.8701 0.852896 22.6665 0.852896 22.4467V15.8883L6.44405 18.757V25.677ZM13.5698 22.8093V15.8886L19.1602 18.757V25.6768L13.5698 22.8093ZM25.5192 22.4467C25.5192 22.6666 25.3991 22.8701 25.2133 22.9654L19.928 25.6771V18.757L25.5192 15.8883V22.4467Z" fill="#094876"/>
<path d="M20.9473 10.553L19.0202 12.5919L18.0567 11.6935C17.9012 11.5484 17.6584 11.5578 17.5143 11.7143C17.3702 11.8707 17.3795 12.1151 17.535 12.2602L18.7763 13.4177C18.8501 13.4865 18.9437 13.5207 19.0371 13.5207C19.1386 13.5207 19.2399 13.4804 19.3153 13.4006L21.5035 11.0855C21.6496 10.9309 21.6435 10.6864 21.4899 10.5394C21.3364 10.3924 21.0935 10.3984 20.9473 10.553Z" fill="#094876"/>
</svg>
