<svg width="26" height="26" viewBox="0 0 26 26" fill="none" xmlns="http://www.w3.org/2000/svg">
<g clip-path="url(#clip0_137_40)">
<path d="M8.7623 19.9013C8.7557 19.8688 8.74605 19.8368 8.73336 19.8058C8.72066 19.7753 8.70492 19.7459 8.68664 19.7185C8.66836 19.6905 8.64703 19.6646 8.62367 19.6413C8.60031 19.6179 8.57441 19.5966 8.54648 19.5783C8.51906 19.56 8.48961 19.5443 8.45863 19.5316C8.42816 19.5189 8.39617 19.5087 8.36367 19.5026C8.29816 19.4894 8.23063 19.4894 8.16563 19.5026C8.13313 19.5087 8.10113 19.5189 8.07016 19.5316C8.03969 19.5443 8.01023 19.56 7.98281 19.5783C7.95488 19.5966 7.92898 19.6179 7.90562 19.6413C7.88227 19.6646 7.86094 19.6905 7.84266 19.7185C7.82387 19.7459 7.80863 19.7753 7.79594 19.8058C7.78324 19.8368 7.77309 19.8688 7.76699 19.9013C7.76039 19.9338 7.75684 19.9673 7.75684 20.0003C7.75684 20.0333 7.76039 20.0668 7.76699 20.0993C7.77309 20.1318 7.78324 20.1638 7.79594 20.1943C7.80863 20.2253 7.82387 20.2547 7.84266 20.2821C7.86094 20.3101 7.88227 20.336 7.90562 20.3593C7.92898 20.3827 7.95488 20.404 7.98281 20.4223C8.01023 20.4406 8.03969 20.4564 8.07016 20.4691C8.10113 20.4818 8.13313 20.4919 8.16563 20.498C8.19813 20.5046 8.23164 20.5082 8.26465 20.5082C8.29766 20.5082 8.33117 20.5046 8.36367 20.498C8.39617 20.4919 8.42816 20.4818 8.45863 20.4691C8.48961 20.4564 8.51906 20.4406 8.54648 20.4223C8.57441 20.404 8.60031 20.3827 8.62367 20.3593C8.64703 20.336 8.66836 20.3101 8.68664 20.2821C8.70492 20.2547 8.72066 20.2253 8.73336 20.1943C8.74605 20.1638 8.7557 20.1318 8.7623 20.0993C8.76891 20.0668 8.77246 20.0333 8.77246 20.0003C8.77246 19.9673 8.76891 19.9338 8.7623 19.9013Z" fill="#094876"/>
<path d="M23.359 20.0577C23.357 20.0526 23.355 20.0476 23.3529 20.0426C22.8855 18.9489 21.7893 18.5447 20.4921 18.9878L16.9542 19.9661C16.7497 19.3467 16.2395 18.8196 15.5181 18.5519C15.5136 18.5502 15.5092 18.5486 15.5046 18.5471L11.6158 17.2272C11.2921 16.8088 10.2782 15.7382 8.37982 15.7382C7.05316 15.7382 5.87955 16.6483 5.20813 17.6403H0.507812C0.227348 17.6403 0 17.8677 0 18.1481V24.5505C0 24.831 0.227348 25.0583 0.507812 25.0583H3.52711C3.80758 25.0583 4.03493 24.831 4.03493 24.5505V24.112H5.45086C5.73132 24.112 5.95867 23.8847 5.95867 23.6042V23.4581C6.78407 23.5301 7.05555 23.6867 7.81361 24.1238C8.39658 24.46 9.27768 24.968 10.8644 25.6814C10.8718 25.6847 10.8792 25.6879 10.8867 25.6908C11.1912 25.8106 11.7865 25.9988 12.5205 25.9988C13.0313 25.9988 13.6095 25.9076 14.2029 25.6386L22.0228 22.8387C22.0367 22.8337 22.0504 22.8281 22.0638 22.822C22.8111 22.4781 23.9248 21.5091 23.359 20.0577ZM3.0193 24.0426H1.01562V18.6559H3.0193V24.0426ZM4.94305 23.0964H4.03493V18.6559H4.94305V23.0964ZM21.658 21.8905L13.8416 24.6891C13.8348 24.6915 13.8255 24.6952 13.8187 24.6979C13.8119 24.7007 13.805 24.7036 13.7983 24.7067C12.7097 25.207 11.6749 24.9075 11.2694 24.7499C9.7367 24.0602 8.91866 23.5885 8.32096 23.2438C7.48998 22.7647 7.08957 22.5337 5.95867 22.4403V18.3503C6.44003 17.5614 7.37349 16.7538 8.37987 16.7538C10.1057 16.7538 10.837 17.8763 10.8658 17.9216C10.9278 18.0225 11.0231 18.0985 11.1352 18.1365L15.171 19.5063C15.8156 19.7482 16.1562 20.3002 15.9996 20.8507C15.9274 21.1049 15.7604 21.3157 15.5296 21.4444C15.3007 21.5719 15.0361 21.6034 14.7839 21.5336L10.2343 20.0918C9.96679 20.0071 9.6815 20.1552 9.59679 20.4225C9.51204 20.6899 9.66012 20.9753 9.92748 21.06L14.485 22.5043C14.4899 22.5058 14.4947 22.5073 14.4996 22.5087C14.6815 22.5604 14.8668 22.586 15.0509 22.586C15.388 22.586 15.7214 22.5002 16.0239 22.3316C16.4918 22.0709 16.8301 21.6436 16.9765 21.1284C16.9882 21.0873 16.9986 21.0462 17.0076 21.005L20.8204 19.9488C21.371 19.7607 22.0939 19.6929 22.4158 20.4342C22.7489 21.3044 21.8831 21.7831 21.658 21.8905Z" fill="#094876"/>
<path d="M18.2335 6.6799C18.2269 6.6474 18.2173 6.6154 18.2041 6.58443C18.1914 6.55396 18.1761 6.52451 18.1573 6.49708C18.1391 6.46916 18.1177 6.44326 18.0944 6.4199C18.071 6.39654 18.0451 6.37521 18.0172 6.35693C17.9898 6.33865 17.9603 6.32291 17.9298 6.31021C17.8989 6.29751 17.8669 6.28736 17.8349 6.28126C17.7694 6.26806 17.7018 6.26806 17.6363 6.28126C17.6038 6.28736 17.5718 6.29751 17.5414 6.31021C17.5104 6.32291 17.4809 6.33865 17.4535 6.35693C17.4256 6.37521 17.3997 6.39654 17.3763 6.4199C17.353 6.44326 17.3316 6.46916 17.3134 6.49708C17.2951 6.52451 17.2793 6.55396 17.2666 6.58443C17.2539 6.6154 17.2438 6.6474 17.2377 6.6799C17.2311 6.7124 17.2275 6.74591 17.2275 6.77892C17.2275 6.81193 17.2311 6.84544 17.2377 6.87794C17.2438 6.91044 17.2539 6.94244 17.2666 6.97291C17.2793 7.00388 17.2951 7.03333 17.3134 7.06076C17.3316 7.08869 17.353 7.11459 17.3763 7.13794C17.3997 7.1613 17.4256 7.18263 17.4535 7.20091C17.4809 7.21919 17.5104 7.23494 17.5414 7.24763C17.5718 7.26033 17.6038 7.26998 17.6363 7.27658C17.6688 7.28318 17.7023 7.28673 17.7354 7.28673C17.7684 7.28673 17.8019 7.28318 17.8349 7.27658C17.8669 7.26998 17.8989 7.26033 17.9298 7.24763C17.9603 7.23494 17.9898 7.21919 18.0172 7.20091C18.0451 7.18263 18.071 7.1613 18.0944 7.13794C18.1177 7.11459 18.1391 7.08869 18.1573 7.06076C18.1761 7.03333 18.1914 7.00388 18.2041 6.97291C18.2173 6.94244 18.2269 6.91044 18.2335 6.87794C18.2401 6.84544 18.2432 6.81193 18.2432 6.77892C18.2432 6.74591 18.2401 6.7124 18.2335 6.6799Z" fill="#094876"/>
<path d="M25.4922 1.72101H22.4729C22.1924 1.72101 21.9651 1.94835 21.9651 2.22882V2.66726H20.5491C20.2687 2.66726 20.0413 2.89461 20.0413 3.17508V3.32122C19.2159 3.24917 18.9444 3.09266 18.1864 2.65553C17.6035 2.31936 16.7224 1.8113 15.1356 1.09787C15.1282 1.09452 15.1208 1.09142 15.1132 1.08847C14.5968 0.885248 13.2431 0.485397 11.7973 1.14063L9.75385 1.87228L8.0314 0.149885C7.8331 -0.0484155 7.51155 -0.0484155 7.31325 0.149885L1.65835 5.80473C1.47544 5.9877 1.44035 6.30493 1.65835 6.52293L11.3214 16.1859C11.476 16.3406 11.8381 16.3874 12.0396 16.1859L17.2022 11.0233C17.3365 11.0349 17.4757 11.0411 17.6201 11.0411C18.9468 11.0411 20.1204 10.131 20.7918 9.13908H25.4922C25.7726 9.13908 26 8.91173 26 8.63127V2.22882C26 1.94835 25.7726 1.72101 25.4922 1.72101ZM7.67227 1.22711L8.82968 2.38451C8.48564 2.59729 8.08787 2.71114 7.67227 2.71114C7.25663 2.71114 6.85891 2.59734 6.51487 2.38451L7.67227 1.22711ZM3.89303 7.32126L2.73563 6.16381L3.89303 5.0064C4.10581 5.35044 4.21966 5.74821 4.21966 6.16381C4.21966 6.5794 4.10586 6.97717 3.89303 7.32126ZM11.6805 15.1087L10.5233 13.9515C11.2298 13.5155 12.1311 13.5155 12.8376 13.9515L11.6805 15.1087ZM13.5693 13.2199C12.4471 12.4059 10.9138 12.4059 9.79168 13.2199L4.62464 8.05282C5.02119 7.50743 5.23528 6.8523 5.23528 6.16381C5.23528 5.47526 5.02124 4.82019 4.62464 4.2748L5.78331 3.11617C6.3287 3.51272 6.98378 3.72681 7.67232 3.72681C8.36087 3.72681 9.01595 3.51272 9.56134 3.11617L10.6597 4.21452C10.4227 4.24951 10.1916 4.32761 9.97607 4.44771C9.61207 4.65053 9.32647 4.95425 9.14864 5.3217C8.57582 5.42778 8.04552 5.7051 7.62952 6.12105C6.5009 7.24971 6.5009 9.08611 7.62957 10.2148C8.19385 10.7791 8.9351 11.0613 9.67641 11.0613C10.4177 11.0613 11.159 10.7791 11.7233 10.2148C12.0904 9.84763 12.3477 9.39639 12.4765 8.90462L14.1911 9.48652C13.998 10.3807 14.1957 11.3214 14.729 12.0602L13.5693 13.2199ZM10.4819 8.22746C10.4864 8.22908 10.4908 8.2307 10.4954 8.23223L11.5108 8.57688C11.4341 8.92295 11.2606 9.24115 11.0051 9.49663C10.2725 10.2292 9.08034 10.2293 8.34777 9.49663C7.61509 8.76401 7.61509 7.57192 8.34777 6.83925C8.52448 6.66243 8.73304 6.52425 8.96029 6.43056C9.05403 7.21066 9.61572 7.90601 10.4819 8.22746ZM15.4607 11.3285C15.2647 11.009 15.1538 10.6445 15.1363 10.2724C15.3795 10.4483 15.6768 10.6206 16.0318 10.7573L15.4607 11.3285ZM20.0413 8.4288C19.56 9.21784 18.6265 10.0254 17.6201 10.0254C17.4318 10.0254 17.2554 10.012 17.0904 9.98814C17.0897 9.98804 17.089 9.98794 17.0884 9.98784C15.9917 9.82854 15.4018 9.20525 15.2073 8.95845C15.197 8.94322 15.1529 8.88548 15.1463 8.87588C15.0871 8.77015 14.9902 8.68515 14.8665 8.64315L10.8289 7.27282C10.1846 7.031 9.84404 6.47926 10.0001 5.92899C10.0002 5.92864 10.0003 5.92828 10.0004 5.92793C10.0006 5.92752 10.0007 5.92706 10.0008 5.92666C10.0734 5.67326 10.24 5.46308 10.4704 5.33475C10.6992 5.20724 10.9637 5.1756 11.216 5.24553L15.7656 6.68726C16.0331 6.77212 16.3184 6.62394 16.4031 6.35657C16.4878 6.08921 16.3398 5.80382 16.0725 5.71906L12.454 4.57242L12.4225 4.54084C12.4221 4.54053 12.4218 4.54018 12.4215 4.53987L10.5482 2.66655L12.1583 2.08998C12.1638 2.088 12.1705 2.08551 12.1759 2.08333C12.1772 2.08277 12.1799 2.08176 12.1812 2.0812C12.1881 2.0784 12.1949 2.07546 12.2017 2.07236C13.2902 1.57206 14.3249 1.87152 14.7305 2.02925C16.2632 2.71891 17.0813 3.19062 17.679 3.53527C18.51 4.01449 18.9104 4.24539 20.0413 4.33878V8.4288ZM21.9651 8.12335H21.0569V3.68289H21.9651V8.12335ZM24.9844 8.12335H22.9807V2.73663H24.9844V8.12335Z" fill="#094876"/>
</g>
<defs>
<clipPath id="clip0_137_40">
<rect width="26" height="26" fill="white"/>
</clipPath>
</defs>
</svg>
