<svg width="26" height="26" viewBox="0 0 26 26" fill="none" xmlns="http://www.w3.org/2000/svg">
<mask id="path-1-inside-1_127_259" fill="white">
<path d="M13.2249 16.3305C13.1636 16.2907 13.0926 16.268 13.0195 16.265C12.9464 16.2619 12.8738 16.2785 12.8093 16.313C12.7448 16.3475 12.6907 16.3987 12.6527 16.4612C12.6147 16.5238 12.5942 16.5954 12.5933 16.6685V18.0777C10.67 17.9847 8.83117 17.2592 7.36246 16.0139C5.89376 14.7686 4.87736 13.0732 4.47111 11.1909C4.81907 9.55882 5.63089 8.06192 6.80903 6.88006C6.84659 6.84218 6.87633 6.79728 6.89654 6.74791C6.91675 6.69854 6.92704 6.64568 6.92682 6.59233C6.92659 6.53899 6.91587 6.48621 6.89525 6.43701C6.87463 6.38781 6.84453 6.34316 6.80665 6.30559C6.76877 6.26803 6.72387 6.2383 6.6745 6.21809C6.62514 6.19788 6.57227 6.18759 6.51893 6.18781C6.46558 6.18803 6.4128 6.19876 6.36361 6.21937C6.31441 6.23999 6.26975 6.2701 6.23219 6.30797C4.93127 7.61934 4.03948 9.28052 3.66533 11.0894C3.29117 12.8983 3.45077 14.7769 4.12471 16.4968C4.79864 18.2167 5.95787 19.7036 7.46136 20.7767C8.96486 21.8498 10.7478 22.4629 12.5933 22.5413V23.9687C12.5943 24.0419 12.6148 24.1134 12.6528 24.176C12.6908 24.2385 12.7449 24.2896 12.8094 24.3242C12.8739 24.3587 12.9464 24.3753 13.0195 24.3722C13.0926 24.3691 13.1635 24.3465 13.2249 24.3067L18.701 20.6565C18.756 20.6189 18.801 20.5685 18.8322 20.5096C18.8633 20.4507 18.8796 20.3851 18.8796 20.3184C18.8796 20.2518 18.8633 20.1862 18.8322 20.1273C18.801 20.0684 18.756 20.018 18.701 19.9804L13.2249 16.3305ZM13.4058 23.2098V22.1438C13.4059 22.0904 13.3954 22.0376 13.375 21.9883C13.3546 21.939 13.3246 21.8942 13.2869 21.8565C13.2492 21.8187 13.2044 21.7888 13.1551 21.7684C13.1058 21.748 13.0529 21.7375 12.9996 21.7376C10.7246 21.7349 8.54054 20.8443 6.91241 19.2554C5.28429 17.6664 4.34074 15.5047 4.28267 13.2305C5.0345 14.9152 6.25731 16.3467 7.80385 17.3525C9.35039 18.3583 11.1547 18.8956 12.9996 18.8997C13.0529 18.8998 13.1058 18.8893 13.1551 18.8689C13.2044 18.8485 13.2492 18.8186 13.2869 18.7808C13.3246 18.7431 13.3546 18.6983 13.375 18.649C13.3954 18.5997 13.4059 18.5468 13.4058 18.4935V17.4275L17.7433 20.3185L13.4058 23.2098Z"/>
</mask>
<path d="M13.2249 16.3305C13.1636 16.2907 13.0926 16.268 13.0195 16.265C12.9464 16.2619 12.8738 16.2785 12.8093 16.313C12.7448 16.3475 12.6907 16.3987 12.6527 16.4612C12.6147 16.5238 12.5942 16.5954 12.5933 16.6685V18.0777C10.67 17.9847 8.83117 17.2592 7.36246 16.0139C5.89376 14.7686 4.87736 13.0732 4.47111 11.1909C4.81907 9.55882 5.63089 8.06192 6.80903 6.88006C6.84659 6.84218 6.87633 6.79728 6.89654 6.74791C6.91675 6.69854 6.92704 6.64568 6.92682 6.59233C6.92659 6.53899 6.91587 6.48621 6.89525 6.43701C6.87463 6.38781 6.84453 6.34316 6.80665 6.30559C6.76877 6.26803 6.72387 6.2383 6.6745 6.21809C6.62514 6.19788 6.57227 6.18759 6.51893 6.18781C6.46558 6.18803 6.4128 6.19876 6.36361 6.21937C6.31441 6.23999 6.26975 6.2701 6.23219 6.30797C4.93127 7.61934 4.03948 9.28052 3.66533 11.0894C3.29117 12.8983 3.45077 14.7769 4.12471 16.4968C4.79864 18.2167 5.95787 19.7036 7.46136 20.7767C8.96486 21.8498 10.7478 22.4629 12.5933 22.5413V23.9687C12.5943 24.0419 12.6148 24.1134 12.6528 24.176C12.6908 24.2385 12.7449 24.2896 12.8094 24.3242C12.8739 24.3587 12.9464 24.3753 13.0195 24.3722C13.0926 24.3691 13.1635 24.3465 13.2249 24.3067L18.701 20.6565C18.756 20.6189 18.801 20.5685 18.8322 20.5096C18.8633 20.4507 18.8796 20.3851 18.8796 20.3184C18.8796 20.2518 18.8633 20.1862 18.8322 20.1273C18.801 20.0684 18.756 20.018 18.701 19.9804L13.2249 16.3305ZM13.4058 23.2098V22.1438C13.4059 22.0904 13.3954 22.0376 13.375 21.9883C13.3546 21.939 13.3246 21.8942 13.2869 21.8565C13.2492 21.8187 13.2044 21.7888 13.1551 21.7684C13.1058 21.748 13.0529 21.7375 12.9996 21.7376C10.7246 21.7349 8.54054 20.8443 6.91241 19.2554C5.28429 17.6664 4.34074 15.5047 4.28267 13.2305C5.0345 14.9152 6.25731 16.3467 7.80385 17.3525C9.35039 18.3583 11.1547 18.8956 12.9996 18.8997C13.0529 18.8998 13.1058 18.8893 13.1551 18.8689C13.2044 18.8485 13.2492 18.8186 13.2869 18.7808C13.3246 18.7431 13.3546 18.6983 13.375 18.649C13.3954 18.5997 13.4059 18.5468 13.4058 18.4935V17.4275L17.7433 20.3185L13.4058 23.2098Z" fill="#094876"/>
<path d="M13.2249 16.3305L28.7542 -6.96843L28.6128 -7.06265L28.4704 -7.15515L13.2249 16.3305ZM12.5933 16.6685L-15.4046 16.3247L-15.4067 16.4966V16.6685H12.5933ZM12.5933 18.0777L11.241 46.045L40.5933 47.4643V18.0777H12.5933ZM4.47111 11.1909L-22.9134 5.35258L-24.1658 11.2269L-22.8987 17.0981L4.47111 11.1909ZM6.80903 6.88006L26.6392 26.6478L26.6645 26.6224L26.6898 26.5969L6.80903 6.88006ZM6.23219 6.30797L26.1102 26.0276L26.113 26.0248L6.23219 6.30797ZM12.5933 22.5413H40.5933V-4.29422L13.782 -5.43344L12.5933 22.5413ZM12.5933 23.9687H-15.4067V24.1492L-15.4043 24.3297L12.5933 23.9687ZM13.2249 24.3067L28.456 47.8017L28.6063 47.7043L28.7553 47.6049L13.2249 24.3067ZM18.701 20.6565L34.2314 43.9547L34.3553 43.8721L34.4783 43.7881L18.701 20.6565ZM18.701 19.9804L34.4783 -3.15125L34.3547 -3.23555L34.2302 -3.31853L18.701 19.9804ZM13.4058 23.2098H-14.5942V75.5256L28.9364 46.5079L13.4058 23.2098ZM13.4058 22.1438L-14.5942 22.1275L-14.5942 22.1357V22.1438H13.4058ZM12.9996 21.7376L12.967 49.7375L12.9914 49.7376L13.0158 49.7375L12.9996 21.7376ZM4.28267 13.2305L29.8521 1.81968L-23.7082 13.9452L4.28267 13.2305ZM12.9996 18.8997L12.9372 46.8997L12.9603 46.8997L12.9833 46.8997L12.9996 18.8997ZM13.4058 18.4935H-14.5942V18.5016L-14.5942 18.5097L13.4058 18.4935ZM13.4058 17.4275L28.935 -5.87156L-14.5942 -34.8844V17.4275H13.4058ZM17.7433 20.3185L33.2739 43.6165L68.2266 20.3169L33.2724 -2.98059L17.7433 20.3185ZM28.4704 -7.15515C24.2069 -9.92272 19.279 -11.4957 14.2007 -11.7101L11.8383 44.24C6.9062 44.0318 2.12021 42.5041 -2.02051 39.8162L28.4704 -7.15515ZM14.2007 -11.7101C9.12191 -11.9246 4.07904 -10.7724 -0.402174 -8.37421L26.0208 41.0002C21.6686 43.3293 16.7709 44.4483 11.8383 44.24L14.2007 -11.7101ZM-0.402174 -8.37421C-4.88346 -5.97602 -8.63957 -2.41937 -11.2785 1.92518L36.5839 30.9973C34.021 35.2168 30.373 38.671 26.0208 41.0002L-0.402174 -8.37421ZM-11.2785 1.92518C-13.9173 6.26947 -15.3421 11.2422 -15.4046 16.3247L40.5912 17.0123C40.5306 21.9485 39.1467 26.7781 36.5839 30.9973L-11.2785 1.92518ZM-15.4067 16.6685V18.0777H40.5933V16.6685H-15.4067ZM13.9456 -9.88962C18.1832 -9.68472 22.2346 -8.08628 25.4705 -5.34255L-10.7456 37.3704C-4.57225 42.6047 3.15673 45.6541 11.241 46.045L13.9456 -9.88962ZM25.4705 -5.34255C28.7064 -2.59882 30.9458 1.13664 31.8409 5.2837L-22.8987 17.0981C-21.1911 25.0097 -16.9189 32.136 -10.7456 37.3704L25.4705 -5.34255ZM31.8557 17.0292C31.0793 20.6709 29.2679 24.0108 26.6392 26.6478L-13.0211 -12.8877C-18.0061 -7.88699 -21.4411 -1.55321 -22.9134 5.35258L31.8557 17.0292ZM26.6898 26.5969C29.3167 23.9482 31.3961 20.8081 32.8093 17.3558L-19.0162 -3.86002C-17.6434 -7.21351 -15.6235 -10.2638 -13.0718 -12.8368L26.6898 26.5969ZM32.8093 17.3558C34.2226 13.9035 34.942 10.2066 34.9266 6.4764L-21.0729 6.70827C-21.0879 3.08471 -20.3891 -0.506402 -19.0162 -3.86002L32.8093 17.3558ZM34.9266 6.4764C34.9111 2.74621 34.1611 -0.944554 32.7193 -4.38514L-18.9288 17.2592C-20.3294 13.917 -21.0579 10.3318 -21.0729 6.70827L34.9266 6.4764ZM32.7193 -4.38514C31.2774 -7.82574 29.172 -10.9485 26.5235 -13.5752L-12.9102 26.1864C-15.483 23.6348 -17.5282 20.6014 -18.9288 17.2592L32.7193 -4.38514ZM26.5235 -13.5752C23.8749 -16.202 20.7348 -18.2814 17.2824 -19.6947L-3.93343 32.1309C-7.28706 30.758 -10.3374 28.738 -12.9102 26.1864L26.5235 -13.5752ZM17.2824 -19.6947C13.8301 -21.108 10.1333 -21.8274 6.40299 -21.812L6.63486 34.1876C3.01125 34.2026 -0.579861 33.5037 -3.93343 32.1309L17.2824 -19.6947ZM6.40299 -21.812C2.6727 -21.7965 -1.01806 -21.0465 -4.45855 -19.6047L17.1858 32.0434C13.8437 33.444 10.2585 34.1726 6.63486 34.1876L6.40299 -21.812ZM-4.45855 -19.6047C-7.89904 -18.1628 -11.0218 -16.0575 -13.6486 -13.4089L26.113 26.0248C23.5613 28.5977 20.5279 30.6428 17.1858 32.0434L-4.45855 -19.6047ZM-13.6458 -13.4117C-18.7689 -8.24743 -22.2808 -1.70564 -23.7543 5.41788L31.0849 16.7609C30.3598 20.2667 28.6315 23.4861 26.1102 26.0276L-13.6458 -13.4117ZM-23.7543 5.41788C-25.2277 12.5414 -24.5992 19.9396 -21.9452 26.7125L30.1946 6.28114C31.5007 9.6143 31.81 13.2552 31.0849 16.7609L-23.7543 5.41788ZM-21.9452 26.7125C-19.2912 33.4853 -14.7261 39.341 -8.80528 43.567L23.728 -2.01355C26.6419 0.0662184 28.8885 2.94797 30.1946 6.28114L-21.9452 26.7125ZM-8.80528 43.567C-2.88444 47.793 4.13693 50.2073 11.4047 50.5161L13.782 -5.43344C17.3587 -5.28147 20.8142 -4.09333 23.728 -2.01355L-8.80528 43.567ZM-15.4067 22.5413V23.9687H40.5933V22.5413H-15.4067ZM-15.4043 24.3297C-15.3389 29.4093 -13.9125 34.3784 -11.274 38.7193L36.5796 9.63257C39.1422 13.8485 40.5274 18.6745 40.591 23.6078L-15.4043 24.3297ZM-11.274 38.7193C-8.63521 43.0606 -4.88078 46.6146 -0.402104 49.0113L26.0208 -0.363025C30.3705 1.96473 34.0168 5.41633 36.5796 9.63257L-11.274 38.7193ZM-0.402104 49.0113C4.07647 51.4081 9.11616 52.5604 14.1921 52.3476L11.8469 -3.60323C16.7767 -3.80987 21.6713 -2.69073 26.0208 -0.363025L-0.402104 49.0113ZM14.1921 52.3476C19.2677 52.1349 24.1934 50.5651 28.456 47.8017L-2.00612 0.811737C2.13373 -1.87199 6.91751 -3.39661 11.8469 -3.60323L14.1921 52.3476ZM28.7553 47.6049L34.2314 43.9547L3.17056 -2.64175L-2.30548 1.00853L28.7553 47.6049ZM34.4783 43.7881C38.3002 41.1814 41.4275 37.6808 43.5886 33.5908L-5.9243 7.42843C-3.82541 3.45622 -0.788195 0.0564685 2.9236 -2.47522L34.4783 43.7881ZM43.5886 33.5908C45.7498 29.5007 46.8796 24.9447 46.8796 20.3184H-9.12043C-9.12043 15.8255 -8.02319 11.4006 -5.9243 7.42843L43.5886 33.5908ZM46.8796 20.3184C46.8796 15.6922 45.7498 11.1362 43.5886 7.04613L-5.9243 33.2085C-8.02319 29.2362 -9.12043 24.8114 -9.12043 20.3184H46.8796ZM43.5886 7.04613C41.4274 2.95584 38.3 -0.544641 34.4783 -3.15125L2.9236 43.1121C-0.787947 40.5806 -3.82527 37.1809 -5.9243 33.2085L43.5886 7.04613ZM34.2302 -3.31853L28.7542 -6.96843L-2.30436 39.6295L3.17168 43.2794L34.2302 -3.31853ZM41.4058 23.2098V22.1438H-14.5942V23.2098H41.4058ZM41.4058 22.1601C41.408 18.4269 40.6743 14.73 39.2467 11.2807L-12.4968 32.6959C-13.8835 29.3453 -14.5963 25.754 -14.5942 22.1275L41.4058 22.1601ZM39.2467 11.2807C37.819 7.83107 35.7254 4.697 33.0859 2.05748L-6.51208 41.6555C-9.07614 39.0914 -11.1099 36.0469 -12.4968 32.6959L39.2467 11.2807ZM33.0859 2.05748C30.4464 -0.582037 27.3123 -2.67563 23.8627 -4.10332L2.44745 47.6401C-0.903538 46.2533 -3.94802 44.2195 -6.51208 41.6555L33.0859 2.05748ZM23.8627 -4.10332C20.4134 -5.53089 16.7165 -6.26461 12.9833 -6.26244L13.0158 49.7375C9.38937 49.7397 5.79813 49.0269 2.44745 47.6401L23.8627 -4.10332ZM13.0321 -6.26243C18.0538 -6.25659 22.8749 -4.2907 26.4687 -0.783356L-12.6439 39.2941C-5.79378 45.9793 3.39541 49.7264 12.967 49.7375L13.0321 -6.26243ZM26.4687 -0.783356C30.0626 2.72399 32.1454 7.49571 32.2735 12.5158L-23.7082 13.9452C-23.4639 23.5137 -19.494 32.6089 -12.6439 39.2941L26.4687 -0.783356ZM-21.2867 24.6413C-18.3349 31.2557 -13.534 36.8758 -7.462 40.8249L23.0697 -6.11993C26.0486 -4.18254 28.4039 -1.42533 29.8521 1.81968L-21.2867 24.6413ZM-7.462 40.8249C-1.39004 44.7739 5.69405 46.8835 12.9372 46.8997L13.0619 -9.10019C16.6154 -9.09228 20.0908 -8.05731 23.0697 -6.11993L-7.462 40.8249ZM12.9833 46.8997C16.7165 46.9019 20.4134 46.1682 23.8627 44.7406L2.44745 -7.00286C5.79812 -8.38961 9.38936 -9.10236 13.0158 -9.10025L12.9833 46.8997ZM23.8627 44.7406C27.3123 43.3129 30.4464 41.2193 33.0859 38.5798L-6.51209 -1.01817C-3.94803 -3.58223 -0.903546 -5.61597 2.44745 -7.00286L23.8627 44.7406ZM33.0859 38.5798C35.7254 35.9403 37.819 32.8062 39.2467 29.3566L-12.4968 7.94137C-11.1099 4.59037 -9.07615 1.54589 -6.51209 -1.01817L33.0859 38.5798ZM39.2467 29.3566C40.6743 25.9073 41.408 22.2104 41.4058 18.4772L-14.5942 18.5097C-14.5963 14.8833 -13.8835 11.292 -12.4968 7.94137L39.2467 29.3566ZM41.4058 18.4935V17.4275H-14.5942V18.4935H41.4058ZM-2.12333 40.7265L2.21411 43.6175L33.2724 -2.98059L28.935 -5.87156L-2.12333 40.7265ZM2.21264 -2.97962L-2.12478 -0.0882688L28.9364 46.5079L33.2739 43.6165L2.21264 -2.97962Z" fill="#094876" mask="url(#path-1-inside-1_127_259)"/>
<mask id="path-3-inside-2_127_259" fill="white">
<path d="M13.4067 3.45865V2.03122C13.4057 1.95808 13.3852 1.88654 13.3472 1.82404C13.3092 1.76153 13.2551 1.71036 13.1906 1.67585C13.1261 1.64134 13.0535 1.62474 12.9805 1.6278C12.9074 1.63085 12.8365 1.65345 12.7751 1.69322L7.29901 5.34351C7.24397 5.38105 7.19894 5.43147 7.16781 5.49038C7.13669 5.54929 7.12042 5.6149 7.12042 5.68153C7.12042 5.74815 7.1367 5.81377 7.16783 5.87268C7.19895 5.93158 7.244 5.982 7.29904 6.01954L12.7751 9.66944C12.8364 9.70927 12.9074 9.7319 12.9805 9.73498C13.0536 9.73806 13.1262 9.72148 13.1907 9.68695C13.2552 9.65242 13.3093 9.60122 13.3472 9.53869C13.3852 9.47615 13.4057 9.40457 13.4066 9.3314V7.92226C15.33 8.01525 17.1688 8.74075 18.6375 9.98606C20.1062 11.2314 21.1226 12.9268 21.5289 14.8091C21.1809 16.4411 20.3691 17.9381 19.191 19.1199C19.1177 19.1969 19.0776 19.2996 19.0791 19.4059C19.0807 19.5121 19.1238 19.6136 19.1993 19.6884C19.2748 19.7632 19.3765 19.8055 19.4828 19.8062C19.5891 19.8069 19.6914 19.7659 19.7678 19.692C25.5914 13.8772 21.5891 3.77274 13.4067 3.45865ZM13.0004 7.10022C12.947 7.10019 12.8942 7.11068 12.8449 7.13109C12.7956 7.15149 12.7508 7.18141 12.7131 7.21914C12.6753 7.25687 12.6454 7.30167 12.625 7.35097C12.6046 7.40028 12.5941 7.45312 12.5942 7.50647V8.57248L8.25672 5.68152L12.5942 2.79016V3.85616C12.5941 3.90952 12.6046 3.96236 12.625 4.01167C12.6454 4.06097 12.6753 4.10577 12.7131 4.1435C12.7508 4.18123 12.7956 4.21115 12.8449 4.23155C12.8942 4.25196 12.947 4.26245 13.0004 4.26241C15.2754 4.26506 17.4594 5.15567 19.0876 6.7446C20.7157 8.33353 21.6592 10.4952 21.7173 12.7695C20.9655 11.0848 19.7427 9.65332 18.1961 8.64748C16.6496 7.64165 14.8453 7.10433 13.0004 7.10022Z"/>
</mask>
<path d="M13.4067 3.45865V2.03122C13.4057 1.95808 13.3852 1.88654 13.3472 1.82404C13.3092 1.76153 13.2551 1.71036 13.1906 1.67585C13.1261 1.64134 13.0535 1.62474 12.9805 1.6278C12.9074 1.63085 12.8365 1.65345 12.7751 1.69322L7.29901 5.34351C7.24397 5.38105 7.19894 5.43147 7.16781 5.49038C7.13669 5.54929 7.12042 5.6149 7.12042 5.68153C7.12042 5.74815 7.1367 5.81377 7.16783 5.87268C7.19895 5.93158 7.244 5.982 7.29904 6.01954L12.7751 9.66944C12.8364 9.70927 12.9074 9.7319 12.9805 9.73498C13.0536 9.73806 13.1262 9.72148 13.1907 9.68695C13.2552 9.65242 13.3093 9.60122 13.3472 9.53869C13.3852 9.47615 13.4057 9.40457 13.4066 9.3314V7.92226C15.33 8.01525 17.1688 8.74075 18.6375 9.98606C20.1062 11.2314 21.1226 12.9268 21.5289 14.8091C21.1809 16.4411 20.3691 17.9381 19.191 19.1199C19.1177 19.1969 19.0776 19.2996 19.0791 19.4059C19.0807 19.5121 19.1238 19.6136 19.1993 19.6884C19.2748 19.7632 19.3765 19.8055 19.4828 19.8062C19.5891 19.8069 19.6914 19.7659 19.7678 19.692C25.5914 13.8772 21.5891 3.77274 13.4067 3.45865ZM13.0004 7.10022C12.947 7.10019 12.8942 7.11068 12.8449 7.13109C12.7956 7.15149 12.7508 7.18141 12.7131 7.21914C12.6753 7.25687 12.6454 7.30167 12.625 7.35097C12.6046 7.40028 12.5941 7.45312 12.5942 7.50647V8.57248L8.25672 5.68152L12.5942 2.79016V3.85616C12.5941 3.90952 12.6046 3.96236 12.625 4.01167C12.6454 4.06097 12.6753 4.10577 12.7131 4.1435C12.7508 4.18123 12.7956 4.21115 12.8449 4.23155C12.8942 4.25196 12.947 4.26245 13.0004 4.26241C15.2754 4.26506 17.4594 5.15567 19.0876 6.7446C20.7157 8.33353 21.6592 10.4952 21.7173 12.7695C20.9655 11.0848 19.7427 9.65332 18.1961 8.64748C16.6496 7.64165 14.8453 7.10433 13.0004 7.10022Z" fill="#094876"/>
<path d="M13.4067 3.45865H-14.5933V30.4045L12.3327 31.438L13.4067 3.45865ZM13.4067 2.03122H41.4067V1.84798L41.4043 1.66474L13.4067 2.03122ZM12.7751 1.69322L-2.45133 -21.8048L-2.60398 -21.7059L-2.75532 -21.605L12.7751 1.69322ZM7.29901 5.34351L-8.23137 -17.9547L-8.35573 -17.8718L-8.47919 -17.7876L7.29901 5.34351ZM7.29904 6.01954L-8.4775 29.1518L-8.35434 29.2358L-8.23029 29.3185L7.29904 6.01954ZM12.7751 9.66944L-2.75427 32.9684L-2.61119 33.0637L-2.46696 33.1573L12.7751 9.66944ZM13.4066 9.3314L41.4045 9.67675L41.4067 9.50409V9.3314H13.4066ZM13.4066 7.92226L14.759 -20.0451L-14.5934 -21.4643V7.92226H13.4066ZM21.5289 14.8091L48.9134 20.6474L50.1658 14.7731L48.8987 8.90186L21.5289 14.8091ZM19.191 19.1199L-0.639196 -0.647877L-0.871994 -0.414344L-1.09923 -0.175394L19.191 19.1199ZM19.7678 19.692L39.2325 39.8197L39.3935 39.6641L39.5519 39.5058L19.7678 19.692ZM13.0004 7.10022L13.0627 -20.8997L13.0397 -20.8998L13.0167 -20.8998L13.0004 7.10022ZM12.5942 7.50647H40.5942V7.49835L40.5942 7.49022L12.5942 7.50647ZM12.5942 8.57248L-2.93494 31.8716L40.5942 60.8842V8.57248H12.5942ZM8.25672 5.68152L-7.27389 -17.6166L-42.2267 5.68316L-7.27238 28.9806L8.25672 5.68152ZM12.5942 2.79016H40.5942V-49.5256L-2.93645 -20.5079L12.5942 2.79016ZM12.5942 3.85616L40.5942 3.87242L40.5942 3.86429V3.85616H12.5942ZM13.0004 4.26241L13.033 -23.7376L13.0086 -23.7376L12.9842 -23.7376L13.0004 4.26241ZM21.7173 12.7695L-3.85207 24.1803L49.7082 12.0548L21.7173 12.7695ZM41.4067 3.45865V2.03122H-14.5933V3.45865H41.4067ZM41.4043 1.66474C41.3378 -3.4139 39.911 -8.38182 37.2725 -12.7217L-10.5782 16.3698C-13.1407 12.1549 -14.5264 7.33007 -14.5909 2.39771L41.4043 1.66474ZM37.2725 -12.7217C34.634 -17.0616 30.8803 -20.6148 26.4021 -23.0113L-0.0208678 26.363C-4.37008 24.0355 -8.01569 20.5846 -10.5782 16.3698L37.2725 -12.7217ZM26.4021 -23.0113C21.9239 -25.4078 16.8852 -26.56 11.8106 -26.3478L14.1503 29.6033C9.22189 29.8094 4.3283 28.6905 -0.0208678 26.363L26.4021 -23.0113ZM11.8106 -26.3478C6.73598 -26.1355 1.81106 -24.5668 -2.45133 -21.8048L28.0015 25.1912C23.8618 27.8737 19.0788 29.3973 14.1503 29.6033L11.8106 -26.3478ZM-2.75532 -21.605L-8.23137 -17.9547L22.8294 28.6417L28.3055 24.9914L-2.75532 -21.605ZM-8.47919 -17.7876C-12.3007 -15.1809 -15.428 -11.6803 -17.5891 -7.58989L31.9248 18.5706C29.8259 22.5432 26.7887 25.943 23.0772 28.4746L-8.47919 -17.7876ZM-17.5891 -7.58989C-19.7503 -3.49956 -20.8797 1.05656 -20.8796 5.68254L35.1204 5.68052C35.1206 10.1732 34.0236 14.5981 31.9248 18.5706L-17.5891 -7.58989ZM-20.8796 5.68254C-20.8794 10.3086 -19.7496 14.8646 -17.5882 18.9547L31.9238 -7.20938C34.023 -3.23706 35.1203 1.18774 35.1204 5.68052L-20.8796 5.68254ZM-17.5882 18.9547C-15.4268 23.0448 -12.2993 26.5452 -8.4775 29.1518L23.0756 -17.1127C26.7873 -14.5812 29.8247 -11.1817 31.9238 -7.20938L-17.5882 18.9547ZM-8.23029 29.3185L-2.75427 32.9684L28.3044 -13.6295L22.8284 -17.2794L-8.23029 29.3185ZM-2.46696 33.1573C1.79652 35.924 6.7241 37.4963 11.802 37.7102L14.159 -18.2402C19.0906 -18.0324 23.8764 -16.5055 28.0171 -13.8185L-2.46696 33.1573ZM11.802 37.7102C16.8798 37.9241 21.9222 36.7719 26.4033 34.3735L-0.021894 -14.9996C4.3302 -17.3289 9.22737 -18.448 14.159 -18.2402L11.802 37.7102ZM26.4033 34.3735C30.8844 31.9752 34.6399 28.4186 37.2784 24.0749L-10.5839 -4.9975C-8.0214 -9.21617 -4.37402 -12.6703 -0.021894 -14.9996L26.4033 34.3735ZM37.2784 24.0749C39.9169 19.7311 41.3418 14.7589 41.4045 9.67675L-14.5912 8.98605C-14.5303 4.05019 -13.1464 -0.778813 -10.5839 -4.9975L37.2784 24.0749ZM41.4067 9.3314V7.92226H-14.5934V9.3314H41.4067ZM12.0543 35.8896C7.81674 35.6847 3.76538 34.0862 0.529455 31.3425L36.7456 -11.3704C30.5722 -16.6047 22.8433 -19.6542 14.759 -20.0451L12.0543 35.8896ZM0.529455 31.3425C-2.70647 28.5988 -4.94585 24.8633 -5.84091 20.7163L48.8987 8.90186C47.1911 0.990289 42.9189 -6.13604 36.7456 -11.3704L0.529455 31.3425ZM-5.85568 8.9707C-5.0793 5.32911 -3.26792 1.98914 -0.639196 -0.647877L39.0211 38.8877C44.0061 33.887 47.4411 27.5532 48.9134 20.6474L-5.85568 8.9707ZM-1.09923 -0.175394C-6.21993 5.20933 -9.02679 12.3862 -8.91787 19.8163L47.0761 18.9954C47.1819 26.2129 44.4553 33.1845 39.4811 38.4152L-1.09923 -0.175394ZM-8.91787 19.8163C-8.80895 27.2462 -5.79301 34.3378 -0.516575 39.5702L38.9151 -0.193374C44.0406 4.88935 46.9703 11.7781 47.0761 18.9954L-8.91787 19.8163ZM-0.516575 39.5702C4.75981 44.8025 11.8764 47.759 19.307 47.8056L19.6586 -8.19326C26.8767 -8.14794 33.7897 -5.27605 38.9151 -0.193374L-0.516575 39.5702ZM19.307 47.8056C26.7379 47.8523 33.891 44.9853 39.2325 39.8197L0.303172 -0.435806C5.49186 -5.45355 12.4403 -8.23858 19.6586 -8.19326L19.307 47.8056ZM39.5519 39.5058C62.7851 16.3076 46.9241 -23.2754 14.4806 -24.5207L12.3327 31.438C-3.74583 30.8209 -11.6023 11.4467 -0.0162868 -0.121889L39.5519 39.5058ZM13.0167 -20.8998C9.28342 -20.9019 5.58651 -20.1682 2.13728 -18.7407L23.5525 33.0028C20.2019 34.3896 16.6107 35.1023 12.9842 35.1002L13.0167 -20.8998ZM2.13728 -18.7407C-1.31218 -17.313 -4.44629 -15.2195 -7.08591 -12.5798L32.5121 27.0181C29.9479 29.5823 26.9034 31.616 23.5525 33.0028L2.13728 -18.7407ZM-7.08591 -12.5798C-9.72554 -9.94022 -11.8191 -6.80611 -13.2467 -3.35665L38.4968 18.0586C37.1099 21.4095 35.0762 24.454 32.5121 27.0181L-7.08591 -12.5798ZM-13.2467 -3.35665C-14.6743 0.0925773 -15.408 3.78949 -15.4058 7.52273L40.5942 7.49022C40.5963 11.1167 39.8835 14.708 38.4968 18.0586L-13.2467 -3.35665ZM-15.4058 7.50647V8.57248H40.5942V7.50647H-15.4058ZM28.1233 -14.7266L23.7858 -17.6176L-7.27238 28.9806L-2.93494 31.8716L28.1233 -14.7266ZM23.7873 28.9796L28.1248 26.0882L-2.93645 -20.5079L-7.27389 -17.6166L23.7873 28.9796ZM-15.4058 2.79016V3.85616H40.5942V2.79016H-15.4058ZM-15.4058 3.83991C-15.408 7.57312 -14.6743 11.27 -13.2467 14.7193L38.4968 -6.69596C39.8835 -3.34531 40.5963 0.245923 40.5942 3.87242L-15.4058 3.83991ZM-13.2467 14.7193C-11.8191 18.1687 -9.7256 21.3028 -7.08591 23.9425L32.5121 -15.6555C35.0763 -13.0913 37.11 -10.0467 38.4968 -6.69596L-13.2467 14.7193ZM-7.08591 23.9425C-4.4462 26.5822 -1.31207 28.6757 2.13728 30.1033L23.5525 -21.6402C26.9033 -20.2534 29.9478 -18.2197 32.5121 -15.6555L-7.08591 23.9425ZM2.13728 30.1033C5.58664 31.5309 9.28356 32.2646 13.0167 32.2624L12.9842 -23.7376C16.6105 -23.7397 20.2018 -23.027 23.5525 -21.6402L2.13728 30.1033ZM12.9678 32.2624C7.94615 32.2566 3.12511 30.2907 -0.468754 26.7833L38.6439 -13.2941C31.7938 -19.9793 22.6046 -23.7264 13.033 -23.7376L12.9678 32.2624ZM-0.468754 26.7833C-4.06261 23.276 -6.14538 18.5043 -6.27356 13.4842L49.7082 12.0548C49.4639 2.48624 45.494 -6.60892 38.6439 -13.2941L-0.468754 26.7833ZM47.2867 1.35867C44.3349 -5.25575 39.534 -10.8759 33.462 -14.8249L2.93028 32.1199C-0.0486031 30.1825 -2.40393 27.4253 -3.85207 24.1803L47.2867 1.35867ZM33.462 -14.8249C27.39 -18.774 20.3059 -20.8836 13.0627 -20.8997L12.9381 35.1002C9.38459 35.0922 5.90916 34.0573 2.93028 32.1199L33.462 -14.8249Z" fill="#094876" mask="url(#path-3-inside-2_127_259)"/>
</svg>
