<svg width="10" height="16" viewBox="0 0 10 16" fill="none" xmlns="http://www.w3.org/2000/svg">
<path d="M1.74997 15.5833C1.5348 15.5846 1.32412 15.5217 1.14481 15.4028C0.965496 15.2838 0.825669 15.1142 0.743155 14.9154C0.660641 14.7167 0.639178 14.4979 0.681504 14.2869C0.723829 14.076 0.828025 13.8824 0.980806 13.7308L6.72247 8L0.980806 2.26916C0.776811 2.06517 0.662207 1.78849 0.662207 1.5C0.662207 1.35715 0.690343 1.2157 0.745008 1.08373C0.799673 0.951754 0.879798 0.831839 0.980806 0.730831C1.08181 0.629822 1.20173 0.549698 1.3337 0.495033C1.46568 0.440368 1.60713 0.412231 1.74997 0.412231C2.03847 0.412231 2.31514 0.526835 2.51914 0.730831L9.01914 7.23083C9.22091 7.43381 9.33417 7.70838 9.33417 7.99458C9.33417 8.28078 9.22091 8.55535 9.01914 8.75833L2.51914 15.2583C2.41881 15.3607 2.29916 15.4421 2.16713 15.4979C2.0351 15.5537 1.89331 15.5827 1.74997 15.5833Z" fill="#094876"/>
</svg>
