<svg width="26" height="26" viewBox="0 0 26 26" fill="none" xmlns="http://www.w3.org/2000/svg">
<g clip-path="url(#clip0_110_40)">
<path d="M10.2415 10.8474C10.1471 10.9418 10.0928 11.0728 10.0928 11.2064C10.0928 11.3399 10.1471 11.471 10.2415 11.5654C10.336 11.6604 10.467 11.7142 10.6006 11.7142C10.7341 11.7142 10.8651 11.6604 10.9596 11.5654C11.054 11.471 11.1084 11.3405 11.1084 11.2064C11.1084 11.0728 11.054 10.9418 10.9596 10.8474C10.8651 10.7529 10.7341 10.6986 10.6006 10.6986C10.467 10.6986 10.336 10.753 10.2415 10.8474Z" fill="#094876"/>
<path d="M25.4921 10.6989H12.6319C12.3514 10.6989 12.1241 10.9262 12.1241 11.2067C12.1241 11.4871 12.3514 11.7145 12.6319 11.7145H24.9843V21.7309V22.193V23.1762H10.1389C10.0345 22.9775 9.89674 22.799 9.73272 22.6485C9.82072 22.5678 9.90131 22.4791 9.97321 22.3835H22.0835C22.3639 22.3835 22.5913 22.1561 22.5913 21.8757C22.5913 21.2762 23.079 20.7885 23.6785 20.7885C23.959 20.7885 24.1863 20.5611 24.1863 20.2807V14.61C24.1863 14.3295 23.959 14.1022 23.6785 14.1022C23.079 14.1022 22.5913 13.6145 22.5913 13.015C22.5913 12.7345 22.3639 12.5071 22.0835 12.5071H6.65111C6.37065 12.5071 6.1433 12.7345 6.1433 13.015C6.1433 13.6144 5.6556 14.1022 5.05608 14.1022C4.77561 14.1022 4.54826 14.3295 4.54826 14.61V16.4532H3.75781V13.6495L5.69272 11.7145H8.56942C8.84988 11.7145 9.07723 11.4872 9.07723 11.2067C9.07723 10.9263 8.84988 10.6989 8.56942 10.6989H6.70834L10.5521 6.8552L12.351 8.65417C12.4462 8.74939 12.5754 8.80291 12.7101 8.80291C12.8447 8.80291 12.9739 8.74939 13.0691 8.65417L17.2086 4.51469L17.9375 5.24361C18.0698 5.37599 18.2643 5.4249 18.4434 5.37066C18.6226 5.31653 18.7574 5.16825 18.7944 4.98472L19.6752 0.608202C19.7087 0.441538 19.6566 0.269136 19.5364 0.148937C19.4162 0.028738 19.2439 -0.0234143 19.0772 0.0102028L14.7006 0.890951C14.5172 0.92792 14.3688 1.06274 14.3147 1.24195C14.2606 1.42116 14.3094 1.61555 14.4417 1.74788L15.0338 2.34004L12.71 4.66389L10.911 2.86492C10.8158 2.7697 10.6866 2.71618 10.552 2.71618C10.4173 2.71618 10.2881 2.7697 10.1929 2.86492L7.14145 5.91636C6.94315 6.11466 6.94315 6.4362 7.14145 6.63455C7.33976 6.83285 7.6613 6.83285 7.85965 6.63455L10.552 3.94219L12.3509 5.74116C12.4462 5.83638 12.5753 5.8899 12.71 5.8899C12.8447 5.8899 12.9739 5.83638 13.0691 5.74116L16.1111 2.69917C16.3094 2.50087 16.3094 2.17937 16.1111 1.98102L15.8299 1.69974L18.5288 1.15659L17.9857 3.8554L17.5677 3.43742C17.4725 3.34221 17.3433 3.28869 17.2087 3.28869C17.074 3.28869 16.9448 3.34221 16.8496 3.43742L12.7101 7.5769L10.9112 5.77793C10.816 5.68271 10.6868 5.62919 10.5521 5.62919C10.4174 5.62919 10.2883 5.68271 10.193 5.77793L1.98224 13.9887L1.24383 13.2503L4.98711 9.50699C5.18542 9.30869 5.18542 8.98714 4.98711 8.78884C4.78881 8.59054 4.46727 8.59059 4.26897 8.78884L0.166613 12.8912C0.0713983 12.9865 0.017875 13.1157 0.017875 13.2503C0.017875 13.385 0.0713983 13.5142 0.166613 13.6094L1.62317 15.0659C1.72234 15.1651 1.85229 15.2146 1.98224 15.2146C2.11219 15.2146 2.24219 15.165 2.34132 15.0659L2.74218 14.665V16.4532H1.92968C0.865666 16.4532 0 17.3189 0 18.3829C0 18.9451 0.241769 19.4517 0.62669 19.8047C0.24182 20.1578 0 20.6645 0 21.2267C0 21.7889 0.241769 22.2955 0.62669 22.6485C0.24182 23.0015 0 23.5082 0 24.0704C0 25.1344 0.865666 26.0001 1.92968 26.0001H3.24999H8.42967H25.4921C25.7726 26.0001 25.9999 25.7728 25.9999 25.4923V23.684V22.193V21.7309V11.2067C25.9999 10.9262 25.7726 10.6989 25.4921 10.6989ZM5.56389 15.0558C6.31621 14.8686 6.90969 14.2751 7.09692 13.5228H21.6376C21.8248 14.2751 22.4183 14.8686 23.1706 15.0558V19.8348C22.4183 20.022 21.8248 20.6155 21.6376 21.3678H10.3537C10.3571 21.3211 10.3594 21.2742 10.3594 21.2266C10.3594 20.6644 10.1176 20.1578 9.73272 19.8047C10.1176 19.4517 10.3594 18.9451 10.3594 18.3829C10.3594 17.3189 9.49374 16.4532 8.42972 16.4532H5.56394L5.56389 15.0558ZM1.01562 18.3829C1.01562 17.8789 1.42568 17.4689 1.92968 17.4689H8.42967C8.93367 17.4689 9.34373 17.8789 9.34373 18.3829C9.34373 18.8869 8.93367 19.297 8.42967 19.297H1.92968C1.42568 19.297 1.01562 18.8869 1.01562 18.3829ZM1.01562 21.2267C1.01562 20.7227 1.42568 20.3126 1.92968 20.3126H8.42967C8.93367 20.3126 9.34373 20.7227 9.34373 21.2267C9.34373 21.7307 8.93367 22.1407 8.42967 22.1407H1.92968C1.42568 22.1407 1.01562 21.7307 1.01562 21.2267ZM3.24999 24.9845H1.92968C1.42568 24.9845 1.01562 24.5744 1.01562 24.0704C1.01562 23.5664 1.42568 23.1564 1.92968 23.1564H8.42967C8.93367 23.1564 9.34373 23.5664 9.34373 24.0704C9.34373 24.5744 8.93367 24.9845 8.42967 24.9845H3.24999ZM24.9843 24.9845H10.1287C10.2575 24.7459 10.3373 24.4771 10.3551 24.1918H24.9843V24.9845Z" fill="#094876"/>
<path d="M19.3838 17.953H20.1071C20.3876 17.953 20.6149 17.7257 20.6149 17.4452C20.6149 17.1648 20.3876 16.9374 20.1071 16.9374H19.3838C19.1033 16.9374 18.876 17.1648 18.876 17.4452C18.876 17.7257 19.1033 17.953 19.3838 17.953Z" fill="#094876"/>
<path d="M14.352 20.1505C15.8435 20.1505 17.0569 18.9369 17.0569 17.4452C17.0569 15.9535 15.8435 14.74 14.352 14.74C12.8605 14.74 11.6471 15.9535 11.6471 17.4452C11.6471 18.9369 12.8605 20.1505 14.352 20.1505ZM14.352 15.7556C15.2835 15.7556 16.0413 16.5135 16.0413 17.4452C16.0413 18.3769 15.2835 19.1349 14.352 19.1349C13.4206 19.1349 12.6627 18.3769 12.6627 17.4452C12.6627 16.5135 13.4206 15.7556 14.352 15.7556Z" fill="#094876"/>
<path d="M6.0714 8.22604C6.20495 8.22604 6.33597 8.17222 6.43042 8.07725C6.52487 7.9828 6.57921 7.85179 6.57921 7.71823C6.57921 7.58468 6.52487 7.45366 6.43042 7.35921C6.33597 7.26475 6.20495 7.21042 6.0714 7.21042C5.93784 7.21042 5.80683 7.26475 5.71237 7.35921C5.61741 7.45417 5.56358 7.58468 5.56358 7.71823C5.56358 7.85179 5.61741 7.9828 5.71237 8.07725C5.80683 8.17222 5.93784 8.22604 6.0714 8.22604Z" fill="#094876"/>
</g>
<defs>
<clipPath id="clip0_110_40">
<rect width="26" height="26" fill="white"/>
</clipPath>
</defs>
</svg>
