<svg width="27" height="26" viewBox="0 0 27 26" fill="none" xmlns="http://www.w3.org/2000/svg">
<g clip-path="url(#clip0_127_691)">
<path d="M22.5569 20.9249C23.2364 20.4243 23.6774 19.6233 23.6774 18.7221C23.6774 17.2088 22.4339 15.9776 20.9053 15.9776C19.3768 15.9776 18.1333 17.2088 18.1333 18.7221C18.1333 19.6246 18.5756 20.4265 19.2567 20.927C18.42 21.2116 17.6657 21.7104 17.0755 22.38C16.4945 21.7193 15.7434 21.2132 14.8915 20.925C15.571 20.4243 16.012 19.6234 16.012 18.7222C16.012 17.2088 14.7685 15.9776 13.24 15.9776C11.7115 15.9776 10.468 17.2088 10.468 18.7222C10.468 19.6234 10.909 20.4243 11.5884 20.925C10.7365 21.2133 9.98534 21.7193 9.40438 22.38C8.81425 21.7105 8.05989 21.2117 7.22326 20.9271C7.90433 20.4265 8.34665 19.6246 8.34665 18.7222C8.34665 17.2088 7.10315 15.9776 5.57468 15.9776C4.04616 15.9776 2.80266 17.2088 2.80266 18.7222C2.80266 19.6234 3.24369 20.4243 3.92312 20.925C2.10164 21.5413 0.737967 23.1519 0.522604 25.1443C0.510192 25.259 0.547531 25.3734 0.625388 25.4591C0.703244 25.5448 0.814183 25.5938 0.930609 25.5938L25.5494 25.5937C25.6658 25.5937 25.7767 25.5447 25.8545 25.459C25.9323 25.3733 25.9697 25.2589 25.9573 25.1442C25.742 23.1519 24.3783 21.5413 22.5569 20.9249ZM18.9539 18.7221C18.9539 17.6568 19.8293 16.7901 20.9053 16.7901C21.9814 16.7901 22.8567 17.6567 22.8567 18.7221C22.8567 19.7872 21.9819 20.6536 20.9064 20.6542C20.906 20.6542 20.9057 20.6542 20.9053 20.6542C20.9049 20.6542 20.9045 20.6542 20.9041 20.6542C19.8287 20.6535 18.9539 19.7871 18.9539 18.7221ZM11.2886 18.7221C11.2886 17.6568 12.164 16.7901 13.24 16.7901C14.316 16.7901 15.1914 17.6567 15.1914 18.7221C15.1914 19.7872 14.3165 20.6537 13.2411 20.6542C13.2407 20.6542 13.2403 20.6542 13.24 20.6542C13.2397 20.6542 13.2393 20.6542 13.239 20.6542C12.1634 20.6536 11.2886 19.7871 11.2886 18.7221ZM3.62334 18.7221C3.62334 17.6568 4.49869 16.7901 5.57473 16.7901C6.65072 16.7901 7.52607 17.6567 7.52607 18.7221C7.52607 19.7871 6.65134 20.6535 5.57596 20.6542C5.57555 20.6542 5.57514 20.6542 5.57473 20.6542C5.57442 20.6542 5.57406 20.6542 5.57371 20.6542C4.49812 20.6536 3.62334 19.7871 3.62334 18.7221ZM5.57365 21.4667H5.57473C5.57514 21.4667 5.57555 21.4666 5.57591 21.4666C6.8745 21.467 8.09918 22.0559 8.90503 23.0545C8.58458 23.573 8.35604 24.1552 8.24197 24.7811L1.41175 24.7813C1.8313 22.8631 3.54635 21.4671 5.57365 21.4667ZM9.07711 24.7813C9.4966 22.8631 11.2116 21.4671 13.239 21.4667H13.24C13.24 21.4667 13.2408 21.4667 13.2411 21.4667C15.2684 21.4672 16.9834 22.8631 17.403 24.7812L9.07711 24.7813ZM18.238 24.7812C18.1239 24.1553 17.8954 23.573 17.5749 23.0546C18.3807 22.0559 19.6055 21.4671 20.9041 21.4667C20.9045 21.4667 20.9049 21.4667 20.9053 21.4667H20.9064C22.9337 21.4672 24.6487 22.8631 25.0683 24.7813H18.238V24.7812ZM0.930609 15.9094H3.47773C3.70432 15.9094 3.88804 15.7275 3.88804 15.5032V12.8228C3.88804 12.5985 3.70432 12.4166 3.47773 12.4166H0.930609C0.704014 12.4166 0.520296 12.5985 0.520296 12.8228V15.5032C0.520296 15.7275 0.704014 15.9094 0.930609 15.9094ZM1.34092 13.2291H3.06741V15.0969H1.34092V13.2291ZM6.43587 9.91865C6.20928 9.91865 6.02556 10.1005 6.02556 10.3249V15.5032C6.02556 15.7275 6.20928 15.9094 6.43587 15.9094H8.98294C9.20954 15.9094 9.39325 15.7275 9.39325 15.5032V10.3249C9.39325 10.1005 9.20954 9.91865 8.98294 9.91865H6.43587ZM8.57263 15.0969H6.84619V10.7311H8.57263V15.0969ZM14.4882 7.42061H11.9411C11.7145 7.42061 11.5308 7.60251 11.5308 7.82686V15.5032C11.5308 15.7275 11.7145 15.9094 11.9411 15.9094H14.4882C14.7148 15.9094 14.8985 15.7275 14.8985 15.5032V7.82686C14.8985 7.60251 14.7148 7.42061 14.4882 7.42061ZM14.0778 15.0969H12.3514V8.23311H14.0778V15.0969ZM17.4463 15.9094H19.9934C20.22 15.9094 20.4037 15.7275 20.4037 15.5032V9.09985C20.7549 9.18816 21.1225 9.23528 21.5011 9.23528C23.9596 9.23528 25.9597 7.25492 25.9597 4.82077C25.9597 2.38662 23.9596 0.406251 21.501 0.406251C19.0425 0.406251 17.0424 2.38662 17.0424 4.82077C17.0424 4.99266 17.0527 5.16212 17.0721 5.32894H17.0359V15.5032C17.036 15.7275 17.2197 15.9094 17.4463 15.9094ZM21.501 1.21875C23.5071 1.21875 25.139 2.83461 25.139 4.82077C25.139 6.80692 23.5071 8.42278 21.501 8.42278C19.4949 8.42278 17.863 6.80692 17.863 4.82077C17.863 2.83461 19.495 1.21875 21.501 1.21875ZM19.5831 8.80547V15.0969H17.8566V7.36105C18.2959 7.97708 18.8903 8.47722 19.5831 8.80547ZM1.30574 9.37153C1.19239 9.17724 1.25968 8.92877 1.45591 8.81659L14.4325 1.39872L13.3466 1.21276C13.1233 1.17452 12.9736 0.964286 13.0122 0.743236C13.0508 0.522134 13.2634 0.373751 13.4864 0.412142L15.6888 0.789294C15.8087 0.80981 15.9133 0.882072 15.9742 0.986478C16.0351 1.09088 16.046 1.21667 16.004 1.32981L15.2326 3.40676C15.1716 3.57109 15.0145 3.67291 14.8474 3.67291C14.8004 3.67291 14.7526 3.66483 14.7059 3.64782C14.4932 3.57043 14.3842 3.33689 14.4624 3.12635L14.8427 2.10229L1.86622 9.52022C1.8016 9.55713 1.73103 9.57471 1.66148 9.57471C1.51961 9.57471 1.38175 9.50183 1.30574 9.37153ZM19.8042 5.99727C19.7494 5.77957 19.8832 5.55908 20.103 5.50479C20.3228 5.45051 20.5456 5.58299 20.6004 5.80069C20.7123 6.24523 21.1793 6.39224 21.544 6.38412C21.8602 6.37665 22.1648 6.26626 22.3018 6.10934C22.3738 6.02687 22.4004 5.9311 22.3853 5.80801C22.3592 5.59574 22.2281 5.33559 21.4382 5.20716C20.2329 5.01125 19.9514 4.38689 19.9275 3.89756C19.8944 3.22486 20.3614 2.66175 21.0906 2.4927V2.28429C21.0906 2.05994 21.2744 1.87804 21.501 1.87804C21.7276 1.87804 21.9113 2.05994 21.9113 2.28429V2.48909C22.3848 2.5932 22.8356 2.89042 23.0711 3.44576C23.1589 3.65265 23.0606 3.89076 22.8517 3.9776C22.6431 4.06438 22.4023 3.96719 22.3145 3.7603C22.1247 3.31287 21.6606 3.19765 21.2848 3.28215C21.1914 3.30312 20.726 3.42956 20.7471 3.85811C20.7527 3.97206 20.7675 4.27467 21.5711 4.40533C22.5656 4.56701 23.1135 5.00592 23.1999 5.70995C23.243 6.06176 23.1471 6.38361 22.9225 6.64072C22.6923 6.90427 22.3283 7.08906 21.9113 7.16214V7.35704C21.9113 7.58139 21.7276 7.76329 21.501 7.76329C21.2744 7.76329 21.0906 7.58139 21.0906 7.35704V7.15544C20.4478 7.02508 19.9548 6.59522 19.8042 5.99727Z" fill="#094876"/>
</g>
<defs>
<clipPath id="clip0_127_691">
<rect width="26.26" height="26" fill="white" transform="translate(0.109985)"/>
</clipPath>
</defs>
</svg>
