<svg width="26" height="26" viewBox="0 0 26 26" fill="none" xmlns="http://www.w3.org/2000/svg">
<path d="M19.4594 18.4438V17.3875C19.4594 15.6 18.4031 14.0156 16.7781 13.2844L13.2031 11.7C13.8125 11.05 14.1781 10.1563 14.1781 9.2625L15.1531 8.775C15.5594 8.57188 15.8438 8.16563 15.8438 7.67813V7.39375C15.8438 6.70313 15.3156 6.175 14.625 6.175H14.2188V3.33125C14.2188 2.19375 13.325 1.3 12.1875 1.3H11.9844C11.4562 1.3 10.9281 1.09688 10.5625 0.690625L9.87188 0L7.55625 0.771875C7.27188 0.853125 6.9875 1.01562 6.74375 1.17812L6.41875 1.42188C5.64687 1.99063 5.24062 2.84375 5.24062 3.7375V6.175H4.83437C4.14375 6.175 3.61562 6.70313 3.61562 7.39375V7.71875C3.61562 8.16562 3.85938 8.6125 4.30625 8.81563L5.28125 9.30313C5.28125 10.1969 5.64687 11.05 6.25625 11.7406L2.68125 13.325C1.05625 14.0562 0 15.6406 0 17.4281V24.4563H19.0938C19.7844 24.4563 20.3125 23.9281 20.3125 23.2375V19.5813C20.2719 19.0531 19.9469 18.6063 19.4594 18.4438ZM14.1781 6.9875H14.5844C14.8281 6.9875 14.9906 7.15 14.9906 7.39375V7.71875C14.9906 7.88125 14.9094 8.00313 14.7469 8.08438L14.1781 8.36875V6.9875ZM5.24062 8.36875L4.67188 8.08438C4.55 8.00313 4.42812 7.88125 4.42812 7.71875V7.39375C4.42812 7.15 4.59062 6.9875 4.83437 6.9875H5.24062V8.36875ZM14.3813 13.1219L12.5125 14.9906L10.6031 13.3656C10.8063 13.2844 10.9688 13.2031 11.1312 13.1219L12.35 12.3906C12.3906 12.3906 12.3906 12.35 12.4313 12.3094L14.3813 13.1219ZM6.05312 3.7375C6.05312 3.0875 6.3375 2.47812 6.86562 2.1125L7.19062 1.86875C7.35312 1.74688 7.55625 1.625 7.75938 1.58437L9.5875 0.975L9.9125 1.3C10.4406 1.82812 11.1719 2.15313 11.9437 2.15313H12.1469C12.8375 2.15313 13.3656 2.68125 13.3656 3.37188V5.07812C13.2438 5.0375 13.0813 4.99688 12.9594 4.99688H10.4C9.83125 4.99688 9.30313 4.7125 8.97813 4.26562L8.85625 4.14375C8.45 3.61562 7.75937 3.49375 7.19062 3.85938L6.05312 4.59063V3.7375ZM6.90625 12.2688C6.94688 12.2688 6.94687 12.3094 6.9875 12.35L8.20625 13.0813C8.36875 13.2031 8.57187 13.2844 8.73438 13.325L6.825 14.95L4.95625 13.0813L6.90625 12.2688ZM9.30312 23.6438H4.83437V19.175H4.02187V23.6438H0.771875V17.3469C0.771875 15.8844 1.625 14.5844 2.96562 14.0156L4.225 13.4469L6.825 16.0469L9.30312 13.9344V23.6438ZM8.65312 12.3906L7.43437 11.6594C6.58125 11.1313 6.05312 10.2375 6.05312 9.22188V5.80938C6.05312 5.6875 6.13437 5.56563 6.21562 5.48438L7.6375 4.50937C7.8 4.3875 8.04375 4.42812 8.20625 4.59063L8.32812 4.7125C8.81563 5.3625 9.5875 5.72813 10.4 5.76875H12.9594C13.2031 5.76875 13.3656 5.93125 13.3656 6.175V9.22188C13.3656 10.2375 12.8375 11.1313 11.9844 11.6594L10.7656 12.3906C10.1156 12.7969 9.30312 12.7969 8.65312 12.3906ZM12.2281 23.6438H10.1156V13.975L12.5937 16.0875L15.1938 13.4875L16.4531 14.0563C17.7938 14.625 18.6469 15.9656 18.6469 17.3875V18.3625H17.8344V17.9563C17.8344 17.2656 17.3063 16.7375 16.6156 16.7375H15.8031C15.1125 16.7375 14.5844 17.2656 14.5844 17.9563V18.3625H13.3656C12.675 18.3625 12.1469 18.8906 12.1469 19.5813V23.2375C12.1469 23.3594 12.1875 23.5219 12.2281 23.6438ZM17.0219 17.9563V18.3625H15.3969V17.9563C15.3969 17.7125 15.5594 17.55 15.8031 17.55H16.6156C16.8594 17.55 17.0219 17.7125 17.0219 17.9563ZM19.4594 23.2375C19.4594 23.4813 19.2969 23.6438 19.0531 23.6438H13.3656C13.1219 23.6438 12.9594 23.4813 12.9594 23.2375V21.2063H15.8031V22.0188H16.6156V21.2063H19.4594V23.2375ZM19.4594 20.3938H12.9594V19.5813C12.9594 19.3375 13.1219 19.175 13.3656 19.175H19.0531C19.2969 19.175 19.4594 19.3375 19.4594 19.5813V20.3938Z" fill="#094876"/>
</svg>
