<svg width="101" height="101" viewBox="0 0 101 101" fill="none" xmlns="http://www.w3.org/2000/svg">
<path d="M50.5 0C22.6534 0 0 22.6534 0 50.5C0 78.3466 22.6534 101 50.5 101C78.3466 101 101 78.3466 101 50.5C101 22.6534 78.3466 0 50.5 0ZM66.1004 53.4754L45.0586 74.5169C44.238 75.3375 43.1607 75.75 42.0833 75.75C41.006 75.75 39.9285 75.3375 39.1079 74.5169C37.4625 72.8715 37.4625 70.2118 39.1079 68.5664L57.1745 50.5L39.1081 32.4336C37.4627 30.7882 37.4627 28.1285 39.1081 26.4831C40.7535 24.8377 43.4132 24.8377 45.0586 26.4831L66.1004 47.5248C67.7458 49.1702 67.7458 51.8298 66.1004 53.4754Z" fill="#094876"/>
</svg>
