<svg width="26" height="26" viewBox="0 0 26 26" fill="none" xmlns="http://www.w3.org/2000/svg">
<g clip-path="url(#clip0_139_109)">
<path d="M5.65852 19.3544L3.49186 25.4211C3.44446 25.5537 3.46456 25.701 3.54581 25.8161C3.62685 25.9312 3.75888 25.9998 3.89959 26H22.0996C22.2405 25.9998 22.3725 25.9312 22.4536 25.8161C22.5346 25.701 22.5547 25.5537 22.5073 25.4211L20.3407 19.3544C20.2793 19.182 20.1159 19.0669 19.9329 19.0667H14.8863L18.5895 14.2744C20.0188 12.4183 20.7956 10.1425 20.7996 7.79998C20.7996 3.49225 17.3075 -1.52588e-05 12.9996 -1.52588e-05C8.69186 -1.52588e-05 5.19959 3.49225 5.19959 7.79998C5.20361 10.1425 5.98035 12.4183 7.40963 14.2744L11.1129 19.0667H6.06625C5.88323 19.0669 5.7201 19.182 5.65852 19.3544ZM6.26049 20.2454L11.8466 25.1333H4.51446L6.26049 20.2454ZM21.4847 25.1333H14.1527L19.7389 20.2454L21.4847 25.1333ZM6.06625 7.79998C6.06625 3.97087 9.17047 0.866651 12.9996 0.866651C16.8289 0.866651 19.9329 3.97087 19.9329 7.79998C19.9293 9.95099 19.2158 12.0406 17.9036 13.745L12.9996 20.0916L8.0956 13.745C6.78333 12.0406 6.07006 9.95099 6.06625 7.79998ZM12.6568 21.0647C12.7389 21.1709 12.8654 21.2329 12.9996 21.2329C13.1337 21.2329 13.2603 21.1709 13.3424 21.0647L14.2169 19.9333H18.78L13.4329 24.6132V23.8333H12.5663V24.6132L7.21941 19.9333H11.7823L12.6568 21.0647Z" fill="#094876"/>
<path d="M12.5663 22.1H13.4329V22.9667H12.5663V22.1Z" fill="#747474"/>
<path d="M18.6329 23.4H19.4996V24.2667H18.6329V23.4Z" fill="#747474"/>
<path d="M6.49957 23.4H7.36624V24.2667H6.49957V23.4Z" fill="#747474"/>
<path d="M19.1333 8.06667C19.1333 4.71616 16.4172 2 13.0667 2C9.71616 2 7 4.71616 7 8.06667C7 11.4172 9.71616 14.1333 13.0667 14.1333C16.4157 14.1297 19.1297 11.4157 19.1333 8.06667ZM7.86667 8.06667C7.86667 5.19478 10.1948 2.86667 13.0667 2.86667C15.9386 2.86667 18.2667 5.19478 18.2667 8.06667C18.2667 10.9386 15.9386 13.2667 13.0667 13.2667C10.196 13.2635 7.86984 10.9373 7.86667 8.06667Z" fill="#094876"/>
</g>
<defs>
<clipPath id="clip0_139_109">
<rect width="26" height="26" fill="white"/>
</clipPath>
</defs>
</svg>
