<svg width="20" height="19" viewBox="0 0 20 19" fill="none" xmlns="http://www.w3.org/2000/svg">
<g clip-path="url(#clip0_127_677)">
<path d="M4.08602 7.125C2.7469 7.125 1.72287 8.15417 1.72287 9.5C1.72287 10.8458 2.7469 11.875 4.08602 11.875C5.42515 11.875 6.44918 10.8458 6.44918 9.5C6.44918 8.15417 5.42515 7.125 4.08602 7.125ZM4.08602 11.0833C3.21953 11.0833 2.51059 10.3708 2.51059 9.5C2.51059 8.62917 3.21953 7.91667 4.08602 7.91667C4.95251 7.91667 5.66146 8.62917 5.66146 9.5C5.66146 10.3708 4.95251 11.0833 4.08602 11.0833Z" fill="#094876" stroke="#094876" stroke-width="16"/>
<path d="M4.08602 0C2.7469 0 1.72287 1.02917 1.72287 2.375C1.72287 3.72083 2.7469 4.75 4.08602 4.75C5.42515 4.75 6.44918 3.72083 6.44918 2.375C6.44918 1.02917 5.42515 0 4.08602 0ZM4.08602 3.95833C3.21953 3.95833 2.51059 3.24583 2.51059 2.375C2.51059 1.50417 3.21953 0.791667 4.08602 0.791667C4.95251 0.791667 5.66146 1.50417 5.66146 2.375C5.66146 3.24583 4.95251 3.95833 4.08602 3.95833Z" fill="#094876" stroke="#094876" stroke-width="16"/>
<path d="M4.08602 14.25C2.7469 14.25 1.72287 15.2792 1.72287 16.625C1.72287 17.9708 2.7469 19 4.08602 19C5.42515 19 6.44918 17.9708 6.44918 16.625C6.44918 15.2792 5.42515 14.25 4.08602 14.25ZM4.08602 18.2083C3.21953 18.2083 2.51059 17.4958 2.51059 16.625C2.51059 15.7542 3.21953 15.0417 4.08602 15.0417C4.95251 15.0417 5.66146 15.7542 5.66146 16.625C5.66146 17.4958 4.95251 18.2083 4.08602 18.2083Z" fill="#094876" stroke="#094876" stroke-width="16"/>
<mask id="path-4-inside-1_127_677" fill="white">
<path d="M8.02463 0.791672H19.0527V1.58334H8.02463V0.791672Z"/>
</mask>
<path d="M8.02463 0.791672H19.0527V1.58334H8.02463V0.791672Z" fill="#094876"/>
<path d="M8.02463 0.791672V-15.2083H-7.97537V0.791672H8.02463ZM19.0527 0.791672H35.0527V-15.2083H19.0527V0.791672ZM19.0527 1.58334V17.5833H35.0527V1.58334H19.0527ZM8.02463 1.58334H-7.97537V17.5833H8.02463V1.58334ZM8.02463 16.7917H19.0527V-15.2083H8.02463V16.7917ZM3.05268 0.791672V1.58334H35.0527V0.791672H3.05268ZM19.0527 -14.4167H8.02463V17.5833H19.0527V-14.4167ZM24.0246 1.58334V0.791672H-7.97537V1.58334H24.0246Z" fill="#094876" mask="url(#path-4-inside-1_127_677)"/>
<mask id="path-6-inside-2_127_677" fill="white">
<path d="M8.02463 3.16667H13.5387V3.95834H8.02463V3.16667Z"/>
</mask>
<path d="M8.02463 3.16667H13.5387V3.95834H8.02463V3.16667Z" fill="#094876"/>
<path d="M8.02463 3.16667V-12.8333H-7.97537V3.16667H8.02463ZM13.5387 3.16667H29.5387V-12.8333H13.5387V3.16667ZM13.5387 3.95834V19.9583H29.5387V3.95834H13.5387ZM8.02463 3.95834H-7.97537V19.9583H8.02463V3.95834ZM8.02463 19.1667H13.5387V-12.8333H8.02463V19.1667ZM-2.46134 3.16667V3.95834H29.5387V3.16667H-2.46134ZM13.5387 -12.0417H8.02463V19.9583H13.5387V-12.0417ZM24.0246 3.95834V3.16667H-7.97537V3.95834H24.0246Z" fill="#094876" mask="url(#path-6-inside-2_127_677)"/>
<mask id="path-8-inside-3_127_677" fill="white">
<path d="M15.1141 3.16667H16.6895V3.95834H15.1141V3.16667Z"/>
</mask>
<path d="M15.1141 3.16667H16.6895V3.95834H15.1141V3.16667Z" fill="#094876"/>
<path d="M15.1141 3.16667V-12.8333H-0.885925V3.16667H15.1141ZM16.6895 3.16667H32.6895V-12.8333H16.6895V3.16667ZM16.6895 3.95834V19.9583H32.6895V3.95834H16.6895ZM15.1141 3.95834H-0.885925V19.9583H15.1141V3.95834ZM15.1141 19.1667H16.6895V-12.8333H15.1141V19.1667ZM0.689511 3.16667V3.95834H32.6895V3.16667H0.689511ZM16.6895 -12.0417H15.1141V19.9583H16.6895V-12.0417ZM31.1141 3.95834V3.16667H-0.885925V3.95834H31.1141Z" fill="#094876" mask="url(#path-8-inside-3_127_677)"/>
<mask id="path-10-inside-4_127_677" fill="white">
<path d="M11.1755 17.4167H16.6895V18.2083H11.1755V17.4167Z"/>
</mask>
<path d="M11.1755 17.4167H16.6895V18.2083H11.1755V17.4167Z" fill="#094876"/>
<path d="M11.1755 17.4167V1.41667H-4.82452V17.4167H11.1755ZM16.6895 17.4167H32.6895V1.41667H16.6895V17.4167ZM16.6895 18.2083V34.2083H32.6895V18.2083H16.6895ZM11.1755 18.2083H-4.82452V34.2083H11.1755V18.2083ZM11.1755 33.4167H16.6895V1.41667H11.1755V33.4167ZM0.689504 17.4167V18.2083H32.6895V17.4167H0.689504ZM16.6895 2.20834H11.1755V34.2083H16.6895V2.20834ZM27.1755 18.2083V17.4167H-4.82452V18.2083H27.1755Z" fill="#094876" mask="url(#path-10-inside-4_127_677)"/>
<mask id="path-12-inside-5_127_677" fill="white">
<path d="M8.02463 17.4167H9.60006V18.2083H8.02463V17.4167Z"/>
</mask>
<path d="M8.02463 17.4167H9.60006V18.2083H8.02463V17.4167Z" fill="#094876"/>
<path d="M8.02463 17.4167V1.41667H-7.97537V17.4167H8.02463ZM9.60006 17.4167H25.6001V1.41667H9.60006V17.4167ZM9.60006 18.2083V34.2083H25.6001V18.2083H9.60006ZM8.02463 18.2083H-7.97537V34.2083H8.02463V18.2083ZM8.02463 33.4167H9.60006V1.41667H8.02463V33.4167ZM-6.39994 17.4167V18.2083H25.6001V17.4167H-6.39994ZM9.60006 2.20834H8.02463V34.2083H9.60006V2.20834ZM24.0246 18.2083V17.4167H-7.97537V18.2083H24.0246Z" fill="#094876" mask="url(#path-12-inside-5_127_677)"/>
<mask id="path-14-inside-6_127_677" fill="white">
<path d="M8.02463 10.2917H11.9632V11.0833H8.02463V10.2917Z"/>
</mask>
<path d="M8.02463 10.2917H11.9632V11.0833H8.02463V10.2917Z" fill="#094876"/>
<path d="M8.02463 10.2917V-5.70833H-7.97537V10.2917H8.02463ZM11.9632 10.2917H27.9632V-5.70833H11.9632V10.2917ZM11.9632 11.0833V27.0833H27.9632V11.0833H11.9632ZM8.02463 11.0833H-7.97537V27.0833H8.02463V11.0833ZM8.02463 26.2917H11.9632V-5.70833H8.02463V26.2917ZM-4.03678 10.2917V11.0833H27.9632V10.2917H-4.03678ZM11.9632 -4.91666H8.02463V27.0833H11.9632V-4.91666ZM24.0246 11.0833V10.2917H-7.97537V11.0833H24.0246Z" fill="#094876" mask="url(#path-14-inside-6_127_677)"/>
<mask id="path-16-inside-7_127_677" fill="white">
<path d="M13.5386 10.2917H16.6895V11.0833H13.5386V10.2917Z"/>
</mask>
<path d="M13.5386 10.2917H16.6895V11.0833H13.5386V10.2917Z" fill="#094876"/>
<path d="M13.5386 10.2917V-5.70833H-2.46136V10.2917H13.5386ZM16.6895 10.2917H32.6895V-5.70833H16.6895V10.2917ZM16.6895 11.0833V27.0833H32.6895V11.0833H16.6895ZM13.5386 11.0833H-2.46136V27.0833H13.5386V11.0833ZM13.5386 26.2917H16.6895V-5.70833H13.5386V26.2917ZM0.689508 10.2917V11.0833H32.6895V10.2917H0.689508ZM16.6895 -4.91666H13.5386V27.0833H16.6895V-4.91666ZM29.5386 11.0833V10.2917H-2.46136V11.0833H29.5386Z" fill="#094876" mask="url(#path-16-inside-7_127_677)"/>
<mask id="path-18-inside-8_127_677" fill="white">
<path d="M8.02463 7.91667H19.0527V8.70834H8.02463V7.91667Z"/>
</mask>
<path d="M8.02463 7.91667H19.0527V8.70834H8.02463V7.91667Z" fill="#094876"/>
<path d="M8.02463 7.91667V-8.08333H-7.97537V7.91667H8.02463ZM19.0527 7.91667H35.0527V-8.08333H19.0527V7.91667ZM19.0527 8.70834V24.7083H35.0527V8.70834H19.0527ZM8.02463 8.70834H-7.97537V24.7083H8.02463V8.70834ZM8.02463 23.9167H19.0527V-8.08333H8.02463V23.9167ZM3.05268 7.91667V8.70834H35.0527V7.91667H3.05268ZM19.0527 -7.29166H8.02463V24.7083H19.0527V-7.29166ZM24.0246 8.70834V7.91667H-7.97537V8.70834H24.0246Z" fill="#094876" mask="url(#path-18-inside-8_127_677)"/>
<mask id="path-20-inside-9_127_677" fill="white">
<path d="M8.02463 15.0417H19.0527V15.8333H8.02463V15.0417Z"/>
</mask>
<path d="M8.02463 15.0417H19.0527V15.8333H8.02463V15.0417Z" fill="#094876"/>
<path d="M8.02463 15.0417V-0.958328H-7.97537V15.0417H8.02463ZM19.0527 15.0417H35.0527V-0.958328H19.0527V15.0417ZM19.0527 15.8333V31.8333H35.0527V15.8333H19.0527ZM8.02463 15.8333H-7.97537V31.8333H8.02463V15.8333ZM8.02463 31.0417H19.0527V-0.958328H8.02463V31.0417ZM3.05268 15.0417V15.8333H35.0527V15.0417H3.05268ZM19.0527 -0.166661H8.02463V31.8333H19.0527V-0.166661ZM24.0246 15.8333V15.0417H-7.97537V15.8333H24.0246Z" fill="#094876" mask="url(#path-20-inside-9_127_677)"/>
</g>
<defs>
<clipPath id="clip0_127_677">
<rect width="18.9052" height="19" fill="white" transform="translate(0.93515)"/>
</clipPath>
</defs>
</svg>
