<svg width="26" height="25" viewBox="0 0 26 25" fill="none" xmlns="http://www.w3.org/2000/svg">
<path d="M25.1446 5.29202L22.6123 0.224656C22.5435 0.0869883 22.4028 0 22.2489 0C22.095 0 21.9543 0.0869883 21.8855 0.224656L19.3531 5.29202C19.2902 5.41795 19.2969 5.56745 19.371 5.68725C19.445 5.80699 19.5757 5.87986 19.7165 5.87986H20.4614V9.43998C20.4614 9.66433 20.6433 9.84623 20.8676 9.84623H23.6302C23.8546 9.84623 24.0365 9.66433 24.0365 9.43998V5.87986H24.7812C24.922 5.87986 25.0528 5.80694 25.1268 5.68725C25.2009 5.56755 25.2076 5.41795 25.1446 5.29202ZM23.6302 5.06741C23.4058 5.06741 23.2239 5.24931 23.2239 5.47366V9.03378H21.2738V5.47366C21.2738 5.24931 21.0919 5.06741 20.8675 5.06741H20.3736L22.2488 1.31508L24.124 5.06741H23.6302ZM18.5199 13.0775H15.7715C15.5472 13.0775 15.3653 13.2594 15.3653 13.4838V24.4035C15.3653 24.6279 15.5472 24.8098 15.7715 24.8098H18.5199C18.7443 24.8098 18.9262 24.6279 18.9262 24.4035V13.4838C18.9262 13.2594 18.7443 13.0775 18.5199 13.0775ZM18.1137 23.9973H16.1778V13.89H18.1137V23.9973ZM23.623 10.4826H20.8747C20.6503 10.4826 20.4685 10.6645 20.4685 10.8889V24.4035C20.4685 24.6279 20.6503 24.8098 20.8747 24.8098H23.623C23.8474 24.8098 24.0293 24.6279 24.0293 24.4035V10.8889C24.0293 10.6645 23.8474 10.4826 23.623 10.4826ZM23.2168 23.9973H21.281V11.2951H23.2168V23.9973ZM3.15458 21.429H0.40625C0.181898 21.429 0 21.6109 0 21.8352V24.4035C0 24.6279 0.181898 24.8098 0.40625 24.8098H3.15453C3.37888 24.8098 3.56078 24.6279 3.56078 24.4035V21.8352C3.56083 21.6109 3.37893 21.429 3.15458 21.429ZM2.74833 23.9973H0.8125V22.2415H2.74828L2.74833 23.9973ZM18.6263 5.91972C18.7314 5.81455 18.7708 5.66033 18.7287 5.51764C18.6867 5.37494 18.57 5.26668 18.4247 5.23534L16.5023 4.82107L17.4119 3.91148C17.5705 3.75284 17.5705 3.49563 17.4119 3.33699C17.2531 3.1783 16.996 3.17835 16.8373 3.33699L15.9278 4.24653L15.5135 2.32416C15.4821 2.17877 15.3738 2.06212 15.2311 2.02008C15.0886 1.97808 14.9343 2.01734 14.829 2.1225L11.8354 5.11621C11.7378 5.21376 11.6965 5.35417 11.7255 5.48905L12.2503 7.92401L11.8827 8.29166C10.6658 7.20946 9.0643 6.55093 7.31164 6.55093C3.51452 6.55093 0.425344 9.64011 0.425344 13.4372C0.425344 16.4828 2.41282 19.0725 5.15882 19.9785V24.4035C5.15882 24.6278 5.34071 24.8097 5.56507 24.8097H8.3134C8.53775 24.8097 8.71965 24.6278 8.71965 24.4035V20.1785C9.2595 20.0659 9.7763 19.8898 10.262 19.6585V24.4035C10.262 24.6279 10.4439 24.8098 10.6683 24.8098H13.4167C13.641 24.8098 13.8229 24.6279 13.8229 24.4035V16.3684C13.8229 16.2442 13.7669 16.1331 13.679 16.0586C14.0131 15.2501 14.1979 14.3649 14.1979 13.4372C14.1979 11.6845 13.5394 10.083 12.4572 8.86615L12.8248 8.49855L15.2598 9.02332C15.2883 9.02946 15.3169 9.03246 15.3454 9.03246C15.452 9.03246 15.5557 8.99046 15.6327 8.91348L18.6263 5.91972ZM12.5663 5.53419L14.8762 3.22425L15.2439 4.93025L12.934 7.24019L12.5663 5.53419ZM7.9071 23.9973H5.97127V20.1921C6.40499 20.2781 6.85308 20.3235 7.31164 20.3235C7.51227 20.3235 7.71078 20.3144 7.90715 20.2975V23.9973H7.9071ZM13.0104 23.9973H11.0745V19.2016C11.8384 18.7013 12.4974 18.0536 13.0104 17.2989V23.9973ZM13.3854 13.4372C13.3854 16.7864 10.6607 19.511 7.31164 19.511C3.96251 19.511 1.23784 16.7864 1.23784 13.4372C1.23784 10.0881 3.96251 7.36343 7.31164 7.36343C8.8403 7.36343 10.2387 7.93132 11.3074 8.86686L10.2339 9.94043C9.44201 9.27758 8.42268 8.87788 7.31164 8.87788C4.79761 8.87788 2.75229 10.9232 2.75229 13.4372C2.75229 15.9513 4.79761 17.9966 7.31164 17.9966C9.82566 17.9966 11.8709 15.9513 11.8709 13.4372C11.8709 12.3262 11.4713 11.3069 10.8084 10.515L11.8819 9.4414C12.8175 10.5102 13.3854 11.9086 13.3854 13.4372ZM8.58381 13.4372C8.58381 14.1387 8.01313 14.7095 7.31164 14.7095C6.61014 14.7095 6.03941 14.1387 6.03941 13.4372C6.03941 12.7357 6.61009 12.165 7.31164 12.165C7.51446 12.165 7.70621 12.2129 7.87653 12.2977L7.02437 13.15C6.86573 13.3086 6.86573 13.5658 7.02437 13.7244C7.10369 13.8038 7.20764 13.8434 7.31164 13.8434C7.41564 13.8434 7.51959 13.8038 7.59891 13.7244L8.45107 12.8723C8.53582 13.0427 8.58381 13.2344 8.58381 13.4372ZM8.4696 11.7047C8.13815 11.4825 7.73982 11.3526 7.31164 11.3526C6.1621 11.3526 5.22691 12.2877 5.22691 13.4373C5.22691 14.5868 6.1621 15.522 7.31164 15.522C8.46112 15.522 9.39631 14.5868 9.39631 13.4373C9.39631 13.0091 9.26641 12.6108 9.04414 12.2793L10.231 11.0925C10.7481 11.7349 11.0584 12.5503 11.0584 13.4373C11.0584 15.5033 9.37762 17.1841 7.31164 17.1841C5.24565 17.1841 3.56479 15.5033 3.56479 13.4373C3.56479 11.3713 5.24565 9.69043 7.31164 9.69043C8.19858 9.69043 9.01403 10.0009 9.65646 10.5179L8.4696 11.7047ZM15.2146 8.18243L13.5086 7.81478L15.8185 5.50484L17.5246 5.8725L15.2146 8.18243Z" fill="#094876"/>
</svg>
