<svg width="24" height="24" viewBox="0 0 24 24" fill="none" xmlns="http://www.w3.org/2000/svg">
<path d="M23.5103 24C23.499 24 23.4876 23.9997 23.4763 23.9989L18.5134 23.6533C18.2436 23.6345 18.0402 23.4004 18.0588 23.1307C18.0776 22.8609 18.3148 22.6585 18.5814 22.6761L22.9827 22.9827L22.6761 18.5814C22.6575 18.3117 22.8609 18.0776 23.1307 18.0588C23.3967 18.0391 23.6345 18.2436 23.6533 18.5135L23.9989 23.4763C24.0087 23.6175 23.9568 23.7565 23.8565 23.8565C23.7643 23.9486 23.6397 24 23.5103 24Z" fill="#094876"/>
<path d="M0.834876 5.94258C0.579884 5.94258 0.364724 5.74506 0.346767 5.4868L0.00117283 0.52376C-0.008622 0.382551 0.0432905 0.243628 0.143524 0.143558C0.243595 0.0433239 0.382028 -0.0087519 0.523727 0.00120617L5.4866 0.3468C5.75645 0.365573 5.95986 0.59967 5.94125 0.869354C5.92247 1.1392 5.68315 1.3431 5.41869 1.324L1.01739 1.01742L1.32396 5.41872C1.34257 5.68841 1.13917 5.9225 0.869321 5.94128C0.857894 5.94226 0.846467 5.94258 0.834876 5.94258Z" fill="#094876"/>
<path d="M21.1908 21.6806C21.0654 21.6806 20.9402 21.6327 20.8446 21.5371L14.7094 15.4019C14.5181 15.2107 14.5181 14.9006 14.7094 14.7094C14.9007 14.5181 15.2106 14.5181 15.4019 14.7094L21.5371 20.8446C21.7284 21.0357 21.7284 21.3459 21.5371 21.5371C21.4414 21.6327 21.316 21.6806 21.1908 21.6806Z" fill="#094876"/>
<path d="M13.1339 13.6237C13.0085 13.6237 12.8833 13.5759 12.7876 13.4802L10.5198 11.2124C10.3285 11.0212 10.3285 10.7111 10.5198 10.5199C10.7111 10.3286 11.0209 10.3286 11.2123 10.5199L13.4803 12.7879C13.6716 12.9791 13.6716 13.2892 13.4803 13.4804C13.3844 13.5759 13.2592 13.6237 13.1339 13.6237Z" fill="#094876"/>
<path d="M8.94435 9.43415C8.81898 9.43415 8.69377 9.38632 8.59811 9.29066L2.46295 3.15551C2.27163 2.96435 2.27163 2.65418 2.46295 2.46301C2.65428 2.27169 2.96412 2.27169 3.15545 2.46301L9.2906 8.59817C9.48193 8.78933 9.48193 9.0995 9.2906 9.29066C9.19494 9.38632 9.06973 9.43415 8.94435 9.43415Z" fill="#094876"/>
<path d="M0.489771 24C0.360317 24 0.235596 23.9488 0.143524 23.8565C0.0432905 23.7565 -0.008622 23.6176 0.00117283 23.4763L0.346767 18.5135C0.36554 18.2436 0.603228 18.041 0.869321 18.0588C1.13917 18.0776 1.34257 18.3117 1.32396 18.5814L1.01739 22.9827L5.41869 22.6761C5.6856 22.6593 5.92247 22.8611 5.94125 23.1308C5.95986 23.4004 5.75645 23.6345 5.4866 23.6533L0.523727 23.9989C0.512463 23.9997 0.501199 24 0.489771 24Z" fill="#094876"/>
<path d="M23.1652 5.94258C23.1537 5.94258 23.1422 5.94225 23.1307 5.94143C22.8609 5.92266 22.6575 5.68856 22.6761 5.41888L22.9827 1.01757L18.5814 1.32415C18.3136 1.34244 18.0776 1.13936 18.0588 0.86951C18.0402 0.599826 18.2436 0.36573 18.5134 0.346956L23.4763 0.0013619C23.6165 -0.00875942 23.7563 0.0434796 23.8565 0.143713C23.9568 0.243784 24.0087 0.382707 23.9989 0.523916L23.6533 5.48679C23.6352 5.74505 23.42 5.94258 23.1652 5.94258Z" fill="#094876"/>
<path d="M2.8092 21.6806C2.68383 21.6806 2.55862 21.6327 2.46295 21.5371C2.27163 21.3459 2.27163 21.0357 2.46295 20.8446L8.59811 14.7094C8.78943 14.5181 9.09927 14.5181 9.2906 14.7094C9.48193 14.9006 9.48193 15.2107 9.2906 15.4019L3.15545 21.5371C3.05978 21.6327 2.93457 21.6806 2.8092 21.6806Z" fill="#094876"/>
<path d="M15.0557 9.43415C14.9303 9.43415 14.8051 9.38632 14.7094 9.29066C14.5181 9.0995 14.5181 8.78933 14.7094 8.59817L20.8446 2.46301C21.0359 2.27169 21.3457 2.27169 21.5371 2.46301C21.7284 2.65418 21.7284 2.96435 21.5371 3.15551L15.4019 9.29066C15.3062 9.38632 15.1809 9.43415 15.0557 9.43415Z" fill="#094876"/>
<path d="M10.866 13.6238C10.7406 13.6238 10.6154 13.5759 10.5198 13.4803C10.3285 13.2891 10.3285 12.9789 10.5198 12.7878L12.7878 10.5198C12.9791 10.3285 13.2889 10.3285 13.4803 10.5198C13.6716 10.7109 13.6716 11.0211 13.4803 11.2123L11.2123 13.4803C11.1166 13.5759 10.9912 13.6238 10.866 13.6238Z" fill="#094876"/>
</svg>
