<svg xmlns="http://www.w3.org/2000/svg" version="1.1" xmlns:xlink="http://www.w3.org/1999/xlink" width="512" height="512" x="0" y="0" viewBox="0 0 512 512" style="enable-background:new 0 0 512 512" xml:space="preserve" class=""><g><g data-name="21.Bill"><path d="M155.44 160.93h.9q13.13 0 17.69-3.31t4.56-9.63a13.48 13.48 0 0 0-5.35-11.28q-5.36-4.14-17.8-4.14a4.38 4.38 0 0 0-4.38 4.37v19.61a4.38 4.38 0 0 0 4.38 4.38z" fill="#3d2e97" opacity="1" data-original="#000000"></path><path d="M443.28 11.84c-4.07 3.86-9.16 8.68-18.88 8.68s-14.8-4.82-18.88-8.68C402 8.45 399.37 6 393.77 6S385.6 8.45 382 11.84c-4.09 3.86-9.16 8.68-18.89 8.68s-14.79-4.82-18.88-8.68C340.7 8.45 338.12 6 332.53 6s-8.17 2.45-11.74 5.84c-4.08 3.86-9.15 8.68-18.88 8.68s-14.8-4.82-18.91-8.68C279.46 8.45 276.88 6 271.29 6s-8.17 2.45-11.74 5.84c-4.08 3.86-9.16 8.68-18.87 8.68s-14.8-4.82-18.88-8.68C218.23 8.45 215.65 6 210.06 6s-8.17 2.45-11.75 5.84c-4.07 3.86-9.15 8.68-18.87 8.68s-14.8-4.82-18.88-8.68C157 8.45 154.4 6 148.81 6s-8.16 2.45-11.73 5.84c-4.08 3.86-9.16 8.68-18.88 8.68s-14.8-4.82-18.87-8.68C95.75 8.45 93.17 6 87.58 6s-8.17 2.45-11.74 5.84c-2.74 2.6-6 5.64-10.71 7.34v466.17a20.65 20.65 0 0 0 25 20.18L430.59 432a20.65 20.65 0 0 0 16.28-20.18V8.67a41.27 41.27 0 0 0-3.59 3.17zm-113 69.54a11 11 0 0 1 11-11 10 10 0 0 1 10 10v74a6.48 6.48 0 0 0 6.48 6.48H372a10 10 0 0 1 10 10 10 10 0 0 1-10 10h-35.27a6.48 6.48 0 0 1-6.48-6.48zm-67.78-.49a10.53 10.53 0 1 1 21.06 0v73.82a6.23 6.23 0 0 0 6.22 6.22h14.43a10 10 0 0 1 10 10 10 10 0 0 1-10 10h-35.52a6.21 6.21 0 0 1-6.22-6.22zm-44.61-.08a10.46 10.46 0 0 1 20.91 0v89.75a10.46 10.46 0 0 1-20.91 0zM130 79.14a8.78 8.78 0 0 1 8.78-8.78h8.62q15.14 0 22.14 2a29.72 29.72 0 0 1 15.82 9.78 25.75 25.75 0 0 1 5.87 16.85 24.58 24.58 0 0 1-2.67 11.48 29.26 29.26 0 0 1-8.69 9.66q10.08 4.74 14.75 11.85a29.93 29.93 0 0 1 4.66 16.81 31.33 31.33 0 0 1-4.82 17A30.69 30.69 0 0 1 182 177.21q-7.6 3.81-21 3.8h-22.22a8.78 8.78 0 0 1-8.78-8.78zM394.5 404h-277a6 6 0 0 1 0-12h277a6 6 0 0 1 0 12zm0-50h-277a6 6 0 0 1 0-12h277a6 6 0 0 1 0 12zm0-50h-277a6 6 0 0 1 0-12h277a6 6 0 0 1 0 12zm0-50h-277a6 6 0 0 1 0-12h277a6 6 0 0 1 0 12z" fill="#3d2e97" opacity="1" data-original="#000000"></path><path d="M155.44 113.76h.23q7.7 0 11.44-3.23a11 11 0 0 0 3.74-8.8 10.32 10.32 0 0 0-3.55-8.24q-3.56-3-10.8-3h-1.06a4.38 4.38 0 0 0-4.38 4.38v14.57a4.38 4.38 0 0 0 4.38 4.32z" fill="#3d2e97" opacity="1" data-original="#000000"></path></g></g></svg>