<svg xmlns="http://www.w3.org/2000/svg" version="1.1" xmlns:xlink="http://www.w3.org/1999/xlink" width="512" height="512" x="0" y="0" viewBox="0 0 48 48" style="enable-background:new 0 0 512 512" xml:space="preserve" class=""><g><path d="m33.92 26.86-4.05-2.2L25 45h11V30.37a4 4 0 0 0-2.08-3.51ZM18 9a5 5 0 1 0-5 5 4.94 4.94 0 0 0 2.93-1 9 9 0 0 1 1.81-2.5A4.7 4.7 0 0 0 18 9Z" fill="#ee5f23" opacity="1" data-original="#000000"></path><circle cx="24" cy="17" r="7" fill="#ee5f23" opacity="1" data-original="#000000"></circle><path d="M40 9a5 5 0 0 0-10 0 4.7 4.7 0 0 0 .26 1.54A9 9 0 0 1 32.07 13 4.94 4.94 0 0 0 35 14a5 5 0 0 0 5-5ZM15 17a8.33 8.33 0 0 1 .11-1.33A7.1 7.1 0 0 1 13 16a7 7 0 0 1-4-1.25L5.6 16A4 4 0 0 0 3 19.77V34h7v-3.63a6 6 0 0 1 3.13-5.26l4.07-2.23A9 9 0 0 1 15 17ZM42.4 16 39 14.75A7 7 0 0 1 35 16a7.1 7.1 0 0 1-2.11-.33A8.33 8.33 0 0 1 33 17a9 9 0 0 1-2.2 5.88l4.07 2.23A6 6 0 0 1 38 30.37V34h7V19.77A4 4 0 0 0 42.4 16ZM25 28v8.48l-1 4.2-1-4.2V28a1 1 0 0 1 2 0Z" fill="#ee5f23" opacity="1" data-original="#000000"></path><path d="M25 28v8.48l-1 4.2-1-4.2V28a1 1 0 0 1 2 0ZM14.08 26.86A4 4 0 0 0 12 30.37V45h11l-4.87-20.34Z" fill="#ee5f23" opacity="1" data-original="#000000"></path></g></svg>