<svg xmlns="http://www.w3.org/2000/svg" version="1.1" xmlns:xlink="http://www.w3.org/1999/xlink" width="512" height="512" x="0" y="0" viewBox="0 0 512 512" style="enable-background:new 0 0 512 512" xml:space="preserve" class=""><g><path fill-rule="evenodd" d="M494.722 199.029c-40.26-8.135-80.519-4.058-120.779 12.232a4.997 4.997 0 0 0-2.849 6.271l56.867 164.212c.71 2.05 2.555 3.363 4.725 3.363h62.036zM146.967 12.181c21.765 0 39.409 17.427 39.409 38.925s-17.644 38.925-39.409 38.925-39.409-17.427-39.409-38.925 17.644-38.925 39.409-38.925zM256 40.906c21.765 0 39.409 17.427 39.409 38.925S277.765 118.756 256 118.756s-39.409-17.427-39.409-38.925S234.235 40.906 256 40.906zm109.034-28.725c21.765 0 39.409 17.427 39.409 38.925s-17.644 38.925-39.409 38.925-39.409-17.427-39.409-38.925 17.644-38.925 39.409-38.925zM188.848 295.369c0-7.725 2.696-14.007 8.328-19.302l41.135-38.678c23.95-22.518 46.075-18.029 73.997-9.19 16.274 5.151 32.105 10.161 50.533 11.338l44.945 129.786c-5.423 2.699-10.996 5.377-17.058 7.851-10.194 4.16-20.978 2.001-28.769-5.784l-89.667-89.612a7.478 7.478 0 0 0-10.245-.284c-.003-.003-2.997 2.486-3.265 2.702-9.184 7.413-24.577 19.837-24.577 40.39 0 11.762-5.706 21.507-14.389 28.535-8.358 6.766-19.421 11.079-30.968 12.395zm-41.415-50.843c7.254 1.845 14.305 3.117 21.342 3.859 12.082 1.274 24.001.972 36.723-.683l-18.576 17.467c-8.531 8.021-13.074 18.487-13.074 30.2v78.077a7.5 7.5 0 0 0 7.5 7.5c17.439 0 35.053-5.82 47.902-16.221 12.041-9.747 19.955-23.434 19.955-40.137 0-12.453 10.199-21.594 17.33-27.416l84.876 84.824c4.07 4.068 8.747 7.154 13.776 9.207 3.422 3.577 6.835 7.161 10.249 10.745 6.058 6.334 6.426 16.4.117 22.709-6.161 6.161-16.401 6.161-22.562 0-16.457-16.456-32.63-33.299-48.903-49.974a7.48 7.48 0 1 0-10.723 10.429l44.644 45.773c6.197 6.197 6.194 16.365-.002 22.561-6.194 6.195-16.365 6.196-22.56.001-17.159-17.16-34.014-34.667-50.979-52.05a7.479 7.479 0 1 0-10.722 10.43L298.39 457.6c6.162 6.162 6.164 16.398.001 22.56-5.955 5.955-17.176 5.386-22.562.001-18.632-18.632-36.934-37.55-55.352-56.423a7.48 7.48 0 1 0-10.722 10.429l44.643 45.773c4.547 4.548 4.502 12.059-.078 16.556-4.45 4.343-11.772 4.497-16.213.056-.178.178-73.462-75.245-80.142-82.09-16.938-17.352-32.026-32.755-54.152-43.979zm43.128-44.525h130.877v-31.359c0-20.96-11.74-39.309-28.967-48.803-9.679 8.663-22.495 13.916-36.472 13.916s-26.793-5.254-36.472-13.916c-17.227 9.494-28.967 27.843-28.967 48.803v31.359zm145.877-28.725v-2.634c0-23.365-11.466-44.155-29.051-57.037a56.322 56.322 0 0 1 21.175-20.49 54.555 54.555 0 0 0 36.471 13.916 54.558 54.558 0 0 0 36.472-13.916c17.227 9.493 28.967 27.843 28.967 48.802v31.359zm-254.91 0v-31.359c0-20.96 11.739-39.309 28.967-48.802 9.679 8.663 22.495 13.916 36.472 13.916s26.792-5.253 36.471-13.916a56.329 56.329 0 0 1 21.175 20.49c-17.585 12.882-29.051 33.672-29.051 57.037v2.634zm-64.25 27.753v186.079h62.037c2.169 0 4.015-1.314 4.724-3.363l56.868-164.212a4.996 4.996 0 0 0-2.849-6.271c-40.26-16.29-80.52-20.368-120.78-12.233z" clip-rule="evenodd" fill="#ee5f23" opacity="1" data-original="#000000" class=""></path></g></svg>