<svg xmlns="http://www.w3.org/2000/svg" version="1.1" xmlns:xlink="http://www.w3.org/1999/xlink" width="512" height="512" x="0" y="0" viewBox="0 0 100 100" style="enable-background:new 0 0 512 512" xml:space="preserve" class=""><g transform="matrix(1.2500000000000007,0,0,1.2500000000000007,-12.646250009536764,-12.875000000000007)"><path d="M86 31H53c-1.65 0-3 1.35-3 3v47c0 1.65 1.35 3 3 3h33c1.65 0 3-1.35 3-3V34c0-1.65-1.35-3-3-3zM67 78c0 .55-.45 1-1 1H56c-.55 0-1-.45-1-1v-9c0-.55.45-1 1-1h10c.55 0 1 .45 1 1zm0-16c0 .55-.45 1-1 1H56c-.55 0-1-.45-1-1v-9c0-.55.45-1 1-1h10c.55 0 1 .45 1 1zm17 16c0 .55-.45 1-1 1H73c-.55 0-1-.45-1-1v-9c0-.55.45-1 1-1h10c.55 0 1 .45 1 1zm0-16c0 .55-.45 1-1 1H73c-.55 0-1-.45-1-1v-9c0-.55.45-1 1-1h10c.55 0 1 .45 1 1zm0-16c0 .55-.45 1-1 1H56c-.55 0-1-.45-1-1v-9c0-.55.45-1 1-1h27c.55 0 1 .45 1 1zM33.74 74v2.64c0 1.94-4.61 4.1-10.78 4.1s-10.79-2.16-10.79-4.1V74c2.23 1.68 6.14 2.74 10.79 2.74 4.64 0 8.55-1.06 10.78-2.74z" fill="#0b7609" opacity="1" data-original="#000000"></path><path d="M33.74 68v2.64c0 1.94-4.61 4.1-10.78 4.1s-10.79-2.16-10.79-4.1V68c2.23 1.68 6.14 2.74 10.79 2.74 4.64 0 8.55-1.06 10.78-2.74z" fill="#0b7609" opacity="1" data-original="#000000"></path><path d="M33.74 62v2.64c0 1.94-4.61 4.1-10.78 4.1s-10.79-2.16-10.79-4.1V62c2.23 1.68 6.14 2.74 10.79 2.74 4.64 0 8.55-1.06 10.78-2.74z" fill="#0b7609" opacity="1" data-original="#000000"></path><path d="M33.74 58.64c0 1.94-4.61 4.1-10.78 4.1s-10.79-2.16-10.79-4.1 4.62-4.11 10.79-4.11 10.78 2.17 10.78 4.11z" fill="#0b7609" opacity="1" data-original="#000000"></path><path d="M29 19v10c0 .55-.45 1-1 1H17v23.19c1.76-.42 3.78-.66 5.96-.66 1.83 0 3.54.17 5.09.47H43c.55 0 1 .45 1 1s-.45 1-1 1h-9.65c1.51 1 2.39 2.25 2.39 3.64 0 .09-.02.18-.03.27.01.05.03.09.03.13v17.6c0 .85-.33 1.64-.93 2.36H48V34c0-2.76 2.24-5 5-5h11V19zm14 27H27c-.55 0-1-.45-1-1s.45-1 1-1h16c.55 0 1 .45 1 1s-.45 1-1 1zm0-8H27c-.55 0-1-.45-1-1s.45-1 1-1h16c.55 0 1 .45 1 1s-.45 1-1 1z" fill="#0b7609" opacity="1" data-original="#000000"></path><path d="M27 19.93V28h-8.29zM57 38h25v7H57zM57 54h8v7h-8zM74 54h8v7h-8zM57 70h8v7h-8zM74 70h8v7h-8z" fill="#0b7609" opacity="1" data-original="#000000"></path></g></svg>