<svg xmlns="http://www.w3.org/2000/svg" version="1.1" xmlns:xlink="http://www.w3.org/1999/xlink" width="512" height="512" x="0" y="0" viewBox="0 0 512 512" style="enable-background:new 0 0 512 512" xml:space="preserve" class=""><g><path d="M48 304h120v80H48zM184 400h120v80H184zM184 304h120v80H184zM48 400h120v80H48zM80 208h112v80H80zM80 112h112v80H80z" fill="#0b7609" opacity="1" data-original="#000000" class=""></path><path d="M272 48a206.32 206.32 0 0 0-132.93 48h26.776A190.948 190.948 0 0 1 272 64c105.869 0 192 86.131 192 192a192.059 192.059 0 0 1-144 185.937v16.5A208 208 0 0 0 480 256c0-114.691-93.309-208-208-208z" fill="#0b7609" opacity="1" data-original="#000000" class=""></path><path d="M320 400v25.364A176.063 176.063 0 0 0 448 256c0-97.047-78.953-176-176-176a175.344 175.344 0 0 0-73.441 16H224v16h-16v80h16v16h-16v80h128v16h-16v80h16v16zm96-152h16v16h-16zm-9.437-78.928 8 13.856-13.855 8-8-13.856zm-5.855 152 13.855 8-8 13.856-13.855-8zm-55.636-207.635 13.856 8-8 13.855-13.856-8zM264 96h16v16h-16zm12 166.928A8 8 0 0 1 264 256V136h16v106.144l71.139-41.072 8 13.856z" fill="#0b7609" opacity="1" data-original="#000000" class=""></path></g></svg>