<svg xmlns="http://www.w3.org/2000/svg" version="1.1" xmlns:xlink="http://www.w3.org/1999/xlink" width="512" height="512" x="0" y="0" viewBox="0 0 64 64" style="enable-background:new 0 0 512 512" xml:space="preserve" class=""><g><path d="M59.997 19.995c.17-8.591-7.42-16.162-15.999-15.992-14.15-.03-21.349 17.352-11.31 27.303 9.96 10.05 27.34 2.84 27.31-11.311zm-21.619-1.28c-1.312-.019-1.318-1.981 0-2h6.32c-.42-1.28-1.62-2.221-3.04-2.221h-3.28c-.56 0-1-.45-1-1s.44-1 1-1h11.24c1.313.021 1.318 1.978 0 2h-3.89c.51.64.88 1.39 1.04 2.22h2.85c1.312.02 1.318 1.98 0 2h-2.85c-.482 2.648-3.01 4.46-5.73 4.22l5.49 4.811c.987.849-.327 2.37-1.31 1.5l-7.5-6.56c-.705-.562-.233-1.78.66-1.75h3.28c1.42 0 2.62-.94 3.04-2.22h-6.32zM13.25 32.996H5c-.55 0-1 .45-1 1v20.922c0 .55.45 1 1 1h8.25c.56 0 1-.45 1-1V33.996c0-.55-.44-1-1-1zm-4.12 7.44c-1.32-.02-1.31-1.98 0-2 1.31.03 1.31 1.98 0 2zM54.964 42.069l-8.499 2.47c-.294 2.94-2.966 5.336-5.92 5.29h-9.848c-1.31-.025-1.316-1.974 0-2h9.849c5.496-.34 5.126-7.91-.46-7.93h-7.27c-.599 0-1.189-.17-1.689-.49-2.444-1.532-5.507-3.922-8.569-3.72H16.25v17.56c.28.03.55.12.8.27l7.72 4.5C27.027 59.34 29.556 60 32.086 60c2.12 0 4.24-.46 6.22-1.4l19.436-9.2c4.31-2.126 1.85-8.593-2.78-7.331z" fill="#094876" opacity="1" data-original="#000000" class=""></path></g></svg>