<svg xmlns="http://www.w3.org/2000/svg" version="1.1" xmlns:xlink="http://www.w3.org/1999/xlink" width="512" height="512" x="0" y="0" viewBox="0 0 128 128" style="enable-background:new 0 0 512 512" xml:space="preserve" class=""><g><g data-name="Glyph"><path d="M89.588 102.615a30.838 30.838 0 0 1 5.25 21.9 7.336 7.336 0 0 1-.374 1.48A1.51 1.51 0 0 0 95.875 128h26.9a4.512 4.512 0 0 0 4.471-3.934A24.512 24.512 0 0 0 109.705 97.7a12 12 0 1 0-13.415 0 24.336 24.336 0 0 0-6.268 2.8 1.509 1.509 0 0 0-.434 2.115ZM.9 124.066A4.513 4.513 0 0 0 5.369 128h26.756a1.51 1.51 0 0 0 1.411-2.008 7.5 7.5 0 0 1-.374-1.479 30.843 30.843 0 0 1 5.3-21.96 1.51 1.51 0 0 0-.439-2.133 24.327 24.327 0 0 0-6.159-2.727 12 12 0 1 0-13.416 0A24.512 24.512 0 0 0 .9 124.066Z" fill="#3d2e97" opacity="1" data-original="#000000"></path><path d="M35.862 120.328a26.856 26.856 0 0 0 .27 3.761A4.552 4.552 0 0 0 40.6 128h46.8a4.551 4.551 0 0 0 4.466-3.911 26.751 26.751 0 0 0 .271-3.761 28.188 28.188 0 0 0-20.953-27.206 13.682 13.682 0 1 0-14.368 0 28.186 28.186 0 0 0-20.954 27.206Z" fill="#3d2e97" opacity="1" data-original="#000000"></path><path d="M123.5 34H102V14h1.5a4.505 4.505 0 0 0 4.5-4.5v-5a4.505 4.505 0 0 0-4.5-4.5h-79A4.505 4.505 0 0 0 20 4.5v5a4.505 4.505 0 0 0 4.5 4.5H26v20H4.5A4.505 4.505 0 0 0 0 38.5v3A4.505 4.505 0 0 0 4.5 46H6v52.29a1.51 1.51 0 0 0 2.414 1.189 29.584 29.584 0 0 1 3.225-2.16 1.508 1.508 0 0 0 .546-2.056A14.976 14.976 0 0 1 25.15 72.75 14.971 14.971 0 0 1 38.1 95.276a1.51 1.51 0 0 0 .572 2.068c.526.29 1.059.616 1.587.97a1.5 1.5 0 0 0 1.89-.176 31.037 31.037 0 0 1 7.351-5.371 1.51 1.51 0 0 0 .555-2.151 16.68 16.68 0 1 1 27.892 0 1.509 1.509 0 0 0 .554 2.15 31.2 31.2 0 0 1 7.399 5.419 1.5 1.5 0 0 0 1.882.186c.5-.33 1.046-.663 1.719-1.05a1.509 1.509 0 0 0 .549-2.058A14.91 14.91 0 0 1 88 87.75a15 15 0 0 1 30 0 14.91 14.91 0 0 1-2.045 7.513 1.509 1.509 0 0 0 .552 2.06 27.386 27.386 0 0 1 3.08 2.048A1.511 1.511 0 0 0 122 98.18V46h1.5a4.505 4.505 0 0 0 4.5-4.5v-3a4.505 4.505 0 0 0-4.5-4.5Zm-119 9A1.5 1.5 0 0 1 3 41.5v-3A1.5 1.5 0 0 1 4.5 37H26v6Zm23 26.5h-8.8a3.2 3.2 0 0 1-3.2-3.2v-9.6a3.2 3.2 0 0 1 3.2-3.2h8.8Zm29-9.2a3.2 3.2 0 0 1-3.2 3.2h-9.6a3.2 3.2 0 0 1-3.2-3.2v-9.6a3.2 3.2 0 0 1 3.2-3.2h9.6a3.2 3.2 0 0 1 3.2 3.2Zm0-26a3.2 3.2 0 0 1-3.2 3.2h-9.6a3.2 3.2 0 0 1-3.2-3.2v-9.6a3.2 3.2 0 0 1 3.2-3.2h9.6a3.2 3.2 0 0 1 3.2 3.2Zm31 26a3.2 3.2 0 0 1-3.2 3.2h-9.6a3.2 3.2 0 0 1-3.2-3.2v-9.6a3.2 3.2 0 0 1 3.2-3.2h9.6a3.2 3.2 0 0 1 3.2 3.2Zm0-26a3.2 3.2 0 0 1-3.2 3.2h-9.6a3.2 3.2 0 0 1-3.2-3.2v-9.6a3.2 3.2 0 0 1 3.2-3.2h9.6a3.2 3.2 0 0 1 3.2 3.2ZM24.5 11A1.5 1.5 0 0 1 23 9.5v-5A1.5 1.5 0 0 1 24.5 3h79a1.5 1.5 0 0 1 1.5 1.5v5a1.5 1.5 0 0 1-1.5 1.5Zm88 55.3a3.2 3.2 0 0 1-3.2 3.2h-8.8v-16h8.8a3.2 3.2 0 0 1 3.2 3.2ZM125 41.5a1.5 1.5 0 0 1-1.5 1.5H102v-6h21.5a1.5 1.5 0 0 1 1.5 1.5Z" fill="#3d2e97" opacity="1" data-original="#000000"></path></g></g></svg>