<svg xmlns="http://www.w3.org/2000/svg" version="1.1" xmlns:xlink="http://www.w3.org/1999/xlink" width="512" height="512" x="0" y="0" viewBox="0 0 512 512" style="enable-background:new 0 0 512 512" xml:space="preserve" class=""><g><path fill-rule="evenodd" d="M92.289 419.48a8.323 8.323 0 0 1-8.324-8.322 8.324 8.324 0 0 1 8.324-8.328h104.177a8.327 8.327 0 0 1 8.326 8.328c0 4.596-3.73 8.322-8.326 8.322zm0-119.537c-4.599 0-8.324-3.727-8.324-8.324s3.726-8.322 8.324-8.322h149.752a8.322 8.322 0 1 1 0 16.646zm0-26.828a8.324 8.324 0 0 1-8.324-8.324c0-4.6 3.726-8.326 8.324-8.326h160.258c4.6 0 8.324 3.727 8.324 8.326a8.324 8.324 0 0 1-8.324 8.324zm0-92.707a8.322 8.322 0 0 1-8.324-8.326 8.327 8.327 0 0 1 8.324-8.324h162.87a8.325 8.325 0 0 1 0 16.65zm0-26.828a8.323 8.323 0 0 1-8.324-8.326c0-4.588 3.726-8.324 8.324-8.324h139.699a8.324 8.324 0 1 1 0 16.65zm248.85-103.168h-44.596v30.811c0 13.59-11.063 24.652-24.652 24.652H139.854c-13.588 0-24.654-11.063-24.654-24.652V50.412H69.301v419.611H210.33c1.373-4.539 2.846-8.902 4.045-12.896 1.705-5.711 4.641-15.695 3.734-21.641-2.241-14.719-1.621-30.006 1.248-45.225a8.304 8.304 0 0 1-5.834 2.391H92.289a8.323 8.323 0 0 1-8.324-8.326 8.321 8.321 0 0 1 8.324-8.322h121.234a8.324 8.324 0 0 1 7.773 5.332c9.93-40.354 35.029-79.316 64.102-104.799-1.043-14.762-5.531-34.748-12.229-47.154l-9.506-17.588 19.021-6.166a221.076 221.076 0 0 1 58.455-10.527zM139.854 89.223h132.037c4.402 0 8.002-3.598 8.002-8V46.5c0-4.404-3.604-8.004-8.002-8.004H259.09V23.211c0-9.467-7.746-17.209-17.205-17.209h-72.021c-9.465 0-17.207 7.748-17.207 17.209v15.285h-12.803c-4.396 0-8.004 3.6-8.004 8.004v34.723c0 4.402 3.604 8 8.004 8zm66.658 397.441H60.977a8.323 8.323 0 0 1-8.324-8.328V50.412h-6.586c-7.034.018-12.732 5.717-12.746 12.754V493.25c.018 7.031 5.712 12.73 12.746 12.748h162.502c-2.6-5.935-2.91-12.578-2.057-19.334zM399.18 278.545c.744-17.377 6.086-41.736 14.371-57.072a203.85 203.85 0 0 0-62.869-9.926 203.84 203.84 0 0 0-62.866 9.926c8.29 15.346 13.63 39.709 14.37 57.096a166.58 166.58 0 0 0 48.496 7.189c16.054 0 33.177-2.371 48.498-7.213zm27.916 17.334c7.016 2.941 15.439 7.395 20.711 12.99a5.33 5.33 0 1 0 7.767-7.301c-4.625-4.918-12.817-10.619-23.638-15.201-6.232-2.648-13.367-4.945-21.223-6.533 5.789 5.146 11.167 10.297 16.383 16.045zm-8.412 197.848c3.89-1.355 7.48-2.844 10.699-4.455 3.04-1.525 5.797-3.191 8.209-4.986a5.33 5.33 0 0 1 6.35 8.56c-3.253 2.422-6.733 4.418-10.357 6.225 79.924 26.43 28.217-33.248 33.214-66.09 7.905-51.912-24.877-111.076-60.997-143.215l-.301-.051c-.143 3.783.12 8.578 1.162 13.455 1.074 5.023 2.975 10.018 6.108 13.807a5.332 5.332 0 0 1-.711 7.51 5.331 5.331 0 0 1-7.515-.711c-4.354-5.25-6.928-11.873-8.322-18.393-1.092-5.102-1.459-10.207-1.41-14.535a176.935 176.935 0 0 1-44.131 5.609 177.152 177.152 0 0 1-51.658-7.723 5.265 5.265 0 0 1-1.469-.705c-38.631 33.188-70.787 93.758-62.985 144.951 4.995 32.842-46.71 92.52 33.212 66.09-3.623-1.807-7.104-3.803-10.355-6.225a5.325 5.325 0 0 1-1.105-7.453 5.325 5.325 0 0 1 7.452-1.107c2.413 1.795 5.171 3.461 8.21 4.986 3.219 1.611 6.81 3.1 10.701 4.455 37.629 13.024 98.367 13.024 135.999.001zM377.118 63.166c-.017-7.037-5.717-12.736-12.751-12.754h-6.578V195.01c6.465.211 12.914.701 19.329 1.479z" clip-rule="evenodd" fill="#0b7609" opacity="1" data-original="#000000" class=""></path></g></svg>